<?xml version="1.0"?>
<svg xmlns="http://www.w3.org/2000/svg" xmlns:xlink="http://www.w3.org/1999/xlink" xmlns:svgjs="http://svgjs.com/svgjs" version="1.1" width="512" height="512" x="0" y="0" viewBox="0 0 511.999 511.999" style="enable-background:new 0 0 512 512" xml:space="preserve" class=""><g>
<g xmlns="http://www.w3.org/2000/svg">
	<g>
		<path d="M415.106,222.186l-10.514-10.514c-2.949-2.949-7.73-2.95-10.678-0.001c-2.948,2.949-2.949,7.73,0,10.678l4.93,4.931    c-14.511,12.071-32.613,18.642-51.723,18.642c-21.647,0-42-8.43-57.307-23.737c-29.8-29.8-31.499-77.221-5.092-109.028    l83.507,83.508c2.948,2.948,7.729,2.948,10.678,0c2.949-2.95,2.949-7.73,0-10.679l-5.841-5.841l20.931-52.328    c2.413-6.032-3.778-12.236-9.815-9.815l-52.326,20.932l-42.04-42.04c-2.906-2.907-7.771-2.907-10.678,0    c-37.488,37.488-37.488,98.483,0,135.972c18.159,18.158,42.303,28.159,67.985,28.159s49.826-10.001,67.985-28.16    C418.055,229.914,418.055,225.134,415.106,222.186z M373.433,138.566l-11.984,29.961l-4.413-4.413l-13.564-13.565L373.433,138.566    z" fill="#9a073c" data-original="#000000" style="" class=""/>
	</g>
</g>
<g xmlns="http://www.w3.org/2000/svg">
	<g>
		<path d="M465.671,46.329c-18.16-18.161-42.304-28.162-67.986-28.162c-4.17,0-7.551,3.38-7.551,7.551    c0,4.171,3.382,7.551,7.552,7.551c21.647,0,42,8.431,57.307,23.738c15.307,15.306,23.737,35.658,23.737,57.306    c0,4.171,3.381,7.551,7.551,7.551c4.17,0,7.551-3.381,7.551-7.551C493.832,88.63,483.83,64.487,465.671,46.329z" fill="#9a073c" data-original="#000000" style="" class=""/>
	</g>
</g>
<g xmlns="http://www.w3.org/2000/svg">
	<g>
		<path d="M442.891,69.108c-12.075-12.074-28.129-18.725-45.205-18.725c-4.17,0-7.551,3.38-7.551,7.551s3.381,7.551,7.551,7.551    c13.043,0,25.304,5.079,34.527,14.302c9.222,9.222,14.301,21.483,14.301,34.526c0,4.171,3.381,7.551,7.551,7.551    c4.17,0,7.551-3.38,7.551-7.551C461.615,97.237,454.966,81.183,442.891,69.108z" fill="#9a073c" data-original="#000000" style="" class=""/>
	</g>
</g>
<g xmlns="http://www.w3.org/2000/svg">
	<g>
		<path d="M420.111,91.889c-5.989-5.988-13.953-9.288-22.424-9.289c-4.17,0-7.551,3.38-7.551,7.55c0,4.17,3.379,7.551,7.549,7.552    c4.438,0.001,8.61,1.73,11.747,4.867c3.137,3.136,4.866,7.308,4.866,11.745c0,4.171,3.381,7.551,7.551,7.551    s7.551-3.38,7.551-7.551C429.399,105.842,426.1,97.878,420.111,91.889z" fill="#9a073c" data-original="#000000" style="" class=""/>
	</g>
</g>
<g xmlns="http://www.w3.org/2000/svg">
	<g>
		<path d="M509.788,419.378L373.105,282.694c-2.907-2.907-7.771-2.907-10.678,0L327.9,317.221l-38.441-38.441l11.746-11.746    c2.908-2.909,2.908-7.771,0-10.679l-45.561-45.561c-2.948-2.947-7.729-2.949-10.678,0l-11.747,11.746l-38.441-38.442    l34.526-34.526c2.949-2.95,2.949-7.73,0-10.679L92.621,2.211c-2.906-2.907-7.771-2.907-10.678,0L2.212,81.943    c-2.949,2.95-2.949,7.73,0,10.679l136.683,136.683c2.906,2.906,7.771,2.906,10.678,0l34.527-34.527l38.441,38.441l-11.746,11.746    c-2.908,2.909-2.908,7.771,0,10.679l6.051,6.051l-11.746,11.746c-2.908,2.909-2.908,7.771,0,10.679l22.78,22.781    c2.906,2.906,7.771,2.906,10.678,0l11.746-11.746l6.051,6.051c2.91,2.909,7.769,2.909,10.678,0l11.747-11.746l38.441,38.442    l-34.526,34.526c-2.949,2.95-2.949,7.73,0,10.679l136.683,136.683c2.906,2.906,7.771,2.906,10.678,0l79.732-79.732    C512.737,427.106,512.737,422.326,509.788,419.378z M167.725,98.672l-29.187,29.187l-34.882-34.882l29.187-29.187L167.725,98.672z     M87.282,18.229l34.882,34.882L92.977,82.298L58.095,47.416L87.282,18.229z M53.13,122.182l-34.9-34.9l29.187-29.187    l34.882,34.882l-28.831,28.831C53.347,121.929,53.24,122.056,53.13,122.182z M98.69,167.743l-34.919-34.919    c0.126-0.11,0.254-0.217,0.373-0.337l28.832-28.832l34.882,34.882l-28.832,28.831C98.908,167.49,98.8,167.617,98.69,167.743z     M144.234,213.287l-34.9-34.901c0.126-0.11,0.254-0.217,0.374-0.337l28.832-28.832l34.882,34.882L144.234,213.287z     M149.217,138.538l29.187-29.187l34.882,34.882l-29.187,29.187L149.217,138.538z M233.219,290.882l-12.102-12.102l6.407-6.406    l12.102,12.102L233.219,290.882z M261.695,285.187l-34.882-34.882l23.493-23.492l34.882,34.882L261.695,285.187z M448.21,379.156    l-29.188,29.187l-34.882-34.882l29.188-29.187L448.21,379.156z M367.766,298.712l34.882,34.882l-29.188,29.187l-34.882-34.882    L367.766,298.712z M333.614,402.666l-34.9-34.9l29.187-29.187l34.882,34.882l-28.831,28.831    C333.831,402.413,333.724,402.54,333.614,402.666z M379.174,448.227l-34.919-34.919c0.126-0.11,0.254-0.217,0.374-0.337    l28.832-28.832l34.882,34.882l-28.831,28.831C379.392,447.973,379.284,448.1,379.174,448.227z M424.718,493.77l-34.9-34.901    c0.126-0.11,0.254-0.217,0.374-0.337l28.832-28.832l34.882,34.882L424.718,493.77z M464.583,453.904l-34.882-34.882l29.188-29.188    l34.882,34.882L464.583,453.904z" fill="#9a073c" data-original="#000000" style="" class=""/>
	</g>
</g>
<g xmlns="http://www.w3.org/2000/svg">
</g>
<g xmlns="http://www.w3.org/2000/svg">
</g>
<g xmlns="http://www.w3.org/2000/svg">
</g>
<g xmlns="http://www.w3.org/2000/svg">
</g>
<g xmlns="http://www.w3.org/2000/svg">
</g>
<g xmlns="http://www.w3.org/2000/svg">
</g>
<g xmlns="http://www.w3.org/2000/svg">
</g>
<g xmlns="http://www.w3.org/2000/svg">
</g>
<g xmlns="http://www.w3.org/2000/svg">
</g>
<g xmlns="http://www.w3.org/2000/svg">
</g>
<g xmlns="http://www.w3.org/2000/svg">
</g>
<g xmlns="http://www.w3.org/2000/svg">
</g>
<g xmlns="http://www.w3.org/2000/svg">
</g>
<g xmlns="http://www.w3.org/2000/svg">
</g>
<g xmlns="http://www.w3.org/2000/svg">
</g>
</g></svg>
