<?xml version="1.0" encoding="UTF-8"?>
<svg data-bbox="0 28.007 480.094 424.081" viewBox="0 0 480.094 480.094" height="512" width="512" xmlns="http://www.w3.org/2000/svg" data-type="color">
    <g>
        <path fill="#9a073c" d="M376 244.007c0 8.837-7.163 16-16 16s-16-7.163-16-16 7.163-16 16-16 16 7.163 16 16z" xmlns="http://www.w3.org/2000/svg" data-color="1"/>
        <path fill="#9a073c" d="M400 124.007H272a8 8 0 0 0 0 16h120v24a8 8 0 0 0 16 0v-32a8 8 0 0 0-8-8z" xmlns="http://www.w3.org/2000/svg" data-color="1"/>
        <path fill="#9a073c" d="M160 348.007H80.968a32.752 32.752 0 0 1-23.312-9.656A33.226 33.226 0 0 1 48 315.039v-31.032a8 8 0 0 0-16 0v31.032c.004 27.042 21.926 48.964 48.968 48.968H160a8 8 0 0 0 0-16z" xmlns="http://www.w3.org/2000/svg" data-color="1"/>
        <path fill="#9a073c" d="M456.239 338.244A64.001 64.001 0 0 0 440 328.719v-36.712h24a8 8 0 0 0 8-8v-80a8 8 0 0 0-8-8h-24v-96a8 8 0 0 0-8-8h-32v-24a8 8 0 0 0-8-8h-64v-24a8 8 0 0 0-8-8H40.68a39.592 39.592 0 0 0-27.792 11.504l-1.376 1.376A39.053 39.053 0 0 0 .408 73.999 7.65 7.65 0 0 0 0 76.007v257.368c0 34.588 28.036 62.628 62.624 62.632h209.928c4.347 35.007 36.249 59.861 71.256 55.515a63.866 63.866 0 0 0 32.136-13.595c27.527 22.173 67.816 17.833 89.989-9.694 22.173-27.527 17.833-67.816-9.694-89.989zM456 212.007v64H352.568c-17.673 0-32-14.327-32-32s14.327-32 32-32H456zM22.824 52.207l1.368-1.368a23.448 23.448 0 0 1 16.488-6.832H312v16H56a8 8 0 0 0 0 16h328v16H39.32c-12.879-.002-23.318-10.444-23.317-23.323a23.317 23.317 0 0 1 6.821-16.477zm249.728 327.8H62.624c-25.75 0-46.624-20.874-46.624-46.624v-233.16a39.382 39.382 0 0 0 23.32 7.784H424v88h-71.432c-26.51 0-48 21.49-48 48s21.49 48 48 48H424v32.552a64.471 64.471 0 0 0-8-.552 63.414 63.414 0 0 0-40 14.104c-27.483-22.121-67.695-17.775-89.817 9.708a63.881 63.881 0 0 0-13.631 32.188zm63.448 56c-26.51 0-48-21.49-48-48s21.49-48 48-48 48 21.49 48 48c-.026 26.498-21.501 47.973-48 48zm80 0a47.612 47.612 0 0 1-28.848-9.696c17.131-22.663 17.131-53.945 0-76.608A47.526 47.526 0 0 1 416 340.007c26.51 0 48 21.49 48 48 0 26.509-21.49 48-48 48z" xmlns="http://www.w3.org/2000/svg" data-color="1"/>
    </g>
</svg>
