<?xml version="1.0" encoding="UTF-8"?>
<svg data-bbox="0 0 914.816 687.575" viewBox="0 0 914.817 687.575" height="687.575" width="914.817" xmlns="http://www.w3.org/2000/svg" data-type="ugc">
    <g>
        <path opacity=".4" fill="#9a073c" d="M794.018 242.425c0 12.106-9.814 21.92-21.92 21.92-12.106 0-21.92-9.814-21.92-21.92 0-12.106 9.814-21.92 21.92-21.92 12.106 0 21.92 9.814 21.92 21.92z"/>
        <path opacity=".4" fill="#9a073c" d="M341.178 112.501c0 17.258-13.99 31.248-31.248 31.248-17.258 0-31.248-13.99-31.248-31.248 0-17.258 13.99-31.248 31.248-31.248 17.258 0 31.248 13.99 31.248 31.248z"/>
        <path opacity=".4" fill="#9a073c" d="M274.018 127.425c0 12.106-9.814 21.92-21.92 21.92-12.106 0-21.92-9.814-21.92-21.92 0-12.106 9.814-21.92 21.92-21.92 12.106 0 21.92 9.814 21.92 21.92z"/>
        <path fill="#3f3d56" d="M790.457 487.549c-17.32 18.962-17.95 46.585-17.95 46.585s27.453-3.122 44.773-22.084 17.95-46.585 17.95-46.585-27.453 3.122-44.773 22.084z"/>
        <path fill="#9a073c" d="M800.241 493.005c-5.241 25.142-27.272 41.816-27.272 41.816s-13.534-24.088-8.293-49.23 27.272-41.815 27.272-41.815 13.534 24.088 8.293 49.23z"/>
        <path fill="#3f3d56" d="M777.746 233.581v299.708l-99.903 82.529H166.746V301.631l149.13-68.05h461.87z"/>
        <path opacity=".1" d="M777.746 233.581v1.201l-35.864 24.006-64.039 42.843H166.746l149.13-68.05h461.87z"/>
        <path opacity=".1" d="M777.746 233.581v299.708l-99.903 82.529.724-314.911 63.315-42.119 35.285-25.207h.579z"/>
        <path fill="#2f2e41" d="M643.094 274.845H331.803l23.166-13.031H653.23l-10.136 13.031z"/>
        <path fill="#2f2e41" d="M911.76 632.119s6.035 25.236.549 26.334-32.368.743-38.952 1.84-20.299-.743-20.299-5.68 14.264-8.23 14.264-8.23 20.3-10.972 20.848-11.52 23.59-2.744 23.59-2.744z"/>
        <path fill="#575a89" d="M906.823 483.444s-1.646 18.653-1.646 20.299 1.646 27.43 0 28.528 1.097 8.778 1.097 11.52 8.778 48.28 6.583 65.835 3.292 15.91 1.646 17.556-1.646 1.645-1.646 4.937-17.555 6.035-17.555 6.035L876.1 516.91l9.875-36.209z"/>
        <path opacity=".1" d="M906.823 483.444s-1.646 18.653-1.646 20.299 1.646 27.43 0 28.528 1.097 8.778 1.097 11.52 8.778 48.28 6.583 65.835 3.292 15.91 1.646 17.556-1.646 1.645-1.646 4.937-17.555 6.035-17.555 6.035L876.1 516.91l9.875-36.209z"/>
        <path fill="#2f2e41" d="M904.08 639.8s5.486 19.75 0 20.847-32.369-1.257-38.952-.16-20.299 1.257-20.299-3.68 14.264-8.23 14.264-8.23 20.299-10.972 20.848-11.52 24.139 2.743 24.139 2.743z"/>
        <path fill="#575a89" d="M911.76 461.5s6.584 15.91-1.097 24.139-16.458 24.687-16.458 25.785 15.36 110.271 13.166 117.403-1.646 11.521-1.097 12.619-5.486 7.132-12.07 7.132-16.458-4.938-17.555-9.327 1.646-42.243 1.097-49.375-3.292-17.556-4.389-19.75-7.132-4.39-8.23-10.973-9.874-90.521-7.131-93.264 53.764-4.39 53.764-4.39z"/>
        <path fill="#ffb9b9" d="M888.719 316.665c0 10.302-8.351 18.653-18.653 18.653-10.302 0-18.653-8.351-18.653-18.653 0-10.302 8.351-18.653 18.653-18.653 10.302 0 18.653 8.351 18.653 18.653z"/>
        <path fill="#ffb9b9" d="M881.586 325.991s-3.84 20.3-1.097 22.494-20.847 5.486-20.847 5.486-2.743-26.882-3.292-29.625 25.236 1.645 25.236 1.645z"/>
        <path fill="#9a073c" d="M856.35 352.325s6.583-19.202 33.466-13.715c0 0 4.937 1.645 3.291 3.291s-3.291 1.646-1.097 3.292 4.938 0 3.292 1.646 14.812 11.52 13.715 30.174 3.84 44.986 0 49.375 2.743 23.59 1.646 27.43 6.583 8.779 3.292 10.425-62.543 11.52-64.188 0-.549-3.292-2.195-6.035-2.194-7.68-1.097-13.716 3.84-20.847 2.743-26.333 0-51.57 3.292-57.056 3.84-8.778 3.84-8.778z"/>
        <path fill="#ffb9b9" d="M867.871 486.187s8.23 31.271-2.194 31.271-9.876-32.368-9.876-32.368z"/>
        <path fill="#2f2e41" d="M861.836 316.665c0 1.591 2.304 2.6 5.876 2.83h.005a29.891 29.891 0 0 0 4.543-.087c2.282-.208 3.226 1.937 3.615 4.768.637 4.668-.252 11.213.774 12.24 1.415 1.415 11.735-.006 14.96-3.216a2.981 2.981 0 0 0 .95-1.722 9.166 9.166 0 0 1 2.754-5.119c1.903-2.08 4.614-4.383 7.67-8.048 5.486-6.584 0-7.132-1.646-12.07s-4.39-6.583-4.39-9.875-12.618-6.035-23.041-5.486-8.23 13.715-8.23 13.715-.62 1.591-1.36 3.643a57.214 57.214 0 0 0-2.436 7.911 3.986 3.986 0 0 0-.044.516z"/>
        <path opacity=".1" d="M864.031 360.554s18.653-1.097 20.298 26.334 1.098 53.216 1.098 53.764-7.68 52.667-14.813 52.667-12.618-1.097-14.264-3.84 4.389-42.243 4.389-42.243 2.743-41.695-1.646-54.862-4.937-30.174 4.938-31.82z"/>
        <path fill="#9a073c" d="M861.288 357.811s18.653-1.097 20.298 26.334 1.098 53.215 1.098 53.764-7.681 52.667-14.813 52.667-12.618-1.097-14.264-3.84 4.389-42.244 4.389-42.244 2.743-41.694-1.646-54.861-4.938-30.174 4.938-31.82z"/>
        <path fill="#a0616a" d="M551.981 89.641s-8.129-23.032-14-15.807 9.032 19.42 9.032 19.42z"/>
        <path fill="#575a89" d="M590.368 67.06l-4.89 1.813s-2.336 10.38-1.432 12.187 1.354.452 0 4.065-5.42 13.097-5.871 14.451-26.194-8.58-26.194-13.548c0 0-5.42 6.323-8.13 7.677 0 0 29.807 21.678 33.872 24.388s6.323 1.354 9.935-1.807 18.968-29.355 18.968-29.355z"/>
        <path fill="#2f2e41" d="M577.271 227.383s.452 4.968 1.355 5.42 7.678 11.741 0 14-12.193 1.354-14 2.258-33.42 2.71-33.87-2.259 15.354-5.87 15.354-5.87 14.452-9.484 16.71-14.452 14.451.903 14.451.903z"/>
        <path fill="#2f2e41" d="M668.949 236.415s10.839 18.517 8.129 20.775-29.099 10.487-32.968 10.838c-4.968.452-8.58-3.613-4.516-5.87s12.645-11.743 12.645-14.904v-8.129z"/>
        <path fill="#2f2e41" d="M679.336 115.383s9.484 11.742-5.42 30.71l-24.838 31.613s15.355 24.387 15.806 37.032 3.613 9.935 4.517 15.355 4.967 2.71 1.806 6.774-14.903 7.677-18.516 4.516a11.196 11.196 0 0 1-3.613-9.032c0-1.807-6.323-12.194-6.774-15.355s-17.162-28.903-17.162-28.903-5.419-15.355.904-23.936 10.5-20.75 10.5-20.75-18.63 22.557-31.726 27.976c0 0-4.968.903-4.065 3.161s0 3.613-1.355 5.871-10.838 28.452-14 35.226-1.806 10.839-5.419 13.097-19.87.452-19.87-1.806 2.257-8.13 3.612-11.29 12.194-39.743 11.29-46.065.452-14.904 7.226-18.517 41.097-32.967 42.903-32.967 54.194-2.71 54.194-2.71z"/>
        <path fill="#a0616a" d="M607.53 25.512c0 10.476-8.492 18.968-18.968 18.968-10.476 0-18.968-8.492-18.968-18.968 0-10.476 8.492-18.968 18.968-18.968 10.476 0 18.968 8.492 18.968 18.968z"/>
        <path fill="#a0616a" d="M603.917 27.318s5.87 10.387 13.096 11.742-18.967 22.13-18.967 22.13-6.323-19.872-11.742-20.775 17.613-13.097 17.613-13.097z"/>
        <path fill="#575a89" d="M585.4 69.77c0 5.87 17.613 22.58 17.613 22.58l16.71 14s.452 4.968 2.258 5.42 4.065.452 2.258 3.161-6.322 8.58-2.258 9.484a33.199 33.199 0 0 0 3.699.352c1.084.064 2.357.122 3.789.177 3.342.117 7.524.194 12.054.162q1.93-.007 3.929-.045c17.075-.339 36.856-2.303 35.239-8.775-2.71-10.839-.903-14.452-6.774-20.323S658.562 69.77 658.562 69.77s-18.968-32.065-34.774-32.065l-3.284-.862a7.519 7.519 0 0 0-8.205 3.152c-3.17 4.828-8.17 12.08-11.092 14.42-4.516 3.613-5.22 1.02-5.22 1.02S585.4 63.899 585.4 69.77z"/>
        <path fill="#a0616a" d="M625.594 138.415s-13.097 20.323-4.968 23.936 12.646-21.226 12.646-21.226z"/>
        <path fill="#2f2e41" d="M600.962 23.369c-.728-.092-.958-1.01-1.08-1.733-.657-3.875-3.544-7.548-7.423-8.174a10.51 10.51 0 0 0-4.423.357 16.78 16.78 0 0 0-5.674 2.793 9.36 9.36 0 0 1-2.836 1.78c-.711.21-3.733 1.553-4.44 1.78-1.552.5-2.837 2.125-4.435 1.803-1.53-.308-2.111-2.155-2.357-3.695-.56-3.51 1.45-8.748 3.447-11.689 1.516-2.231 4.081-3.515 6.646-4.35a47.752 47.752 0 0 1 9.218-1.832c4.219-.498 8.588-.763 12.632.541s7.724 4.495 8.48 8.675c.156.871.186 1.763.379 2.627.47 2.107 1.864 3.878 2.677 5.878a11.319 11.319 0 0 1-.345 9.176c-1.126 2.264-3.085 4.44-2.662 6.934l-3.485-2.748a2.531 2.531 0 0 1-1.163-2.962l.506-4.364a3.84 3.84 0 0 0-.226-2.36c-1.549-2.705-2.222 1.716-3.436 1.563z"/>
        <path opacity=".1" d="M633.723 107.254l-4.254 17.69c4.29.153 9.967.234 15.983.117 1.517-4.552 2.967-9.299 4.078-13.743 4.064-16.258-2.71-41.096-6.323-52.838s-12.645-14.904-12.645-14.904a41.185 41.185 0 0 0-10.387 5.42c-5.871 4.064 13.548 58.258 13.548 58.258z"/>
        <path opacity=".1" d="M630.11 106.351l-4.43 18.416c1.084.064 2.357.122 3.789.177 3.342.117 7.524.194 12.054.162 1.63-4.837 3.206-9.94 4.394-14.69 4.064-16.259-2.71-41.098-6.323-52.84s-11.516 1.13-11.516 1.13 3.161-7.678-2.71-3.614 4.742 51.259 4.742 51.259z"/>
        <path fill="#575a89" d="M628.755 42.673s9.033 3.161 12.646 14.903 10.387 36.581 6.322 52.84-12.645 36.58-12.645 36.58-8.58-6.323-11.742-4.968l8.58-35.677s-19.419-54.194-13.548-58.259a41.185 41.185 0 0 1 10.387-5.419z"/>
        <path fill="#f2f2f2" d="M635.488 269.199L510.541 8.828 301.62 109.085l76.836 160.114h257.032z"/>
        <path fill="#3f3d56" d="M468.262 111.03l3.305 6.888-110.966 53.25-3.305-6.888 110.966-53.25z"/>
        <path fill="#3f3d56" d="M497.642 172.254l3.305 6.887-110.966 53.25-3.305-6.888 110.966-53.25z"/>
        <path fill="#3f3d56" d="M517.823 75.008l13.22 27.55-27.55 13.22-13.22-27.55 27.55-13.22z"/>
        <path fill="#3f3d56" d="M547.202 136.23l13.22 27.55-27.55 13.22-13.22-27.55 27.55-13.22z"/>
        <path fill="#57b894" d="M519.718 55.924l-11.346 32.282-15.295-5.376-2.093 5.955 21.23 7.461 13.458-38.229-5.954-2.093z"/>
        <path fill="#57b894" d="M549.097 117.146l-11.346 32.282-15.294-5.375-2.093 5.954 21.229 7.461 13.459-38.229-5.955-2.093z"/>
        <g>
            <path fill="#f2f2f2" d="M12.058 568.87L0 512.42l56.45-12.06 12.059 56.45-56.45 12.06z"/>
            <path fill="#ffb9b9" d="M66.938 485.279s-20.734 14.81-13.823 20.734 20.734-17.772 20.734-17.772z"/>
            <path fill="#ffb9b9" d="M162.71 507.987s-3.95 49.368-4.936 56.28-1.975 69.113-3.95 76.025-3.95 23.696-3.95 23.696h-11.846s.987-30.608-1.975-42.456-1.975-44.43-1.975-44.43-5.924-58.254-2.962-66.152 31.595-2.962 31.595-2.962z"/>
            <path fill="#2f2e41" d="M146.913 661.026s4.936 2.962 4.936 4.937-.987 6.911 0 8.886 7.9 9.873 3.95 11.848-21.722 0-21.722 0 .988-13.823 1.975-14.81-.987-10.861-.987-10.861z"/>
            <path fill="#ffb9b9" d="M87.234 506.777s-1.255 49.51-.998 56.487-5.291 68.94-4.053 76.02 1.44 23.98 1.44 23.98l11.783 1.243s2.23-30.542 6.42-42.014 6.628-43.978 6.628-43.978 12.006-57.31 9.89-65.475-31.11-6.262-31.11-6.262z"/>
            <path fill="#2f2e41" d="M86.88 660.629s-5.22 2.427-5.428 4.391.257 6.977-.932 8.837-8.892 8.99-5.172 11.368 21.602 2.28 21.602 2.28.469-13.85-.41-14.936 2.123-10.697 2.123-10.697z"/>
            <path fill="#2f2e41" d="M148.888 433.937s7.898.987 10.86 17.772 13.823 59.24 4.937 62.203-35.544 8.886-36.532 6.911-2.962-6.911-2.962-6.911 2.962 8.886-.987 8.886-42.456-5.924-41.469-8.886 2.962-24.684 2.962-24.684 5.925-36.532 11.849-42.456a16.192 16.192 0 0 0 4.936-12.835z"/>
            <path fill="#ffb9b9" d="M163.698 426.038s-12.836-2.962-14.81.987 4.936 9.874 7.898 9.874 7.899-2.962 7.899-2.962z"/>
            <path fill="#ffb9b9" d="M154.812 324.342c0 9.815-7.957 17.772-17.772 17.772-9.815 0-17.772-7.957-17.772-17.772 0-9.815 7.957-17.772 17.772-17.772 9.815 0 17.772 7.957 17.772 17.772z"/>
            <path fill="#ffb9b9" d="M134.078 337.177S131.115 351 133.09 351s-14.81 8.886-14.81 8.886l-12.836-1.975-3.949-5.924s20.734-13.823 20.734-21.721 11.848 6.911 11.848 6.911z"/>
            <path fill="#9a073c" d="M125.191 351s2.962-1.975 3.95-1.975h7.898c.988 0 13.823 2.962 13.823 2.962l7.899 44.43s-13.823 22.71-3.95 40.482c0 0-2.961-1.975-16.784-.988s-38.507 3.95-39.494 3.95-.987-7.899 0-9.874-.987-.987-.987-5.924-2.962-13.823-2.962-13.823l-13.823-50.353s17.772-9.874 20.734-8.886 11.848 3.95 13.823 2.962 9.873-2.962 9.873-2.962z"/>
            <path fill="#9a073c" d="M147.9 352.975l2.962-.988s5.924-.987 12.836 4.937 32.582 23.696 32.582 23.696 9.873 7.899 6.911 16.785-7.898 30.608-22.709 29.62c0 0-8.886 11.848-13.822 9.874s-8.886-9.874-5.924-10.861 10.86-10.86 10.86-10.86l-9.873-18.76h-2.962l-10.86-5.924z"/>
            <path fill="#9a073c" d="M88.659 358.899l-7.898.987s-6.912 2.962-5.924 15.797-5.924 71.09-2.962 78c0 0-9.874 33.57-7.9 34.558s13.824 6.911 12.836 2.962 10.861-31.595 10.861-31.595 13.823-14.81 7.899-35.545v-16.785z"/>
            <path fill="#2f2e41" d="M151.831 341.524l-12.552 2.734-1.613-6.18.62 6.397-20.249 4.411-.89-3.412.342 3.531-12.969 2.826-2.774-26.632c-2.853-10.929 7.557-22.576 18.486-25.428l4.848-1.266c8.026-2.095 22.616-.19 24.711 7.837-3.666 13.994-9.917 29.335 2.04 35.182z"/>
        </g>
    </g>
</svg>
