<?xml version="1.0" encoding="UTF-8"?>
<svg data-bbox="0 0.002 718.585 557.815" viewBox="0 0 718.586 557.817" height="557.817" width="718.586" xmlns="http://www.w3.org/2000/svg" data-type="color">
    <g>
        <path fill="#e6e6e6" d="M666 546.817c0 6.075-149.09 11-333 11s-333-4.925-333-11 149.09-11 333-11 333 4.925 333 11z" data-color="1"/>
        <path fill="#9a073c" d="M369 137.817c0 22.644-18.356 41-41 41s-41-18.356-41-41 18.356-41 41-41 41 18.356 41 41z" data-color="2"/>
        <path fill="#ffb8b8" d="M317.155 232.617l-18.552-14.198-66.42 120.3a10.8 10.8 0 1 0 12.619 9.069z" data-color="3"/>
        <path fill="#ffb8b8" d="M486.5 300.897a10.807 10.807 0 0 0-10.65-7.269l-107.015-83.946-16.052 16.974 112.736 78.579a10.802 10.802 0 1 0 20.98-4.338z" data-color="3"/>
        <path fill="#ffb8b8" d="M362.3 535.033h12.608l6-48.629H362.3v48.629z" data-color="3"/>
        <path fill="#2f2e41" d="M399.223 546.738h-39.624v-15.309h24.315a15.31 15.31 0 0 1 15.309 15.31z" data-color="4"/>
        <path fill="#ffb8b8" d="M262.401 523.777l11.583 4.978 24.714-42.309-17.096-7.347-19.201 44.678z" data-color="3"/>
        <path fill="#2f2e41" d="M291.7 549.11l-36.405-15.645 6.044-14.065 22.34 9.6a15.31 15.31 0 0 1 8.02 20.112z" data-color="4"/>
        <path fill="#2f2e41" d="M301.698 301.867l-59.974 188.934 78.716 8.434L328 388.818l10.245 110.417 63.723-7.497s-11.511-174.878-32.463-186.123-67.807-3.748-67.807-3.748z" data-color="4"/>
        <path fill="#ffb8b8" d="M360.456 162.462c0 14.491-11.748 26.239-26.239 26.239-14.491 0-26.239-11.748-26.239-26.239 0-14.491 11.748-26.239 26.239-26.239 14.491 0 26.239 11.748 26.239 26.239z" data-color="3"/>
        <path fill="#2f2e41" d="M333.376 310.336c-18.219 0-35.753-.808-36.656-2.374a.663.663 0 0 1 .128-.826c1.253-1.846-1.69-31.847-7.886-80.236a25.066 25.066 0 0 1 16.508-26.711l.116-.027 54.914-5.423.615.173a24.844 24.844 0 0 1 18.158 25.157c-1.416 30.868-3.792 83.15-3.792 86.483 0 .907-1.262 1.361-2.362 1.656-5.347 1.433-22.84 2.128-39.743 2.128zm-35.82-2.493z" data-color="4"/>
        <path fill="#f2f2f2" d="M111.648 92.218l76.518 61.23-61.23 76.518-76.517-61.23 61.23-76.518z" data-color="5"/>
        <path fill="#3f3d56" d="M126.406 247.145a22 22 0 1 1 25.064-18.433 22 22 0 0 1-25.064 18.433zm6.33-41.52a20 20 0 1 0 16.757 22.786 20.022 20.022 0 0 0-16.757-22.786z" data-color="6"/>
        <path fill="#e6e6e6" d="M79.577 495.204c-7.51 25.086 4.146 50.734 4.146 50.734s23.831-15.025 31.341-40.111-4.145-50.735-4.145-50.735-23.832 15.025-31.342 40.112z" data-color="1"/>
        <path fill="#e6e6e6" d="M90.98 495.882c6.32 25.412-6.53 50.483-6.53 50.483s-23.097-16.13-29.417-41.542 6.529-50.483 6.529-50.483 23.097 16.13 29.418 41.542z" data-color="1"/>
        <path fill="#9a073c" d="M297.317 145.083a90.61 90.61 0 0 0 45.543 11.004c6.083-.158 12.786-1.264 16.638-5.975 4.348-5.315 3.26-13.62-.933-19.058s-10.754-8.502-17.299-10.581c-6.192-1.967-12.827-3.234-19.176-1.859a23.879 23.879 0 0 0-17.305 31.725" data-color="2"/>
        <path fill="#9a073c" d="M322 108.817c0 12.703-10.297 23-23 23s-23-10.297-23-23 10.297-23 23-23 23 10.297 23 23z" data-color="2"/>
        <path fill="#3f3d56" d="M714.613 111.368l-90.284-52.621 11.582-19.871a5 5 0 1 0-8.64-5.036l-11.582 19.871L525.405 1.09a8 8 0 0 0-10.94 2.883l-70.497 120.956a8 8 0 0 0 2.883 10.94l90.284 52.622-79.057 135.642a5 5 0 1 0 8.64 5.036l79.057-135.643 90.284 52.621a8 8 0 0 0 10.94-2.883l70.498-120.955a8 8 0 0 0-2.884-10.94z" data-color="6"/>
        <path style="isolation:isolate" opacity=".1" d="M561.597 156.449c18.132 10.567 30.576 23.002 27.795 27.774s-19.734.073-37.866-10.495-30.577-23.003-27.796-27.775 19.735-.072 37.867 10.496z" fill="#000000" data-color="7"/>
        <path fill="#9a073c" d="M628.732 123.618c0 26.51-21.49 48-48 48s-48-21.49-48-48 21.49-48 48-48 48 21.49 48 48z" data-color="2"/>
        <path fill="#f2f2f2" d="M601.616 147.364c-2.781 4.772-22.397 7.781-36.711-.562s-17.908-24.88-15.127-29.65 10.883 4.028 25.198 12.37 29.42 13.07 26.64 17.842z" data-color="5"/>
        <path fill="#f2f2f2" d="M580.285 97.852c0 5.523-4.477 10-10 10s-10-4.477-10-10 4.477-10 10-10 10 4.477 10 10z" data-color="5"/>
        <path fill="#f2f2f2" d="M616.572 119.001c0 5.523-4.477 10-10 10s-10-4.477-10-10 4.477-10 10-10 10 4.477 10 10z" data-color="5"/>
    </g>
</svg>
