<?xml version="1.0" encoding="UTF-8"?>
<svg data-bbox="0.002 -0.004 344.95 271.015" viewBox="0 0 344.95 271.01" xmlns:xlink="http://www.w3.org/1999/xlink" xmlns="http://www.w3.org/2000/svg" data-type="ugc">
    <g>
        <defs>
            <linearGradient gradientUnits="userSpaceOnUse" gradientTransform="matrix(1 .03 .03 -1 52.05 -6.65)" y2="-280.63" x2="79.5" y1="-170.33" x1="31.34" id="d451b778-36c4-48aa-abcd-f965a05938e1">
                <stop offset=".01"/>
                <stop stop-opacity=".69" offset=".08"/>
                <stop stop-opacity=".32" offset=".21"/>
                <stop stop-opacity="0" offset="1"/>
            </linearGradient>
            <linearGradient gradientUnits="userSpaceOnUse" gradientTransform="matrix(.84 .54 .54 -.84 1456.68 100.47)" y2="-854.43" x2="-1131.28" y1="-786.07" x1="-1051.04" id="04e62541-d43c-4e70-882b-bfe3b032f7f3">
                <stop offset=".01"/>
                <stop stop-opacity=".69" offset=".13"/>
                <stop stop-opacity=".32" offset=".25"/>
                <stop stop-opacity="0" offset="1"/>
            </linearGradient>
            <linearGradient xlink:href="#04e62541-d43c-4e70-882b-bfe3b032f7f3" gradientTransform="matrix(.84 .54 .54 -.84 112.96 -750.67)" y2="-728.98" x2="586.83" y1="-840.65" x1="465.98" id="6d80e252-412e-4554-83dd-47d878387fea"/>
            <linearGradient xlink:href="#d451b778-36c4-48aa-abcd-f965a05938e1" gradientTransform="matrix(1 0 0 -1 -28.56 321.63)" y2="47.13" x2="96.08" y1="144.87" x1="280.18" id="521ff7fe-2958-4435-b8ad-dd0cf8084331"/>
            <linearGradient xlink:href="#d451b778-36c4-48aa-abcd-f965a05938e1" gradientTransform="matrix(1 0 0 -1 -28.56 321.63)" y2="32.69" x2="103.75" y1="130.43" x1="287.85" id="a712b1d8-22ca-4978-9b38-f061e7def40f"/>
            <linearGradient xlink:href="#d451b778-36c4-48aa-abcd-f965a05938e1" gradientTransform="matrix(1 0 0 -1 -28.56 321.63)" y2="31.21" x2="104.54" y1="128.94" x1="288.64" id="2e47f606-239d-459a-aaea-03bcb4e2ff49"/>
            <linearGradient xlink:href="#d451b778-36c4-48aa-abcd-f965a05938e1" gradientTransform="matrix(1 0 0 -1 -28.56 321.63)" y2="81.45" x2="234.3" y1="153.18" x1="207.78" id="5ebf85ac-88b4-4ba0-b4c2-0098f418fc23"/>
            <linearGradient xlink:href="#d451b778-36c4-48aa-abcd-f965a05938e1" gradientTransform="matrix(1 0 0 -1 -28.56 321.63)" y2="37.34" x2="256.81" y1="140.88" x1="186.6" id="59301d93-f485-4ec0-99e6-7beb5bccfeea"/>
            <linearGradient xlink:href="#d451b778-36c4-48aa-abcd-f965a05938e1" gradientTransform="matrix(1 0 0 -1 -28.56 321.63)" y2="56.67" x2="219.05" y1="127.7" x1="194.48" id="1b6a8ea2-b80f-462e-b271-45bee14139bb"/>
            <linearGradient xlink:href="#d451b778-36c4-48aa-abcd-f965a05938e1" gradientTransform="matrix(1 0 0 -1 0 352)" y2="94.35" x2="-34.61" y1="236.02" x1="360.87" id="25324713-d8fe-46c9-a2ac-26ca4c4926f4"/>
            <linearGradient xlink:href="#d451b778-36c4-48aa-abcd-f965a05938e1" gradientTransform="matrix(1 0 0 -1 -28.56 321.63)" y2="46.3" x2="218.24" y1="344.47" x1="203.88" id="00f2c296-14a4-472a-b437-f84694904129"/>
            <linearGradient xlink:href="#d451b778-36c4-48aa-abcd-f965a05938e1" gradientTransform="matrix(1 0 0 -1 -28.56 321.63)" y2="28.16" x2="278.98" y1="331.12" x1="182.13" id="0d4a2699-5236-4755-9a2b-9a3373b45b58"/>
            <linearGradient xlink:href="#d451b778-36c4-48aa-abcd-f965a05938e1" gradientTransform="matrix(1 0 0 -1 -28.56 321.63)" y2="37.44" x2="257.51" y1="278.17" x1="188.25" id="513ee505-edcd-4f78-b596-8b3736000546"/>
            <linearGradient xlink:href="#d451b778-36c4-48aa-abcd-f965a05938e1" gradientTransform="matrix(1 0 0 -1 0 352)" y2="-26.58" x2="326.91" y1="258.16" x1="133.84" id="32baf91a-1c76-40fa-954d-0c1bd0285877"/>
            <linearGradient xlink:href="#04e62541-d43c-4e70-882b-bfe3b032f7f3" gradientTransform="matrix(1 0 0 -1 0 352)" y2="204.65" x2="171.84" y1="234.62" x1="139.42" id="a3ef624d-1be8-4f28-8cc1-3bea93f90f18"/>
            <linearGradient xlink:href="#04e62541-d43c-4e70-882b-bfe3b032f7f3" gradientTransform="matrix(1 0 0 -1 0 352)" y2="225.14" x2="162.94" y1="230.77" x1="151.61" id="93f13c21-e03b-4507-9807-60b6537c6d31"/>
            <linearGradient xlink:href="#04e62541-d43c-4e70-882b-bfe3b032f7f3" gradientTransform="matrix(1 0 0 -1 0 352)" y2="230.77" x2="148.99" y1="215.83" x1="142.35" id="cc822ad2-aec3-45f0-9c17-1da88d9b9dc1"/>
            <linearGradient xlink:href="#04e62541-d43c-4e70-882b-bfe3b032f7f3" gradientTransform="matrix(1 0 0 -1 0 352)" y2="270.33" x2="174.51" y1="286.01" x1="167.33" id="4e8a1951-ed17-4bfb-b369-e6f84f82ab57"/>
            <linearGradient xlink:href="#d451b778-36c4-48aa-abcd-f965a05938e1" gradientTransform="matrix(-.08 -1 1 -.08 -206.76 -702.88)" y2="272.12" x2="-751.43" y1="291.51" x1="-796.95" id="4ba17916-8f64-4e73-962a-383a1b8068a1"/>
        </defs>
        <path style="isolation:isolate" opacity=".18" fill="#9a073c" d="M99.25 25.97c-6.11 6.31-11.17 13.54-16.56 20.48-20.17 26-45.09 48.4-62.76 76.19S-7.32 186.63 6.8 216.33c9.52 20.07 28.52 34.3 48.89 43.14A135.56 135.56 0 0 0 111 271.01c39.81-.47 76.72-19.91 115.65-28.27 17.26-3.71 35-5.25 52.06-9.74 12.1-3.18 23.94-7.91 34-15.34 27.81-20.51 37.65-59.69 29.44-93.26s-31.78-61.71-59.39-82.5C235.93 6.63 147.09-23.44 99.25 25.97z"/>
        <path fill="#9a073c" d="M112.34 197.9l-36.03-1.16 4.47 25.7 25.53.83 6.03-25.37z"/>
        <path fill="url(#d451b778-36c4-48aa-abcd-f965a05938e1)" d="M112.34 197.9l-36.03-1.16 4.47 25.7 25.53.83 6.03-25.37z"/>
        <path fill="#9a073c" d="M73.3 134.71a12.43 12.43 0 0 0-1.28 5.81c-.45 9.11-.38 18.4 2.35 27.09 4 12.78 13.32 23.09 22.38 33-.68-1.09 1.33-6.87 1.6-8.25.53-2.7 1.13-5.39 1.69-8.08.9-4.26 0-8.74-1.06-12.93a61.81 61.81 0 0 0-13.23-25.72 58.41 58.41 0 0 0-12.45-10.92z"/>
        <path fill="url(#04e62541-d43c-4e70-882b-bfe3b032f7f3)" transform="translate(-28.56 -30.37)" d="M101.86 165.08a12.43 12.43 0 0 0-1.28 5.81c-.45 9.11-.38 18.4 2.35 27.09 4 12.78 13.32 23.09 22.38 33-.68-1.09 1.33-6.87 1.6-8.25.53-2.7 1.13-5.39 1.69-8.08.9-4.26 0-8.74-1.06-12.93A61.81 61.81 0 0 0 114.31 176a58.41 58.41 0 0 0-12.45-10.92z"/>
        <path fill="#9a073c" d="M113.66 165.53c3.06-6.8 6.15-13.69 7.3-21.06s.13-15.37-4.38-21.31q-8.73 13.23-17.48 26.45c-3.36 5.09-6.78 10.29-8.43 16.17-2.89 10.31-.32 26.17 6.55 34.53 3.92-3.35 5.75-11 7.87-15.73z"/>
        <path fill="url(#6d80e252-412e-4554-83dd-47d878387fea)" transform="translate(-28.56 -30.37)" d="M142.22 195.9c3.06-6.8 6.15-13.69 7.3-21.06s.13-15.37-4.38-21.31q-8.73 13.23-17.48 26.45c-3.36 5.09-6.78 10.29-8.43 16.17-2.89 10.31-.32 26.17 6.55 34.53 3.92-3.35 5.75-11 7.87-15.73z"/>
        <path fill="#9a073c" d="M75.31 187.89l38.64 1.25a5.85 5.85 0 0 1 5.66 6 5.85 5.85 0 0 1-6 5.65l-38.68-1.16a5.86 5.86 0 0 1-5.66-6 5.86 5.86 0 0 1 6.04-5.74z"/>
        <path fill="#9a073c" d="M174.1 186.49l12.46 29.29 38.72 6.4-12.46-34.34-38.72-1.35z"/>
        <path fill="url(#521ff7fe-2958-4435-b8ad-dd0cf8084331)" d="M174.1 186.49l12.46 29.29 38.72 6.4-12.46-34.34-38.72-1.35z"/>
        <path fill="url(#a712b1d8-22ca-4978-9b38-f061e7def40f)" d="M186.56 215.78l-24.92 6.4 51.01 14.65 12.63-14.65-38.72-6.4z"/>
        <path fill="#9a073c" d="M186.56 215.78l-24.92 6.4 44.95 21.68 18.69-21.68-38.72-6.4z"/>
        <path fill="url(#2e47f606-239d-459a-aaea-03bcb4e2ff49)" d="M186.56 215.78l-24.92 6.4 44.95 21.68 18.69-21.68-38.72-6.4z"/>
        <path fill="#9a073c" d="M166.77 186.49l12.46 29.29 38.73 6.4-12.46-34.34-38.73-1.35z"/>
        <path fill="url(#5ebf85ac-88b4-4ba0-b4c2-0098f418fc23)" d="M176.12 208.47l34.15-7.49-4.77-13.14-38.73-1.35 9.35 21.98z"/>
        <path fill="#9a073c" d="M179.23 215.78l-24.91 6.4 51.01 14.65 12.63-14.65-38.73-6.4z"/>
        <path fill="url(#59301d93-f485-4ec0-99e6-7beb5bccfeea)" d="M179.23 215.78l-24.91 6.4 51.01 14.65 12.63-14.65-38.73-6.4z"/>
        <path fill="#9a073c" d="M205.33 236.83l1.26 7.03-53.54-16.12 1.27-5.56 51.01 14.65z"/>
        <path fill="url(#1b6a8ea2-b80f-462e-b271-45bee14139bb)" d="M205.33 236.83l1.26 7.03-53.54-16.12 1.27-5.56 51.01 14.65z"/>
        <path fill="#9a073c" d="M267.28 64.04v131.53a5.58 5.58 0 0 1-5.6 5.58h-.6l-147.43-16.46a5.58 5.58 0 0 1-5-5.55V79.06a5.58 5.58 0 0 1 5-5.55l147.43-15a5.59 5.59 0 0 1 6.17 4.93q.03.3.03.6z"/>
        <path fill="url(#25324713-d8fe-46c9-a2ac-26ca4c4926f4)" transform="translate(-28.56 -30.37)" d="M295.84 94.41v131.53a5.58 5.58 0 0 1-5.6 5.58h-.6l-147.43-16.46a5.58 5.58 0 0 1-5-5.55V109.43a5.58 5.58 0 0 1 5-5.55l147.43-15a5.59 5.59 0 0 1 6.17 4.93q.03.3.03.6z"/>
        <path fill="#9a073c" d="M263.58 64.04v131.53a5.58 5.58 0 0 1-5.6 5.58h-.6l-147.43-16.46a5.58 5.58 0 0 1-5-5.55V79.06a5.58 5.58 0 0 1 5-5.55l147.49-15.02a5.58 5.58 0 0 1 6.11 5 5.25 5.25 0 0 1 .03.55z"/>
        <path fill="url(#00f2c296-14a4-472a-b437-f84694904129)" d="M112.34 170.66V79.04L251.97 67.7v110.58l-139.63-7.62z"/>
        <path fill="url(#0d4a2699-5236-4755-9a2b-9a3373b45b58)" d="M233.56 131.33h-83.98V91.17l83.98-3.74v43.9z"/>
        <path fill="url(#513ee505-edcd-4f78-b596-8b3736000546)" d="M233.56 177.49l-83.98-4.46v-37.52h83.98v41.98z"/>
        <path fill="url(#32baf91a-1c76-40fa-954d-0c1bd0285877)" transform="translate(-28.56 -30.37)" d="M292.14 209.45v16.49a5.58 5.58 0 0 1-5.6 5.58h-.6l-147.43-16.46a5.58 5.58 0 0 1-5-5.55V201z"/>
        <path fill="url(#a3ef624d-1be8-4f28-8cc1-3bea93f90f18)" transform="translate(-28.56 -30.37)" d="M158.79 125.74c0 1.28-2.06 2.49-3.07 2.79a6.76 6.76 0 0 0-1.23.39 1.17 1.17 0 0 0-.64 1.05c.05.37.35.67.43 1a2 2 0 0 1-.11 1c-.39 1.23-1.92 2-2.29 3.25-2.12-.22-3.07 0-5.17-.39L145 133.7l2.64-4.94a10.26 10.26 0 0 1 1.25-1.95 8.54 8.54 0 0 1 1.94-1.55 49.12 49.12 0 0 1 5.72-3.19c-.3.12 2.24 3.34 2.24 3.67z"/>
        <path fill="#f9c6d6" d="M135.2 42.9l-.21.08a30.65 30.65 0 0 1-3.52.87l-2.71.64a6 6 0 0 1-2.54.42 3.9 3.9 0 0 1 1.72-1.91c.58-.28 1.25-.37 1.82-.67a2.82 2.82 0 0 0 1.3-3.34 2.1 2.1 0 0 0-.66-.94 2.41 2.41 0 0 0-2.88.39 23 23 0 0 0-2 2.41 42.93 42.93 0 0 1-3.73 3c-1.2 1.07-2.15 2.7-1.69 4.24s2.43 1.36 3.8 1.36a23.65 23.65 0 0 0 5.1-.63c1.65-.36 3.28-.82 4.92-1.25a18.23 18.23 0 0 1 2.4-.58 5 5 0 0 0 1.59-.2 3.16 3.16 0 0 0 1.15-1 4.11 4.11 0 0 0 1-2.28c.06-1.18-.74-2.33-2-2a25.15 25.15 0 0 0-2.86 1.39z"/>
        <path fill="#f9c6d6" d="M129 89.56a2.42 2.42 0 0 1 0 2.13 1.77 1.77 0 0 1-.77.55 2.11 2.11 0 0 1-2.21-.23 2.92 2.92 0 0 1-.66-1.27 30.79 30.79 0 0 1-1.19-5.28 1 1 0 0 1 0-.49.84.84 0 0 1 .42-.39c.93-.51 2.4-.91 2.93.21a37.61 37.61 0 0 1 1.48 4.77z"/>
        <path fill="#9a073c" d="M126.17 90.38a1.19 1.19 0 0 0-.59.06.92.92 0 0 0-.33.29l-2 2.32c-.39.45-.81 1.07-.53 1.59a1.18 1.18 0 0 0 .88.53 5.09 5.09 0 0 0 2.84-.54c.63-.28 1.25-.58 1.85-.91a3 3 0 0 0 1.15-.91c.46-.72.6-2.45-.22-3-.42-.27-.79-.08-1.18.11a4.07 4.07 0 0 1-1.87.46z"/>
        <path fill="#f9c6d6" d="M117.73 97.46a.86.86 0 0 0 0 .39.72.72 0 0 0 .3.3 2.47 2.47 0 0 0 1.31.44 1.5 1.5 0 0 0 1.23-.56 2.49 2.49 0 0 0 .38-1.15 14.34 14.34 0 0 0 .26-2.69.5.5 0 0 0-.12-.35.5.5 0 0 0-.23-.09c-.74-.16-2.19-.55-2.56.36a10.62 10.62 0 0 0-.57 3.35z"/>
        <path fill="#9a073c" d="M114.63 97.37a6.73 6.73 0 0 0-1.84.35 2.36 2.36 0 0 0-1.35 1.26 1.39 1.39 0 0 0 0 .9 2 2 0 0 0 1 1 12.62 12.62 0 0 0 6.84 1.49 2.33 2.33 0 0 0 1.65-.61 2.72 2.72 0 0 0 .44-1.69l.08-2.81a3.56 3.56 0 0 0-1.52.44c-.87.3-1.21-.42-1.94-.59a11.49 11.49 0 0 0-3.36.26z"/>
        <path fill="url(#93f13c21-e03b-4507-9807-60b6537c6d31)" transform="translate(-28.56 -30.37)" d="M154.73 120.75a1.19 1.19 0 0 0-.59.06.92.92 0 0 0-.33.29l-2 2.32c-.39.45-.81 1.07-.53 1.59a1.18 1.18 0 0 0 .88.53A5.09 5.09 0 0 0 155 125c.63-.28 1.25-.58 1.85-.91a3 3 0 0 0 1.15-.91c.46-.72.6-2.45-.22-3-.42-.27-.79-.08-1.18.11a4.07 4.07 0 0 1-1.87.46z"/>
        <path fill="url(#cc822ad2-aec3-45f0-9c17-1da88d9b9dc1)" transform="translate(-28.56 -30.37)" d="M143.19 127.74a6.73 6.73 0 0 0-1.84.35 2.36 2.36 0 0 0-1.35 1.26 1.39 1.39 0 0 0 0 .9 2 2 0 0 0 1 1 12.62 12.62 0 0 0 6.84 1.49 2.33 2.33 0 0 0 1.65-.61 2.72 2.72 0 0 0 .44-1.69l.08-2.81a3.56 3.56 0 0 0-1.52.44c-.87.3-1.21-.42-1.94-.59a11.49 11.49 0 0 0-3.36.26z"/>
        <path fill="#282328" d="M122.14 66.33a2.5 2.5 0 0 0-2.23 2.75c0 .11 0 .21.06.32a46.22 46.22 0 0 0 3.12 16.6 1.46 1.46 0 0 0 .7.94 1.38 1.38 0 0 0 .94 0 36 36 0 0 0 3.63-1.22l-1.61-10.79a1.57 1.57 0 0 1 .05-.91 1.53 1.53 0 0 1 .48-.5 43.59 43.59 0 0 1 5.78-3.6c1.61-.83 3.45-1.78 3.89-3.55a2 2 0 0 0-.31-1.74 2.94 2.94 0 0 0-.89-.59 7.31 7.31 0 0 0-3.64-1.1c-1 .11-1.36.68-2.18 1.11-2.29 1.12-5.32 1.58-7.79 2.28z"/>
        <path fill="#ffffff" d="M131.19 54.52a.61.61 0 0 0-.14-.29.52.52 0 0 0-.34-.09 37.48 37.48 0 0 0-12.42 1.32 13.73 13.73 0 0 0 1.44 3.11c1.62 2.84 3.24 5.69 4.89 8.52a2.7 2.7 0 0 0 3.36 1.82l.23-.08 6.23-1.26c1-.2-1-5.35-1.36-6.3-.78-2.2-1.3-4.49-1.89-6.75z"/>
        <path fill="#9a073c" d="M139.53 66.12a23.28 23.28 0 0 1-2.9-1.37c-3.54-2-.64-3 .54-5.35.84-1.7.5-3.73.06-5.57-.77-3.23-1.8-6.58-1-9.81a3.74 3.74 0 0 1 .6-1.46 4.26 4.26 0 0 1 .74-.73 7.86 7.86 0 0 1 2.54-1.5 7.25 7.25 0 0 1 5.45.69c6.85 3.49 6.81 14.63 6.16 21.18a8.09 8.09 0 0 1-1.3 4.3c-1.35 1.78-2.61 1.14-4.32.84-2.31-.39-4.37-.36-6.57-1.22z"/>
        <path fill="#f9c6d6" d="M143.52 44.96a3.38 3.38 0 0 1-2.38 1.25.62.62 0 0 1-.42-.1.71.71 0 0 1-.21-.5c0-.37-.09-.85-.13-1.32s-.12-1.06-.17-1.47a5.78 5.78 0 0 0-1.18-3 3.27 3.27 0 0 0-.47-.51c-1.14-1 3.51-.62 4.12-2 .71.91.65 2.2 1 3.32a14 14 0 0 1 .52 1.67 3.35 3.35 0 0 1-.68 2.66z"/>
        <path fill="url(#4e8a1951-ed17-4bfb-b369-e6f84f82ab57)" transform="translate(-28.56 -30.37)" d="M169 74.87l-.06-.21c-.06-.53-.12-1.06-.17-1.47a5.78 5.78 0 0 0-1.18-3v-.11s3.68-2.42 4.08.41-2.67 4.38-2.67 4.38z"/>
        <path fill="#f9c6d6" d="M136.57 38.17a3 3 0 0 0 .31 1.71 2.48 2.48 0 0 0 .55.57 4.36 4.36 0 0 0 5.13-.26 6.56 6.56 0 0 0 2.28-4.9 3.74 3.74 0 0 0-.76-2.72 3 3 0 0 0-2.77-.77 7 7 0 0 0-3.51 2c-.93 1.04-1.16 3.04-1.23 4.37z"/>
        <path fill="#473f47" d="M123.29 73.86a11.48 11.48 0 0 0-1.77 3.24 65.4 65.4 0 0 0-4.48 17.78 22.65 22.65 0 0 0 5.7 0 54.82 54.82 0 0 1 2-12.78 8.2 8.2 0 0 1 1-2.52 8.85 8.85 0 0 1 3.56-2.63 51.83 51.83 0 0 1 9.56-3.63c1.39-.39 2.79-.74 4.16-1.21a10.19 10.19 0 0 0 3.24-1.67c1.71-1.43 3-4.56.74-6.1a7.62 7.62 0 0 0-3.55-.94l-3.82-.36a2.2 2.2 0 0 0-2 .57c-2.84 2.19-5.75 4.14-8.73 6.13-1.88 1.24-4.13 2.38-5.61 4.12z"/>
        <path fill="#f9c6d6" d="M149.84 47.84a1.68 1.68 0 0 0 .08.62 65.27 65.27 0 0 1-.08 9.17c-.07 1.88-.32 5.48-2.29 6.44-3.7 1.81-10.81 1.11-10.81 1.11a6.27 6.27 0 0 0-2.48.1c-.45.14-.85.38-1.29.55a9 9 0 0 1-4.93 0 2.11 2.11 0 0 1-.81-.28 1.5 1.5 0 0 1-.13-2.07 3.68 3.68 0 0 1 2-1.1 11.43 11.43 0 0 1 6.4-.25c.28.08.55.17.83.23a5.6 5.6 0 0 0 1 .06h2.51c2.89 0 5.61 0 6-3.4a19.61 19.61 0 0 0 .1-3.83c-.17-2.31-.77-4.59-.64-6.9a4.53 4.53 0 0 1 .52-2.1 2.08 2.08 0 0 1 1.73-1.11 2.18 2.18 0 0 1 1.79 1.21 5 5 0 0 1 .5 1.55z"/>
        <path fill="#f86938" d="M142.08 36.63a9 9 0 0 1 .16 2.13c.49-.44.46-1.53 1.11-1.5.39 0 .57.56.39.91a1.47 1.47 0 0 1-1 .64c-.11 1.5 1.08 2.52 2.06 3.43a7.93 7.93 0 0 1 2.18 3.87 22 22 0 0 1 .42 5.73c.53-.42 1.28-.2 1.95-.13a4.26 4.26 0 0 0 4.35-3.31 4.84 4.84 0 0 0-2.26-5.07 3.78 3.78 0 0 1-1.47-1.06c-.44-.7-.18-1.63-.15-2.47a4.15 4.15 0 0 0-3.12-4 5.92 5.92 0 0 0 .68-2.12 3.65 3.65 0 0 0-1.16-2.67 8.48 8.48 0 0 0-2.5-1.58 4 4 0 0 0-2.73-.47 3.62 3.62 0 0 0-2.1 2.44 1.33 1.33 0 0 0-1.54.31 2.15 2.15 0 0 0-.53 1.57 3.17 3.17 0 0 0 .23 1.09c.35-.42.77-.83 1.19-.53s.68.92 1.06 1.26a7.41 7.41 0 0 0 1.37.91 8 8 0 0 1 1.41.62z"/>
        <path fill="#9a073c" d="M132.92 35.53l-.35 1.94a1.11 1.11 0 0 1-1 1c-1.89-.33-6.52-1-9.82-.12a35.21 35.21 0 0 0-5.27 1.8c-.68.3-1.35-.46-1.24-1.38l1.2-10.37c.11-.91.9-1.36 1.48-.83 2.38 2.15 7.9 6.45 14.07 6.43.61 0 1.07.74.93 1.53z"/>
        <path fill="#9a073c" d="M116.93 27.146c1.713.135 2.87 3.156 2.587 6.745-.284 3.588-1.902 6.39-3.614 6.254s-2.87-3.156-2.587-6.745c.284-3.588 1.902-6.39 3.614-6.254z"/>
        <path fill="url(#4ba17916-8f64-4e73-962a-383a1b8068a1)" transform="rotate(-85.48 114.263 64.288)" d="M151.5 64.02c0 1.718-2.92 3.11-6.52 3.11-3.6 0-6.52-1.392-6.52-3.11s2.92-3.11 6.52-3.11c3.6 0 6.52 1.392 6.52 3.11z"/>
        <path fill="#9a073c" d="M127.954 41.98l1.025.341a.87.87 0 0 1 .55 1.1l-.34 1.025a.87.87 0 0 1-1.1.55l-1.025-.34a.87.87 0 0 1-.551-1.1l.34-1.025a.87.87 0 0 1 1.1-.55z"/>
        <path style="isolation:isolate" opacity=".89" fill="#ffffff" d="M280.44 138.44h-81.82a6.27 6.27 0 0 1-6.26-6.26v-30.14a6.26 6.26 0 0 1 6-6.25l81.8-3.79a6.24 6.24 0 0 1 6.54 5.94v34.24a6.26 6.26 0 0 1-6.26 6.26z"/>
        <path fill="#ffffff" d="M228.97 83.99l-58.53 2.93a4.21 4.21 0 0 1-4.47-3.93 2.81 2.81 0 0 1 0-.29V61.33a4.74 4.74 0 0 1 4.28-4.65l58.56-5.62a4.23 4.23 0 0 1 4.69 4.2v24.07a4.72 4.72 0 0 1-4.53 4.66z"/>
        <path fill="#ffffff" d="M136.14 146.63l-42.35-2a4.6 4.6 0 0 1-4.38-4.6v-17.32a4.59 4.59 0 0 1 4.54-4.59l42.35-.47a4.6 4.6 0 0 1 4.65 4.55v19.87a4.59 4.59 0 0 1-4.64 4.56z"/>
    </g>
</svg>
