<?xml version="1.0"?>
<svg xmlns="http://www.w3.org/2000/svg" xmlns:xlink="http://www.w3.org/1999/xlink" xmlns:svgjs="http://svgjs.com/svgjs" version="1.1" width="512" height="512" x="0" y="0" viewBox="0 0 512.658 512.658" style="enable-background:new 0 0 512 512" xml:space="preserve" class=""><g><g xmlns="http://www.w3.org/2000/svg"><path d="m309.491 165.829h-105.666c-20.678 0-37.5 16.822-37.5 37.5 0 4.142 3.357 7.5 7.5 7.5s7.5-3.358 7.5-7.5c0-12.407 10.094-22.5 22.5-22.5h105.666c12.406 0 22.5 10.093 22.5 22.5v121.5c0 3.991-3.225 7-7.5 7s-7.5-3.009-7.5-7c0-.01-.001-121-.001-121 0-4.142-3.357-7.5-7.5-7.5s-7.5 3.358-7.5 7.5l.001 267.083c0 5.917-5.229 10.917-11.417 10.917-6.295 0-11.416-5.122-11.416-11.417l-.001-146.083c0-4.142-3.357-7.5-7.5-7.5h-30c-1.989 0-3.896.79-5.304 2.197-1.406 1.406-2.196 3.314-2.196 5.303l.001 146.083c0 6.295-5.122 11.417-11.417 11.417-6.188 0-11.416-4.999-11.416-10.917l-.001-267.083c0-4.142-3.357-7.5-7.5-7.5s-7.5 3.358-7.5 7.5v120.491c0 4.145-3.365 7.509-7.5 7.509s-7.5-3.364-7.5-7.5l.001-91c0-4.142-3.357-7.5-7.5-7.5-4.142 0-7.5 3.358-7.5 7.5l-.001 91c0 12.407 10.094 22.5 22.5 22.5 2.629 0 5.153-.458 7.5-1.29v125.374c0 14.291 11.851 25.917 26.416 25.917 14.566 0 26.417-11.851 26.417-26.417l-.001-138.583h15l.001 138.583c0 14.566 11.851 26.417 26.416 26.417 14.566 0 26.417-11.626 26.417-25.917v-125.296c2.337.784 4.858 1.213 7.5 1.213 12.617 0 22.5-9.664 22.5-22v-121.5c.001-20.679-16.821-37.501-37.499-37.501z" fill="#9a073c" data-original="#000000" style="" class=""/><path d="m256.329 150.829c28.948 0 52.5-23.551 52.5-52.5s-23.552-52.5-52.5-52.5-52.5 23.551-52.5 52.5 23.552 52.5 52.5 52.5zm0-90c20.678 0 37.5 16.822 37.5 37.5s-16.822 37.5-37.5 37.5-37.5-16.822-37.5-37.5 16.822-37.5 37.5-37.5z" fill="#9a073c" data-original="#000000" style="" class=""/><path d="m496.667 59.054c-9.088-9.308-20.889-15.087-33.655-16.576-7.159-16.133-23.086-26.649-41.105-26.649-24.813 0-45 20.187-45 45v7.349l-48.817 23.387c-2.604 1.247-4.26 3.877-4.26 6.764s1.656 5.517 4.26 6.764l48.817 23.388v7.349c0 24.813 20.187 45 45 45 18.02 0 33.946-10.516 41.105-26.649 12.767-1.488 24.567-7.268 33.655-16.576 10.312-10.563 15.991-24.511 15.991-39.275s-5.679-28.714-15.991-39.276zm-39.164 80.495c-3.206.083-6.004 2.196-6.962 5.257-3.938 12.575-15.444 21.023-28.635 21.023-16.542 0-30-13.458-30-30v-12.072c0-2.886-1.656-5.517-4.26-6.764l-38.958-18.665 38.958-18.664c2.604-1.247 4.26-3.877 4.26-6.764v-12.071c0-16.542 13.458-30 30-30 13.19 0 24.697 8.449 28.635 21.023.958 3.061 3.756 5.173 6.962 5.257 22.517.587 40.155 18.692 40.155 41.22s-17.638 40.633-40.155 41.22z" fill="#9a073c" data-original="#000000" style="" class=""/><path d="m188.829 98.329c0-2.886-1.656-5.517-4.26-6.764l-48.817-23.388v-7.349c0-24.813-20.187-45-45-45-18.02 0-33.946 10.516-41.105 26.649-12.767 1.488-24.567 7.268-33.655 16.576-10.312 10.563-15.992 24.511-15.992 39.276s5.68 28.713 15.991 39.275c9.088 9.308 20.889 15.087 33.655 16.576 7.159 16.133 23.086 26.649 41.105 26.649 24.813 0 45-20.187 45-45v-7.349l48.817-23.387c2.605-1.247 4.261-3.878 4.261-6.764zm-63.817 18.664c-2.604 1.247-4.26 3.877-4.26 6.764v12.072c0 16.542-13.458 30-30 30-13.19 0-24.697-8.449-28.635-21.023-.958-3.061-3.756-5.173-6.962-5.257-22.516-.587-40.155-18.693-40.155-41.22s17.639-40.633 40.155-41.22c3.206-.083 6.004-2.196 6.962-5.257 3.938-12.575 15.444-21.023 28.635-21.023 16.542 0 30 13.458 30 30v12.072c0 2.886 1.656 5.517 4.26 6.764l38.958 18.665z" fill="#9a073c" data-original="#000000" style="" class=""/></g></g></svg>
