<?xml version="1.0"?>
<svg xmlns="http://www.w3.org/2000/svg" xmlns:xlink="http://www.w3.org/1999/xlink" xmlns:svgjs="http://svgjs.com/svgjs" version="1.1" width="512" height="512" x="0" y="0" viewBox="0 0 64 64" style="enable-background:new 0 0 512 512" xml:space="preserve" class=""><g><g xmlns="http://www.w3.org/2000/svg"><path d="m32 17c-4.411 0-8 3.589-8 8s3.589 8 8 8 8-3.589 8-8-3.589-8-8-8zm0 14c-3.309 0-6-2.691-6-6s2.691-6 6-6 6 2.691 6 6-2.691 6-6 6z" fill="#0b245b" data-original="#000000" style="" class=""/><path d="m32 21c-2.206 0-4 1.794-4 4s1.794 4 4 4 4-1.794 4-4-1.794-4-4-4zm0 6c-1.103 0-2-.897-2-2s.897-2 2-2 2 .897 2 2-.897 2-2 2z" fill="#0b245b" data-original="#000000" style="" class=""/><path d="m58 20c-2.414 0-4.434 1.721-4.899 4h-2.148c-.233-4.469-1.999-8.562-4.83-11.71l1.857-1.857c.596.352 1.28.567 2.02.567 2.206 0 4-1.794 4-4s-1.794-4-4-4-4 1.794-4 4c0 .74.215 1.424.567 2.019l-1.863 1.863c-2.473-2.229-5.538-3.822-8.964-4.504.16-.431.26-.892.26-1.378 0-2.206-1.794-4-4-4s-4 1.794-4 4c0 .486.1.947.26 1.378-3.425.682-6.49 2.275-8.963 4.504l-1.863-1.863c.351-.595.566-1.279.566-2.019 0-2.206-1.794-4-4-4s-4 1.794-4 4 1.794 4 4 4c.74 0 1.424-.215 2.019-.567l1.857 1.857c-2.831 3.148-4.597 7.241-4.83 11.709h-2.148c-.464-2.278-2.484-3.999-4.898-3.999-2.757 0-5 2.243-5 5s2.243 5 5 5c2.414 0 4.434-1.721 4.899-4h2.148c.228 4.34 1.914 8.457 4.836 11.704l-1.863 1.863c-.596-.352-1.28-.567-2.02-.567-2.206 0-4 1.794-4 4s1.794 4 4 4 4-1.794 4-4c0-.74-.215-1.424-.567-2.019l1.796-1.796 2.331 2.542c1.348 1.47 2.172 3.317 2.382 5.279-1.627.032-2.942 1.36-2.942 2.994 0 .771.301 1.468.78 2-.48.532-.78 1.229-.78 2 0 1.654 1.346 3 3 3h.08c.488 3.387 3.401 6 6.92 6h2c3.519 0 6.432-2.613 6.92-6h.08c1.654 0 3-1.346 3-3 0-.771-.301-1.468-.78-2 .48-.532.78-1.229.78-2 0-1.634-1.315-2.962-2.942-2.994.21-1.962 1.034-3.808 2.382-5.279l2.331-2.542 1.796 1.796c-.352.595-.567 1.279-.567 2.019 0 2.206 1.794 4 4 4s4-1.794 4-4-1.794-4-4-4c-.74 0-1.424.215-2.019.567l-1.863-1.863c2.921-3.247 4.608-7.364 4.836-11.704h2.148c.465 2.279 2.484 4 4.899 4 2.757 0 5-2.243 5-5s-2.244-5-5.001-5zm-52 8c-1.654 0-3-1.346-3-3s1.346-3 3-3 3 1.346 3 3-1.346 3-3 3zm42.953-4h-3.953v-2.708l-1.826-.645c-.062-.157-.127-.314-.196-.471l.836-1.748-1.914-1.915 2.811-2.811c2.469 2.783 4.014 6.377 4.242 10.298zm-7.502 4.242c-.13.38-.29.765-.477 1.146l-.214.435.639 1.334-3.242 3.242-1.335-.638-.436.214c-.375.185-.761.345-1.146.477l-.458.157-.49 1.391h-4.584l-.491-1.392-.458-.157c-.385-.132-.771-.292-1.146-.477l-.436-.214-1.335.638-3.242-3.242.639-1.334-.214-.435c-.187-.381-.347-.766-.477-1.146l-.156-.458-1.392-.491v-4.585l1.393-.491.156-.458c.13-.38.29-.765.477-1.146l.214-.435-.639-1.334 3.242-3.242 1.335.638.436-.214c.375-.185.761-.345 1.146-.477l.458-.157.49-1.391h4.584l.491 1.392.458.157c.385.132.771.292 1.146.477l.436.214 1.335-.638 3.242 3.242-.639 1.334.214.435c.187.381.347.766.477 1.146l.156.458 1.392.491v4.585l-1.393.491zm-9.451 22.758c-1.103 0-2-.897-2-2s.897-2 2-2 2 .897 2 2-.897 2-2 2zm18-46c1.103 0 2 .897 2 2s-.897 2-2 2-2-.897-2-2 .897-2 2-2zm-9.515 10.101-1.914-1.915-1.749.836c-.155-.069-.313-.134-.471-.196l-.643-1.826h-2.708v-3.142c.514-.134.985-.365 1.398-.676 3.409.481 6.463 1.957 8.889 4.117zm-8.485-12.101c1.103 0 2 .897 2 2s-.897 2-2 2-2-.897-2-2 .897-2 2-2zm-2.398 5.182c.413.311.884.542 1.398.676v3.142h-2.708l-.644 1.826c-.158.062-.315.127-.471.196l-1.749-.836-1.914 1.915-2.802-2.802c2.427-2.16 5.481-3.636 8.89-4.117zm-15.602.818c-1.103 0-2-.897-2-2s.897-2 2-2 2 .897 2 2-.897 2-2 2zm5.29 4.704 2.811 2.811-1.914 1.915.836 1.748c-.069.157-.135.314-.196.471l-1.827.643v2.708h-3.953c.228-3.921 1.773-7.515 4.243-10.296zm-4.243 12.296h3.953v2.708l1.826.645c.062.157.127.314.196.471l-.836 1.748 1.914 1.915-2.8 2.8c-2.546-2.868-4.03-6.477-4.253-10.287zm-1.047 19c-1.103 0-2-.897-2-2s.897-2 2-2 2 .897 2 2-.897 2-2 2zm6.645-7.231 2.87-2.87 1.914 1.915 1.749-.836c.155.069.313.134.471.196l.643 1.826h2.708v7.142c-1.043.271-1.913.949-2.444 1.858h-2.603c-.218-2.463-1.234-4.785-2.919-6.625zm3.355 11.231h4c0 .732.212 1.409.556 2h-4.556c-.552 0-1-.449-1-1s.448-1 1-1zm9 12h-2c-2.414 0-4.434-1.721-4.899-4h11.798c-.465 2.279-2.485 4-4.899 4zm7-6h-16c-.552 0-1-.449-1-1s.448-1 1-1h16c.552 0 1 .449 1 1s-.448 1-1 1zm1-5c0 .551-.448 1-1 1h-4.556c.344-.591.556-1.268.556-2h4c.552 0 1 .449 1 1zm-.034-9.625c-1.685 1.84-2.702 4.162-2.919 6.625h-2.603c-.53-.909-1.401-1.587-2.444-1.858v-7.142h2.708l.644-1.826c.158-.062.315-.127.471-.196l1.749.836 1.914-1.915 2.87 2.87zm9.034.625c1.103 0 2 .897 2 2s-.897 2-2 2-2-.897-2-2 .897-2 2-2zm-5.301-4.715-2.8-2.8 1.914-1.915-.836-1.748c.069-.157.135-.314.196-.471l1.827-.643v-2.708h3.953c-.223 3.81-1.707 7.419-4.254 10.285zm13.301-8.285c-1.654 0-3-1.346-3-3s1.346-3 3-3 3 1.346 3 3-1.346 3-3 3z" fill="#0b245b" data-original="#000000" style="" class=""/></g></g></svg>
