<?xml version="1.0"?>
<svg xmlns="http://www.w3.org/2000/svg" xmlns:xlink="http://www.w3.org/1999/xlink" xmlns:svgjs="http://svgjs.com/svgjs" version="1.1" width="512" height="512" x="0" y="0" viewBox="0 0 512 512" style="enable-background:new 0 0 512 512" xml:space="preserve" class=""><g>
<g xmlns="http://www.w3.org/2000/svg">
	<g>
		<path d="M208.24,72h-0.088c-4.416,0-7.952,3.576-7.952,8s3.616,8,8.04,8c4.416,0,8-3.576,8-8S212.656,72,208.24,72z" fill="#9a073c" data-original="#000000" style="" class=""/>
	</g>
</g>
<g xmlns="http://www.w3.org/2000/svg">
	<g>
		<path d="M48.24,448h-0.088c-4.416,0-7.952,3.576-7.952,8s3.616,8,8.04,8c4.416,0,8-3.576,8-8S52.656,448,48.24,448z" fill="#9a073c" data-original="#000000" style="" class=""/>
	</g>
</g>
<g xmlns="http://www.w3.org/2000/svg">
	<g>
		<path d="M472,304c-4.424,0-8,3.576-8,8s3.576,8,8,8c13.232,0,24,10.768,24,24c0,8.552-4.592,16.52-12,20.8    c-3.816,2.208-5.128,7.096-2.912,10.928c1.472,2.56,4.16,3.992,6.928,3.992c1.36,0,2.736-0.344,4-1.08    C504.344,371.512,512,358.232,512,344C512,321.944,494.056,304,472,304z" fill="#9a073c" data-original="#000000" style="" class=""/>
	</g>
</g>
<g xmlns="http://www.w3.org/2000/svg">
	<g>
		<path d="M495.04,367.928c-2.088-3.888-6.952-5.344-10.832-3.256l-216,116.288c-3.888,2.088-5.352,6.944-3.256,10.832    c1.448,2.688,4.208,4.208,7.056,4.208c1.28,0,2.576-0.304,3.776-0.952l216-116.288    C495.672,376.672,497.128,371.816,495.04,367.928z" fill="#9a073c" data-original="#000000" style="" class=""/>
	</g>
</g>
<g xmlns="http://www.w3.org/2000/svg">
	<g>
		<path d="M273.032,480.072l-184-24c-4.448-0.616-8.4,2.512-8.96,6.896c-0.584,4.376,2.512,8.392,6.896,8.96l184,24    c0.352,0.048,0.696,0.072,1.04,0.072c3.96,0,7.4-2.936,7.92-6.968C280.512,484.656,277.416,480.64,273.032,480.072z" fill="#9a073c" data-original="#000000" style="" class=""/>
	</g>
</g>
<g xmlns="http://www.w3.org/2000/svg">
	<g>
		<path d="M88,256H8c-4.424,0-8,3.576-8,8v216c0,4.424,3.576,8,8,8h80c4.424,0,8-3.576,8-8V264C96,259.576,92.424,256,88,256z     M80,472H16V272h64V472z" fill="#9a073c" data-original="#000000" style="" class=""/>
	</g>
</g>
<g xmlns="http://www.w3.org/2000/svg">
	<g>
		<path d="M474.448,311.272c-0.664-4.368-4.768-7.36-9.112-6.704L310.8,328.088c-4.368,0.664-7.368,4.744-6.704,9.112    c0.6,3.968,4.008,6.8,7.896,6.8c0.4,0,0.808-0.032,1.216-0.096l154.536-23.52C472.112,319.72,475.112,315.64,474.448,311.272z" fill="#9a073c" data-original="#000000" style="" class=""/>
	</g>
</g>
<g xmlns="http://www.w3.org/2000/svg">
	<g>
		<path d="M286.856,296.6c-4.352-0.744-8.488,2.168-9.24,6.52s2.168,8.488,6.52,9.24C295.648,314.344,304,324.288,304,336    c0,13.232-10.768,24-24,24c-4.424,0-8,3.576-8,8s3.576,8,8,8c22.056,0,40-17.944,40-40C320,316.48,306.064,299.896,286.856,296.6z    " fill="#9a073c" data-original="#000000" style="" class=""/>
	</g>
</g>
<g xmlns="http://www.w3.org/2000/svg">
	<g>
		<path d="M287.032,296.624l-125.504-24.48c-4.336-0.872-8.544,1.976-9.384,6.32c-0.848,4.336,1.984,8.544,6.32,9.384l125.504,24.48    c0.512,0.104,1.032,0.152,1.536,0.152c3.752,0,7.104-2.648,7.848-6.472C294.2,301.672,291.368,297.464,287.032,296.624z" fill="#9a073c" data-original="#000000" style="" class=""/>
	</g>
</g>
<g xmlns="http://www.w3.org/2000/svg">
	<g>
		<path d="M160,272H88c-4.424,0-8,3.576-8,8s3.576,8,8,8h72c4.424,0,8-3.576,8-8S164.424,272,160,272z" fill="#9a073c" data-original="#000000" style="" class=""/>
	</g>
</g>
<g xmlns="http://www.w3.org/2000/svg">
	<g>
		<path d="M277.248,359.848l-100.632-7.824c-4.424-0.44-8.248,2.952-8.592,7.36s2.952,8.248,7.36,8.592l100.632,7.824    c0.208,0.016,0.416,0.024,0.624,0.024c4.144,0,7.64-3.192,7.968-7.384C284.952,364.032,281.656,360.192,277.248,359.848z" fill="#9a073c" data-original="#000000" style="" class=""/>
	</g>
</g>
<g xmlns="http://www.w3.org/2000/svg">
	<g>
		<path d="M472,304c-2.304,0-4.592,0.192-6.824,0.584c-4.36,0.744-7.28,4.88-6.528,9.232c0.664,3.896,4.04,6.648,7.872,6.648    c0.448,0,0.912-0.04,1.36-0.12c1.336-0.224,2.712-0.344,4.12-0.344c4.424,0,8-3.576,8-8S476.424,304,472,304z" fill="#9a073c" data-original="#000000" style="" class=""/>
	</g>
</g>
<g xmlns="http://www.w3.org/2000/svg">
	<g>
		<path d="M280,360c-0.84,0-1.68-0.048-2.504-0.136c-4.464-0.52-8.328,2.712-8.8,7.112c-0.464,4.392,2.712,8.328,7.112,8.8    C277.176,375.92,278.576,376,280,376c4.424,0,8-3.576,8-8S284.424,360,280,360z" fill="#9a073c" data-original="#000000" style="" class=""/>
	</g>
</g>
<g xmlns="http://www.w3.org/2000/svg">
	<g>
		<path d="M294.232,41.776C277.616,25.152,255.512,16,232.008,16c-23.504,0-45.6,9.152-62.216,25.776    c-16.624,16.616-25.776,38.712-25.776,62.216c0,23.512,9.152,45.608,25.776,62.224c16.616,16.624,38.712,25.776,62.216,25.776    c23.504,0,45.608-9.152,62.224-25.776c16.624-16.616,25.776-38.72,25.776-62.224C320.008,80.488,310.856,58.392,294.232,41.776z     M282.92,154.904c-13.6,13.6-31.68,21.088-50.912,21.088s-37.312-7.488-50.904-21.088c-13.6-13.592-21.088-31.68-21.088-50.912    c0-19.224,7.488-37.312,21.088-50.904C194.696,39.488,212.776,32,232.008,32s37.312,7.488,50.912,21.088    c13.6,13.592,21.088,31.672,21.088,50.904S296.52,141.304,282.92,154.904z" fill="#9a073c" data-original="#000000" style="" class=""/>
	</g>
</g>
<g xmlns="http://www.w3.org/2000/svg">
	<g>
		<path d="M341.656,258.344L328,244.688V232c0-4.424-3.576-8-8-8h-8v-8c0-4.424-3.576-8-8-8h-12.688l-32.504-32.504    c-3.128-3.128-8.184-3.128-11.312,0c-3.128,3.128-3.128,8.184,0,11.312l34.848,34.848C283.84,223.16,285.872,224,288,224h8v8    c0,4.424,3.576,8,8,8h8v8c0,2.128,0.84,4.16,2.344,5.656l16,16c1.56,1.56,3.608,2.344,5.656,2.344    c2.048,0,4.096-0.784,5.656-2.344C344.784,266.528,344.784,261.472,341.656,258.344z" fill="#9a073c" data-original="#000000" style="" class=""/>
	</g>
</g>
<g xmlns="http://www.w3.org/2000/svg">
	<g>
		<path d="M397.68,202.36l-82.72-83.28c-3.136-3.136-8.184-3.152-11.32-0.04c-3.136,3.12-3.152,8.176-0.04,11.32l82.72,83.28    c1.568,1.568,3.624,2.36,5.68,2.36c2.04,0,4.08-0.776,5.64-2.32C400.776,210.56,400.792,205.504,397.68,202.36z" fill="#9a073c" data-original="#000000" style="" class=""/>
	</g>
</g>
<g xmlns="http://www.w3.org/2000/svg">
	<g>
		<path d="M392,256h-56c-4.424,0-8,3.576-8,8s3.576,8,8,8h56c4.424,0,8-3.576,8-8S396.424,256,392,256z" fill="#9a073c" data-original="#000000" style="" class=""/>
	</g>
</g>
<g xmlns="http://www.w3.org/2000/svg">
	<g>
		<path d="M392,200c-4.424,0-8,3.576-8,8v56c0,4.424,3.576,8,8,8s8-3.576,8-8v-56C400,203.576,396.424,200,392,200z" fill="#9a073c" data-original="#000000" style="" class=""/>
	</g>
</g>
<g xmlns="http://www.w3.org/2000/svg">
</g>
<g xmlns="http://www.w3.org/2000/svg">
</g>
<g xmlns="http://www.w3.org/2000/svg">
</g>
<g xmlns="http://www.w3.org/2000/svg">
</g>
<g xmlns="http://www.w3.org/2000/svg">
</g>
<g xmlns="http://www.w3.org/2000/svg">
</g>
<g xmlns="http://www.w3.org/2000/svg">
</g>
<g xmlns="http://www.w3.org/2000/svg">
</g>
<g xmlns="http://www.w3.org/2000/svg">
</g>
<g xmlns="http://www.w3.org/2000/svg">
</g>
<g xmlns="http://www.w3.org/2000/svg">
</g>
<g xmlns="http://www.w3.org/2000/svg">
</g>
<g xmlns="http://www.w3.org/2000/svg">
</g>
<g xmlns="http://www.w3.org/2000/svg">
</g>
<g xmlns="http://www.w3.org/2000/svg">
</g>
</g></svg>
