<?xml version="1.0"?>
<svg xmlns="http://www.w3.org/2000/svg" xmlns:xlink="http://www.w3.org/1999/xlink" xmlns:svgjs="http://svgjs.com/svgjs" version="1.1" width="512" height="512" x="0" y="0" viewBox="0 0 512 512" style="enable-background:new 0 0 512 512" xml:space="preserve" class=""><g><path xmlns="http://www.w3.org/2000/svg" d="m256 35.311c-141.536 0-256 114.707-256 256 0 68.34 26.641 132.616 75.015 180.986 2.928 2.929 6.768 4.393 10.606 4.393 3.839 0 7.678-1.464 10.607-4.394l45.434-45.437c5.857-5.858 5.857-15.355 0-21.213-12.843-12.843-47.176-51.039-47.395-114.347.006-89.946 73.046-161.722 161.733-161.722 89.9 0 161.727 72.98 161.733 161.722-.13 37.657-12.56 72.155-34.816 100.224-23.119-35.855-74.729-114.68-93.59-133.537-18.573-18.574-48.416-18.24-66.656 0-18.609 18.608-18.201 48.45 0 66.65 22.538 22.543 130.729 91.857 148.852 103.41l44.248 44.25c2.929 2.929 6.768 4.394 10.607 4.394s7.677-1.464 10.606-4.393c48.375-48.371 75.016-112.646 75.016-180.986 0-141.552-114.731-256-256-256zm-145.752 380.536-24.284 24.286c-32.906-37.479-52.235-84.103-55.477-133.822h34.356c3.129 40.565 18.917 78.634 45.405 109.536zm-45.406-139.536h-34.355c3.241-49.72 22.57-96.344 55.477-133.823l24.284 24.285c-26.513 30.918-42.282 68.964-45.406 109.538zm176.158-176.159c-40.575 3.124-78.625 18.897-109.54 45.407l-24.282-24.284c37.483-32.906 84.106-52.236 133.822-55.477zm2.886 203.271c-6.737-6.736-6.641-17.585-.001-24.224 6.684-6.684 17.552-6.678 24.23 0 0 0 0 .001.001.001 10.758 10.756 37.422 49.428 61.58 85.806-36.378-24.158-75.052-50.822-85.81-61.583zm27.114-203.271v-34.354c49.716 3.241 96.339 22.571 133.822 55.478l-24.282 24.284c-30.915-26.511-68.965-42.284-109.54-45.408zm130.752 66.621 24.284-24.285c32.906 37.479 52.235 84.103 55.477 133.823h-34.354c-3.125-40.574-18.894-78.62-45.407-109.538zm24.284 273.36-24.284-24.286c26.488-30.902 42.276-68.971 45.405-109.537h34.356c-3.242 49.72-22.571 96.344-55.477 133.823z" fill="#9a073c" data-original="#000000" style="" class=""/></g></svg>
