<?xml version="1.0"?>
<svg xmlns="http://www.w3.org/2000/svg" xmlns:xlink="http://www.w3.org/1999/xlink" xmlns:svgjs="http://svgjs.com/svgjs" version="1.1" width="512" height="512" x="0" y="0" viewBox="0 0 512 512" style="enable-background:new 0 0 512 512" xml:space="preserve" class=""><g><g xmlns="http://www.w3.org/2000/svg"><path d="m435.38 317.096c-14.337-2.294-59.157-9.467-73.38-11.743v-17.685c36.163-15.78 60-51.752 60-91.667v-41h50c5.522 0 10-4.478 10-10v-11.46c0-24.009-19.532-43.541-43.54-43.541h-16.958c-5.034-50.463-47.736-90-99.502-90s-94.468 39.537-99.501 90h-16.959c-24.008 0-43.54 19.532-43.54 43.54v11.46c0 5.522 4.477 10 10 10h50v41c0 39.917 23.839 75.89 60 91.668v17.685c-15.31 2.45-57.975 9.278-73.38 11.743-44.075 7.056-76.62 45.115-76.62 89.854v95.05c0 5.522 4.477 10 10 10h360c5.522 0 10-4.478 10-10v-95.05c0-44.636-32.442-82.782-76.62-89.854zm-113.38-297.096c40.724 0 74.413 30.594 79.353 70h-158.706c4.94-39.406 38.629-70 79.353-70zm-80 176v-41h36.001c5.522 0 10-4.478 10-10s-4.478-10-10-10c-10.308 0-83.83 0-96.001 0v-1.46c0-12.98 10.56-23.54 23.54-23.54h232.92c12.98 0 23.54 10.56 23.54 23.54v1.46c-9.646 0-83.472 0-93.999 0-5.522 0-10 4.478-10 10s4.478 10 10 10h33.999v41c0 43.716-35.387 80-80 80-44.61 0-80-36.281-80-80zm51.58 127.754c4.852-.776 8.42-4.961 8.42-9.874v-19.896c6.544 1.329 13.229 2.016 20 2.016s13.457-.687 20-2.016v19.896c0 4.913 3.568 9.098 8.42 9.874l33.189 5.311-61.609 82.148-61.609-82.148zm49.42 168.246h-41v-46h41zm-191-85.05c0-35.077 25.142-64.561 59.78-70.106l26.29-4.207 70.02 93.363h-16.09c-5.522 0-10 4.478-10 10v56h-70v-56c0-5.522-4.477-10-10-10s-10 4.478-10 10v56h-40zm340 85.05h-40v-56c0-5.522-4.478-10-10-10s-10 4.478-10 10v56h-69v-56c0-5.522-4.478-10-10-10h-17.09l70.02-93.363 26.289 4.207c34.639 5.546 59.781 35.029 59.781 70.106z" fill="#0b245b" data-original="#000000" style="" class=""/><path d="m356.627 216.005c2.765-4.781 1.129-10.898-3.652-13.662-4.781-2.765-10.898-1.129-13.662 3.652-3.568 6.171-10.202 10.005-17.313 10.005s-13.745-3.834-17.313-10.005c-2.763-4.779-8.878-6.418-13.662-3.652-4.781 2.764-6.417 8.881-3.652 13.662 7.13 12.333 20.398 19.995 34.627 19.995s27.497-7.662 34.627-19.995z" fill="#0b245b" data-original="#000000" style="" class=""/><path d="m10 492c-5.523 0-10 4.478-10 10s4.477 10 10 10h60c5.523 0 10-4.478 10-10s-4.477-10-10-10h-20v-163.229l143.714-57.486c3.797-1.519 6.286-5.196 6.286-9.285s-2.489-7.767-6.286-9.285l-143.714-57.486v-53.229c0-5.522-4.477-10-10-10s-10 4.478-10 10v350zm153.074-230-113.074 45.229v-90.458z" fill="#0b245b" data-original="#000000" style="" class=""/><circle cx="323" cy="145" r="10" fill="#0b245b" data-original="#000000" style="" class=""/></g></g></svg>
