<?xml version="1.0" encoding="UTF-8"?>
<svg data-bbox="0 0.049 488 483.951" xmlns="http://www.w3.org/2000/svg" viewBox="0 0 488 484" height="484" width="488" data-type="color">
    <g>
        <path fill="#0B245B" d="M464 414.08V236a104.094 104.094 0 0 0-104-104h-8.88a56.46 56.46 0 0 0-17.04-11.44l6.32-23.76a7.9 7.9 0 0 0-2.808-8.39 7.904 7.904 0 0 0-2.792-1.37l-23.2-6.24 6.24-23.2a42.056 42.056 0 0 0 5.04-2.48 39.606 39.606 0 0 0 18.64-24.32 8 8 0 0 0-5.6-9.76L258.64.32A8.047 8.047 0 0 0 248.8 6a39.745 39.745 0 0 0 4 30.32 46.351 46.351 0 0 0 3.2 4.56l-6.24 23.36-23.2-6.24a8 8 0 0 0-9.76 5.68l-41.44 154.56a7.928 7.928 0 0 0 .795 6.07 7.908 7.908 0 0 0 4.885 3.69l15.44 4.16-6.16 23.2a8.07 8.07 0 0 0 .72 6.08 8.31 8.31 0 0 0 4.88 3.68l7.76 2.08-6.24 23.2a8.103 8.103 0 0 0 .8 6.08 7.873 7.873 0 0 0 4.88 3.68l30.88 8.32a9.22 9.22 0 0 0 2.08.24 7.661 7.661 0 0 0 4-1.04 8.005 8.005 0 0 0 3.76-4.88l6.16-23.2 7.76 2.08a5.954 5.954 0 0 0 2.08.32 7.938 7.938 0 0 0 4-1.12 7.637 7.637 0 0 0 3.68-4.8l6.24-23.2 15.44 4.08a6.587 6.587 0 0 0 2.08.32 8.001 8.001 0 0 0 7.76-5.92l6.32-23.76c2.205.251 4.421.384 6.64.4a56.187 56.187 0 0 0 38.96-16H360a24.074 24.074 0 0 1 24 24v119.76l-80 .24v-8a8.002 8.002 0 0 0-8-8H152a8 8 0 0 0-8 8v32a8 8 0 0 0 8 8h144a8 8 0 0 0 8-8v-8l80-.24V404H104a56.062 56.062 0 0 0-56 56v16a8 8 0 0 0 8 8h424a8 8 0 0 0 8-8v-16a56.086 56.086 0 0 0-24-45.92zm-141.28-380a24.224 24.224 0 0 1-7.84 7.2 23.646 23.646 0 0 1-18.16 2.4l-15.44-4.16a23.94 23.94 0 0 1-17.76-21.28l59.2 15.84zm-22.24 26.24l-4.32 16.32-30.96-8.24 4.4-16.24a46.887 46.887 0 0 0 7.52 2.8l15.44 4.16a38.722 38.722 0 0 0 7.92 1.2zM230.4 290.96l-15.44-4.16 4.16-15.44 12.4 3.28 3.04.88-4.16 15.44zm23.76-26.8l-46.32-12.4 4.08-15.44 46.4 12.4-4.16 15.44zm31.52-24.72l-92.8-24.8 37.28-139.12 92.72 24.88-4.24 16.08a56.002 56.002 0 0 0-60.72 41.04 55.997 55.997 0 0 0 32 65.92l-4.24 16zm64.96-57.12a40.001 40.001 0 0 1-56.323 25.553A39.996 39.996 0 0 1 277.36 192a39.43 39.43 0 0 1-4-30.32A40 40 0 0 1 312 132a38.113 38.113 0 0 1 10.32 1.36 39.91 39.91 0 0 1 19.76 12.24v.08a36.342 36.342 0 0 1 4.56 6.32 39.42 39.42 0 0 1 5.058 14.757 39.426 39.426 0 0 1-1.058 15.563zM288 372H160v-16h128v16zm74.4-175.76a51.09 51.09 0 0 0 3.68-9.76 55.043 55.043 0 0 0-3.44-38.32A88 88 0 0 1 448 236v170.32a58.152 58.152 0 0 0-16-2.32h-32V236a39.94 39.94 0 0 0-37.6-39.76zM472 468H64v-8a39.998 39.998 0 0 1 40-40h328a39.996 39.996 0 0 1 28.284 11.716A39.996 39.996 0 0 1 472 460v8z" data-color="1"/>
        <path fill="#0B245B" d="M88 300a24.001 24.001 0 0 0 24 24h64a8 8 0 1 0 0-16h-64a8.002 8.002 0 0 1-8-8V195.592a96 96 0 1 0-16 0V300zM16 100a80 80 0 1 1 80 80 80.086 80.086 0 0 1-80-80z" data-color="1"/>
        <path fill="#99083D" d="M112 148a8 8 0 0 0-8-8v-9.136a31.329 31.329 0 0 0 8.152-3.4l6.472 6.472a8.006 8.006 0 0 0-1.738 8.719 8 8 0 0 0 13.05 2.601l11.32-11.312a8.003 8.003 0 0 0-5.653-13.662 8.006 8.006 0 0 0-5.659 2.342l-6.472-6.48a31.338 31.338 0 0 0 3.392-8.144H136a8 8 0 1 0 16 0V92a8.001 8.001 0 0 0-13.657-5.657A8.001 8.001 0 0 0 136 92h-9.136a31.326 31.326 0 0 0-3.4-8.152l6.472-6.48a8.002 8.002 0 0 0 11.312-11.32l-11.312-11.304a8.002 8.002 0 0 0-11.312 11.32l-6.472 6.472a31.325 31.325 0 0 0-8.152-3.4V60a8 8 0 1 0 0-16H88a8 8 0 0 0 0 16v9.136a31.323 31.323 0 0 0-8.152 3.4l-6.472-6.472a8.002 8.002 0 1 0-11.312-11.32l-11.32 11.312a8.002 8.002 0 0 0 11.312 11.32l6.472 6.48A31.323 31.323 0 0 0 65.136 92H56a8 8 0 0 0-16 0v16a8 8 0 1 0 16 0h9.136a31.325 31.325 0 0 0 3.4 8.152l-6.472 6.48a8.004 8.004 0 0 0-11.312 11.32l11.32 11.312a8.003 8.003 0 0 0 11.316-.004 8 8 0 0 0-.004-11.316l6.472-6.472A31.337 31.337 0 0 0 88 130.864V140a8.001 8.001 0 0 0-5.657 13.657A8.001 8.001 0 0 0 88 156h16a8 8 0 0 0 8-8zm-32-48a16 16 0 1 1 32 0 16 16 0 0 1-32 0z" data-color="2"/>
        <path fill="#0B245B" d="M312 196a24.002 24.002 0 0 1-23.539-28.682 24.005 24.005 0 0 1 18.857-18.857 23.995 23.995 0 0 1 24.637 10.205 24.002 24.002 0 0 1-2.984 30.305A24.005 24.005 0 0 1 312 196zm0-32a8.003 8.003 0 0 0-7.391 4.939 7.992 7.992 0 0 0-.455 4.622 7.993 7.993 0 0 0 6.285 6.285A8 8 0 1 0 312 164z" data-color="1"/>
    </g>
</svg>
