<?xml version="1.0" encoding="UTF-8"?>
<svg data-bbox="0 -0.013 895.287 796.473" viewBox="0 0 895.287 796.46" height="796.46" width="895.287" xmlns="http://www.w3.org/2000/svg" data-type="color">
    <g>
        <path fill="#f2f2f2" d="M175.05 793.28c8.993-7.598 14.455-19.602 13.023-31.288s-10.305-22.428-21.814-24.91-24.627 4.388-28.123 15.63c-1.923-21.674-4.14-44.257-15.664-62.715-10.434-16.713-28.506-28.672-48.093-30.811s-40.208 5.94-52.423 21.4-15.207 37.934-6.651 55.683c6.302 13.074 17.913 22.805 30.079 30.72 38.812 25.256 86.96 33.79 132.772 27.047z" data-color="1"/>
        <path fill="#ffffff" d="M41.324 665.575a317.625 317.625 0 0 1 44.264 43.954 322.163 322.163 0 0 1 34.908 51.663 320.844 320.844 0 0 1 14.948 31.651c.898 2.2-2.675 3.158-3.562.982a315.276 315.276 0 0 0-28.808-54.505 317.26 317.26 0 0 0-38.636-47.73 316.497 316.497 0 0 0-25.726-23.403c-1.844-1.502.783-4.102 2.612-2.612z" data-color="2"/>
        <path fill="#9a073c" d="M818.821 329.538H695.807a7.008 7.008 0 0 1-7-7v-14.76a7.008 7.008 0 0 1 7-7h123.014a7.008 7.008 0 0 1 7 7v14.76a7.008 7.008 0 0 1-7 7z" data-color="3"/>
        <path fill="#9a073c" d="M802.222 306.97l-52.426-47.269a6.494 6.494 0 0 0-8.317-.32l-114.73 37.882a6.507 6.507 0 0 0-4.135 8.21l4.628 14.016a6.488 6.488 0 0 0 8.21 4.134l105.244-34.75 42.936 38.714a6.454 6.454 0 0 0 4.345 1.673q.171 0 .344-.01a6.457 6.457 0 0 0 4.492-2.138l9.883-10.961a6.508 6.508 0 0 0-.474-9.18z" data-color="3"/>
        <path fill="#9a073c" d="M221.704 660.438a6.007 6.007 0 0 0-6 6v123.014a6.007 6.007 0 0 0 6 6h14.76a6.007 6.007 0 0 0 6-6V666.438a6.007 6.007 0 0 0-6-6z" data-color="3"/>
        <path fill="#9a073c" d="M267.657 796.452h-14.76a7.008 7.008 0 0 1-7-7V666.438a7.008 7.008 0 0 1 7-7h14.76a7.008 7.008 0 0 1 7 7v123.014a7.008 7.008 0 0 1-7 7z" data-color="3"/>
        <path fill="#cccccc" d="M291.822 675.975s5.576 50.144-50.72 48.44-34.392-50.974-34.392-50.974 11.765-9.245 41.503-.304 43.609 2.838 43.609 2.838z" data-color="4"/>
        <path fill="#9a073c" d="M267.63 590.638a14.377 14.377 0 0 1-7.957-26.367l96.427-63.82a7 7 0 0 1 9.701 1.974l8.146 12.308a7.008 7.008 0 0 1-1.974 9.7l-96.428 63.82a14.304 14.304 0 0 1-7.915 2.385z" data-color="3"/>
        <path fill="#9a073c" d="M301.121 480.559c0 28.167-22.833 51-51 51s-51-22.833-51-51 22.833-51 51-51 51 22.833 51 51z" data-color="3"/>
        <path fill="#2f2e41" d="M250.159 501.968c3.306-.092 7.42-.206 10.59-2.522a8.133 8.133 0 0 0 3.2-6.073 5.47 5.47 0 0 0-1.86-4.493c-1.655-1.399-4.073-1.727-6.678-.961l2.699-19.726-1.981-.271-3.174 23.19 1.655-.76c1.918-.88 4.552-1.327 6.188.056a3.515 3.515 0 0 1 1.153 2.895 6.147 6.147 0 0 1-2.381 4.528c-2.467 1.802-5.747 2.034-9.466 2.138z" data-color="5"/>
        <path fill="#2f2e41" d="M278.681 469.894v2h-10.772v-2h10.772z" data-color="5"/>
        <path fill="#2f2e41" d="M244.681 469.894v2h-10.772v-2h10.772z" data-color="5"/>
        <path fill="#2f2e41" d="M198.605 686.54s-4.403-149.715 57.244-139.44 35.961 154.851 35.961 154.851-13.21 26.42-45.501-2.935-47.704-12.476-47.704-12.476z" data-color="5"/>
        <path fill="#2f2e41" d="M221.356 437.483c9.923-6.738 22.448-2.16 32.09 2.647 9.364 4.67 19.917 10.612 30.512 6.114 4.138-1.757 7.502-5.193 8.086-9.79.697-5.477-2.615-10.604-6.298-14.327a45.877 45.877 0 0 0-13.766-9.072 64.335 64.335 0 0 0-15.668-4.765 68.19 68.19 0 0 0-59.58 18.732 75.548 75.548 0 0 0-21.426 58.072c.843 11.345 4.466 22.914 11.735 31.82 6.82 8.356 17.034 14.23 27.934 14.721a31.334 31.334 0 0 0 7.962-.647c1.883-.401 2.688 2.49.798 2.893-11.353 2.42-23.113-1.176-32.117-8.258-9.479-7.456-15.295-18.743-17.844-30.372-4.88-22.255 1.233-46.206 15.241-64.022a69.796 69.796 0 0 1 26.118-20.61 72.508 72.508 0 0 1 33.691-6.182 67.104 67.104 0 0 1 32.48 10.291c8.73 5.643 18.57 17.603 11.45 28.186-2.663 3.957-7.083 6.368-11.672 7.358a28.651 28.651 0 0 1-15.724-1.37c-11.407-4.027-21.956-13.027-34.723-11.663a16.931 16.931 0 0 0-7.765 2.834c-1.602 1.087-3.104-1.51-1.514-2.59z" data-color="5"/>
        <path fill="#9a073c" d="M657.085 205.2a13.88 13.88 0 0 1 4.55-25.239l112.988-24.596a6.506 6.506 0 0 1 7.734 4.968l-.489.107.489-.107 3.14 14.422a6.5 6.5 0 0 1-4.97 7.734L667.54 207.085a14.097 14.097 0 0 1-1.483.241 13.775 13.775 0 0 1-8.972-2.125z" data-color="3"/>
        <path fill="#2f2e41" d="M647.834 197.048q-.101-.402-.18-.813c-.928-4.893.769-10.045 4.779-14.507a30.705 30.705 0 0 1 16.274-9.066l51.511-11.27a6.5 6.5 0 0 1 7.776 5.137l4.494 23.674a6.466 6.466 0 0 1-4.997 7.562l-51.837 11.34a33.322 33.322 0 0 1-7.116.784c-10.212 0-18.715-4.974-20.704-12.84z" data-color="5"/>
        <path fill="#9a073c" d="M707.849 93.076c0 28.167-22.833 51-51 51s-51-22.833-51-51 22.833-51 51-51 51 22.833 51 51z" data-color="3"/>
        <path fill="#2f2e41" d="M699.887 111.485c3.306-.091 7.42-.206 10.59-2.522a8.133 8.133 0 0 0 3.2-6.072 5.47 5.47 0 0 0-1.86-4.494c-1.656-1.398-4.073-1.727-6.679-.961l2.7-19.726-1.982-.271-3.173 23.19 1.654-.76c1.919-.88 4.552-1.327 6.188.056a3.515 3.515 0 0 1 1.153 2.895 6.147 6.147 0 0 1-2.381 4.528c-2.467 1.802-5.746 2.034-9.466 2.138z" data-color="5"/>
        <path fill="#2f2e41" d="M694.408 79.412v2h-10.772v-2h10.772z" data-color="5"/>
        <path fill="#2f2e41" d="M653.281 41.926a42.16 42.16 0 0 0-16.487-30.886 41.065 41.065 0 0 0-35.014-6.678 40.441 40.441 0 0 0-26.883 22.939 42.107 42.107 0 0 0-3.61 17.692 47.833 47.833 0 0 0 4.83 19.067c3.008 6.552 6.8 12.7 10.095 19.104a152.462 152.462 0 0 1 8.377 19.557 154.18 154.18 0 0 1 8.322 42.374c1.224 22.77-.955 56.014-26.66 64.753-6.537 2.223-13.589 2.636-20.442 2.618a83.951 83.951 0 0 1-21.42-2.509c-12.136-3.24-23.656-10.85-28.827-22.672a31.553 31.553 0 0 1-2.373-8.569c-.108-.81.766-1.492 1.5-1.5a1.537 1.537 0 0 1 1.5 1.5c1.674 12.598 12.171 22.26 23.57 26.602a67.697 67.697 0 0 0 20.735 4.012c7.046.356 14.362.3 21.262-1.32a30.792 30.792 0 0 0 16.014-9.104 41.402 41.402 0 0 0 8.359-15.122c4.057-12.385 4.483-26.002 3.77-38.91a151.262 151.262 0 0 0-8.498-42.194 147.934 147.934 0 0 0-8.804-19.958c-3.342-6.286-7.054-12.395-9.87-18.947a49.444 49.444 0 0 1-4.444-19.154 45.244 45.244 0 0 1 3.575-17.793 43.37 43.37 0 0 1 25.81-24.36 44.64 44.64 0 0 1 36.016 2.95 45.385 45.385 0 0 1 21.255 27.732 43.424 43.424 0 0 1 1.342 8.776c.1 1.93-2.901 1.924-3 0z" data-color="5"/>
        <path fill="#2f2e41" d="M643.308 42.979a23.488 23.488 0 0 0-7.857-14.333 23.17 23.17 0 0 0-16.195-5.376c-1.93.097-1.925-2.903 0-3a26.104 26.104 0 0 1 26.945 21.911c.288 1.889-2.602 2.703-2.893.798z" data-color="5"/>
        <path fill="#2f2e41" d="M637.004 43.152a5.5 5.5 0 0 1 3.5-6.946l14.243-4.704a5.5 5.5 0 1 1 3.449 10.445l-14.244 4.703a5.498 5.498 0 0 1-6.947-3.498z" data-color="5"/>
        <path fill="#cccccc" d="M748.235 112.45a5.006 5.006 0 0 0-2.164 8.748l22.011 18.289a3.254 3.254 0 0 1 .783.978 3.058 3.058 0 0 1 .3 1.206l1.374 33.54a4.893 4.893 0 0 0 3.85 4.671l.038.009a4.886 4.886 0 0 0 5.486-2.475l7.94-14.48a3.01 3.01 0 0 1 2.689-1.541 2.91 2.91 0 0 1 2.133.946l38.1 40.656a4.968 4.968 0 0 0 4.371 1.527 5.018 5.018 0 0 0 3.744-2.707l55.866-111.772a5.002 5.002 0 0 0-5.503-7.138l-1.81.378-139.208 29.165zm-.892 7.212a3.007 3.007 0 0 1 1.308-5.25l139.165-29.156 1.852-.388a3.008 3.008 0 0 1 3.303 4.279l-55.867 111.772a3 3 0 0 1-4.87.707l-38.1-40.655a4.795 4.795 0 0 0-1.3-1.003l96.813-70.234a2.003 2.003 0 0 0-1.648-3.574 1.744 1.744 0 0 0-.323.11l-117.548 52.472a4.934 4.934 0 0 0-.774-.791l-22.012-18.289z" data-color="4"/>
        <path fill="#3f3d56" d="M748.235 112.45a5.006 5.006 0 0 0-2.164 8.748l22.011 18.289a3.254 3.254 0 0 1 .783.978 3.058 3.058 0 0 1 .3 1.206l1.374 33.54a4.893 4.893 0 0 0 3.85 4.671l.038.009a4.886 4.886 0 0 0 5.486-2.475l7.94-14.48a3.01 3.01 0 0 1 2.689-1.541 2.91 2.91 0 0 1 2.133.946l38.1 40.656a4.968 4.968 0 0 0 4.371 1.527 5.018 5.018 0 0 0 3.744-2.707l55.866-111.772a5.002 5.002 0 0 0-5.503-7.138l-1.81.378-139.208 29.165zm-.892 7.212a3.007 3.007 0 0 1 1.308-5.25l139.165-29.156 1.852-.388a3.008 3.008 0 0 1 3.303 4.279l-55.867 111.772a3 3 0 0 1-4.87.707l-38.1-40.655a4.795 4.795 0 0 0-1.3-1.003 4.866 4.866 0 0 0-2.268-.578c-.112-.004-.225 0-.34.005l-.01-.002a4.99 4.99 0 0 0-4.114 2.581l-7.942 14.49a2.91 2.91 0 0 1-3.3 1.474l-.02-.004a2.904 2.904 0 0 1-2.305-2.801l-1.374-33.54a4.73 4.73 0 0 0-.151-1.05l.002-.01a4.796 4.796 0 0 0-.357-.953 4.648 4.648 0 0 0-.527-.838 4.934 4.934 0 0 0-.774-.791l-22.012-18.289z" data-color="6"/>
        <path fill="#3f3d56" d="M770.129 138.742l117.548-52.471a1.745 1.745 0 0 1 .323-.111 2.003 2.003 0 0 1 1.648 3.574l-96.812 70.234-1.708 1.242-1.17-1.62.26-.197.01.002 98.24-71.283-117.455 52.42-.002.01-.512.223-.815-1.827z" data-color="6"/>
        <path fill="#2f2e41" d="M623.264 297.96a5.506 5.506 0 0 0-5.5 5.5v20a5.506 5.506 0 0 0 5.5 5.5h64a5.506 5.506 0 0 0 5.5-5.5v-20a5.506 5.506 0 0 0-5.5-5.5z" data-color="5"/>
        <path fill="#2f2e41" d="M615.718 196.51a51.265 51.265 0 0 0-1.647 27.54c5.086 24.934 3.193 54.411-1.807 85.91 0 3.314 2.308 6 5.155 6h78.19c2.847 0 5.155-2.686 5.155-6v-93.5c0-27.63-18.782-50.24-42.274-51.44a32.37 32.37 0 0 0-1.976-.06c-18.327 0-34.085 13.03-40.796 31.55z" data-color="5"/>
        <path fill="#9a073c" d="M640.62 317.86V202.228a13.88 13.88 0 0 1 27.76 0V317.86a6.507 6.507 0 0 1-6.5 6.5h-14.76a6.507 6.507 0 0 1-6.5-6.5z" data-color="3"/>
        <path fill="#2f2e41" d="M664.363 235.038l-20.98-.924a6.508 6.508 0 0 1-6.208-6.78l1.474-33.467a17 17 0 1 1 33.967 1.495l-1.474 33.468a6.5 6.5 0 0 1-6.486 6.214q-.146 0-.293-.006z" data-color="5"/>
        <path fill="#2f2e41" d="M705.264 241.96c0 8.008-2.015 14.5-4.5 14.5s-4.5-6.492-4.5-14.5 2.015-14.5 4.5-14.5 4.5 6.492 4.5 14.5z" data-color="5"/>
        <path fill="#cccccc" d="M479.15 397.46c0 13.807-11.193 25-25 25s-25-11.193-25-25 11.193-25 25-25 25 11.193 25 25z" data-color="4"/>
        <path fill="#cccccc" d="M701.378 422.46h-192a8 8 0 1 1 0-16h192a8 8 0 0 1 0 16z" data-color="4"/>
        <path fill="#cccccc" d="M649.378 388.46h-140a8 8 0 1 1 0-16h140a8 8 0 0 1 0 16z" data-color="4"/>
        <path fill="#cccccc" d="M479.15 492.46c0 13.807-11.193 25-25 25s-25-11.193-25-25 11.193-25 25-25 25 11.193 25 25z" data-color="4"/>
        <path fill="#cccccc" d="M701.378 517.46h-192a8 8 0 1 1 0-16h192a8 8 0 0 1 0 16z" data-color="4"/>
        <path fill="#cccccc" d="M649.378 483.46h-140a8 8 0 1 1 0-16h140a8 8 0 0 1 0 16z" data-color="4"/>
        <path fill="#cccccc" d="M479.15 588.46c0 13.807-11.193 25-25 25s-25-11.193-25-25 11.193-25 25-25 25 11.193 25 25z" data-color="4"/>
        <path fill="#cccccc" d="M701.378 613.46h-192a8 8 0 1 1 0-16h192a8 8 0 0 1 0 16z" data-color="4"/>
        <path fill="#cccccc" d="M649.378 579.46h-140a8 8 0 1 1 0-16h140a8 8 0 0 1 0 16z" data-color="4"/>
        <path fill="#3f3d56" d="M768.264 658.46h-398a17.02 17.02 0 0 1-17-17v-297a17.02 17.02 0 0 1 17-17h398a17.02 17.02 0 0 1 17 17v297a17.02 17.02 0 0 1-17 17zm-398-329a15.017 15.017 0 0 0-15 15v297a15.017 15.017 0 0 0 15 15h398a15.017 15.017 0 0 0 15-15v-297a15.017 15.017 0 0 0-15-15z" data-color="6"/>
        <path fill="#9a073c" d="M416.264 332.46c0 30.928-25.072 56-56 56s-56-25.072-56-56 25.072-56 56-56 56 25.072 56 56z" data-color="3"/>
        <path fill="#ffffff" d="M354.714 353.823a5.808 5.808 0 0 1-3.495-1.161l-.063-.047-13.16-10.076a5.847 5.847 0 1 1 7.112-9.282l8.524 6.536 20.144-26.271a5.847 5.847 0 0 1 8.198-1.082l-.125.17.128-.168a5.853 5.853 0 0 1 1.082 8.198l-23.694 30.9a5.85 5.85 0 0 1-4.652 2.283z" data-color="2"/>
        <path fill="#9a073c" d="M359.834 667.297a6.927 6.927 0 0 1-2.855-.613l-105.504-47.33a14.38 14.38 0 1 1 11.77-26.24l105.505 47.33a7 7 0 0 1 3.522 9.252l-6.04 13.467a7.018 7.018 0 0 1-6.398 4.134z" data-color="3"/>
        <path fill="#3f3d56" d="M382 796.46H1a1 1 0 1 1 0-2h381a1 1 0 0 1 0 2z" data-color="6"/>
    </g>
</svg>
