<?xml version="1.0" encoding="UTF-8"?>
<svg data-bbox="0 0 643 447.571" viewBox="0 0 643 447.57" height="447.57" width="643" xmlns="http://www.w3.org/2000/svg" data-type="color">
    <g>
        <path fill="#3f3d56" d="M613.071 87.063H29.928A29.962 29.962 0 0 1 0 57.136V29.928A29.962 29.962 0 0 1 29.928 0h583.143A29.962 29.962 0 0 1 643 29.928v27.208a29.962 29.962 0 0 1-29.929 29.928zM29.928 1.813A28.146 28.146 0 0 0 1.813 29.928v27.208A28.146 28.146 0 0 0 29.928 85.25h583.143a28.146 28.146 0 0 0 28.115-28.114V29.928a28.146 28.146 0 0 0-28.115-28.114z" data-color="1"/>
        <path fill="#e6e6e6" d="M478.849 43.531v.001c0 9.516-7.715 17.231-17.231 17.231H74.366c-9.516 0-17.231-7.715-17.231-17.231v-.001c0-9.516 7.715-17.231 17.231-17.231h387.252c9.516 0 17.231 7.715 17.231 17.231z" data-color="2"/>
        <path fill="#9a073c" d="M529.636 194.661v.001c0 9.516-7.715 17.231-17.231 17.231H125.153c-9.516 0-17.231-7.715-17.231-17.231v-.001c0-9.516 7.715-17.231 17.231-17.231h387.252c9.516 0 17.231 7.715 17.231 17.231z" data-color="3"/>
        <path fill="#e6e6e6" d="M529.636 304.235v.001c0 9.516-7.715 17.231-17.231 17.231H125.153c-9.516 0-17.231-7.715-17.231-17.231v-.001c0-9.516 7.715-17.231 17.231-17.231h387.252c9.516 0 17.231 7.715 17.231 17.231z" data-color="2"/>
        <path fill="#e6e6e6" d="M529.636 413.809v.001c0 9.516-7.715 17.231-17.231 17.231H125.153c-9.516 0-17.231-7.715-17.231-17.231v-.001c0-9.516 7.715-17.231 17.231-17.231h387.252c9.516 0 17.231 7.715 17.231 17.231z" data-color="2"/>
        <path fill="#9a073c" d="M586.312 62.147a2.714 2.714 0 0 1-3.78.667l-14.807-10.303a2.714 2.714 0 1 1 3.114-4.446l14.806 10.303a2.714 2.714 0 0 1 .667 3.78z" data-color="3"/>
        <path fill="#9a073c" d="M569.502 50.443a19.267 19.267 0 1 1-4.732-26.834 19.289 19.289 0 0 1 4.732 26.833zm-27.62-19.34a14.45 14.45 0 1 0 20.126-3.549 14.466 14.466 0 0 0-20.125 3.55z" data-color="3"/>
        <path fill="#3f3d56" d="M596.294 228.333H46.705a.907.907 0 1 1 0-1.814h549.589a.907.907 0 1 1 0 1.813z" data-color="1"/>
        <path fill="#3f3d56" d="M596.294 337.952H46.705a.907.907 0 0 1 0-1.814h549.589a.907.907 0 0 1 0 1.814z" data-color="1"/>
        <path fill="#3f3d56" d="M596.294 447.57H46.705a.907.907 0 0 1 0-1.813h549.589a.907.907 0 1 1 0 1.813z" data-color="1"/>
    </g>
</svg>
