<?xml version="1.0" encoding="UTF-8"?>
<svg data-bbox="0 0 1141 822.036" viewBox="0 0 1141 822.037" height="822.037" width="1141" xmlns="http://www.w3.org/2000/svg" data-type="ugc">
    <g>
        <path fill="#f2f2f2" d="M909 657v2H769v-2h140z"/>
        <path fill="#f2f2f2" d="M871 658.5V677h-2v-18.5h2z"/>
        <path fill="#f2f2f2" d="M810 658.5V677h-2v-18.5h2z"/>
        <path fill="#f2f2f2" d="M966 731v2H826v-2h140z"/>
        <path fill="#f2f2f2" d="M866 713v18.5h-2V713h2z"/>
        <path fill="#f2f2f2" d="M927 713v18.5h-2V713h2z"/>
        <path fill="#f2f2f2" d="M140 263v2H0v-2h140z"/>
        <path fill="#f2f2f2" d="M40 245v18.5h-2V245h2z"/>
        <path fill="#f2f2f2" d="M101 245v18.5h-2V245h2z"/>
        <path fill="#f2f2f2" d="M140 409v2H0v-2h140z"/>
        <path fill="#f2f2f2" d="M102 410.5V429h-2v-18.5h2z"/>
        <path fill="#f2f2f2" d="M41 410.5V429h-2v-18.5h2z"/>
        <path fill="#f2f2f2" d="M908 48v2H768v-2h140z"/>
        <path fill="#f2f2f2" d="M808 30v18.5h-2V30h2z"/>
        <path fill="#f2f2f2" d="M869 30v18.5h-2V30h2z"/>
        <path fill="#f2f2f2" d="M1141 155v2h-140v-2h140z"/>
        <path fill="#f2f2f2" d="M1041 137v18.5h-2V137h2z"/>
        <path fill="#f2f2f2" d="M1102 137v18.5h-2V137h2z"/>
        <path fill="#f2f2f2" d="M1082 410v2H942v-2h140z"/>
        <path fill="#f2f2f2" d="M982 392v18.5h-2V392h2z"/>
        <path fill="#f2f2f2" d="M1043 392v18.5h-2V392h2z"/>
        <path fill="#f2f2f2" d="M232 28v2H92v-2h140z"/>
        <path fill="#f2f2f2" d="M132 10v18.5h-2V10h2z"/>
        <path fill="#f2f2f2" d="M193 10v18.5h-2V10h2z"/>
        <path fill="#f2f2f2" d="M628 80v2H488v-2h140z"/>
        <path fill="#f2f2f2" d="M528 62v18.5h-2V62h2z"/>
        <path fill="#f2f2f2" d="M589 62v18.5h-2V62h2z"/>
        <path fill="#f2f2f2" d="M696 18v2H556v-2h140z"/>
        <path fill="#f2f2f2" d="M596 0v18.5h-2V0h2z"/>
        <path fill="#f2f2f2" d="M657 0v18.5h-2V0h2z"/>
        <path fill="#f2f2f2" d="M992 80v2H852v-2h140z"/>
        <path fill="#f2f2f2" d="M954 81.5V100h-2V81.5h2z"/>
        <path fill="#f2f2f2" d="M893 81.5V100h-2V81.5h2z"/>
        <path fill="#f2f2f2" d="M1071 270v2H931v-2h140z"/>
        <path fill="#f2f2f2" d="M1033 271.5V290h-2v-18.5h2z"/>
        <path fill="#f2f2f2" d="M972 271.5V290h-2v-18.5h2z"/>
        <path fill="#f2f2f2" d="M416 40v2H276v-2h140z"/>
        <path fill="#f2f2f2" d="M378 41.5V60h-2V41.5h2z"/>
        <path fill="#f2f2f2" d="M317 41.5V60h-2V41.5h2z"/>
        <path fill="#9a073c" d="M122.751 101.358V254.85s234.077-43.639 380.87 19.84 349.13 26.53 349.13 26.53V101.358z"/>
        <path fill="#9a073c" d="M510.233 329.572c-105.135-41.658-387.481-24.242-387.481-24.242v166.318h730V355.954s-237.383 15.276-342.519-26.382z"/>
        <path fill="#3f3d56" d="M799.289 421.886v49.203h-1.322v-49.203h1.322z"/>
        <path fill="#3f3d56" d="M805.586 421.886a6.958 6.958 0 1 1-13.916 0 6.958 6.958 0 0 1 13.916 0z"/>
        <path fill="#3f3d56" d="M798.628 452.21s-.994-21.379-21.37-18.894"/>
        <path fill="#ffffff" d="M162.034 447.757c4.016 14.845 17.771 24.038 17.771 24.038s7.244-14.874 3.228-29.719-17.77-24.038-17.77-24.038-7.244 14.874-3.229 29.719z"/>
        <path fill="#3f3d56" d="M167.935 444.567c11.02 10.726 12.366 27.216 12.366 27.216s-16.52-.902-27.54-11.629-12.365-27.216-12.365-27.216 16.52.902 27.54 11.629z"/>
        <path fill="#ffffff" d="M465.067 421.511c-8.382 30.985-37.093 50.176-37.093 50.176s-15.12-31.048-6.738-62.033 37.093-50.176 37.093-50.176 15.12 31.047 6.738 62.033z"/>
        <path fill="#ffffff" d="M388.813 421.511c8.382 30.985 37.093 50.176 37.093 50.176s15.12-31.048 6.738-62.033-37.093-50.176-37.093-50.176-15.12 31.047-6.738 62.033z"/>
        <path fill="#3f3d56" d="M401.13 414.852c23 22.39 25.81 56.81 25.81 56.81s-34.482-1.883-57.483-24.274-25.81-56.81-25.81-56.81 34.482 1.883 57.483 24.274z"/>
        <path fill="#3f3d56" d="M452.75 414.852c-23 22.39-25.81 56.81-25.81 56.81s34.482-1.883 57.483-24.274 25.81-56.81 25.81-56.81-34.482 1.883-57.483 24.274z"/>
        <path fill="#f0f0f0" d="M546.054 471.827a7.935 7.935 0 1 1 7.935-7.935 7.944 7.944 0 0 1-7.935 7.935zm0-14.548a6.612 6.612 0 1 0 6.612 6.613 6.62 6.62 0 0 0-6.612-6.613z"/>
        <path fill="#3f3d56" d="M737.15 348.838a7.935 7.935 0 1 1 7.935-7.935 7.944 7.944 0 0 1-7.935 7.934zm0-14.548a6.612 6.612 0 1 0 6.612 6.613 6.62 6.62 0 0 0-6.612-6.613z"/>
        <path fill="#3f3d56" d="M197.47 341.756h-13.053v-13.054h13.054zm-12.049-1.005h11.046v-11.045H185.42z"/>
        <path fill="#3f3d56" d="M385.26 286.873h-13.053V273.82h13.054zm-12.049-1.004h11.045v-11.045h-11.045z"/>
        <path fill="#f0f0f0" d="M735.97 452.443a6.664 6.664 0 1 1-13.328 0 6.664 6.664 0 0 1 13.328 0z"/>
        <path fill="#2f2e41" d="M729.306 471.695a19.252 19.252 0 1 1 19.253-19.253 19.274 19.274 0 0 1-19.253 19.253zm0-37.024a17.771 17.771 0 1 0 17.772 17.771 17.792 17.792 0 0 0-17.772-17.771z"/>
        <path fill="#e6e6e6" d="M582.8 272.718a80.494 80.494 0 0 0 1.952 1.835l-.603.664a81.693 81.693 0 0 1-1.975-1.855z"/>
        <path fill="#e6e6e6" d="M691.63 156.895a81.21 81.21 0 0 1 2.625 2.493l-.633.637a80.472 80.472 0 0 0-3.97-3.686l.589-.678q.7.607 1.39 1.234zm-5.646-4.682l-.54.717a79.553 79.553 0 0 0-4.432-3.114l.491-.751a80.696 80.696 0 0 1 4.481 3.148zm12.024 11.163a80.227 80.227 0 0 1 3.471 4.237l-.714.544a79.213 79.213 0 0 0-3.432-4.188zm-21.191-17.146l-.439.784a78.59 78.59 0 0 0-4.816-2.476l.383-.813a79.582 79.582 0 0 1 4.872 2.505zm27.834 25.848a79.625 79.625 0 0 1 2.857 4.674l-.781.442a79.099 79.099 0 0 0-2.825-4.621zm-37.739-30.515l-.325.837a79.208 79.208 0 0 0-5.106-1.788l.268-.857a79.906 79.906 0 0 1 5.163 1.808zm43.128 40.056a79.77 79.77 0 0 1 2.187 5.029l-.835.33a78.84 78.84 0 0 0-2.163-4.972zm-53.568-43.314l-.209.874a79.491 79.491 0 0 0-5.305-1.072l.147-.886a80.52 80.52 0 0 1 5.367 1.084zm57.592 53.509a80.2 80.2 0 0 1 1.477 5.278l-.872.212a79.482 79.482 0 0 0-1.461-5.22zm-68.387-55.308l-.087.894a79.622 79.622 0 0 0-5.404-.34l.025-.897c1.817.052 3.656.167 5.466.343zm70.977 65.953c.308 1.791.558 3.618.744 5.429l-.894.09a80.123 80.123 0 0 0-.735-5.367zm-81.92-66.266l.035.897a80.073 80.073 0 0 0-5.402.399l-.097-.894a81.029 81.029 0 0 1 5.464-.402zm83.036 77.16a80.814 80.814 0 0 1-.001 5.478l-.898-.03a79.907 79.907 0 0 0 .001-5.417zm-93.925-75.982l.157.884a79.72 79.72 0 0 0-5.3 1.13l-.216-.872a80.25 80.25 0 0 1 5.36-1.142zm93.55 86.924a80.362 80.362 0 0 1-.746 5.424l-.885-.153c.305-1.77.554-3.574.738-5.364zm-104.18-84.274l.277.854a79.065 79.065 0 0 0-5.098 1.845l-.334-.833a79.61 79.61 0 0 1 5.155-1.866zm102.32 95.057a79.943 79.943 0 0 1-1.48 5.27l-.856-.273a79.266 79.266 0 0 0 1.463-5.21zm-112.491-90.975l.391.808a79.115 79.115 0 0 0-4.798 2.53l-.446-.78a79.573 79.573 0 0 1 4.853-2.558zM712.218 245.5a79.717 79.717 0 0 1-2.191 5.02l-.81-.387a78.899 78.899 0 0 0 2.166-4.964zm-118.685-95.954l.499.747a78.959 78.959 0 0 0-4.397 3.161l-.549-.71a80.245 80.245 0 0 1 4.447-3.198zm113.961 105.831a79.835 79.835 0 0 1-2.861 4.671l-.75-.495a78.84 78.84 0 0 0 2.83-4.618zM584.87 156.239l.596.671a80.047 80.047 0 0 0-3.924 3.733l-.64-.63a80.75 80.75 0 0 1 3.968-3.774zm116.588 108.272a81.475 81.475 0 0 1-3.47 4.237l-.676-.592a80.235 80.235 0 0 0 3.433-4.19zM577.88 164.634a80.159 80.159 0 0 0-3.386 4.228l-.72-.537a81.12 81.12 0 0 1 3.424-4.276zm-6.475 8.676a79.33 79.33 0 0 0-2.776 4.65l-.786-.433a79.939 79.939 0 0 1 2.807-4.704zm-5.224 9.48a78.995 78.995 0 0 0-2.108 4.983l-.838-.321a79.698 79.698 0 0 1 2.131-5.039zm-3.867 10.1a79.221 79.221 0 0 0-1.404 5.227l-.875-.202a80.17 80.17 0 0 1 1.42-5.287zm-2.446 10.54a79.861 79.861 0 0 0-.677 5.372l-.894-.081c.165-1.808.395-3.636.684-5.434zm-.985 10.78a79.797 79.797 0 0 0 .06 5.416l-.897.04a80.899 80.899 0 0 1-.061-5.477zm.489 10.816c.204 1.79.471 3.593.796 5.36l-.883.162a80.76 80.76 0 0 1-.806-5.42zm1.955 10.652a79.784 79.784 0 0 0 1.52 5.203l-.853.281a80.565 80.565 0 0 1-1.537-5.261zm3.394 10.29a78.756 78.756 0 0 0 2.22 4.945l-.806.396a79.945 79.945 0 0 1-2.246-5.003zm4.776 9.727a78.846 78.846 0 0 0 2.877 4.588l-.744.504a79.688 79.688 0 0 1-2.91-4.641zm6.064 8.968a79.5 79.5 0 0 0 3.48 4.15l-.668.6a80.565 80.565 0 0 1-3.52-4.197z"/>
        <path fill="#e6e6e6" d="M693.511 272.198l.633.638a80.178 80.178 0 0 1-1.955 1.875l-.61-.658a81.57 81.57 0 0 0 1.932-1.855z"/>
        <path fill="#3f3d56" d="M644.082 471.138c-.175-.285-4.288-7.154-5.714-21.416-1.308-13.085-.467-35.14 10.971-65.906 21.67-58.284-4.994-105.31-5.266-105.78l1.315-.762c.07.119 6.95 12.108 11.014 31.2a136.119 136.119 0 0 1-5.638 75.872c-21.632 58.184-5.55 85.728-5.385 86z"/>
        <path fill="#ffffff" d="M645.49 264.733c0 5.458-4.424 9.882-9.882 9.882-5.458 0-9.882-4.424-9.882-9.882 0-5.458 4.424-9.882 9.882-9.882 5.458 0 9.882 4.424 9.882 9.882z"/>
        <path fill="#3f3d56" d="M676.658 301.221c0 5.458-4.424 9.882-9.882 9.882-5.458 0-9.882-4.424-9.882-9.882 0-5.458 4.424-9.882 9.882-9.882 5.458 0 9.882 4.424 9.882 9.882z"/>
        <path fill="#3f3d56" d="M655.373 325.547c0 5.458-4.424 9.882-9.882 9.882-5.458 0-9.882-4.424-9.882-9.882 0-5.458 4.424-9.882 9.882-9.882 5.458 0 9.882 4.424 9.882 9.882z"/>
        <path fill="#3f3d56" d="M681.219 346.072c0 5.458-4.424 9.882-9.882 9.882-5.458 0-9.882-4.424-9.882-9.882 0-5.458 4.424-9.882 9.882-9.882 5.458 0 9.882 4.424 9.882 9.882z"/>
        <path fill="#ffffff" d="M647.771 378c0 5.458-4.424 9.882-9.882 9.882-5.458 0-9.882-4.424-9.882-9.882 0-5.458 4.424-9.882 9.882-9.882 5.458 0 9.882 4.424 9.882 9.882z"/>
        <path fill="#3f3d56" d="M650.052 471.501s-9.883-24.325 19.764-42.57z"/>
        <path fill="#3f3d56" d="M637.898 471.06s-4.498-25.868-39.308-25.647z"/>
        <path fill="#3f3d56" d="M265.857 471.138c-.174-.285-4.288-7.154-5.714-21.416-1.308-13.085-.467-35.14 10.971-65.906 21.67-58.284-4.993-105.31-5.266-105.78l1.316-.762c.069.119 6.949 12.108 11.013 31.2a136.119 136.119 0 0 1-5.637 75.872c-21.633 58.184-5.55 85.728-5.385 86z"/>
        <path fill="#3f3d56" d="M267.266 264.733c0 5.458-4.424 9.882-9.882 9.882-5.458 0-9.882-4.424-9.882-9.882 0-5.458 4.424-9.882 9.882-9.882 5.458 0 9.882 4.424 9.882 9.882z"/>
        <path fill="#3f3d56" d="M298.433 301.221c0 5.458-4.424 9.882-9.882 9.882-5.458 0-9.882-4.424-9.882-9.882 0-5.458 4.424-9.882 9.882-9.882 5.458 0 9.882 4.424 9.882 9.882z"/>
        <path fill="#ffffff" d="M277.148 325.547c0 5.458-4.424 9.882-9.882 9.882-5.458 0-9.882-4.424-9.882-9.882 0-5.458 4.424-9.882 9.882-9.882 5.458 0 9.882 4.424 9.882 9.882z"/>
        <path fill="#ffffff" d="M302.994 346.072c0 5.458-4.424 9.882-9.882 9.882-5.458 0-9.882-4.424-9.882-9.882 0-5.458 4.424-9.882 9.882-9.882 5.458 0 9.882 4.424 9.882 9.882z"/>
        <path fill="#3f3d56" d="M269.546 378c0 5.458-4.424 9.882-9.882 9.882-5.458 0-9.882-4.424-9.882-9.882 0-5.458 4.424-9.882 9.882-9.882 5.458 0 9.882 4.424 9.882 9.882z"/>
        <path fill="#3f3d56" d="M271.827 471.501s-9.882-24.325 19.765-42.57z"/>
        <path fill="#3f3d56" d="M259.673 471.06s-4.497-25.868-39.307-25.647z"/>
        <path fill="#e6e6e6" d="M462.246 153.692H355.449l.428-1.31c.075-.23 7.895-22.922 42.503-18.541 3.265-1.115 35.121-11.516 54.187.169 8.462 5.185 12.752 10.005 12.752 14.326a6.352 6.352 0 0 1-2.833 5.209zm-103.907-2h103.307a4.297 4.297 0 0 0 1.673-3.385c-.016-2.456-2.076-6.635-11.797-12.592-18.883-11.572-52.37-.027-52.706.09l-.224.08-.235-.03c-28.3-3.668-37.794 11.24-40.018 15.837z"/>
        <path fill="#e6e6e6" d="M817.725 199.172h-72.437l.427-1.31c.052-.157 5.403-15.655 28.89-12.714 2.574-.872 23.853-7.695 36.683.169 5.8 3.554 8.74 6.893 8.74 9.923a4.622 4.622 0 0 1-2.063 3.785zm-69.512-2h68.899a2.554 2.554 0 0 0 .917-1.96c-.014-1.285-1.043-4.057-7.786-8.19-12.57-7.704-34.978.012-35.202.091l-.224.078-.236-.03c-17.984-2.328-24.536 6.564-26.368 10.011z"/>
        <path fill="#e6e6e6" d="M514.22 225.436h-72.438l.428-1.31c.051-.158 5.395-15.657 28.89-12.714 2.574-.872 23.85-7.695 36.682.169 5.8 3.554 8.741 6.892 8.741 9.923a4.62 4.62 0 0 1-2.063 3.785zm-69.512-2h68.898a2.558 2.558 0 0 0 .917-1.96c-.013-1.285-1.042-4.058-7.786-8.19-12.57-7.703-34.977.012-35.202.091l-.224.078-.236-.03c-17.988-2.33-24.536 6.564-26.367 10.011z"/>
        <path opacity=".1" d="M220.614 160.628c0 16.251-13.174 29.425-29.425 29.425s-29.425-13.174-29.425-29.425 13.174-29.425 29.425-29.425 29.425 13.174 29.425 29.425z"/>
        <path fill="#e6e6e6" d="M196.148 192.375a38.69 38.69 0 1 1 38.69-38.69 38.734 38.734 0 0 1-38.69 38.69zm0-75.38a36.69 36.69 0 1 0 36.69 36.69 36.732 36.732 0 0 0-36.69-36.69z"/>
        <path fill="#3f3d56" d="M87.751 71.592v437h798v-437zm760 399h-722v-361h722z"/>
        <path opacity=".5" fill="#d0cde1" d="M273.942 470.592l18.32 38h-171.86l3.35-399h271.9s-69.66 150.16-183.9 232z"/>
        <path opacity=".5" fill="#d0cde1" d="M697.562 470.592l-18.32 38h171.86l-3.35-399h-271.9s69.66 150.16 183.9 232z"/>
        <path fill="#3f3d56" d="M224.751 328.592v19h-112v-19h112z"/>
        <path fill="#3f3d56" d="M861.751 328.592v19h-112v-19h112z"/>
        <path fill="#ffb8b8" d="M985.251 350.592l-4 94-25 94s-26 46-6 46 26-43 26-43l32-88 6-81z"/>
        <path fill="#ffb8b8" d="M928.251 701.592l2 72h20l8-46s7-19 7-20-37-6-37-6z"/>
        <path fill="#2f2e41" d="M953.251 769.592h-25s-10 15-12 15-31 1-13 14 35 7 35 7v12s20 10 21 0l.03-.3a71.38 71.38 0 0 0-4.386-31.776c-2.379-6.358-4.343-13.765-1.644-15.924z"/>
        <path fill="#ffb8b8" d="M992.746 696.132l23.002 68.256 19.123-5.858-5.825-46.326s1.128-20.217.835-21.173-37.135 5.101-37.135 5.101z"/>
        <path fill="#2f2e41" d="M1036.568 753.827l-23.904 7.322s-5.167 17.272-7.08 17.858-29.347 10.036-8.329 17.193 35.516-3.559 35.516-3.559l3.515 11.474s22.052 3.703 20.079-6.151l-.06-.296a71.38 71.38 0 0 0-13.501-29.097c-4.137-5.383-8.185-11.889-6.236-14.744z"/>
        <path fill="#ffb8b8" d="M978.751 297.092c0 16.016-12.984 29-29 29s-29-12.984-29-29 12.984-29 29-29 29 12.984 29 29z"/>
        <path fill="#ffb8b8" d="M944.251 317.592s18 25 14 31 43-5 43-5-29-33-28-39-29 13-29 13z"/>
        <path fill="#2f2e41" d="M982.251 334.592s-24 0-32 10-17 31-17 31-8.506 3.19-11.564 20.038a57.844 57.844 0 0 0 5.168 35.58c5.043 10.36 10.945 25.096 5.897 28.882-8 6-31 55-31 137 0 45.697-13.2 77.263-24.886 96.257-9.78 15.893 3.957 35.83 22.31 32.447q.533-.099 1.075-.204c36-7 141-20 141-20l-29-71s-14-23-5-59-16-102-16-102 33.5-75.5 27.5-92.5-13.5-51.5-20.5-50.5a112.029 112.029 0 0 0-16 4z"/>
        <path fill="#ffb8b8" d="M950.251 350.592l-4 94-25 94s-26 46-6 46 26-43 26-43l32-88 6-81z"/>
        <path fill="#2f2e41" d="M968.251 340.592s-22 0-25 10-3.59 11.454-3.59 11.454 8.59-11.454 19.59 5.546 25 21 25 21 3-40-16-48z"/>
        <path fill="#2f2e41" d="M1009.751 280.092c0 22.091-17.909 40-40 40s-40-17.909-40-40 17.909-40 40-40 40 17.909 40 40z"/>
        <path fill="#2f2e41" d="M963.453 312.692a39.996 39.996 0 0 1-27.823-47.172c-.28.78-.547 1.569-.782 2.376a40 40 0 1 0 76.803 22.39c.235-.806.435-1.614.617-2.423a39.996 39.996 0 0 1-48.815 24.83z"/>
        <path fill="#ffb8b8" d="M942.751 302.092c0 2.761-1.343 5-3 5s-3-2.239-3-5 1.343-5 3-5 3 2.239 3 5z"/>
        <path fill="#2f2e41" d="M998.751 240.092c0 7.732-6.268 14-14 14s-14-6.268-14-14 6.268-14 14-14 14 6.268 14 14z"/>
        <path fill="#2f2e41" d="M967.751 237.092a14 14 0 0 1 12.5-13.917 14 14 0 1 0 0 27.834 14 14 0 0 1-12.5-13.917z"/>
        <path fill="#2f2e41" d="M936.751 264.092a18 18 0 0 0-18 18h36a18 18 0 0 0-18-18z"/>
        <path fill="#f2f2f2" d="M750 620v2H610v-2h140z"/>
        <path fill="#f2f2f2" d="M650 602v18.5h-2V602h2z"/>
        <path fill="#f2f2f2" d="M711 602v18.5h-2V602h2z"/>
        <path fill="#f2f2f2" d="M648 573v2H508v-2h140z"/>
        <path fill="#f2f2f2" d="M548 555v18.5h-2V555h2z"/>
        <path fill="#f2f2f2" d="M609 555v18.5h-2V555h2z"/>
        <path fill="#f2f2f2" d="M315 686v2H175v-2h140z"/>
        <path fill="#f2f2f2" d="M215 668v18.5h-2V668h2z"/>
        <path fill="#f2f2f2" d="M276 668v18.5h-2V668h2z"/>
        <path fill="#f2f2f2" d="M486 639v2H346v-2h140z"/>
        <path fill="#f2f2f2" d="M448 640.5V659h-2v-18.5h2z"/>
        <path fill="#f2f2f2" d="M387 640.5V659h-2v-18.5h2z"/>
        <path fill="#f2f2f2" d="M267 586v2H127v-2h140z"/>
        <path fill="#f2f2f2" d="M229 587.5V606h-2v-18.5h2z"/>
        <path fill="#f2f2f2" d="M168 587.5V606h-2v-18.5h2z"/>
        <path fill="#f2f2f2" d="M543 713v2H403v-2h140z"/>
        <path fill="#f2f2f2" d="M443 695v18.5h-2V695h2z"/>
        <path fill="#f2f2f2" d="M504 695v18.5h-2V695h2z"/>
    </g>
</svg>
