<?xml version="1.0" encoding="UTF-8"?>
<svg data-bbox="-0.002 0 1134.449 709.784" viewBox="0 0 1134.447 709.784" height="709.784" width="1134.447" xmlns="http://www.w3.org/2000/svg" data-type="color">
    <g>
        <path fill="#f2f2f2" d="M1118.261 286.728C1076.634 123.042 932.801 4.884 763.971.144c-89.255-2.505-183.177 27.097-251.559 130.685-122.24 185.175 7.512 313.137 97.972 373.941a566.027 566.027 0 0 1 116.995 105.156c61.103 72.507 178.65 162.609 318.643 21.434 101.467-102.324 99.967-235.6 72.24-344.632z" data-color="1"/>
        <path fill="#3f3d56" d="M156.239 410.826a152.427 152.427 0 0 1-3.277-5.068l1.701-1.053a150.62 150.62 0 0 0 3.234 5.002z" data-color="2"/>
        <path fill="#3f3d56" d="M146.932 395.039a148.89 148.89 0 0 1-5.124-11.178l1.85-.758a147.126 147.126 0 0 0 5.056 11.028zm-9.304-22.743a149.108 149.108 0 0 1-3.207-11.87l1.952-.442a146.78 146.78 0 0 0 3.162 11.71zm-5.418-23.966a150.683 150.683 0 0 1-1.208-12.233l1.997-.116c.231 4.028.632 8.09 1.191 12.071zm.583-24.48l-2-.047c.097-4.088.362-8.215.79-12.265l1.989.21a149.362 149.362 0 0 0-.78 12.102zm2.547-24.1l-1.965-.373c.762-4.01 1.7-8.039 2.791-11.972l1.928.534a147.059 147.059 0 0 0-2.754 11.81zm6.477-23.353l-1.876-.692a148.878 148.878 0 0 1 4.736-11.354l1.812.845a146.78 146.78 0 0 0-4.672 11.201zm273.905-6.182a147.189 147.189 0 0 0-5.172-10.97l1.773-.927a149.166 149.166 0 0 1 5.241 11.12zm-263.651-15.793l-1.736-.992a150.108 150.108 0 0 1 6.538-10.417l1.648 1.132a148.26 148.26 0 0 0-6.45 10.277zm252.42-5.684a148.227 148.227 0 0 0-6.904-9.972l1.597-1.205c2.46 3.259 4.814 6.66 6.996 10.107zm-238.698-14.305l-1.55-1.264a150.761 150.761 0 0 1 8.151-9.205l1.441 1.386a148.604 148.604 0 0 0-8.042 9.083zm224.095-5.042a148.535 148.535 0 0 0-8.441-8.714l1.378-1.45a150.829 150.829 0 0 1 8.555 8.832zm-207.294-12.435l-1.323-1.499c3.06-2.701 6.27-5.31 9.542-7.751l1.196 1.603a148.805 148.805 0 0 0-9.415 7.647zm189.727-4.273a148.53 148.53 0 0 0-9.75-7.22l1.123-1.655a150.704 150.704 0 0 1 9.882 7.317zM202.017 202.46l-1.06-1.695a149.635 149.635 0 0 1 10.678-6.082l.917 1.777a147.645 147.645 0 0 0-10.535 6zm150.243-3.39a147.46 147.46 0 0 0-10.803-5.522l.836-1.818a149.917 149.917 0 0 1 10.95 5.598zm-128.715-7.72l-.767-1.847a148.944 148.944 0 0 1 11.53-4.238l.612 1.904a146.77 146.77 0 0 0-11.375 4.181zm106.689-2.413a146.718 146.718 0 0 0-11.567-3.662l.525-1.93c3.942 1.07 7.887 2.32 11.725 3.713zm-83.624-4.994l-.45-1.948a149.07 149.07 0 0 1 12.079-2.278l.289 1.979c-3.99.583-7.999 1.339-11.918 2.247zm60.227-1.359a147.472 147.472 0 0 0-12.009-1.703l.2-1.99c4.07.407 8.165.988 12.172 1.727zm-36.247-2.146l-.126-1.996c4.068-.257 8.215-.348 12.29-.274l-.035 2c-4.025-.074-8.115.017-12.13.27z" data-color="2"/>
        <path fill="#3f3d56" d="M421.745 287.424a147.051 147.051 0 0 0-1.73-5.702l1.901-.62a148.544 148.544 0 0 1 1.754 5.78z" data-color="2"/>
        <path fill="#3f3d56" d="M409.55 175.423h-2c0-2.001.035-4.032.105-6.035l1.999.07c-.069 1.98-.104 3.987-.104 5.965z" data-color="2"/>
        <path fill="#3f3d56" d="M410.502 157.432l-1.99-.213a170.912 170.912 0 0 1 1.723-12.069l1.97.354a168.652 168.652 0 0 0-1.704 11.927zm4.257-23.702l-1.937-.494a169.261 169.261 0 0 1 3.438-11.698l1.898.633a167.453 167.453 0 0 0-3.399 11.559zm318.963-21.1a167.445 167.445 0 0 0-4.902-11.006l1.797-.879a169.966 169.966 0 0 1 4.96 11.137zm-311.337-1.754l-1.847-.768a169.96 169.96 0 0 1 5.09-11.09l1.787.9a168.099 168.099 0 0 0-5.03 10.958zm300.753-19.878a169.148 169.148 0 0 0-6.428-10.192l1.653-1.127a170.751 170.751 0 0 1 6.504 10.313zM433.22 89.351l-1.717-1.025a170.862 170.862 0 0 1 6.624-10.243l1.64 1.145a168.513 168.513 0 0 0-6.547 10.123zm276.35-18.252a170.28 170.28 0 0 0-7.815-9.174l1.475-1.35a172.253 172.253 0 0 1 7.908 9.282zm-262.55-1.498l-1.555-1.26a171.58 171.58 0 0 1 8.014-9.192l1.46 1.367a169.565 169.565 0 0 0-7.92 9.085zm246.287-16.27a170.371 170.371 0 0 0-9.04-7.971l1.268-1.546a171.915 171.915 0 0 1 9.147 8.065zm-229.823-1.312l-1.36-1.467a171.81 171.81 0 0 1 9.236-7.96l1.25 1.56a169.718 169.718 0 0 0-9.126 7.867zm211.198-13.966A168.853 168.853 0 0 0 664.6 31.45l1.035-1.711a170.755 170.755 0 0 1 10.201 6.681zm-192.409-1.096l-1.136-1.645a171.222 171.222 0 0 1 10.271-6.562l1.016 1.723a169.371 169.371 0 0 0-10.15 6.484zm171.798-11.371a167.908 167.908 0 0 0-10.924-5.092l.78-1.842a169.885 169.885 0 0 1 11.054 5.153zm-151.06-.853l-.89-1.791a170.147 170.147 0 0 1 11.1-5.023l.76 1.851a168.159 168.159 0 0 0-10.97 4.963zm128.873-8.53a167.05 167.05 0 0 0-11.543-3.47l.506-1.934a168.846 168.846 0 0 1 11.682 3.51zm-106.61-.593l-.622-1.9a169.866 169.866 0 0 1 11.715-3.377l.485 1.94a167.87 167.87 0 0 0-11.577 3.337zm83.307-5.5a168.702 168.702 0 0 0-11.918-1.773l.222-1.987c4.024.451 8.081 1.054 12.06 1.793zm-59.942-.33l-.343-1.97a171.026 171.026 0 0 1 12.078-1.66l.2 1.99c-3.982.402-7.998.954-11.935 1.64zm36.009-2.36a172.274 172.274 0 0 0-12.05-.066l-.061-1.999c4.022-.12 8.14-.099 12.193.067z" data-color="2"/>
        <path fill="#3f3d56" d="M739.573 129.791a169.152 169.152 0 0 0-1.717-5.712l1.904-.61a170.57 170.57 0 0 1 1.739 5.78z" data-color="2"/>
        <path fill="#9a073c" d="M188.382 433.15c0 1.38-14.914 2.498-33.312 2.498-18.398 0-33.312-1.118-33.312-2.498 0-1.38 14.914-2.498 33.312-2.498 18.398 0 33.312 1.118 33.312 2.498z" data-color="3"/>
        <path fill="#9a073c" d="M454.049 312.393c0 1.38-14.914 2.498-33.312 2.498-18.398 0-33.312-1.118-33.312-2.498 0-1.38 14.914-2.498 33.312-2.498 18.398 0 33.312 1.118 33.312 2.498z" data-color="3"/>
        <path fill="#9a073c" d="M782.176 186.638c0 1.38-14.914 2.498-33.312 2.498-18.398 0-33.312-1.118-33.312-2.498 0-1.38 14.914-2.498 33.312-2.498 18.398 0 33.312 1.118 33.312 2.498z" data-color="3"/>
        <path fill="#3f3d56" d="M735.665 178.436l1.414 1.414-100.17 100.17-1.414-1.414 100.17-100.17z" data-color="2"/>
        <path fill="#3f3d56" d="M606.454 291.405v2H438.226v-2h168.228z" data-color="2"/>
        <path fill="#3f3d56" d="M407.522 305.04l1.414 1.414-94.09 94.092-1.415-1.415 94.091-94.09z" data-color="2"/>
        <path fill="#3f3d56" d="M284.989 412.163v2h-112.43v-2h112.43z" data-color="2"/>
        <path fill="#3f3d56" d="M141.996 424.823l1.414 1.414L31.688 537.96l-1.414-1.414 111.722-111.722z" data-color="2"/>
        <path fill="#3f3d56" d="M155.07 431.652a18.49 18.49 0 1 1 18.489-18.489 18.51 18.51 0 0 1-18.49 18.49zm0-34.978a16.49 16.49 0 1 0 16.489 16.489 16.508 16.508 0 0 0-16.49-16.49z" data-color="2"/>
        <path fill="#3f3d56" d="M302.477 431.652a18.49 18.49 0 1 1 18.49-18.489 18.51 18.51 0 0 1-18.49 18.49zm0-34.978a16.49 16.49 0 1 0 16.49 16.489 16.508 16.508 0 0 0-16.49-16.49z" data-color="2"/>
        <path fill="#3f3d56" d="M420.736 310.894a18.489 18.489 0 1 1 18.49-18.489 18.51 18.51 0 0 1-18.49 18.49zm0-34.978a16.489 16.489 0 1 0 16.49 16.49 16.508 16.508 0 0 0-16.49-16.49z" data-color="2"/>
        <path fill="#3f3d56" d="M623.942 310.894a18.489 18.489 0 1 1 18.49-18.489 18.51 18.51 0 0 1-18.49 18.49zm0-34.978a16.489 16.489 0 1 0 16.49 16.49 16.507 16.507 0 0 0-16.49-16.49z" data-color="2"/>
        <path fill="#3f3d56" d="M748.863 185.14a18.489 18.489 0 1 1 18.49-18.49 18.51 18.51 0 0 1-18.49 18.49zm0-34.978a16.489 16.489 0 1 0 16.49 16.489 16.508 16.508 0 0 0-16.49-16.489z" data-color="2"/>
        <path fill="#3f3d56" d="M18.489 568.233a18.49 18.49 0 1 1 18.489-18.489 18.51 18.51 0 0 1-18.49 18.49zm0-34.978a16.49 16.49 0 1 0 16.489 16.49 16.508 16.508 0 0 0-16.49-16.49z" data-color="2"/>
        <path fill="#9a073c" d="M155.07 304.065a33.312 33.312 0 0 0-33.313 33.312c0 18.398 33.313 79.117 33.313 79.117s33.312-60.719 33.312-79.117a33.312 33.312 0 0 0-33.312-33.312zm0 50.801a17.489 17.489 0 1 1 17.489-17.489 17.489 17.489 0 0 1-17.49 17.49z" data-color="3"/>
        <path fill="#9a073c" d="M420.736 179.143a33.312 33.312 0 0 0-33.312 33.313c0 18.398 33.312 79.117 33.312 79.117s33.313-60.72 33.313-79.117a33.312 33.312 0 0 0-33.313-33.313zm0 50.802a17.489 17.489 0 1 1 17.49-17.49 17.489 17.489 0 0 1-17.49 17.49z" data-color="3"/>
        <path fill="#2f2e41" d="M1074.712 707.341v2.443H621.177v-2.443h453.535z" data-color="4"/>
        <path fill="#2f2e41" d="M995.433 72.432c-7.051 20.876-17.863 39.896-39.897 39.896s-38.655-17.897-39.897-39.896c-1.586-28.11 17.354-40.013 39.897-39.897 26.63.138 48.264 15.123 39.896 39.897z" data-color="4"/>
        <path fill="#2f2e41" d="M994.383 69.282v99.741H915.64V69.282h78.743z" data-color="4"/>
        <path fill="#575a89" d="M996.695 143.59h6.697s16.372 20.837 8.93 49.116-1.488 33.488-1.488 33.488 9.688 30.623-.73 76.762 9.66 58.678 9.66 58.678l-18.604-37.209-10.419-98.231z" data-color="5"/>
        <path opacity=".1" d="M996.695 146.038h6.697s16.372 20.837 8.93 49.116-1.488 33.488-1.488 33.488 9.688 30.623-.73 76.762 9.66 58.678 9.66 58.678l-18.604-37.209-10.419-98.231z" fill="#000000" data-color="6"/>
        <path fill="#fbbebe" d="M973.253 107.497s-5.953 23.814-2.977 23.814 13.396 12.651 13.396 12.651l6.697 24.558-5.209 17.86-17.86-3.72-22.326-24.559-6.697-6.697-5.954-21.581s7.442-8.93 2.233-16.372 38.697-5.954 38.697-5.954z" data-color="7"/>
        <path opacity=".1" d="M973.253 107.497s-5.953 23.814-2.977 23.814 13.396 12.651 13.396 12.651l6.697 24.558-5.209 17.86-17.86-3.72-22.326-24.559-6.697-6.697-5.954-21.581s7.442-8.93 2.233-16.372 38.697-5.954 38.697-5.954z" fill="#000000" data-color="6"/>
        <path fill="#fbbebe" d="M793.162 173.729l-16.372-26.79s-17.673-39.103-30.324-24.963 19.161 42.823 19.161 42.823l16.372 21.581z" data-color="7"/>
        <path fill="#fbbebe" d="M1010.462 406.657l-11.907 87.069s1.489 6.698-13.395 31.256-55.07 78.138-55.07 78.138l-11.906-22.325s14.14-70.697 38.697-85.58l-2.977-107.162z" data-color="7"/>
        <path opacity=".1" d="M1010.462 406.657l-11.907 87.069s1.489 6.698-13.395 31.256-55.07 78.138-55.07 78.138l-11.906-22.325s14.14-70.697 38.697-85.58l-2.977-107.162z" fill="#000000" data-color="6"/>
        <path fill="#2f2e41" d="M918.183 571.865l16.373 31.255s-13.395 37.953-8.186 41.674 11.907 37.21-2.233 33.488-25.302-18.604-25.302-20.837 8.186-33.488 3.721-40.93-7.442-9.674-7.442-9.674l-11.162 18.605-3.721-2.233 18.604-31.255s2.233-5.954 11.163-9.675z" data-color="4"/>
        <path opacity=".1" d="M918.183 571.865l16.373 31.255s-13.395 37.953-8.186 41.674 11.907 37.21-2.233 33.488-25.302-18.604-25.302-20.837 8.186-33.488 3.721-40.93-7.442-9.674-7.442-9.674l-11.162 18.605-3.721-2.233 18.604-31.255s2.233-5.954 11.163-9.675z" fill="#000000" data-color="6"/>
        <path fill="#fbbebe" d="M954.078 394.304s5.78 82.306-6.871 103.887v107.162l-17.116 2.232s-34.566-56.734-21.915-112.547-13.062-106.985-13.062-106.985z" data-color="7"/>
        <path fill="#fbbebe" d="M981.068 94.474c0 17.262-13.994 31.256-31.256 31.256s-31.256-13.994-31.256-31.256 13.994-31.256 31.256-31.256 31.256 13.994 31.256 31.256z" data-color="7"/>
        <path fill="#575a89" d="M981.439 176.706l-31.255-39.441-17.86-11.907-7.443 9.674-20.837 5.953s-13.395 2.977-27.534 19.35-39.442 26.045-39.442 26.045l-20.837-3.72s-24.557-11.163-24.557-14.14-21.582 20.093-16.372 29.023 16.372 20.093 22.325 26.046 8.186 23.07 44.65 17.86 49.86-23.069 49.86-23.069 6.698 34.232 26.047 40.93 82.604 11.163 82.604 11.163l13.395-44.651s14.884-19.349-5.21-47.628c0 0-.385-15.815-2.545-26.34-.84-4.093-1.949-7.386-3.408-8.636-5.209-4.465-32.744-11.907-32.744-11.907s4.465 14.884 6.698 15.628 7.442 26.046 4.465 29.767z" data-color="5"/>
        <path fill="#2f2e41" d="M881.347 398.843c37.477-2.604 59.296 3.535 69.03 8.216a24.676 24.676 0 0 1 5.075 3.08c.715.604 1.057 1.073 1.057 1.355 0 2.233 51.348 6.698 69.953 2.233s-12.651-100.464-20.837-108.65-3.773-38.147-3.773-38.147-16.32-3.527-20.785-2.039-27.535-2.232-35.72-6.697-18.605-1.489-25.303-2.977c-2.991-.662-4.502.454-5.254 1.897a12.868 12.868 0 0 1-5.09 5.143c-15.799 9.101-28.48 72.029-38.027 106.82-10.419 37.952 9.674 29.766 9.674 29.766z" data-color="4"/>
        <path fill="#2f2e41" d="M950.183 598.655l2.977 16.372s15.628 22.326 11.163 40.93c0 0 3.72 24.558 17.116 31.256s2.233 22.325-10.418 21.58-24.558.745-26.047-2.976-10.418-40.186-10.418-40.186l-2.443 42.671-7.442.745 2.443-49.37s-5.953-11.162 2.233-29.766l-2.066-28.558s20.67 4.744 22.903-2.698z" data-color="4"/>
        <path opacity=".1" d="M950.377 407.059a24.676 24.676 0 0 1 5.075 3.08c.395-7.032 2.672-49.561-.06-48.877z" fill="#000000" data-color="6"/>
        <path fill="#2f2e41" d="M936.873 51.434s-.347-1.927-13.884 3.15-21.653 42.54-14.884 64.538c2.728 8.865.509 15.257-3.113 19.73-13.591 16.783-8.24 41.99 11.556 50.62q.838.366 1.71.723l8.461 5.076s-10.786-14.192-5.388-32.346a93.08 93.08 0 0 0 1.68-47.65c-.62-2.659-1.323-5.4-2.122-8.196-6.769-23.691-3.477-20.955 20.214-44.646 0 0 13.538 10.153 25.383 15.23s21.999 10.153 13.538 27.075-28.768 32.152-15.23 54.15 15.23 13.539 13.538 22l-1.693 8.46 10.154-10.153-6.77 13.538s22 0 28.768-16.922l3.385 3.384s13.537-23.69-11.846-45.69c0 0-8.46-5.076 3.385-21.998s2.748-53.305-12.482-60.073-54.36 0-54.36 0z" data-color="4"/>
        <path fill="#2f2e41" d="M971.285 25.186c0 8.698-7.051 15.749-15.749 15.749s-15.749-7.051-15.749-15.749 7.051-15.749 15.749-15.749 15.749 7.051 15.749 15.749z" data-color="4"/>
        <path fill="#2f2e41" d="M936.637 16.787a15.75 15.75 0 0 1 14.174-15.67 15.924 15.924 0 0 0-1.575-.079 15.749 15.749 0 0 0 0 31.497c.532 0 1.057-.028 1.575-.08a15.75 15.75 0 0 1-14.174-15.668z" data-color="4"/>
        <path fill="#9a073c" d="M748.863 59.218a33.312 33.312 0 0 0-33.312 33.313c0 18.398 33.313 79.117 33.313 79.117s33.312-60.72 33.312-79.117a33.312 33.312 0 0 0-33.312-33.313zm0 50.802a17.489 17.489 0 1 1 17.49-17.49 17.489 17.489 0 0 1-17.49 17.49z" data-color="3"/>
        <path fill="#f1f1f1" d="M498.345 661.023c0 9.955-8.07 18.025-18.025 18.025-9.955 0-18.025-8.07-18.025-18.025 0-9.955 8.07-18.025 18.025-18.025 9.955 0 18.025 8.07 18.025 18.025z" data-color="8"/>
        <path fill="#f1f1f1" d="M610.492 584.778c0 9.955-8.07 18.025-18.025 18.025-9.955 0-18.025-8.07-18.025-18.025 0-9.955 8.07-18.025 18.025-18.025 9.955 0 18.025 8.07 18.025 18.025z" data-color="8"/>
        <path fill="#f1f1f1" d="M471.804 513.784c0 9.955-8.07 18.025-18.025 18.025-9.955 0-18.025-8.07-18.025-18.025 0-9.955 8.07-18.025 18.025-18.025 9.955 0 18.025 8.07 18.025 18.025z" data-color="8"/>
    </g>
</svg>
