<?xml version="1.0" encoding="UTF-8"?>
<svg data-bbox="0 0 804 697.682" viewBox="0 0 804 697.683" height="697.683" width="804" xmlns="http://www.w3.org/2000/svg" data-type="color">
    <g>
        <path fill="#e6e6e6" d="M669.817 165.283h-3.821V60.593A60.594 60.594 0 0 0 605.402 0H383.596a60.594 60.594 0 0 0-60.593 60.593v574.344a60.594 60.594 0 0 0 60.593 60.594h221.806a60.594 60.594 0 0 0 60.593-60.594V239.803h3.821z" data-color="1"/>
        <path fill="#ffffff" d="M607.847 15.758h-28.95a21.498 21.498 0 0 1-19.908 29.618H431.92a21.498 21.498 0 0 1-19.905-29.618h-27.041a45.25 45.25 0 0 0-45.251 45.251v573.51a45.25 45.25 0 0 0 45.25 45.25h222.875a45.25 45.25 0 0 0 45.25-45.25V61.009a45.25 45.25 0 0 0-45.25-45.25z" data-color="2"/>
        <path fill="#3f3d56" d="M428.994 149.531a8.606 8.606 0 0 1-6.427-2.799 10.721 10.721 0 0 1-2.544-8.208 12.408 12.408 0 0 1 3.328-7.483 9.991 9.991 0 0 1 7.236-3.207 9.015 9.015 0 0 1 6.721 2.963 10.522 10.522 0 0 1 2.589 8.044 11.951 11.951 0 0 1-3.592 7.84 10.627 10.627 0 0 1-7.31 2.85zm1.593-18.08c-3.539 0-6.597 3.246-6.962 7.39a7.115 7.115 0 0 0 1.609 5.449 4.964 4.964 0 0 0 3.76 1.624c3.31 0 6.85-2.285 7.301-7.39a6.904 6.904 0 0 0-1.653-5.285 5.439 5.439 0 0 0-4.055-1.789zm7.51 7.231z" data-color="3"/>
        <path fill="#3f3d56" d="M429.112 160.378a19.73 19.73 0 0 1-19.937-21.853 23.96 23.96 0 0 1 23.442-21.538c6.51 0 11.865 2.091 15.488 6.048 3.436 3.752 5.045 9.033 4.53 14.871-.487 5.531-2.833 8.412-4.716 9.854a7.923 7.923 0 0 1-5.998 1.72c-2.976-.528-6.268-3.231-5.75-9.114l.958-10.877a1.808 1.808 0 0 1 3.602.318l-.958 10.876c-.258 2.924.781 4.882 2.779 5.236a4.363 4.363 0 0 0 3.168-1.029c1.306-1.001 2.942-3.08 3.313-7.3.43-4.887-.812-9.075-3.594-12.113-2.92-3.189-7.354-4.874-12.822-4.874a20.332 20.332 0 0 0-19.84 18.237 16.116 16.116 0 0 0 16.335 17.922 18.145 18.145 0 0 0 8.258-1.497 1.808 1.808 0 0 1 1.4 3.333 21.691 21.691 0 0 1-9.658 1.78z" data-color="3"/>
        <path fill="#3f3d56" d="M410.022 418.805a1.808 1.808 0 0 1-1.278-3.086l11.752-11.752a1.808 1.808 0 0 1 2.556 2.557l-11.751 11.751a1.802 1.802 0 0 1-1.279.53zm29.832-4.52a1.808 1.808 0 0 1-1.279-3.086l9.944-9.944a1.808 1.808 0 0 1 2.557 2.557l-9.944 9.944a1.802 1.802 0 0 1-1.278.53zm-5.424 0a1.802 1.802 0 0 1-1.279-.53l-7.232-7.231a1.808 1.808 0 1 1 2.557-2.557l7.232 7.232a1.808 1.808 0 0 1-1.278 3.086z" data-color="3"/>
        <path fill="#3f3d56" d="M452.51 404.341a4.52 4.52 0 1 1 4.52-4.52 4.525 4.525 0 0 1-4.52 4.52zm0-5.424a.904.904 0 1 0 .904.904.905.905 0 0 0-.904-.904z" data-color="3"/>
        <path fill="#3f3d56" d="M437.142 419.709a4.52 4.52 0 1 1 4.52-4.52 4.525 4.525 0 0 1-4.52 4.52zm0-5.424a.904.904 0 1 0 .904.904.905.905 0 0 0-.904-.904z" data-color="3"/>
        <path fill="#3f3d56" d="M424.486 407.053a4.52 4.52 0 1 1 4.52-4.52 4.525 4.525 0 0 1-4.52 4.52zm0-5.424a.904.904 0 1 0 .904.904.905.905 0 0 0-.904-.904z" data-color="3"/>
        <path fill="#3f3d56" d="M407.31 424.229a4.52 4.52 0 1 1 4.52-4.52 4.525 4.525 0 0 1-4.52 4.52zm0-5.424a.904.904 0 1 0 .904.904.905.905 0 0 0-.904-.904z" data-color="3"/>
        <path fill="#3f3d56" d="M578.894 563.653h-37.968a6.335 6.335 0 0 1-6.328-6.328v-27.12a6.335 6.335 0 0 1 6.328-6.328h37.968a6.335 6.335 0 0 1 6.327 6.328v27.12a6.335 6.335 0 0 1-6.327 6.328zm-37.968-36.16a2.715 2.715 0 0 0-2.712 2.712v27.12a2.715 2.715 0 0 0 2.712 2.712h37.968a2.715 2.715 0 0 0 2.712-2.712v-27.12a2.715 2.715 0 0 0-2.712-2.712z" data-color="3"/>
        <path fill="#3f3d56" d="M559.91 547.381a1.805 1.805 0 0 1-1.11-.38l-16.272-12.657a1.808 1.808 0 1 1 2.22-2.854l15.162 11.793 15.162-11.793a1.808 1.808 0 1 1 2.22 2.854l-16.272 12.657a1.805 1.805 0 0 1-1.11.381z" data-color="3"/>
        <path fill="#cccccc" d="M763.835 588.682l-209.142.083a1 1 0 0 1 0-2l209.142-.083a1 1 0 0 1 0 2z" data-color="4"/>
        <path fill="#9a073c" d="M775.051 587.683c0 7.732-6.268 14-14 14s-14-6.268-14-14 6.268-14 14-14 14 6.268 14 14z" data-color="5"/>
        <path fill="#cccccc" d="M758.835 320.682l-211.142.083a1 1 0 0 1 0-2l211.142-.083a1 1 0 0 1 0 2z" data-color="4"/>
        <path fill="#9a073c" d="M775.051 320.683c0 7.732-6.268 14-14 14s-14-6.268-14-14 6.268-14 14-14 14 6.268 14 14z" data-color="5"/>
        <path fill="#cccccc" d="M218.268 183.682l211.141.083a1 1 0 0 0 0-2l-211.141-.083a1 1 0 1 0 0 2z" data-color="4"/>
        <path fill="#9a073c" d="M230.051 183.683c0 7.732-6.268 14-14 14s-14-6.268-14-14 6.268-14 14-14 14 6.268 14 14z" data-color="5"/>
        <path fill="#cccccc" d="M218.268 454.682l211.141.083a1 1 0 0 0 0-2l-211.141-.083a1 1 0 1 0 0 2z" data-color="4"/>
        <path fill="#9a073c" d="M230.051 454.683c0 7.732-6.268 14-14 14s-14-6.268-14-14 6.268-14 14-14 14 6.268 14 14z" data-color="5"/>
        <path fill="#cccccc" d="M559.91 588.765a45 45 0 1 1 45-45 45.051 45.051 0 0 1-45 45zm0-88a43 43 0 1 0 43 43 43.049 43.049 0 0 0-43-43z" data-color="4"/>
        <path fill="#cccccc" d="M429.91 454.765a45 45 0 1 1 45-45 45.051 45.051 0 0 1-45 45zm0-88a43 43 0 1 0 43 43 43.049 43.049 0 0 0-43-43z" data-color="4"/>
        <path fill="#cccccc" d="M550.91 320.765a45 45 0 1 1 45-45 45.051 45.051 0 0 1-45 45zm0-88a43 43 0 1 0 43 43 43.049 43.049 0 0 0-43-43z" data-color="4"/>
        <path fill="#cccccc" d="M430.91 183.682a45 45 0 1 1 45-45 45.051 45.051 0 0 1-45 45zm0-88a43 43 0 1 0 43 43 43.049 43.049 0 0 0-43-43z" data-color="4"/>
        <path fill="#a0616a" d="M148.502 488.579a11.02 11.02 0 0 1-4.302-7.88 10.27 10.27 0 0 1-.025-1.08l-46.568-31.363a8.552 8.552 0 0 1-3.337-9.67l22.257-55.296a9.699 9.699 0 0 1 18.023 7.171l-17.97 45.69 36.262 32.936a10.462 10.462 0 0 1 1.453-.225 11 11 0 0 1 2.983 21.763 11.407 11.407 0 0 1-2.146.206 10.865 10.865 0 0 1-6.63-2.252z" data-color="6"/>
        <path fill="#9a073c" d="M97.626 415.85a4.812 4.812 0 0 1 .101-4.01l10.625-21.716a13.377 13.377 0 0 1 25.521 8.028l-3.879 23.942a4.817 4.817 0 0 1-6.213 3.82l-23.185-7.368a4.811 4.811 0 0 1-2.97-2.696z" data-color="5"/>
        <path fill="#a0616a" d="M170.908 683.95h12.26L189 636.662l-18.094.001.002 47.287z" data-color="6"/>
        <path fill="#2f2e41" d="M167.78 679.947h24.145a15.386 15.386 0 0 1 15.387 15.386v.5l-39.53.001z" data-color="7"/>
        <path fill="#a0616a" d="M51.025 675.264l11.874 3.051 17.42-44.348-17.525-4.503-11.769 45.8z" data-color="6"/>
        <path fill="#2f2e41" d="M48.993 670.608l23.384 6.01a15.386 15.386 0 0 1 11.072 18.732l-.124.484-38.287-9.839z" data-color="7"/>
        <path fill="#a0616a" d="M161.576 334.98c0 13.565-10.996 24.561-24.561 24.561s-24.561-10.996-24.561-24.561 10.996-24.561 24.561-24.561 24.561 10.996 24.561 24.561z" data-color="6"/>
        <path fill="#9a073c" d="M124.592 437.141a88.73 88.73 0 0 1-14.736-20.235 32.716 32.716 0 0 1-1.54-26.476 33.442 33.442 0 0 1 18.99-19.345 32.88 32.88 0 0 1 41.613 15.446c6.146 12.028 8.554 23.786 7.159 34.952-2.668 21.346-4.23 32.38-4.643 32.791l-.137.138-45.69 2.03z" data-color="5"/>
        <path fill="#2f2e41" d="M127.306 450.535l40.887-2.035a4 4 0 0 1 4.183 3.64l18.809 210.831a4 4 0 0 1-4.07 4.355l-15.973-.34a4 4 0 0 1-3.798-3.036l-30.516-122.962a4 4 0 0 0-7.515-.71l-57.83 125.6a4 4 0 0 1-4.643 2.197l-16.076-4.193a3.995 3.995 0 0 1-2.905-4.693c5.29-24.969 36.972-167.956 76.862-207.533a3.94 3.94 0 0 1 2.585-1.12z" data-color="7"/>
        <path fill="#a0616a" d="M204.733 474.207a11.018 11.018 0 0 1-6.758-5.913 10.353 10.353 0 0 1-.396-1.004l-54.531-13.363a8.552 8.552 0 0 1-6.47-7.925l1.805-59.578a9.699 9.699 0 0 1 19.391.509l-1.096 49.084 45.4 18.397a10.744 10.744 0 0 1 1.286-.713 11.01 11.01 0 1 1 1.37 20.506z" data-color="6"/>
        <path fill="#9a073c" d="M132.567 416.111a4.812 4.812 0 0 1-1.253-3.81l2.703-24.025a13.377 13.377 0 0 1 26.735-1.022l4.399 23.852a4.817 4.817 0 0 1-4.567 5.687l-24.313.858a4.811 4.811 0 0 1-3.704-1.54z" data-color="5"/>
        <path fill="#2f2e41" d="M101.82 367.406l2.567-8.294 1.755 9.309 14.413-.382-.066-9.178 5.479 9.058 13.06-2.887c-2.79-3.718-5.613-7.494-7.398-11.877s-2.434-9.522-.766-13.958c4.122-10.968 19.751-7.899 28.3-7.992 2.493-.027 5.309-.207 6.942-2.246 1.23-1.535 1.431-3.731 1.369-5.762-.321-10.454-6.598-20.428-15.471-24.585a23.981 23.981 0 0 0-13.905-1.883 25.14 25.14 0 0 0-7.092 2.233c-1.997.976-4.095 3.3-6.245 3.237-1.807-.053-4.2-1.935-6.166-2.257a19.06 19.06 0 0 0-7.124.249 22.375 22.375 0 0 0-12.076 7.226c-6.68 7.762-8.665 19.2-7.5 29.73s5.103 20.434 8.998 30.167" data-color="7"/>
        <path fill="#e6e6e6" d="M803 697.682H1a1 1 0 0 1 0-2h802a1 1 0 0 1 0 2z" data-color="1"/>
        <path fill="#f2f2f2" d="M789.47 685.289a19.309 19.309 0 0 0 6.376-9.597c.813-3.818-.814-8.301-4.45-9.779-4.084-1.577-8.45 1.262-11.755 4.118s-7.106 6.126-11.439 5.512a17.383 17.383 0 0 0 5.33-16.287 6.641 6.641 0 0 0-1.495-3.32c-2.258-2.425-6.375-1.379-9.098.53-8.633 6.077-11.04 17.799-11.074 28.358-.88-3.819-.15-7.787-.166-11.622s-1.096-8.301-4.383-10.327a13.282 13.282 0 0 0-6.641-1.577c-3.885-.133-8.202.249-10.859 3.088-3.32 3.52-2.44 9.447.432 13.282s7.222 6.31 11.224 8.999a24.772 24.772 0 0 1 8.035 7.654 7.322 7.322 0 0 1 .598 1.361h24.323a67.688 67.688 0 0 0 15.042-10.393z" data-color="8"/>
        <path fill="#3f3d56" d="M536.405 302.201a2.719 2.719 0 0 1-2.47-3.825l3.129-6.98a23.407 23.407 0 1 1 8.849 4.928l-7.985 5.406a2.71 2.71 0 0 1-1.523.472zm16.146-48.266a20.046 20.046 0 0 0-12.488 35.735l.986.786-3.367 7.512 7.726-5.23.763.256a20.052 20.052 0 1 0 6.38-39.06z" data-color="3"/>
        <path fill="#3f3d56" d="M555.804 272.908a3.253 3.253 0 1 1-6.506 0 3.253 3.253 0 0 1 6.506 0z" data-color="3"/>
        <path fill="#3f3d56" d="M546.589 272.908a3.253 3.253 0 1 1-6.506 0 3.253 3.253 0 0 1 6.506 0z" data-color="3"/>
        <path fill="#3f3d56" d="M565.02 272.908a3.253 3.253 0 1 1-6.506 0 3.253 3.253 0 0 1 6.506 0z" data-color="3"/>
    </g>
</svg>
