<?xml version="1.0"?>
<svg xmlns="http://www.w3.org/2000/svg" xmlns:xlink="http://www.w3.org/1999/xlink" xmlns:svgjs="http://svgjs.com/svgjs" version="1.1" width="512" height="512" x="0" y="0" viewBox="0 0 512 512" style="enable-background:new 0 0 512 512" xml:space="preserve" class=""><g><g xmlns="http://www.w3.org/2000/svg"><path d="m512 289.134c0-.013-.002-.026-.002-.039v-248.462c.001-22.405-18.227-40.633-40.631-40.633h-430.733c-22.405 0-40.632 18.228-40.632 40.633v84.4c0 4.142 3.358 7.5 7.5 7.5s7.5-3.358 7.5-7.5v-84.4c0-14.134 11.498-25.633 25.632-25.633h430.733c14.134 0 25.632 11.498 25.632 25.632v241.001h-51.265v-25.633c0-4.142-3.357-7.5-7.5-7.5h-224.434v-33.917c0-14.696-9.854-27.127-23.299-31.052 9.246-8.905 15.016-21.395 15.016-35.214 0-26.973-21.944-48.917-48.916-48.917-26.973 0-48.917 21.944-48.917 48.917 0 13.82 5.77 26.31 15.016 35.214-13.445 3.926-23.299 16.356-23.299 31.052v33.917h-25.634c-4.142 0-7.5 3.358-7.5 7.5v25.633h-51.265v-126.6c0-4.142-3.358-7.5-7.5-7.5s-7.5 3.358-7.5 7.5v134.072c0 .01-.002.019-.002.029s.001.019.002.029v33.106c0 22.405 18.227 40.632 40.632 40.632h54.131l-9.069 18.138h-53.629c-8.547 0-15.5 6.953-15.5 15.5v17.132c0 8.547 6.953 15.5 15.5 15.5h17.633v67.329c0 8.547 6.953 15.5 15.5 15.5h288.55c4.143 0 7.5-3.358 7.5-7.5s-3.357-7.5-7.5-7.5h-255.916v-34.2c0-.276.224-.5.5-.5h315.333c.275 0 .5.224.5.5v34.2h-30.417c-4.143 0-7.5 3.358-7.5 7.5s3.357 7.5 7.5 7.5h37.917 25.133c8.547 0 15.5-6.953 15.5-15.5v-67.329h17.634c8.547 0 15.5-6.953 15.5-15.5v-17.132c0-8.547-6.953-15.5-15.5-15.5h-53.629l-9.069-18.138h54.131c22.404 0 40.632-18.228 40.632-40.632v-33.096c0-.014.001-.026.001-.039zm-350.968-91.9-4.431 8.863-4.432-8.863zm-4.431-82.834c18.702 0 33.916 15.215 33.916 33.917s-15.215 33.917-33.916 33.917-33.917-15.215-33.917-33.917 15.215-33.917 33.917-33.917zm-42.201 100.184c0-9.567 7.783-17.35 17.35-17.35h3.648l14.494 28.987c1.271 2.541 3.867 4.146 6.708 4.146s5.438-1.605 6.708-4.146l14.493-28.987h3.649c9.566 0 17.35 7.783 17.35 17.35v33.916h-84.4zm-33.133 48.916h25.633 99.4 224.434v18.133h-349.467zm30.268 99.401h16.363l-9.069 18.138h-16.363zm255.798 0 9.069 18.138h-240.803l9.069-18.138zm79.967 133.599c0 .276-.225.5-.5.5h-17.633v-34.2c0-8.547-6.953-15.5-15.5-15.5h-315.333c-8.547 0-15.5 6.953-15.5 15.5v34.2h-17.633c-.276 0-.5-.224-.5-.5v-67.329h382.6v67.329zm33.134-99.961v17.132c0 .276-.225.5-.5.5h-25.134-397.6-25.133c-.276 0-.5-.224-.5-.5v-17.132c0-.276.224-.5.5-.5h447.867c.276 0 .5.224.5.5zm-70.899-15.5h-16.363l-9.069-18.138h16.363zm61.832-33.138h-430.733c-14.134 0-25.632-11.499-25.632-25.632v-25.635h481.997v25.635c0 14.133-11.498 25.632-25.632 25.632z" fill="#0b245b" data-original="#000000" style="" class=""/><path d="m405.1 314.767h-16.566c-4.143 0-7.5 3.358-7.5 7.5s3.357 7.5 7.5 7.5h16.566c4.143 0 7.5-3.358 7.5-7.5s-3.357-7.5-7.5-7.5z" fill="#0b245b" data-original="#000000" style="" class=""/><path d="m355.401 314.767h-16.567c-4.143 0-7.5 3.358-7.5 7.5s3.357 7.5 7.5 7.5h16.567c4.143 0 7.5-3.358 7.5-7.5s-3.357-7.5-7.5-7.5z" fill="#0b245b" data-original="#000000" style="" class=""/><path d="m445.734 48.634c0-8.547-6.953-15.5-15.5-15.5h-116.533c-8.547 0-15.5 6.953-15.5 15.5v83.4c0 8.547 6.953 15.5 15.5 15.5h116.533c8.547 0 15.5-6.953 15.5-15.5zm-15 83.399c0 .276-.225.5-.5.5h-116.533c-.275 0-.5-.224-.5-.5v-83.4c0-.276.225-.5.5-.5h116.533c.275 0 .5.224.5.5z" fill="#0b245b" data-original="#000000" style="" class=""/><path d="m305.701 180.667h66.267c4.143 0 7.5-3.358 7.5-7.5s-3.357-7.5-7.5-7.5h-66.267c-4.143 0-7.5 3.358-7.5 7.5s3.357 7.5 7.5 7.5z" fill="#0b245b" data-original="#000000" style="" class=""/><path d="m405.1 165.667c-4.143 0-7.5 3.358-7.5 7.5s3.357 7.5 7.5 7.5h33.134c4.143 0 7.5-3.358 7.5-7.5s-3.357-7.5-7.5-7.5z" fill="#0b245b" data-original="#000000" style="" class=""/><path d="m454.8 314.767h-16.566c-4.143 0-7.5 3.358-7.5 7.5s3.357 7.5 7.5 7.5h16.566c4.143 0 7.5-3.358 7.5-7.5s-3.357-7.5-7.5-7.5z" fill="#0b245b" data-original="#000000" style="" class=""/></g></g></svg>
