<?xml version="1.0"?>
<svg xmlns="http://www.w3.org/2000/svg" xmlns:xlink="http://www.w3.org/1999/xlink" xmlns:svgjs="http://svgjs.com/svgjs" version="1.1" width="512" height="512" x="0" y="0" viewBox="0 0 512 512" style="enable-background:new 0 0 512 512" xml:space="preserve" class=""><g><g xmlns="http://www.w3.org/2000/svg"><path d="m504.5 315h-37.5v-22.5c0-4.142-3.358-7.5-7.5-7.5h-22.5v-180h22.5c4.142 0 7.5-3.358 7.5-7.5v-53.785c8.73-3.095 15-11.437 15-21.215 0-12.407-10.093-22.5-22.5-22.5h-407c-12.407 0-22.5 10.093-22.5 22.5 0 9.778 6.27 18.12 15 21.215v53.785c0 4.142 3.358 7.5 7.5 7.5h22.5v180h-22.5c-4.142 0-7.5 3.358-7.5 7.5v22.5h-37.5c-4.142 0-7.5 3.358-7.5 7.5v60c0 4.142 3.358 7.5 7.5 7.5h67.5v114.5c0 4.142 3.358 7.5 7.5 7.5h60c4.142 0 7.5-3.358 7.5-7.5v-114.5h15v114.5c0 4.142 3.358 7.5 7.5 7.5h30c4.142 0 7.5-3.358 7.5-7.5v-114.5h92v114.5c0 4.142 3.358 7.5 7.5 7.5h30c4.142 0 7.5-3.358 7.5-7.5v-114.5h15v114.5c0 4.142 3.358 7.5 7.5 7.5h60c4.142 0 7.5-3.358 7.5-7.5v-114.5h67.5c4.142 0 7.5-3.358 7.5-7.5v-60c0-4.142-3.358-7.5-7.5-7.5zm-82.5-30h-45v-180h45zm-210.71-180c-.833 2.347-1.29 4.871-1.29 7.5 0 5.758 2.177 11.016 5.747 15-3.571 3.984-5.747 9.242-5.747 15s2.177 11.016 5.747 15c-3.571 3.984-5.747 9.242-5.747 15s2.177 11.016 5.747 15c-3.571 3.984-5.747 9.242-5.747 15 0 2.629.458 5.153 1.29 7.5h-61.29v-105zm68.21 0c4.136 0 7.5 3.364 7.5 7.5s-3.364 7.5-7.5 7.5h-47c-4.136 0-7.5-3.364-7.5-7.5s3.364-7.5 7.5-7.5zm-129.5 135v-15h212v15zm129.5-105c4.136 0 7.5 3.364 7.5 7.5s-3.364 7.5-7.5 7.5h-47c-4.136 0-7.5-3.364-7.5-7.5s3.364-7.5 7.5-7.5zm-47 45c-4.136 0-7.5-3.364-7.5-7.5s3.364-7.5 7.5-7.5h47c4.136 0 7.5 3.364 7.5 7.5s-3.364 7.5-7.5 7.5zm-7.5 22.5c0-4.136 3.364-7.5 7.5-7.5h47c4.136 0 7.5 3.364 7.5 7.5s-3.364 7.5-7.5 7.5h-47c-4.136 0-7.5-3.364-7.5-7.5zm137 7.5h-61.29c.833-2.347 1.29-4.871 1.29-7.5 0-5.758-2.177-11.016-5.747-15 3.571-3.984 5.747-9.242 5.747-15s-2.177-11.016-5.747-15c3.571-3.984 5.747-9.242 5.747-15s-2.177-11.016-5.747-15c3.571-3.984 5.747-9.242 5.747-15 0-2.629-.458-5.153-1.29-7.5h61.29zm-212 45h75v30h-75zm90 0h32v30h-32zm47 0h75v30h-75zm-234.5-225c-4.136 0-7.5-3.364-7.5-7.5s3.364-7.5 7.5-7.5h407c4.136 0 7.5 3.364 7.5 7.5s-3.364 7.5-7.5 7.5h-377c-4.142 0-7.5 3.358-7.5 7.5s3.358 7.5 7.5 7.5h369.5v45h-392v-52.5c0-4.142-3.358-7.5-7.5-7.5zm37.5 75h45v180h-45zm-30 195h392v15h-392zm75 197h-45v-107h45zm60 0h-15v-107h15zm137 0h-15v-107h15zm90 0h-45v-107h45zm75-122h-482v-45h482z" fill="#0b245b" data-original="#000000" style="" class=""/></g></g></svg>
