<?xml version="1.0" encoding="UTF-8"?>
<svg data-bbox="2 1 60 61" viewBox="0 0 64 64" height="512" width="512" xmlns="http://www.w3.org/2000/svg" data-type="color">
    <g>
        <path fill="#ffffff" d="M37 54h-2v-9.8a1 1 0 0 0-2 0V54H7V34h8.32a1 1 0 0 0 0-2H6a1 1 0 0 0-1 1v21H3a1 1 0 0 0-1 1v2a5 5 0 0 0 5 5h26a5 5 0 0 0 5-5v-2a1 1 0 0 0-1-1zm-1 3a3 3 0 0 1-3 3h-2v-1a1 1 0 0 0-2 0v1H11v-1a1 1 0 0 0-2 0v1H7a3 3 0 0 1-3-3v-1h32z" xmlns="http://www.w3.org/2000/svg" data-color="1"/>
        <path fill="#ffffff" d="M54 8h2a1 1 0 0 0 0-2h-2a3 3 0 0 0-3 3v1h-1a1 1 0 0 0 0 2h1v3a1 1 0 0 0 2 0v-3h1a1 1 0 0 0 0-2h-1V9a1 1 0 0 1 1-1z" xmlns="http://www.w3.org/2000/svg" data-color="1"/>
        <path fill="#ffffff" d="M59 2H47a3 3 0 0 0-3 3v2a1 1 0 0 0 2 0V5a1 1 0 0 1 1-1h12a1 1 0 0 1 1 1v12a1 1 0 0 1-1 1H47a1 1 0 0 1-1-1v-6a1 1 0 0 0-2 0v6a3 3 0 0 0 3 3h12a3 3 0 0 0 3-3V5a3 3 0 0 0-3-3z" xmlns="http://www.w3.org/2000/svg" data-color="1"/>
        <path fill="#ffffff" d="M49 42a4 4 0 1 0 4-4 4 4 0 0 0-4 4zm6 0a2 2 0 1 1-2-2 2 2 0 0 1 2 2z" xmlns="http://www.w3.org/2000/svg" data-color="1"/>
        <path fill="#ffffff" d="M59 33H47a3 3 0 0 0-3 3v12a3 3 0 0 0 3 3h12a3 3 0 0 0 3-3v-2a1 1 0 0 0-2 0v2a1 1 0 0 1-1 1H47a1 1 0 0 1-1-1V36a1 1 0 0 1 1-1h12a1 1 0 0 1 1 1v6a1 1 0 0 0 2 0v-6a3 3 0 0 0-3-3z" xmlns="http://www.w3.org/2000/svg" data-color="1"/>
        <path fill="#ffffff" d="M24.47 13.85A1 1 0 0 0 25 14a1 1 0 0 0 .45-.11l6-3a1 1 0 0 0 0-1.78l-6-3A1 1 0 0 0 24 7v6a1 1 0 0 0 .47.85zM26 8.62L28.76 10 26 11.38z" xmlns="http://www.w3.org/2000/svg" data-color="1"/>
        <path fill="#ffffff" d="M27 19a9 9 0 1 0-9-9 9 9 0 0 0 9 9zm0-16a7 7 0 1 1-7 7 7 7 0 0 1 7-7z" xmlns="http://www.w3.org/2000/svg" data-color="1"/>
        <path fill="#ffffff" d="M37 23a1 1 0 0 0 .8-.4l3-4a1 1 0 0 0-1.6-1.2l-3 4a1 1 0 0 0 .2 1.4 1 1 0 0 0 .6.2z" xmlns="http://www.w3.org/2000/svg" data-color="1"/>
        <path fill="#ffffff" d="M39.2 26.6a1 1 0 0 0 .8.4 1 1 0 0 0 .6-.2l4-3a1 1 0 1 0-1.2-1.6l-4 3a1 1 0 0 0-.2 1.4z" xmlns="http://www.w3.org/2000/svg" data-color="1"/>
        <path fill="#ffffff" d="M49 28.8a1 1 0 0 0-1.2-.8l-5 1a1 1 0 0 0 .2 2h.2l5-1a1 1 0 0 0 .8-1.2z" xmlns="http://www.w3.org/2000/svg" data-color="1"/>
        <path fill="#ffffff" d="M3 29h12a1 1 0 0 0 1-1V12a1 1 0 0 0-1-1H3a1 1 0 0 0-1 1v16a1 1 0 0 0 1 1zm1-16h10v14H4z" xmlns="http://www.w3.org/2000/svg" data-color="1"/>
        <path fill="#ffffff" d="M11 15H9a1 1 0 0 0 0 2h2a1 1 0 0 0 0-2z" xmlns="http://www.w3.org/2000/svg" data-color="1"/>
        <path fill="#ffffff" d="M11 19H7a1 1 0 0 0 0 2h4a1 1 0 0 0 0-2z" xmlns="http://www.w3.org/2000/svg" data-color="1"/>
        <path fill="#ffffff" d="M11 23H7a1 1 0 0 0 0 2h4a1 1 0 0 0 0-2z" xmlns="http://www.w3.org/2000/svg" data-color="1"/>
        <path fill="#ffffff" d="M36.12 28.7a1 1 0 0 0-1.74 1l4.41 7.63-16 6h-.15l-2.6 1.5-1.73 1a2 2 0 0 1-1.52.2 2 2 0 0 1-1.21-.93l-2-3.46a2 2 0 0 1 .75-2.64l3.46-2 2.5 4.33a1 1 0 0 0 .87.5 1 1 0 0 0 .87-1.5l-2.58-4.46L32 25.52l.41.71a1 1 0 1 0 1.74-1l-1-1.73a1 1 0 0 0-.69-.48 1 1 0 0 0-.82.21l-14 11.54-4.26 2.46a4 4 0 0 0-1.84 4.53l-1 .57a3 3 0 0 0 .72 5.5 3 3 0 0 0 .78.1 3.06 3.06 0 0 0 1.5-.4l1-.57A3.88 3.88 0 0 0 16.29 48a3.79 3.79 0 0 0 1.05.14 3.94 3.94 0 0 0 2-.54l.87-.5 2 3.47a3 3 0 0 0 4.09 1.1 3 3 0 0 0 1.1-4.1l-1.82-3.17 15-5.63a1 1 0 0 0 .59-.6 1 1 0 0 0-.07-.83zM12.5 45.79a1 1 0 0 1-.76.1 1 1 0 0 1-.61-.46 1 1 0 0 1-.1-.76 1 1 0 0 1 .47-.61l.87-.5 1 1.73zm13.16 2.8a1 1 0 0 1 .1.76 1 1 0 0 1-.47.6 1 1 0 0 1-1.36-.36l-2-3.47 1.66-.95h.08z" xmlns="http://www.w3.org/2000/svg" data-color="1"/>
    </g>
</svg>
