<?xml version="1.0" encoding="UTF-8"?>
<svg data-bbox="47.923 0.001 416.153 512" viewBox="0 0 511.999 511.999" height="512" width="512" xmlns="http://www.w3.org/2000/svg" data-type="color">
    <g>
        <g xmlns="http://www.w3.org/2000/svg">
            <path fill="#ffffff" d="M316.209 117.615h.598c.001 0-.465-1.17-.598 0z" data-color="1"/>
            <path fill="#ffffff" d="M171.747 117.615h.598c-.133-1.17-.598 0-.598 0z" data-color="1"/>
        </g>
        <path fill="#ffffff" d="M460.496 154.447a23.52 23.52 0 0 0-14.761-10.506l-32.457-7.458 14.986-4.195c12.417-3.475 19.898-16.737 16.417-29.177-3.476-12.417-16.736-19.896-29.178-16.417l-69.876 19.557A23.83 23.83 0 0 0 338.105 98c14.181-26.391 34.612-71.176 34.612-90.443 0-4.699-4.442-8.335-9.051-7.406-27.731 5.602-53.586 8.187-79.011 7.91-26.134-.287-58.659-3.533-79.095-7.893-6.318-1.348-11.388 5.722-8.056 11.276 4.98 8.3 8.031 17.076 9.708 25.921-25.649.786-52.248-2.322-72.38-12.389-5.423-2.712-11.824 2.033-10.832 8 6.332 37.987 19.106 60.259 31.913 77.086h-.284c-13.053 0-23.673 10.62-23.673 23.673 0 12.005 8.985 21.944 20.581 23.465-8.453 14.158-20.525 27.591-33.209 41.687-26.973 29.976-57.546 63.952-67.832 118.811-4.922 26.249-4.758 50.81.489 73.002 4.898 20.718 14.227 39.471 27.726 55.737 17.919 21.592 42.538 38.345 73.172 49.797 27.595 10.315 59.198 15.767 91.394 15.767 32.196 0 63.8-5.452 91.394-15.767 30.634-11.452 55.253-28.206 73.172-49.797 13.499-16.266 22.828-35.018 27.726-55.737 5.246-22.192 5.411-46.754.489-73.002-10.286-54.858-40.858-88.834-67.831-118.81-9.157-10.177-17.869-19.88-25.173-29.728l91.079 20.926c9.649 2.217 19.931-2.004 25.261-10.342 4.878-7.634 4.907-17.629.102-25.297zM284.489 23.17c23.263.254 46.807-1.78 71.676-6.212-4.56 18.643-19.203 51.801-33.092 77.06-9.625.725-17.659 7.227-20.637 16.043H281.46c-.474-1.021-.999-2.14-1.584-3.383-6.486-13.788-19.984-42.478-19.984-66.886 0-4.692-4.431-8.33-9.037-7.408-8.792 1.759-18.465 3.182-28.53 4.074-1.055-6.304-2.692-12.618-5.072-18.828 20.3 3.142 45.871 5.305 67.236 5.54zm48.94 94.445v32.236c0 4.721-3.841 8.563-8.563 8.563s-8.563-3.841-8.563-8.563v-32.236c0-4.722 3.841-8.563 8.563-8.563s8.563 3.842 8.563 8.563zM141.612 44.107c18.888 6.447 42.123 9.306 67.216 8.424l14.974-.946a284.695 284.695 0 0 0 21.448-2.802c2.356 23.374 13.034 47.392 19.522 61.278h-89.577a7.726 7.726 0 0 0-.556-.773c-12.637-15.203-25.46-32.788-33.027-65.181zm216.382 164.886c25.645 28.498 54.708 60.798 64.214 111.487 8.747 46.652.338 85.782-24.993 116.303-31.234 37.635-88.407 60.105-152.937 60.105S122.574 474.419 91.34 436.784c-25.331-30.521-33.739-69.651-24.993-116.303 9.505-50.69 38.57-82.991 64.214-111.488 15.333-17.041 29.819-33.159 39.103-51.586h18.452a7.554 7.554 0 0 0 7.555-7.555 7.554 7.554 0 0 0-7.555-7.555h-32.488c-4.722 0-8.563-3.841-8.563-8.563s3.841-8.563 8.563-8.563h145.564v17.125h-77.064a7.555 7.555 0 0 0 0 15.11h78.307c3.161 9.358 12.018 16.118 22.43 16.118 1.203 0 2.383-.092 3.539-.265 8.432 12.197 18.71 23.644 29.59 35.734zm-9.454-87.866l71.035-19.881c4.498-1.261 9.298 1.449 10.554 5.938 1.258 4.499-1.447 9.297-5.938 10.553l-40.596 11.362a7.506 7.506 0 0 0-.954.346l-34.101-7.835v-.483zm100.239 47.802c-1.058 4.602-5.654 7.487-10.263 6.428l-90.451-20.782a23.73 23.73 0 0 0 .474-4.725v-12.738l93.811 21.554c4.547 1.045 7.474 5.712 6.429 10.263z" xmlns="http://www.w3.org/2000/svg" data-color="1"/>
        <path fill="#ffffff" d="M292.631 310.526c10.831 0 19.644-8.812 19.644-19.644v-12.088c0-28.268-21.084-51.702-48.354-55.4v-13.101c0-10.831-8.812-19.644-19.644-19.644-10.831 0-19.644 8.812-19.644 19.644v14.101c-27.997 6.245-48.354 31.134-48.354 60.444 0 34.161 27.792 61.953 61.953 61.953h12.088c12.497 0 22.666 10.167 22.666 22.666s-10.168 22.666-22.666 22.666h-18.133c-9.166 0-16.622-7.457-16.622-16.622 0-10.831-8.812-19.644-19.644-19.644-10.831 0-19.644 8.812-19.644 19.644 0 28.268 21.084 51.702 48.354 55.4v13.101c0 10.831 8.812 19.644 19.644 19.644 10.831 0 19.644-8.812 19.644-19.644v-14.101c27.997-6.245 48.354-31.134 48.354-60.444 0-34.161-27.792-61.953-61.953-61.953h-12.088c-12.497 0-22.666-10.167-22.666-22.666s10.168-22.666 22.666-22.666h18.133c9.166 0 16.622 7.457 16.622 16.622v12.088c0 10.831 8.813 19.644 19.644 19.644zm-36.265-63.464h-18.133c-20.83 0-37.776 16.946-37.776 37.776 0 20.83 16.946 37.776 37.776 37.776h12.088c25.83 0 46.843 21.014 46.843 46.843 0 23.899-17.899 43.908-41.632 46.545a7.555 7.555 0 0 0-6.721 7.509v20.491c0 2.499-2.034 4.533-4.533 4.533s-4.533-2.034-4.533-4.533v-20.147a7.554 7.554 0 0 0-7.555-7.555c-22.497 0-40.798-18.302-40.798-40.798 0-2.499 2.034-4.533 4.533-4.533s4.533 2.034 4.533 4.533c0 17.497 14.235 31.732 31.732 31.732h18.133c20.83 0 37.776-16.946 37.776-37.776s-16.946-37.776-37.776-37.776h-12.088c-25.83 0-46.843-21.014-46.843-46.843 0-23.899 17.899-43.908 41.632-46.545a7.555 7.555 0 0 0 6.721-7.509v-20.491c0-2.499 2.034-4.533 4.533-4.533s4.533 2.034 4.533 4.533v20.147a7.554 7.554 0 0 0 7.555 7.555c22.497 0 40.798 18.302 40.798 40.798v12.088c0 2.499-2.034 4.533-4.533 4.533s-4.533-2.034-4.533-4.533v-12.088c0-17.497-14.235-31.732-31.732-31.732z" xmlns="http://www.w3.org/2000/svg" data-color="1"/>
    </g>
</svg>
