<?xml version="1.0" encoding="UTF-8"?>
<svg data-bbox="6.769 -0.001 498.46 511.999" viewBox="0 0 511.996 511.996" height="512" width="512" xmlns="http://www.w3.org/2000/svg" data-type="color">
    <g xmlns="http://www.w3.org/2000/svg">
        <path fill="#ffffff" d="M75.938 168.454h174.356c4.143 0 7.5-3.358 7.5-7.5s-3.357-7.5-7.5-7.5H75.938a7.5 7.5 0 0 0 0 15z" data-color="1"/>
        <path fill="#ffffff" d="M75.938 206.118h174.356c4.143 0 7.5-3.358 7.5-7.5s-3.357-7.5-7.5-7.5H75.938a7.5 7.5 0 0 0 0 15z" data-color="1"/>
        <path fill="#ffffff" d="M75.938 243.781h174.356c4.143 0 7.5-3.358 7.5-7.5s-3.357-7.5-7.5-7.5H75.938a7.5 7.5 0 0 0 0 15z" data-color="1"/>
        <path fill="#ffffff" d="M75.938 281.445h174.356c4.143 0 7.5-3.358 7.5-7.5s-3.357-7.5-7.5-7.5H75.938a7.5 7.5 0 0 0 0 15z" data-color="1"/>
        <path fill="#ffffff" d="M75.938 319.108H144.3c4.143 0 7.5-3.358 7.5-7.5s-3.357-7.5-7.5-7.5H75.938a7.5 7.5 0 0 0 0 15z" data-color="1"/>
        <path fill="#ffffff" d="M480.27 54.548l6.577-12.175c5.562-10.298 1.708-23.202-8.59-28.764L457.804 2.56A21.09 21.09 0 0 0 441.638.899a21.087 21.087 0 0 0-12.599 10.25l-12.748 23.6a27.982 27.982 0 0 0-11.29 7.473c-7.873 8.596-16.072 18.589-24.368 29.672-82.963-4.983-166.972-5.753-249.762-2.27-23 .954-46.211 2.253-68.98 3.862-25.236 1.755-45.556 21.262-48.314 46.386-9.074 82.934-9.078 167.057-.01 250.034 2.762 25.169 23.08 44.719 48.289 46.481 1.808.132 3.614.254 5.371.363a17.63 17.63 0 0 1 12.534 6.539 7.483 7.483 0 0 0 5.855 2.809 7.5 7.5 0 0 0 5.846-12.192c-5.686-7.09-14.15-11.508-23.266-12.124a493.194 493.194 0 0 1-5.271-.356c-17.99-1.258-32.478-15.202-34.447-33.153-8.95-81.892-8.946-164.917.009-246.766C30.454 103.603 44.94 89.7 62.94 88.449a2368.428 2368.428 0 0 1 68.558-3.838c79.125-3.329 159.363-2.753 238.722 1.7a626.63 626.63 0 0 0-14.998 22.513 7.5 7.5 0 0 0 12.659 8.049c16.213-25.496 32.874-47.806 48.18-64.517 4.053-4.421 10.585-5.51 15.887-2.648l21.05 11.37c5.306 2.866 7.977 8.923 6.495 14.735-8.792 34.614-26.641 77.757-50.259 121.482-9.618 17.804-19.693 34.771-29.889 50.414l-63.077-34.071c7.493-17.107 16.145-34.833 25.764-52.644a725.19 725.19 0 0 1 8.848-15.915 7.5 7.5 0 1 0-13.013-7.46 746.635 746.635 0 0 0-9.032 16.246c-23.829 44.125-42.024 87.976-51.234 123.475-8.617 33.212-8.543 55.499.172 66.484l-2.007 3.269a7.5 7.5 0 1 0 12.783 7.848l2.296-3.739c.888.111 1.795.171 2.723.171 13.731-.001 31.73-12.189 53.694-36.404 24.641-27.166 51.337-66.425 75.171-110.545a747.866 747.866 0 0 0 20.1-40.002c.51 7.173.93 14.355 1.303 21.541l-1.807 2.702c-25.357 37.918-40.82 61.879-39.273 76.062a7.501 7.501 0 0 0 14.912-1.627c-.843-7.723 12.947-30.006 27.211-51.643 1.54 52.35-.519 104.869-6.208 156.889-.416 3.712-1.353 7.267-2.802 10.602-5.519 12.89-17.645 21.503-31.65 22.48a2444.054 2444.054 0 0 1-183.099 5.941c-10.786-.066-20.854 5.15-26.924 13.909-19.433 27.952-51.537 55.172-75.046 73.085-3.944 3.004-8.953 3.482-13.396 1.281-4.452-2.206-7.11-6.491-7.11-11.465v-33.24c0-4.142-3.357-7.5-7.5-7.5s-7.5 3.358-7.5 7.5v33.24c0 10.641 5.921 20.185 15.452 24.906a27.796 27.796 0 0 0 12.356 2.913c5.942 0 11.831-1.929 16.787-5.704 24.366-18.566 57.726-46.901 78.278-76.463 3.242-4.678 8.635-7.463 14.439-7.463h.088c61.319.303 123.316-1.701 184.22-5.978 19.64-1.369 36.65-13.455 44.377-31.503 2.029-4.671 3.354-9.675 3.937-14.894 6.521-59.634 8.346-119.904 5.495-179.84 21.179-31.747 41.838-63.765 45.397-85.847 3.51-21.807-5.257-39.547-24.2-49.758zM336.149 304.89c-26.566 29.289-40.869 33.202-45.133 30.898-4.264-2.302-8.828-16.41 1.102-54.684 4.223-16.278 10.444-34.43 18.274-53.594l60.572 32.718c-11.738 17.062-23.513 32.201-34.815 44.662zM439.074 36.507a28.189 28.189 0 0 0-5.479-2.229l8.644-16a6.183 6.183 0 0 1 3.695-3.006 6.183 6.183 0 0 1 4.742.487l20.453 11.049a6.236 6.236 0 0 1 2.521 8.438l-8.643 16a28.307 28.307 0 0 0-4.879-3.366zm50.586 65.413c-2.48 15.384-16.438 39.144-32.052 63.207a1137.534 1137.534 0 0 0-2.45-29.667c8.128-20.001 14.553-38.953 18.871-55.951a27.965 27.965 0 0 0 .558-10.989c12.417 7.209 17.486 18.412 15.073 33.4z" data-color="1"/>
    </g>
</svg>
