<?xml version="1.0" encoding="UTF-8"?>
<svg data-bbox="0 0 511.695 512" viewBox="0 0 512 512" height="512" width="512" xmlns="http://www.w3.org/2000/svg" data-type="color">
    <g>
        <path fill="#ffffff" d="M275.855 181.02h-14.988v-14.99h14.988zm-24.98 0h-14.988v-14.99h14.988zm0 0" xmlns="http://www.w3.org/2000/svg" data-color="1"/>
        <path fill="#ffffff" d="M255.871 93.89L100.488 223.899H411.25zm0 19.544l114.106 95.472h-228.22zm0 0" xmlns="http://www.w3.org/2000/svg" data-color="1"/>
        <path fill="#ffffff" d="M486.285 464.172V430.59l-10.55-.016-4.274-34.074h-10.723V288.559h10.723l4.234-33.758h20.645L263.363 59.867v-8.41h52.805V0h-67.79c0 61.203-.003 59.469-.003 59.867L15.395 254.801H36.05l4.23 33.758h10.723V396.5H40.28l-4.191 34.074-10.61-.644v33.582l-25.41-.04L0 512h511.625l.07-47.793zM40.496 445.25h430.8v18.922H40.47zm79.77-48.75h-10.723V288.559h10.723L124.5 254.8h26.992l4.235 33.758h10.722V396.5h-10.722l-4.215 34.074h-27.035zm222.527-122.93h-53.531l-2.356-18.77h58.239zm2.352 157.004h-58.239l2.352-19.086h53.531zm-14.84-34.074h-28.559V288.559h28.559zM276.03 288.559h10.727V396.5H276.03l-4.234 34.074H239.94l-4.23-34.074h-10.723V288.559h10.723l4.234-33.758H271.8zM166.617 430.574l2.336-19.086h53.531l2.348 19.086zm14.824-142.015h28.555V396.5h-28.555zm41.043-14.989h-53.53l-2.352-18.77h58.234zM360.27 430.574l-4.25-34.074h-10.727V288.559h10.727l4.23-33.758h26.996l4.234 33.758h10.723V396.5H391.48l-4.257 34.074zm100.32 0h-58.238l2.351-19.086h53.531zM445.75 396.5h-28.559V288.559h28.559zm12.484-122.93h-53.53l-2.352-18.77h58.238zM263.367 14.988h37.809v21.48h-37.809zm-7.496 58.153l199.2 166.672H56.667zM109.395 254.8l-2.356 18.77H53.512l-2.356-18.77zm-43.399 33.758h28.559V396.5H65.996zm-12.484 122.93h53.527l2.328 19.085H51.191zm443.144 85.55H15.012l.023-18.555h481.649zm0 0" xmlns="http://www.w3.org/2000/svg" data-color="1"/>
        <path fill="#ffffff" d="M442.207 195.582h14.988V81.664H322.508v14.992h119.699zm0 0" xmlns="http://www.w3.org/2000/svg" data-color="1"/>
        <path fill="#ffffff" d="M69.54 96.656h119.69V81.664H54.55v113.91h14.99zm0 0" xmlns="http://www.w3.org/2000/svg" data-color="1"/>
    </g>
</svg>
