<?xml version="1.0" encoding="UTF-8"?>
<svg data-bbox="4.147 0 503.708 512.002" viewBox="0 0 512.001 512.001" height="512" width="512" xmlns="http://www.w3.org/2000/svg" data-type="color">
    <g>
        <path fill="#ffffff" d="M496.236 176.587C454.759 44.097 313.262-29.944 180.746 11.516 48.247 52.993-25.803 194.524 15.666 327.014l16.282-5.1C-6.715 198.405 62.32 66.46 185.846 27.789c59.84-18.721 123.39-13.024 178.923 16.035 55.558 29.076 96.464 78.032 115.194 137.864 18.721 59.831 13.032 123.373-16.035 178.923-29.059 55.558-78.015 96.464-137.855 115.194-100.157 31.344-209.943-8.239-267.045-96.276l-14.312 9.28c47.2 72.787 127.987 114.699 211.734 114.69 24.905 0 50.091-3.702 74.715-11.429 64.181-20.086 116.695-63.968 147.877-123.552 31.182-59.585 37.28-127.749 17.194-191.931z" xmlns="http://www.w3.org/2000/svg" data-color="1"/>
        <path fill="#ffffff" d="M206.52 119.408l4.896-16.342-85.291-25.587a8.518 8.518 0 0 0-8.478 2.141l-17.058 17.058a8.536 8.536 0 0 0-2.354 7.591 8.527 8.527 0 0 0 4.921 6.235l76.762 34.116 6.926-15.591-65.409-29.076 4.674-4.674 80.411 24.129z" xmlns="http://www.w3.org/2000/svg" data-color="1"/>
        <path fill="#ffffff" d="M285.747 68.601a8.527 8.527 0 0 0-8.529-8.529h-.017c-18.764 0-36.411 7.309-49.682 20.581l-72.326 72.318-29.434-7.361a8.528 8.528 0 0 0-8.103 2.243l-17.058 17.058a8.52 8.52 0 0 0 1.638 13.34l40.82 24.495 24.495 40.82a8.522 8.522 0 0 0 6.269 4.077 8.596 8.596 0 0 0 7.08-2.43l17.058-17.058a8.55 8.55 0 0 0 2.243-8.103l-7.352-29.4 73.478-72.753c12.537-13.127 19.437-30.372 19.42-49.298zM177.385 181.935a8.533 8.533 0 0 0-2.277 8.128l7.361 29.434-5.919 5.919-19.967-33.28a8.495 8.495 0 0 0-2.925-2.925l-33.28-19.967 5.919-5.919 29.434 7.361a8.528 8.528 0 0 0 8.103-2.243l75.738-75.738c7.847-7.855 17.723-12.947 28.436-14.798-1.689 10.542-6.491 20.316-13.86 28.035l-76.763 75.993z" xmlns="http://www.w3.org/2000/svg" data-color="1"/>
        <path fill="#ffffff" d="M268.322 220.802l-25.587-86.399-16.359 4.845 24.043 81.18-5.177 4.572-28.436-65.964-15.668 6.755 33.093 76.762a8.534 8.534 0 0 0 7.838 5.152 8.503 8.503 0 0 0 5.638-2.132l18.082-15.949a8.536 8.536 0 0 0 2.533-8.822z" xmlns="http://www.w3.org/2000/svg" data-color="1"/>
        <path fill="#ffffff" d="M166.604 470.286C105.86 499.071 58.208 502.79 35.896 480.487c-38.671-38.671 3.326-151.024 97.683-261.356l-12.964-11.088C17.124 329.053-22.681 446.046 23.828 492.547c12.99 12.981 31.336 19.455 54.091 19.455 26.525 0 59.038-8.793 95.986-26.304l-7.301-15.412z" xmlns="http://www.w3.org/2000/svg" data-color="1"/>
        <path fill="#ffffff" d="M455.322 294.851a8.532 8.532 0 0 0-7.523-4.503h-28.845l-23.233-46.458a8.54 8.54 0 0 0-7.634-4.717h-85.291a8.526 8.526 0 0 0-8.529 8.529v68.233a8.521 8.521 0 0 0 8.529 8.529h25.587v93.82a8.52 8.52 0 0 0 8.529 8.529h42.645a8.53 8.53 0 0 0 6.039-2.508l34.116-34.116a8.493 8.493 0 0 0 2.499-6.03v-31.532l32.683-49.025a8.53 8.53 0 0 0 .428-8.751zm-48.744 50.467a8.573 8.573 0 0 0-1.433 4.734v30.585l-29.118 29.118h-30.594v-93.82a8.52 8.52 0 0 0-8.529-8.529h-25.587v-51.174h71.491l23.233 46.458a8.54 8.54 0 0 0 7.633 4.717h18.184l-25.28 37.911z" xmlns="http://www.w3.org/2000/svg" data-color="1"/>
        <path fill="#ffffff" d="M461.267 222.115l-31.66-55.405a8.528 8.528 0 0 0-7.403-4.299H371.03a8.539 8.539 0 0 0-7.096 3.795l-14.525 21.792h-21.024v-42.645h42.645a8.507 8.507 0 0 0 6.03-2.499l31.617-31.617h39.114V94.179h-42.645a8.507 8.507 0 0 0-6.03 2.499l-31.617 31.617h-47.643a8.526 8.526 0 0 0-8.529 8.529v59.703a8.527 8.527 0 0 0 8.529 8.529h34.116a8.539 8.539 0 0 0 7.096-3.795l14.525-21.792h41.665l31.66 55.405a8.528 8.528 0 0 0 7.403 4.299h34.116v-17.058h-29.17z" xmlns="http://www.w3.org/2000/svg" data-color="1"/>
        <path fill="#ffffff" d="M251.622 307.406h-47.643l-23.088-23.088a8.505 8.505 0 0 0-6.03-2.499h-42.645a8.527 8.527 0 0 0-8.529 8.529v59.703a8.526 8.526 0 0 0 8.529 8.529h34.116v85.291a8.535 8.535 0 0 0 4.717 7.633 8.598 8.598 0 0 0 3.813.896 8.498 8.498 0 0 0 5.117-1.706l34.116-25.587a8.536 8.536 0 0 0 3.412-6.823v-21.493l39.447-31.549a8.534 8.534 0 0 0 3.198-6.661v-42.645a8.529 8.529 0 0 0-8.53-8.53zm-8.529 47.081l-39.447 31.549a8.536 8.536 0 0 0-3.198 6.661v21.323l-17.058 12.794v-76.762a8.526 8.526 0 0 0-8.529-8.529h-34.116v-42.645h30.585l23.088 23.088a8.509 8.509 0 0 0 6.03 2.499h42.645v30.022z" xmlns="http://www.w3.org/2000/svg" data-color="1"/>
        <path fill="#ffffff" d="M79.821 183.607l-25.587-42.645a8.518 8.518 0 0 0-7.309-4.137h-8.529v17.058h3.702l19.677 32.794-20.879 20.879a8.505 8.505 0 0 0-2.499 6.03v25.587H12.808v17.058h34.116a8.532 8.532 0 0 0 8.529-8.529v-30.585l23.088-23.088a8.538 8.538 0 0 0 1.28-10.422z" xmlns="http://www.w3.org/2000/svg" data-color="1"/>
        <path fill="#ffffff" d="M268.689 8.889v10.405l-27.66 6.917a8.667 8.667 0 0 0-2.661 1.177L216.9 41.7l-46.748-23.378-7.633 15.258 51.174 25.587a8.531 8.531 0 0 0 8.538-.537l24.359-16.239 32.692-8.171a8.53 8.53 0 0 0 6.465-8.273V8.889h-17.058z" xmlns="http://www.w3.org/2000/svg" data-color="1"/>
    </g>
</svg>
