<?xml version="1.0" encoding="UTF-8"?>
<svg data-bbox="0 0 512 512" viewBox="0 0 512 512" height="512" width="512" xmlns="http://www.w3.org/2000/svg" data-type="color">
    <g xmlns="http://www.w3.org/2000/svg">
        <path fill="#ffffff" d="M504.5 0h-407A7.5 7.5 0 0 0 90 7.5V60H7.5A7.5 7.5 0 0 0 0 67.5v392C0 488.449 23.552 512 52.5 512h407c28.948 0 52.5-23.551 52.5-52.5V7.5a7.5 7.5 0 0 0-7.5-7.5zm-452 497C31.822 497 15 480.178 15 459.5V75h15v173.5c0 4.142 3.357 7.5 7.5 7.5s7.5-3.358 7.5-7.5V75h15v384.5c0 4.136-3.364 7.5-7.5 7.5s-7.5-3.364-7.5-7.5v-181c0-4.142-3.357-7.5-7.5-7.5s-7.5 3.358-7.5 7.5v181c0 12.407 10.094 22.5 22.5 22.5S75 471.907 75 459.5V75h15v384.5c0 20.678-16.822 37.5-37.5 37.5zM497 459.5c0 20.678-16.822 37.5-37.5 37.5H89.207c9.74-9.536 15.793-22.824 15.793-37.5V15h392z" data-color="1"/>
        <path fill="#ffffff" d="M157.5 302H286c4.143 0 7.5-3.358 7.5-7.5s-3.357-7.5-7.5-7.5H157.5c-4.143 0-7.5 3.358-7.5 7.5s3.357 7.5 7.5 7.5z" data-color="1"/>
        <path fill="#ffffff" d="M157.5 332H286c4.143 0 7.5-3.358 7.5-7.5s-3.357-7.5-7.5-7.5H157.5c-4.143 0-7.5 3.358-7.5 7.5s3.357 7.5 7.5 7.5z" data-color="1"/>
        <path fill="#ffffff" d="M157.5 272H286c4.143 0 7.5-3.358 7.5-7.5s-3.357-7.5-7.5-7.5H157.5c-4.143 0-7.5 3.358-7.5 7.5s3.357 7.5 7.5 7.5z" data-color="1"/>
        <path fill="#ffffff" d="M157.5 242H286c4.143 0 7.5-3.358 7.5-7.5s-3.357-7.5-7.5-7.5H157.5c-4.143 0-7.5 3.358-7.5 7.5s3.357 7.5 7.5 7.5z" data-color="1"/>
        <path fill="#ffffff" d="M444.5 227H316a7.5 7.5 0 0 0-7.5 7.5v120a7.5 7.5 0 0 0 7.5 7.5h128.5a7.5 7.5 0 0 0 7.5-7.5v-120a7.5 7.5 0 0 0-7.5-7.5zM437 347H323.5V242H437z" data-color="1"/>
        <path fill="#ffffff" d="M157.5 212h287a7.5 7.5 0 0 0 7.5-7.5v-107a7.5 7.5 0 0 0-7.5-7.5h-287a7.5 7.5 0 0 0-7.5 7.5v107a7.5 7.5 0 0 0 7.5 7.5zm7.5-15v-15h272v15zm272-92v62H165v-62z" data-color="1"/>
        <path fill="#ffffff" d="M157.5 75h287c4.143 0 7.5-3.358 7.5-7.5s-3.357-7.5-7.5-7.5h-287c-4.143 0-7.5 3.358-7.5 7.5s3.357 7.5 7.5 7.5z" data-color="1"/>
        <path fill="#ffffff" d="M444.5 377H316c-4.143 0-7.5 3.358-7.5 7.5s3.357 7.5 7.5 7.5h128.5c4.143 0 7.5-3.358 7.5-7.5s-3.357-7.5-7.5-7.5z" data-color="1"/>
        <path fill="#ffffff" d="M444.5 407H316c-4.143 0-7.5 3.358-7.5 7.5s3.357 7.5 7.5 7.5h128.5c4.143 0 7.5-3.358 7.5-7.5s-3.357-7.5-7.5-7.5z" data-color="1"/>
        <path fill="#ffffff" d="M444.5 437H316c-4.143 0-7.5 3.358-7.5 7.5s3.357 7.5 7.5 7.5h128.5c4.143 0 7.5-3.358 7.5-7.5s-3.357-7.5-7.5-7.5z" data-color="1"/>
        <path fill="#ffffff" d="M157.5 392H286c4.143 0 7.5-3.358 7.5-7.5s-3.357-7.5-7.5-7.5H157.5c-4.143 0-7.5 3.358-7.5 7.5s3.357 7.5 7.5 7.5z" data-color="1"/>
        <path fill="#ffffff" d="M157.5 362H286c4.143 0 7.5-3.358 7.5-7.5s-3.357-7.5-7.5-7.5H157.5c-4.143 0-7.5 3.358-7.5 7.5s3.357 7.5 7.5 7.5z" data-color="1"/>
        <path fill="#ffffff" d="M157.5 422H286c4.143 0 7.5-3.358 7.5-7.5s-3.357-7.5-7.5-7.5H157.5c-4.143 0-7.5 3.358-7.5 7.5s3.357 7.5 7.5 7.5z" data-color="1"/>
        <path fill="#ffffff" d="M157.5 452H286c4.143 0 7.5-3.358 7.5-7.5s-3.357-7.5-7.5-7.5H157.5c-4.143 0-7.5 3.358-7.5 7.5s3.357 7.5 7.5 7.5z" data-color="1"/>
    </g>
</svg>
