<?xml version="1.0"?>
<svg xmlns="http://www.w3.org/2000/svg" xmlns:xlink="http://www.w3.org/1999/xlink" xmlns:svgjs="http://svgjs.com/svgjs" version="1.1" width="512" height="512" x="0" y="0" viewBox="0 0 512.002 512.002" style="enable-background:new 0 0 512 512" xml:space="preserve" class=""><g><g xmlns="http://www.w3.org/2000/svg"><path d="m34.506 455.54h442.991c19.026 0 34.505-15.597 34.505-34.769v-20.213c0-7.376-5.975-13.376-13.319-13.376h-25.644c6.131-7.405 9.809-16.846 9.809-26.916v-94.876c0-4.142-3.357-7.5-7.5-7.5s-7.5 3.358-7.5 7.5v94.875c0 13.106-9.631 24.578-22.494 26.916-17.196 0-367.582 0-378.704 0-12.863-2.338-22.494-13.81-22.494-26.916v-261.446c0-15.084 12.271-27.356 27.355-27.356h368.981c15.084 0 27.355 12.272 27.355 27.356v131.571c0 4.142 3.357 7.5 7.5 7.5s7.5-3.358 7.5-7.5v-131.571c0-23.355-19.001-42.356-42.355-42.356h-368.981c-23.354 0-42.355 19.001-42.355 42.356v261.446c0 10.07 3.677 19.511 9.809 26.916h-25.645c-7.345 0-13.32 6-13.32 13.376v20.213c0 19.172 15.479 34.77 34.506 34.77zm156.503-53.359h129.985v6.061c0 2.503-2.062 4.619-4.501 4.619h-120.983c-2.439 0-4.501-2.115-4.501-4.619zm-176.009 0h161.009v6.061c0 10.818 8.748 19.619 19.501 19.619h120.983c10.753 0 19.501-8.801 19.501-19.619v-6.061h161.008v18.59c0 10.9-8.75 19.769-19.505 19.769h-442.991c-10.756 0-19.506-8.869-19.506-19.769z" fill="#0b245b" data-original="#000000" style="" class=""/><path d="m238.501 102.541c4.143 0 7.5-3.358 7.5-7.5s-3.357-7.5-7.5-7.5c-7.086 0-158.026 0-164.279 0-7.584 0-13.754 6.17-13.754 13.754v256.102c0 7.584 6.17 13.754 13.754 13.754h363.561c7.583 0 13.753-6.17 13.753-13.754 0-20.988 0-246.588 0-256.103 0-7.584-6.17-13.754-13.753-13.754h-164.282c-4.143 0-7.5 3.358-7.5 7.5s3.357 7.5 7.5 7.5h163.034v22.088c-4.39 0-315.498 0-320.416 0v-22.088h122.382zm148.146 253.61h-73.257v-9.015c0-10.366 8.434-18.799 18.799-18.799h35.66c10.365 0 18.799 8.433 18.799 18.799v9.015zm-51.518-57.703c0-8.229 6.659-14.89 14.89-14.89 13.213 0 19.884 16.062 10.529 25.418-5.82 5.819-15.239 5.819-21.059 0-2.811-2.812-4.36-6.551-4.36-10.528zm-71.627-158.819h173.033v100.761h-34.888v-9.015c0-16.035-11.229-29.489-26.235-32.934 7.15-11.526 5.736-26.894-4.258-36.889h-.001c-5.646-5.646-13.151-8.754-21.135-8.754-16.521 0-29.89 13.367-29.89 29.89 0 5.657 1.568 11.071 4.486 15.756-15 3.449-26.225 16.9-26.225 32.932v9.015h-34.888v-100.762zm104.347 72.948c10.365 0 18.799 8.433 18.799 18.798v9.015h-73.258v-9.015c0-10.365 8.434-18.798 18.799-18.798zm-32.72-29.89c0-8.229 6.659-14.89 14.89-14.89 13.214 0 19.883 16.063 10.528 25.418-5.82 5.82-15.238 5.82-21.058 0-2.811-2.812-4.36-6.551-4.36-10.528zm-71.627 72.703h173.033v100.761h-34.888v-9.015c0-16.036-11.229-29.489-26.234-32.935 7.15-11.526 5.736-26.893-4.259-36.889h-.001c-18.867-18.867-51.024-5.3-51.024 21.135 0 5.657 1.568 11.071 4.486 15.756-15 3.449-26.225 16.9-26.225 32.933v9.015h-34.888zm-188.034-152.849h25.651v22.088h-25.651zm123.146 253.61h-73.258v-9.015c0-10.366 8.433-18.799 18.798-18.799h35.661c10.365 0 18.799 8.433 18.799 18.799zm-36.629-72.593c13.213 0 19.884 16.062 10.529 25.418-5.82 5.819-15.239 5.819-21.059 0-9.409-9.412-2.626-25.418 10.53-25.418zm86.517 72.593h-34.888v-9.015c0-16.036-11.229-29.489-26.234-32.935 7.15-11.526 5.736-26.893-4.259-36.889h-.001c-18.867-18.867-51.024-5.3-51.024 21.135 0 5.657 1.568 11.07 4.486 15.756-15 3.449-26.225 16.9-26.225 32.933v9.015h-34.889v-100.761h173.034zm-68.687-143.574c10.365 0 18.799 8.433 18.799 18.798v9.015h-73.258v-9.015c0-10.365 8.433-18.798 18.798-18.798zm-17.83-44.78c13.214 0 19.883 16.063 10.528 25.418-5.82 5.82-15.238 5.82-21.058 0-9.309-9.313-2.763-25.418 10.53-25.418zm86.517-28.168v100.761h-34.888v-9.015c0-16.035-11.229-29.489-26.235-32.934 7.15-11.526 5.736-26.894-4.258-36.889h-.001c-5.646-5.646-13.151-8.754-21.135-8.754-16.521 0-29.89 13.367-29.89 29.89 0 5.657 1.568 11.071 4.486 15.756-15 3.449-26.225 16.9-26.225 32.932v9.015h-34.888v-100.762z" fill="#0b245b" data-original="#000000" style="" class=""/></g></g></svg>
