<?xml version="1.0"?>
<svg xmlns="http://www.w3.org/2000/svg" xmlns:xlink="http://www.w3.org/1999/xlink" xmlns:svgjs="http://svgjs.com/svgjs" version="1.1" width="512" height="512" x="0" y="0" viewBox="0 0 64 64" style="enable-background:new 0 0 512 512" xml:space="preserve" class=""><g><g xmlns="http://www.w3.org/2000/svg"><path d="m45 32c-1.654 0-3 1.346-3 3s1.346 3 3 3 3-1.346 3-3-1.346-3-3-3zm0 4c-.552 0-1-.449-1-1s.448-1 1-1 1 .449 1 1-.448 1-1 1z" fill="#0b245b" data-original="#000000" style="" class=""/><path d="m39 38c-1.654 0-3 1.346-3 3s1.346 3 3 3 3-1.346 3-3-1.346-3-3-3zm0 4c-.552 0-1-.449-1-1s.448-1 1-1 1 .449 1 1-.448 1-1 1z" fill="#0b245b" data-original="#000000" style="" class=""/><path d="m63 24.364c0-4.061-3.304-7.364-7.364-7.364-1.709 0-3.328.58-4.636 1.643v-6.643c0-2.757-2.243-5-5-5h-1v-3c0-1.654-1.346-3-3-3h-2c-1.654 0-3 1.346-3 3v3h-14v-3c0-1.654-1.346-3-3-3h-2c-1.654 0-3 1.346-3 3v3h-9c-2.757 0-5 2.243-5 5v21h8v30h42v-23.586l9.843-9.843c1.391-1.391 2.157-3.24 2.157-5.207zm-40 31.892c0-.073.011-.145.031-.213l2.446-8.151 6.632 6.632-8.152 2.446c-.464.136-.957-.232-.957-.714zm11-2.67-7.586-7.586 1.586-1.586 7.586 7.586zm3-3-7.586-7.586 15.586-15.586 7.586 7.586zm8-26-8.414 8.414h-21.586v-12h30zm1.414 1.414 1.586-1.586 7.586 7.586-1.586 1.586zm-7.414-22c0-.551.448-1 1-1h2c.552 0 1 .449 1 1v6c0 .551-.448 1-1 1h-2c-.552 0-1-.449-1-1zm-22 0c0-.551.448-1 1-1h2c.552 0 1 .449 1 1v6c0 .551-.448 1-1 1h-2c-.552 0-1-.449-1-1zm1 9h2c1.654 0 3-1.346 3-3v-1h14v1c0 1.654 1.346 3 3 3h2c1.654 0 3-1.346 3-3v-1h1c1.654 0 3 1.346 3 3v3h-38v-3c0-1.13-.391-2.162-1.026-3h5.026v1c0 1.654 1.346 3 3 3zm-9 18h-6v-19c0-1.654 1.346-3 3-3s3 1.346 3 3zm40 30h-38v-44h38v3.585l-2 2v-3.585h-34v16h21.586l-10.293 10.293-.179.178-2.999 9.996c-.076.256-.115.521-.115.789 0 .26.048.506.116.744h-8.116v2h10.744c.268 0 .533-.039.788-.116l9.997-2.999 14.471-14.471zm8-30.414-7.586-7.586 2.429-2.429c1.012-1.013 2.36-1.571 3.793-1.571 2.958 0 5.364 2.406 5.364 5.364 0 1.433-.558 2.78-1.571 3.793z" fill="#0b245b" data-original="#000000" style="" class=""/><path d="m13 53h6v2h-6z" fill="#0b245b" data-original="#000000" style="" class=""/><path d="m13 49h6v2h-6z" fill="#0b245b" data-original="#000000" style="" class=""/><path d="m13 37h2v2h-2z" fill="#0b245b" data-original="#000000" style="" class=""/><path d="m17 37h6v2h-6z" fill="#0b245b" data-original="#000000" style="" class=""/><path d="m13 41h10v2h-10z" fill="#0b245b" data-original="#000000" style="" class=""/><path d="m13 45h6v2h-6z" fill="#0b245b" data-original="#000000" style="" class=""/></g></g></svg>
