<?xml version="1.0" encoding="UTF-8"?>
<svg data-bbox="8 0 495.999 512" viewBox="0 0 512 512" height="512" width="512" xmlns="http://www.w3.org/2000/svg" data-type="color">
    <g xmlns="http://www.w3.org/2000/svg">
        <path fill="#9a073c" d="M466.137 193.904a97.554 97.554 0 0 0 3.598-26.329c0-53.826-43.798-97.617-97.633-97.617a98.96 98.96 0 0 0-11.482.663c-7.724-19.216-20.508-35.807-37.335-48.342C303.718 7.704 280.446 0 255.985 0c-24.46 0-47.731 7.704-67.298 22.279-16.827 12.535-29.611 29.124-37.335 48.339a99.44 99.44 0 0 0-11.483-.66c-53.818 0-97.604 43.791-97.604 97.617a97.554 97.554 0 0 0 3.598 26.329C22.304 208.615 8 234.144 8 262.42c0 44.589 36.271 80.865 80.854 80.865h15.31v32.519c0 11.673 9.495 21.169 21.166 21.169h3.951a130.457 130.457 0 0 0 11.073 26.706l-2.772 2.773c-4.005 3.979-6.215 9.291-6.225 14.956-.009 5.679 2.193 11.015 6.197 15.019l22.163 22.195c8.273 8.221 21.702 8.209 29.923-.012l2.825-2.815a130.446 130.446 0 0 0 26.681 11.056v3.953c0 11.688 9.508 21.196 21.194 21.196h31.318c11.687 0 21.194-9.509 21.194-21.196v-3.956a131.095 131.095 0 0 0 26.665-11.051l2.801 2.803c8.26 8.26 21.698 8.259 29.958-.001l22.187-22.19c8.218-8.273 8.208-21.701-.023-29.934l-2.803-2.804a131.745 131.745 0 0 0 11.069-26.698h3.935c11.687 0 21.194-9.496 21.194-21.169v-32.519h15.31c44.583 0 80.854-36.276 80.854-80.865.001-28.276-14.303-53.805-37.862-68.516zm-78.301 181.9c0 .623-.559 1.169-1.194 1.169h-11.677a9.998 9.998 0 0 0-9.754 7.797c-2.815 12.461-7.72 24.292-14.576 35.163a9.999 9.999 0 0 0 1.387 12.405l8.275 8.277c.438.438.427 1.247.001 1.676l-22.163 22.166a1.162 1.162 0 0 1-.836.324c-.234 0-.569-.057-.836-.323l-8.275-8.277a10.002 10.002 0 0 0-12.408-1.387c-10.883 6.866-22.697 11.76-35.114 14.545a10 10 0 0 0-7.812 9.758v11.707c0 .626-.569 1.196-1.194 1.196h-31.318c-.637 0-1.194-.559-1.194-1.196v-11.707a10 10 0 0 0-7.815-9.759c-12.441-2.785-24.251-7.677-35.101-14.538a9.998 9.998 0 0 0-12.405 1.369l-8.315 8.288c-.445.443-1.238.433-1.668.005l-22.139-22.171a1.18 1.18 0 0 1-.346-.851c.001-.32.109-.591.345-.825l8.276-8.277a10 10 0 0 0 1.378-12.42c-6.876-10.859-11.775-22.679-14.562-35.13a9.999 9.999 0 0 0-9.759-7.815H125.33a1.183 1.183 0 0 1-1.166-1.169v-32.519h46.583a87.199 87.199 0 0 0-1.652 16.844c0 47.918 38.979 86.902 86.891 86.902 47.928 0 86.92-38.984 86.92-86.902 0-5.685-.572-11.312-1.668-16.844h46.599v32.519zm35.31-52.519H300.879c-5.522 0-10 4.478-10 10s4.478 10 10 10h19.854a66.536 66.536 0 0 1 2.173 16.844c0 36.89-30.021 66.902-66.92 66.902-36.884 0-66.891-30.013-66.891-66.902 0-5.736.731-11.375 2.151-16.844h19.847c5.522 0 10-4.478 10-10s-4.478-10-10-10H88.854C55.299 323.285 28 295.981 28 262.42c0-23.515 13.144-44.506 34.303-54.783a10 10 0 0 0 4.984-12.533 77.52 77.52 0 0 1-5.021-27.528c0-42.798 34.812-77.617 77.604-77.617 5.514 0 10.891.555 15.983 1.647a10.002 10.002 0 0 0 11.635-6.766C179.736 46.058 215.301 20 255.985 20c40.686 0 76.25 26.057 88.498 64.84a9.998 9.998 0 0 0 11.625 6.768c5.125-1.095 10.506-1.649 15.993-1.649 42.807 0 77.633 34.819 77.633 77.617a77.516 77.516 0 0 1-5.021 27.528 10 10 0 0 0 4.984 12.533C470.856 217.914 484 238.905 484 262.42c0 33.561-27.299 60.865-60.854 60.865z" data-color="1"/>
        <path fill="#9a073c" d="M361.613 141.875c-5.522 0-10 4.478-10 10v98.644c0 5.522 4.478 10 10 10s10-4.478 10-10v-98.644c0-5.522-4.477-10-10-10z" data-color="1"/>
        <path fill="#9a073c" d="M281.974 141.875H254c-5.433 0-10 4.551-10 10v100.458c0 5.522 4.478 10 10 10s10-4.478 10-10v-33.688c6.22-.038 13.864-.078 17.974-.078 21.454 0 38.908-17.202 38.908-38.346s-17.454-38.346-38.908-38.346zm0 56.691c-4.092 0-11.626.039-17.826.077-.03-6.391-.062-14.234-.062-18.423 0-3.55-.025-11.689-.049-18.346h17.938c10.249 0 18.908 8.401 18.908 18.346s-8.66 18.346-18.909 18.346z" data-color="1"/>
        <path fill="#9a073c" d="M175.241 149.761a12.213 12.213 0 0 0-11.453-7.894c-5.026 0-9.49 3.018-11.372 7.687-.024.06-.048.119-.07.179l-37.723 99.041c-1.966 5.161.624 10.938 5.785 12.904 5.162 1.966 10.938-.624 12.904-5.785l6.94-18.221h46.794l6.867 18.192a10.004 10.004 0 0 0 9.357 6.472 9.975 9.975 0 0 0 3.529-.647c5.167-1.95 7.774-7.72 5.824-12.887zm-27.371 67.911l15.885-41.706 15.742 41.706z" data-color="1"/>
        <path fill="#9a073c" d="M255.985 323.285c-5.522 0-10 4.478-10 10s4.478 10 10 10h.058c5.522 0 9.972-4.478 9.972-10s-4.507-10-10.03-10z" data-color="1"/>
    </g>
</svg>
