<?xml version="1.0" encoding="UTF-8"?>
<svg data-bbox="4.75 4.75 118.5 118.498" viewBox="0 0 128 128" height="512" width="512" xmlns="http://www.w3.org/2000/svg" data-type="color">
    <g>
        <path fill="#9a073c" d="M19.433 93.888a14.68 14.68 0 1 0 14.68 14.68 14.7 14.7 0 0 0-14.68-14.68zm0 25.859a11.18 11.18 0 1 1 11.18-11.18 11.192 11.192 0 0 1-11.18 11.18z" xmlns="http://www.w3.org/2000/svg" data-color="1"/>
        <path fill="#9a073c" d="M6.8 4.75h-.3A1.75 1.75 0 0 0 4.75 6.5v21.666a1.75 1.75 0 0 0 1.75 1.75h.3A91.385 91.385 0 0 1 98.084 121.2a1.75 1.75 0 0 0 1.75 1.75H121.5a1.75 1.75 0 0 0 1.75-1.75A116.579 116.579 0 0 0 6.8 4.75zm94.765 114.7A94.889 94.889 0 0 0 8.25 26.427V8.26a113.084 113.084 0 0 1 111.487 111.187z" xmlns="http://www.w3.org/2000/svg" data-color="1"/>
        <path fill="#9a073c" d="M111.2 97.9a1.75 1.75 0 1 0 3.416-.762 109.592 109.592 0 0 0-14.019-34.22 1.75 1.75 0 1 0-2.97 1.852A106.122 106.122 0 0 1 111.2 97.9z" xmlns="http://www.w3.org/2000/svg" data-color="1"/>
        <path fill="#9a073c" d="M6.8 48.082h-.3a1.75 1.75 0 0 0-1.75 1.75V71.5a1.75 1.75 0 0 0 1.75 1.75h.3a48.005 48.005 0 0 1 47.954 47.95 1.75 1.75 0 0 0 1.75 1.75h21.665a1.75 1.75 0 0 0 1.75-1.75A73.2 73.2 0 0 0 6.8 48.082zm51.421 71.366A51.514 51.514 0 0 0 8.25 69.767V51.6a69.7 69.7 0 0 1 68.15 67.847z" xmlns="http://www.w3.org/2000/svg" data-color="1"/>
        <path fill="#9a073c" d="M70.153 115.356a1.75 1.75 0 0 0 1.741 1.591q.08 0 .161-.007a1.75 1.75 0 0 0 1.583-1.9 67.054 67.054 0 0 0-10.623-30.483 1.75 1.75 0 1 0-2.93 1.916 63.534 63.534 0 0 1 10.068 28.883z" xmlns="http://www.w3.org/2000/svg" data-color="1"/>
    </g>
</svg>
