<?xml version="1.0"?>
<svg xmlns="http://www.w3.org/2000/svg" xmlns:xlink="http://www.w3.org/1999/xlink" xmlns:svgjs="http://svgjs.com/svgjs" version="1.1" width="512" height="512" x="0" y="0" viewBox="0 0 64 64" style="enable-background:new 0 0 512 512" xml:space="preserve" class=""><g><path xmlns="http://www.w3.org/2000/svg" d="m58.798 43h1.202c1.654 0 3-1.346 3-3s-1.346-3-3-3h-.48l.548-1.271c1.028-2.381.844-5.131-.49-7.355-.846-1.41-2.083-2.515-3.579-3.195l-2.791-1.271c-3.295-1.5-7.335-1.062-10.231 1.11l-1.577 1.182.002.003c-1.56.407-2.937 1.411-3.783 2.821-.261.435-.46.893-.607 1.364l-.012-.006v-2.735c2.43-1.411 4.22-3.808 4.798-6.647h1.202c1.654 0 3-1.346 3-3s-1.346-3-3-3h-.48l.548-1.271c1.028-2.381.844-5.131-.49-7.355-.846-1.41-2.083-2.515-3.579-3.195l-2.791-1.271c-3.295-1.5-7.335-1.061-10.231 1.11l-1.577 1.182.002.003c-1.56.407-2.937 1.411-3.783 2.821-1.101 1.836-1.187 4.075-.23 5.99l.993 1.986h-.382c-1.654 0-3 1.346-3 3s1.346 3 3 3h1.202c.578 2.839 2.368 5.236 4.798 6.647v2.735l-.511.256c-.189-.788-.485-1.554-.911-2.264-.846-1.41-2.083-2.515-3.579-3.195l-2.791-1.271c-3.295-1.5-7.335-1.062-10.231 1.11l-1.577 1.182.002.003c-1.56.407-2.937 1.411-3.783 2.821-1.101 1.836-1.187 4.075-.23 5.99l.993 1.986h-.382c-1.654 0-3 1.346-3 3s1.346 3 3 3h1.202c.578 2.839 2.368 5.236 4.798 6.647v2.495l-7.152 1.1c-.488.076-.848.495-.848.989v7.769c0 .552.448 1 1 1h11 2 13 19 2 11c.552 0 1-.448 1-1v-7.769c0-.494-.36-.913-.848-.988l-7.152-1.101v-2.495c2.43-1.411 4.22-3.808 4.798-6.647zm-1.798-2c0 4.411-3.589 8-8 8s-8-3.589-8-8v-3.764l1.358-2.717.642.481c1.72 1.29 3.851 2 6 2s4.28-.71 6-2l.642-.481 1.358 2.717zm-13 11.142-8.861 1.363c-1.169.18-2.242.644-3.148 1.327-.917-.69-1.98-1.15-3.13-1.327l-8.861-1.363v-2.495c.348-.202.68-.425 1-.666v.019h22v-.019c.32.241.652.464 1 .666zm-12.707-16.435c.195.195.451.293.707.293s.512-.098.707-.293l.856-.856.334 1.001-1.432 2.148h-.93l-1.432-2.148.334-1.001zm4.904-3.49.547.274c.037.863.244 1.722.645 2.524l.993 1.985h-.382c-1.654 0-3 1.346-3 3s1.346 3 3 3h1.202c.302 1.48.94 2.835 1.817 4h-6.839l.806-4.835c.027-.161.014-.326-.038-.481l-.845-2.536 1.729-2.593c.171-.257.214-.578.117-.871l-.805-2.414zm2.803 8.783h-1c-.551 0-1-.449-1-1s.449-1 1-1h1zm-7.973 1.081.694-2.081h.558l.694 2.081-.82 4.919h-.306zm29.973-2.081c0 .551-.449 1-1 1h-1v-2h1c.551 0 1 .449 1 1zm-21.666-9.947c.76-1.266 2.15-2.053 3.626-2.053 1.568 0 3.023.779 3.894 2.083l.314.471 1.664-1.109-.314-.471c-.902-1.352-2.247-2.302-3.772-2.724 2.264-1.404 5.197-1.632 7.633-.523l2.791 1.271c1.125.512 2.056 1.343 2.693 2.404 1.004 1.673 1.142 3.742.369 5.534l-.067.156-1.27-2.54c-.133-.265-.376-.458-.665-.526-.288-.068-.592-.005-.83.173l-1.6 1.2c-1.376 1.033-3.081 1.601-4.8 1.601s-3.424-.568-4.8-1.6l-1.6-1.2c-.238-.179-.543-.243-.83-.173-.289.068-.532.261-.665.526l-1.355 2.711-.572-1.144c-.65-1.3-.592-2.821.156-4.067zm4.666-12.053c0 .551-.449 1-1 1h-1v-2h1c.551 0 1 .449 1 1zm-21.666-9.947c.76-1.266 2.15-2.053 3.626-2.053 1.568 0 3.023.779 3.894 2.083l.314.471 1.664-1.109-.314-.471c-.902-1.352-2.247-2.302-3.772-2.724 2.263-1.404 5.197-1.632 7.633-.523l2.791 1.271c1.125.512 2.056 1.343 2.693 2.404 1.004 1.673 1.142 3.742.369 5.534l-.067.156-1.27-2.54c-.133-.265-.376-.458-.665-.526-.288-.069-.592-.005-.83.173l-1.6 1.2c-1.376 1.033-3.081 1.601-4.8 1.601s-3.424-.568-4.8-1.6l-1.6-1.2c-.237-.179-.542-.243-.83-.173-.289.068-.532.261-.665.526l-1.355 2.711-.572-1.144c-.65-1.3-.592-2.821.156-4.067zm-1.334 10.947c-.551 0-1-.449-1-1s.449-1 1-1h1v2zm3 0v-3.764l1.358-2.717.642.481c1.72 1.29 3.851 2 6 2s4.28-.71 6-2l.642-.481 1.358 2.717v3.764c0 4.411-3.589 8-8 8s-8-3.589-8-8zm8 10c1.045 0 2.052-.162 3-.461v2.047l-3 3-3-3v-2.047c.948.299 1.955.461 3 .461zm-4.197 3.217 1.053 1.053-.805 2.414c-.098.293-.055.614.117.871l1.729 2.593-.845 2.536c-.052.155-.064.32-.038.481l.806 4.835h-6.839c.878-1.165 1.516-2.52 1.817-4h1.202c1.654 0 3-1.346 3-3s-1.346-3-3-3h-.48l.548-1.271c.41-.95.619-1.958.647-2.968zm-2.803 6.783h1c.551 0 1 .449 1 1s-.449 1-1 1h-1zm-19.666-8.947c.76-1.266 2.15-2.053 3.626-2.053 1.568 0 3.023.779 3.894 2.083l.314.471 1.664-1.109-.314-.471c-.902-1.352-2.247-2.302-3.772-2.724 2.263-1.404 5.197-1.632 7.633-.523l2.791 1.271c1.125.512 2.056 1.343 2.693 2.404 1.004 1.673 1.142 3.742.369 5.534l-.067.156-1.27-2.54c-.133-.265-.376-.458-.665-.526-.287-.068-.593-.005-.83.173l-1.6 1.2c-1.376 1.033-3.081 1.601-4.8 1.601s-3.424-.568-4.8-1.6l-1.6-1.2c-.238-.179-.544-.243-.83-.173-.289.068-.532.261-.665.526l-1.355 2.711-.572-1.144c-.65-1.3-.592-2.821.156-4.067zm-1.334 10.947c-.551 0-1-.449-1-1s.449-1 1-1h1v2zm3 0v-3.764l1.358-2.717.642.481c1.72 1.29 3.851 2 6 2s4.28-.71 6-2l.642-.481 1.358 2.717v3.764c0 4.411-3.589 8-8 8s-8-3.589-8-8zm8 10c1.045 0 2.052-.162 3-.461v2.047l-3 3-3-3v-2.047c.948.299 1.955.461 3 .461zm-11 4.089 6.651-1.024 1.205 1.205-.805 2.414c-.084.252-.064.526.054.764l1.277 2.552h-8.382zm10.618 5.911-1.539-3.077.357-1.072.856.856c.196.195.452.293.708.293s.512-.098.707-.293l.856-.856.357 1.072-1.538 3.077zm13.723 0h-10.723l1.276-2.553c.119-.237.138-.512.054-.764l-.805-2.414 1.205-1.205 9.208 1.417c.731.113 1.412.389 2.016.794-.313.428-.588.889-.803 1.391zm3.266-2.545c.685-1.597 2.119-2.708 3.835-2.973l9.208-1.417 1.205 1.205-.805 2.414c-.084.252-.064.526.054.764l1.278 2.552h-15.865zm17.011 2.545-1.539-3.077.357-1.072.856.856c.196.195.452.293.708.293s.512-.098.707-.293l.856-.856.357 1.072-1.538 3.077zm11.382 0h-8.382l1.276-2.553c.119-.237.138-.512.054-.764l-.805-2.414 1.205-1.205 6.652 1.025zm-8-8.414-3 3-3-3v-2.047c.948.299 1.955.461 3 .461s2.052-.162 3-.461z" fill="#0b245b" data-original="#000000" style=""/></g></svg>
