<?xml version="1.0"?>
<svg xmlns="http://www.w3.org/2000/svg" xmlns:xlink="http://www.w3.org/1999/xlink" xmlns:svgjs="http://svgjs.com/svgjs" version="1.1" width="512" height="512" x="0" y="0" viewBox="0 0 512 512" style="enable-background:new 0 0 512 512" xml:space="preserve" class=""><g><path xmlns="http://www.w3.org/2000/svg" d="m457.489 171.693c9.963-11.84 15.982-27.104 15.982-43.753 0-37.529-30.532-68.061-68.062-68.061-37.528 0-68.061 30.532-68.061 68.061 0 .397.023.789.03 1.184-7.745-4.68-16.797-7.378-26.466-7.378h-13.194c15.988-12.465 26.3-31.888 26.3-53.685.002-37.529-30.531-68.061-68.059-68.061-37.529 0-68.061 30.532-68.061 68.061 0 21.797 10.312 41.22 26.3 53.685h-13.194c-9.634 0-18.656 2.68-26.382 7.33.006-.38.029-.755.029-1.136 0-37.529-30.532-68.061-68.061-68.061s-68.06 30.532-68.06 68.06c0 16.649 6.018 31.913 15.982 43.753-25.818 1.009-46.512 22.164-46.512 48.038v109.184c0 18.53 10.619 34.634 26.126 42.66l13.792 127.045c.827 7.613 7.255 13.381 14.913 13.381h87.519c7.658 0 14.086-5.768 14.912-13.381l13.795-127.067c1.27-.657 2.51-1.367 3.715-2.131l14.52 129.253c.853 7.589 7.27 13.326 14.906 13.326h87.519c7.638 0 14.056-5.738 14.906-13.328l14.51-129.37c1.234.79 2.502 1.527 3.804 2.205l13.8 127.113c.826 7.613 7.255 13.381 14.912 13.381h87.52c7.657 0 14.086-5.768 14.912-13.381l13.792-127.044c15.507-8.026 26.126-24.13 26.126-42.66v-109.186c.001-25.874-20.693-47.03-46.51-48.037zm-201.53-141.693c20.986 0 38.061 17.074 38.061 38.061s-17.074 38.061-38.061 38.061-38.061-17.074-38.061-38.061 17.074-38.061 38.061-38.061zm218.041 189.73v109.184c0 9.973-8.271 18.086-18.436 18.086h-100.31c-6.214 0-11.878-3.133-15.245-7.977 13.596-9.384 22.538-25.142 22.538-42.97v-94.41h93.016c10.166.001 18.437 8.114 18.437 18.087zm-68.591-129.852c20.987 0 38.062 17.074 38.062 38.061s-17.075 38.061-38.062 38.061c-20.986 0-38.061-17.074-38.061-38.061s17.075-38.061 38.061-38.061zm-139.036 117.004-10.414 13.495-10.415-13.495 10.415-26.62zm-87.004-33.088c0-12.158 9.706-22.048 21.636-22.048h33.897l-20.388 52.114c-1.919 4.906-1.125 10.458 2.094 14.629l27.477 35.605c2.84 3.681 7.226 5.836 11.875 5.836 4.648 0 9.035-2.156 11.875-5.836l27.477-35.605c3.219-4.17 4.014-9.723 2.094-14.629l-20.388-52.114h33.897c11.93 0 21.636 9.891 21.636 22.048v122.26c0 12.158-9.706 22.048-21.636 22.048h-109.911c-11.93 0-21.636-9.891-21.636-22.048v-122.26zm-72.779-83.916c20.987 0 38.061 17.074 38.061 38.061s-17.074 38.061-38.061 38.061-38.06-17.074-38.06-38.061 17.074-38.061 38.06-38.061zm-68.59 129.852c0-9.973 8.271-18.086 18.436-18.086h92.933v94.41c0 17.855 8.969 33.636 22.601 43.015-3.388 4.87-9.05 7.932-15.225 7.932h-100.309c-10.165-.001-18.436-8.114-18.436-18.087zm38.29 262.27-11.399-105h83.399l-11.4 105zm210.017 0h-60.698l-15.042-133.898h90.758zm88.803 0-11.399-105h83.398l-11.399 105z" fill="#0b245b" data-original="#000000" style="" class=""/></g></svg>
