<?xml version="1.0"?>
<svg xmlns="http://www.w3.org/2000/svg" xmlns:xlink="http://www.w3.org/1999/xlink" xmlns:svgjs="http://svgjs.com/svgjs" version="1.1" width="512" height="512" x="0" y="0" viewBox="0 0 512.002 512.002" style="enable-background:new 0 0 512 512" xml:space="preserve" class=""><g><g xmlns="http://www.w3.org/2000/svg"><g><path d="m341.267 292.009c-9.115-3.672-18.565-4.189-26.27-1.807-3.464-4.08-7.88-7.513-13.1-10.067-10.287-5.034-21.879-5.902-31.427-2.778-5.014-5.494-11.799-9.586-19.874-11.674-6.216-1.607-12.349-1.804-17.843-.763l-1.285-59.083c-.22-10.126-4.46-19.079-11.12-25.229 16.601-19.769 25.652-44.506 25.652-70.608 0-60.654-49.346-110-110-110-12.25 0-24.295 2.007-35.8 5.966-5.223 1.797-8 7.487-6.203 12.709s7.488 8 12.709 6.203c9.407-3.236 19.263-4.878 29.295-4.878 49.626 0 90 40.374 90 90 0 20.047-6.543 39.099-18.577 54.74-5.844-14.059-15.724-26.096-28.438-34.623 3.505-6.702 5.499-14.315 5.499-22.388v-19.243c0-26.734-21.75-48.484-48.484-48.484s-48.484 21.75-48.484 48.484v19.243c0 8.068 1.992 15.674 5.492 22.373-12.728 8.545-22.599 20.616-28.428 34.593-11.645-15.17-18.58-34.137-18.58-54.696 0-10.035 1.642-19.893 4.879-29.299 1.797-5.222-.979-10.913-6.201-12.71-5.223-1.8-10.913.979-12.71 6.201-3.96 11.505-5.968 23.553-5.968 35.808 0 60.654 49.346 110 110 110 9.984 0 19.816-1.344 29.354-3.991v114.298c-9.586 4.045-17.378 8.517-23.883 21.982-6.598 13.658-12.586 41.022-6.669 56.875 8.479 22.72 19.111 35.625 27.654 45.994 11.076 13.444 18.394 22.326 18.6 46.928.046 5.49 4.509 9.916 10 9.916h145.378c5.503 0 9.972-4.446 10-9.95.062-12.189 5.713-29.396 11.179-46.036 6.003-18.273 12.209-37.168 12.209-52.64v-67.646c-.001-20.169-10.676-36.514-28.556-43.72zm-233.75-203.523c0-15.706 12.778-28.484 28.484-28.484s28.484 12.778 28.484 28.484v19.243c0 15.706-12.778 28.484-28.484 28.484s-28.484-12.778-28.484-28.484zm-27.184 92.184c3.576-14.493 12.738-27.076 25.502-35.024 8.286 6.606 18.769 10.569 30.166 10.569 11.4 0 21.886-3.965 30.173-10.575 10.528 6.551 18.625 16.253 23.15 27.682-10.156 2.997-18.33 10.875-21.949 21.009-10.067 3.748-20.61 5.67-31.374 5.67-20.999-.001-40.34-7.231-55.668-19.331zm269.489 222.707c0 12.271-5.699 29.62-11.21 46.398-4.714 14.353-9.556 29.093-11.401 42.227h-126.632c-2.269-24.778-12.22-36.857-22.686-49.561-8.379-10.171-17.044-20.688-24.353-40.27-3.275-8.776.529-29.98 5.94-41.183 1.863-3.855 3.583-6.228 5.875-8.061v30.107c0 5.523 4.477 10 10 10s10-4.477 10-10v-176.98c0-7.748 5.858-14.052 13.059-14.052 7.03 0 12.889 6.401 13.06 14.269l2.306 106.028c.12 5.521 4.698 9.914 10.215 9.78 5.522-.12 9.9-4.693 9.78-10.215l-.57-26.232c2.212-1.199 6.759-2.041 12.385-.586 4.344 1.124 14.448 5.074 14.448 17.465 0 5.523 4.478 10 10 10s10-4.477 10-10c0-2.325-.198-4.593-.583-6.79 4.191-.578 9.234.218 13.651 2.379 3.958 1.937 10.599 6.59 10.599 15.985 0 5.523 4.478 10 10 10s10-4.477 10-10c0-1.784-.122-3.541-.361-5.26 2.786-.257 6.502.145 10.446 1.734 4.82 1.942 16.031 8.284 16.031 25.173v67.645z" fill="#0b245b" data-original="#000000" style="" class=""/><path d="m376.001 0c-60.654 0-110 49.346-110 110s49.346 110 110 110 110-49.346 110-110-49.345-110-110-110zm-55.668 180.669c3.576-14.493 12.739-27.075 25.503-35.024 8.286 6.606 18.769 10.568 30.165 10.568s21.879-3.962 30.165-10.568c12.755 7.946 21.926 20.537 25.502 35.024-15.327 12.101-34.668 19.331-55.667 19.331s-40.34-7.231-55.668-19.331zm84.153-72.94c0 15.706-12.778 28.484-28.484 28.484s-28.484-12.778-28.484-28.484v-19.243c0-15.706 12.778-28.484 28.484-28.484s28.484 12.778 28.484 28.484zm42.935 56.968c-5.832-13.975-15.709-26.05-28.428-34.593 3.501-6.699 5.492-14.306 5.492-22.374v-19.244c0-26.734-21.75-48.484-48.484-48.484s-48.484 21.75-48.484 48.484v19.243c0 8.067 1.992 15.674 5.492 22.373-12.728 8.545-22.599 20.615-28.428 34.593-11.645-15.17-18.579-34.137-18.579-54.695 0-49.626 40.374-90 90-90s90 40.374 90 90c-.001 20.559-6.935 39.526-18.581 54.697z" fill="#0b245b" data-original="#000000" style="" class=""/><path d="m65.295 49.286c2.401 0 4.811-.859 6.727-2.602 4.086-3.715 4.388-10.04.673-14.126-3.715-4.087-10.041-4.388-14.126-.673l-.005.005c-4.086 3.715-4.385 10.037-.67 14.124 1.972 2.17 4.681 3.272 7.401 3.272z" fill="#0b245b" data-original="#000000" style="" class=""/></g></g></g></svg>
