<?xml version="1.0"?>
<svg xmlns="http://www.w3.org/2000/svg" xmlns:xlink="http://www.w3.org/1999/xlink" xmlns:svgjs="http://svgjs.com/svgjs" version="1.1" width="512" height="512" x="0" y="0" viewBox="0 0 75.698 75.698" style="enable-background:new 0 0 512 512" xml:space="preserve" class=""><g>
<path xmlns="http://www.w3.org/2000/svg" style="" d="M36.165,28.722h2.516h2.516c0,2.289-2.516,2.855-2.516,2.855S36.165,31.011,36.165,28.722z   M31.855,17.595c-1.127-0.915-1.257-3.395-1.27-4.133c-0.005-0.268,0.099-0.527,0.287-0.718c0.188-0.191,0.444-0.299,0.713-0.299  h6.004c0.292,0,0.568,0.127,0.759,0.349c0.018,0.021,0.022,0.049,0.038,0.071h0.735c0.016-0.022,0.02-0.05,0.038-0.071  c0.189-0.221,0.467-0.349,0.759-0.349h6.005c0.269,0,0.525,0.108,0.714,0.299c0.188,0.191,0.291,0.45,0.286,0.719  c-0.014,0.738-0.144,3.217-1.27,4.132c-0.709,0.576-1.811,0.934-2.875,0.934c-1.035,0-1.91-0.334-2.463-0.94  c-0.55-0.602-0.916-1.772-1.139-2.724h-0.845c-0.223,0.952-0.589,2.122-1.14,2.724c-0.554,0.606-1.428,0.94-2.463,0.94  C33.665,18.529,32.564,18.171,31.855,17.595z M41.137,14.444c0.195,0.813,0.449,1.569,0.656,1.796  c0.162,0.178,0.54,0.289,0.985,0.289c0.598,0,1.262-0.2,1.613-0.486c0.176-0.167,0.354-0.835,0.454-1.599H41.137z M32.663,14.444  c0.1,0.764,0.279,1.434,0.456,1.601c0.608,0.495,2.214,0.612,2.596,0.194c0.208-0.228,0.461-0.983,0.656-1.795H32.663z   M75.169,57.891v6.558c0,0.552-0.447,1-1,1l-3.352,0.001v9.248c0,0.552-0.447,1-1,1s-1-0.448-1-1v-9.247l-1.734,0.001v9.246  c0,0.552-0.447,1-1,1s-1-0.448-1-1v-9.246l-54.469,0.023v9.222c0,0.552-0.447,1-1,1s-1-0.448-1-1v-9.221L6.88,65.477v9.221  c0,0.552-0.447,1-1,1s-1-0.448-1-1v-9.22l-3.352,0.001c-0.266,0-0.52-0.105-0.707-0.293s-0.293-0.442-0.293-0.707v-6.589  c0-0.204,0.063-0.403,0.179-0.57l9.5-13.687c0.187-0.269,0.493-0.43,0.821-0.43h3.417V21.249c0-6.865,6.447-9.377,9.856-9.747  c0.54-0.057,1.04,0.336,1.101,0.885s-0.336,1.042-0.884,1.104c-0.33,0.037-8.073,0.981-8.073,7.758v1.508h13.69  c-0.848-1.386-1.475-3.051-1.717-5.033c-0.949-0.558-2.693-1.986-2.607-4.902c0.016-0.534,0.063-2.159,1.293-2.623  c0.166-0.063,0.331-0.09,0.494-0.098C28.495,4.477,33.367,0,38.752,0c0.002,0,0.004,0,0.004,0c5.385,0,10.256,4.477,11.153,10.102  c0.163,0.007,0.328,0.034,0.493,0.096c1.229,0.464,1.277,2.089,1.294,2.624c0.085,2.917-1.659,4.344-2.607,4.902  c-0.242,1.981-0.868,3.647-1.717,5.033h13.802v-1.508c0-6.777-7.743-7.722-8.073-7.758c-0.548-0.062-0.944-0.555-0.884-1.104  s0.559-0.942,1.101-0.885c3.409,0.369,9.856,2.881,9.856,9.747V40h6.646c0.305,0,0.593,0.139,0.782,0.377s0.261,0.55,0.192,0.847  l-1.707,7.428l5.907,8.675C75.109,57.494,75.169,57.69,75.169,57.891z M68.565,42H50.153L47.96,52.875h18.105L68.565,42z   M46.107,51.945l0.762-3.782h-4.907L46.107,51.945z M61.175,29.123H52.74c0.883,0.637,1.791,1.418,2.646,2.365h5.789V29.123z   M56.919,33.488c0.464,0.717,0.887,1.504,1.254,2.365h3.003v-2.365H56.919z M61.175,40v-2.147h-2.298  c0.189,0.676,0.341,1.393,0.454,2.147H61.175z M30.354,16.997c0.569,6.779,5.905,8.973,8.4,8.973s7.831-2.193,8.4-8.973  c0.032-0.385,0.283-0.718,0.646-0.853c0.072-0.029,1.969-0.81,1.896-3.263c-0.009-0.315-0.039-0.531-0.07-0.672  c-0.129,0.086-0.277,0.208-0.387,0.323c-0.378,0.399-1.013,0.417-1.412,0.04c-0.4-0.378-0.422-1.007-0.046-1.409  c0.043-0.046,0.129-0.13,0.235-0.226C47.5,6.009,43.347,2,38.756,2c-0.001,0-0.001,0-0.002,0h-0.001  c-4.592,0-8.745,4.007-9.262,8.936c0.106,0.096,0.193,0.181,0.236,0.227c0.377,0.403,0.355,1.036-0.048,1.414  c-0.4,0.376-1.034,0.357-1.413-0.047c-0.107-0.113-0.256-0.234-0.384-0.32c-0.031,0.142-0.062,0.356-0.07,0.672  c-0.073,2.453,1.824,3.234,1.905,3.267C30.07,16.287,30.323,16.619,30.354,16.997z M16.446,24.757v2.365h12.045  c0.696-0.347,1.136-0.51,1.158-0.518c0.013-0.004,0.026-0.001,0.038-0.005l-0.032-0.595c-0.03-0.552,0.392-1.023,0.943-1.053  c0.542-0.034,1.023,0.392,1.053,0.944l0.205,3.742l2.27-1.065c0.503-0.235,1.096-0.019,1.33,0.48c0.234,0.5,0.02,1.095-0.48,1.33  l-3.612,1.695c-0.135,0.063-0.28,0.095-0.425,0.095c-0.178,0-0.355-0.047-0.513-0.142c-0.286-0.17-0.468-0.472-0.485-0.804  l-0.138-2.526c-2.064,0.907-9.46,4.825-9.942,14.504h5.949v-1.699c0-0.552,0.447-1,1-1s1,0.448,1,1v1.699h7.293  c0.47-2.729,1.898-11.227,2.036-11.433c0.83,0.579,1.544,0.658,1.544,0.658s0.714-0.079,1.544-0.658  c0.138,0.206,1.566,8.704,2.036,11.433h5.609l0.484-2.402C48.448,40.335,48.858,40,49.334,40h7.95  c-1.369-8.016-7.94-10.763-9.692-11.352l-0.141,2.578c-0.018,0.332-0.199,0.633-0.485,0.804c-0.157,0.094-0.335,0.142-0.513,0.142  c-0.145,0-0.29-0.031-0.425-0.095l-3.612-1.695c-0.5-0.235-0.715-0.83-0.48-1.33c0.234-0.5,0.826-0.716,1.33-0.48l2.271,1.065  l0.205-3.742c0.029-0.552,0.499-0.976,1.053-0.944c0.552,0.03,0.974,0.502,0.943,1.053l-0.032,0.587  c0.166,0.046,0.709,0.209,1.476,0.531h11.995v-2.365H45.828c-2.135,2.182-4.893,3.212-7.073,3.212s-4.938-1.031-7.073-3.212H16.446z   M25.286,29.123h-8.841v2.365h6.228C23.539,30.552,24.435,29.768,25.286,29.123z M16.446,35.853h3.23  c0.417-0.856,0.886-1.643,1.388-2.365h-4.618V35.853z M16.446,43.204h1.415c0.091-1.991,0.451-3.77,0.994-5.352h-2.409V43.204z   M3.44,56.891h68.839l-3.801-5.582l-0.641,2.791c-0.104,0.454-0.509,0.776-0.975,0.776H46.739c-0.135,0-0.268-0.034-0.394-0.089  c-0.042-0.018-0.075-0.047-0.115-0.071c-0.056-0.034-0.116-0.056-0.165-0.102l-7.355-6.711c-0.305-0.278-0.408-0.715-0.259-1.1  c0.149-0.385,0.52-0.639,0.933-0.639h7.89l0.193-0.959H11.552L3.44,56.891z M73.169,63.449v-4.558H2.529v4.588l3.351-0.001h0h0  L73.169,63.449z" fill="#0b245b" data-original="#231f20" class=""/>
<g xmlns="http://www.w3.org/2000/svg">
</g>
<g xmlns="http://www.w3.org/2000/svg">
</g>
<g xmlns="http://www.w3.org/2000/svg">
</g>
<g xmlns="http://www.w3.org/2000/svg">
</g>
<g xmlns="http://www.w3.org/2000/svg">
</g>
<g xmlns="http://www.w3.org/2000/svg">
</g>
<g xmlns="http://www.w3.org/2000/svg">
</g>
<g xmlns="http://www.w3.org/2000/svg">
</g>
<g xmlns="http://www.w3.org/2000/svg">
</g>
<g xmlns="http://www.w3.org/2000/svg">
</g>
<g xmlns="http://www.w3.org/2000/svg">
</g>
<g xmlns="http://www.w3.org/2000/svg">
</g>
<g xmlns="http://www.w3.org/2000/svg">
</g>
<g xmlns="http://www.w3.org/2000/svg">
</g>
<g xmlns="http://www.w3.org/2000/svg">
</g>
</g></svg>
