<svg id="Layer_1" data-name="Layer 1" xmlns="http://www.w3.org/2000/svg" xmlns:xlink="http://www.w3.org/1999/xlink" viewBox="0 0 415.57 380.21"><defs><linearGradient id="linear-gradient" x1="129.03" y1="212.21" x2="145.22" y2="160.52" gradientUnits="userSpaceOnUse"><stop offset="0.01"/><stop offset="0.13" stop-opacity="0.69"/><stop offset="1" stop-opacity="0"/></linearGradient><linearGradient id="linear-gradient-2" x1="133.8" y1="189.1" x2="151.44" y2="152.69" gradientUnits="userSpaceOnUse"><stop offset="0.02" stop-color="#fff" stop-opacity="0"/><stop offset="0.58" stop-color="#fff" stop-opacity="0.39"/><stop offset="0.68" stop-color="#fff" stop-opacity="0.68"/><stop offset="1" stop-color="#fff"/></linearGradient><linearGradient id="linear-gradient-3" x1="128.46" y1="192.24" x2="155.1" y2="202.35" xlink:href="#linear-gradient"/><linearGradient id="linear-gradient-4" x1="3542.02" y1="323.57" x2="3558.03" y2="272.44" gradientTransform="matrix(-1, 0, 0, 1, 3856.82, 0)" xlink:href="#linear-gradient"/><linearGradient id="linear-gradient-5" x1="3546.74" y1="300.71" x2="3564.19" y2="264.69" gradientTransform="matrix(-1, 0, 0, 1, 3856.82, 0)" xlink:href="#linear-gradient-2"/><linearGradient id="linear-gradient-6" x1="3541.46" y1="303.81" x2="3567.8" y2="313.82" gradientTransform="matrix(-1, 0, 0, 1, 3856.82, 0)" xlink:href="#linear-gradient"/><linearGradient id="linear-gradient-7" x1="3624.47" y1="149.8" x2="3640.48" y2="98.67" gradientTransform="matrix(-1, 0, 0, 1, 3856.82, 0)" xlink:href="#linear-gradient"/><linearGradient id="linear-gradient-8" x1="3629.19" y1="126.94" x2="3646.64" y2="90.92" gradientTransform="matrix(-1, 0, 0, 1, 3856.82, 0)" xlink:href="#linear-gradient-2"/><linearGradient id="linear-gradient-9" x1="3623.91" y1="130.04" x2="3650.25" y2="140.05" gradientTransform="matrix(-1, 0, 0, 1, 3856.82, 0)" xlink:href="#linear-gradient"/></defs><title>Competition</title><path d="M422.36,269.17c-.85,13.07.25,26.66-4.6,38.82-4,10-11.57,18-19.31,25.38a364.41,364.41,0,0,1-44.22,36.09c-6.54,4.53-13.29,8.87-20.74,11.65-1,.39-2.08.74-3.12,1.06-1.22.39-2.46.73-3.71,1-.79.2-1.58.38-2.39.55a143.66,143.66,0,0,1-20.74,2.42l-4.53.27-3.49.2-2.62.14c-15.46.8-30.93,1.24-46.41,1.67l-56,1.58c-13.2,0-26.38.57-39.58.68-2,0-4.07,0-6.1,0-3,0-5.91-.06-8.86-.15a62.61,62.61,0,0,1-16.27-2.92l-.15,0c-1.17-.36-2.32-.73-3.48-1.13l-2.62-.94c-2.64-1-5.26-2-7.87-3.12-5.65-2.36-11.23-4.88-16.73-7-10.43-4.07-20.91-8.18-30.44-14.06C28.55,342.91,11,307.68,10.26,272.6s14.11-69.49,37.08-96c17.36-20.05,32.62-35.86,42.44-61,8.34-21.28,14.77-44.16,30.16-61.71,17-19.36,42.32-29.1,67.27-35.48C218,10.57,250.82,6.8,281.37,15.53S340,50,348.5,80.62c6.93,24.91,26.65,43.79,41.17,65.19,10,14.72,17.61,30.87,25.2,47,4,8.48,8,17.08,9.81,26.3C427.83,235.56,423.45,252.42,422.36,269.17Z" transform="translate(-10.23 -10.52)" fill="#9a073c" opacity="0.18" style="isolation:isolate"/><path d="M53.85,262.44c4.14,1.15,8.93,2.41,12.44-.05,2.17-1.52,3.3-4.15,5.28-5.9,2.84-2.52,7.1-2.89,10.77-1.9s6.89,3.17,10,5.3c3.19-4.47,10-4.82,15-2.49S116,264,120,267.85a12.54,12.54,0,0,0,4.74,3.28,16.8,16.8,0,0,0,5,.4,33.61,33.61,0,0,1,18.52,5.81,8.36,8.36,0,0,1,3.18,3.34c1.31,2.95-.63,6.37-3.06,8.49-7,6.15-17.36,6.13-26.7,5.78l-69.32-2.64c-5.27-.21-10.6-.41-15.69-1.81-9.06-2.49-16.69-12.1-10.71-21.35C31.69,260.15,44.84,259.93,53.85,262.44Z" transform="translate(-10.23 -10.52)" fill="#fff"/><path d="M119.55,157V387.61c-2-.62-4.07-1.32-6.1-2.07V157Z" transform="translate(-10.23 -10.52)" fill="#9a073c"/><path d="M150.93,157V390.71c-2,0-4.07,0-6.1,0V157Z" transform="translate(-10.23 -10.52)" fill="#9a073c"/><rect x="105.83" y="154.33" width="31.16" height="4.91" fill="#9a073c"/><rect x="105.83" y="172.49" width="31.16" height="4.91" fill="#9a073c"/><rect x="105.83" y="190.64" width="31.16" height="4.91" fill="#9a073c"/><rect x="105.83" y="208.8" width="31.16" height="4.91" fill="#9a073c"/><rect x="105.83" y="226.96" width="31.16" height="4.91" fill="#9a073c"/><rect x="105.83" y="245.12" width="31.16" height="4.91" fill="#9a073c"/><rect x="105.83" y="263.28" width="31.16" height="4.91" fill="#9a073c"/><rect x="105.83" y="281.44" width="31.16" height="4.91" fill="#9a073c"/><rect x="105.83" y="299.6" width="31.16" height="4.91" fill="#9a073c"/><rect x="105.83" y="317.75" width="31.16" height="4.91" fill="#9a073c"/><rect x="105.83" y="335.91" width="31.16" height="4.91" fill="#9a073c"/><rect x="105.83" y="354.07" width="31.16" height="4.91" fill="#9a073c"/><path d="M147.22,382.75v4.9H119.7l-.15,0c-1.17-.36-2.32-.73-3.48-1.13v-3.73Z" transform="translate(-10.23 -10.52)" fill="#9a073c"/><path d="M299,267.84v118.6l-3.49.2-2.62.14V267.84Z" transform="translate(-10.23 -10.52)" fill="#9a073c"/><path d="M330.37,267.84V382.17c-1.22.39-2.46.73-3.71,1-.79.2-1.58.38-2.39.55V267.84Z" transform="translate(-10.23 -10.52)" fill="#9a073c"/><rect x="285.27" y="265.02" width="31.16" height="4.91" fill="#9a073c"/><rect x="285.27" y="283.18" width="31.16" height="4.91" fill="#9a073c"/><rect x="285.27" y="301.34" width="31.16" height="4.91" fill="#9a073c"/><rect x="285.27" y="319.5" width="31.16" height="4.91" fill="#9a073c"/><rect x="285.27" y="336.93" width="31.16" height="4.91" fill="#9a073c"/><rect x="285.27" y="354.36" width="31.16" height="4.91" fill="#9a073c"/><path d="M326.66,382.31v.89c-.79.2-1.58.38-2.39.55a143.66,143.66,0,0,1-20.74,2.42l-4.53.27-3.49.2v-4.33Z" transform="translate(-10.23 -10.52)" fill="#9a073c"/><rect x="194.63" y="47.12" width="6.1" height="331.65" fill="#9a073c"/><rect x="226.01" y="47.12" width="6.1" height="331.65" fill="#9a073c"/><rect x="197.24" y="54.96" width="31.16" height="4.91" fill="#9a073c"/><rect x="197.24" y="73.12" width="31.16" height="4.91" fill="#9a073c"/><rect x="197.24" y="91.28" width="31.16" height="4.91" fill="#9a073c"/><rect x="197.24" y="109.44" width="31.16" height="4.91" fill="#9a073c"/><rect x="197.24" y="127.6" width="31.16" height="4.91" fill="#9a073c"/><rect x="197.24" y="145.76" width="31.16" height="4.91" fill="#9a073c"/><rect x="197.24" y="163.92" width="31.16" height="4.91" fill="#9a073c"/><rect x="197.24" y="182.07" width="31.16" height="4.91" fill="#9a073c"/><rect x="197.24" y="200.23" width="31.16" height="4.91" fill="#9a073c"/><rect x="197.24" y="218.39" width="31.16" height="4.91" fill="#9a073c"/><rect x="197.24" y="236.55" width="31.16" height="4.91" fill="#9a073c"/><rect x="197.24" y="254.71" width="31.16" height="4.91" fill="#9a073c"/><rect x="197.24" y="272.87" width="31.16" height="4.91" fill="#9a073c"/><rect x="197.24" y="290.59" width="31.16" height="4.91" fill="#9a073c"/><rect x="197.24" y="308.31" width="31.16" height="4.91" fill="#9a073c"/><rect x="197.24" y="326.03" width="31.16" height="4.91" fill="#9a073c"/><rect x="197.24" y="343.76" width="31.16" height="4.91" fill="#9a073c"/><rect x="197.24" y="361.48" width="31.16" height="4.91" fill="#9a073c"/><path d="M127.53,195.19c-4,2.84-1.23,18-.45,20.42a2.46,2.46,0,0,0,.87.82c1.35.4,2.31-.06,2.22-1.6-.16-2.76-.67-5.52-.45-8.27a2.15,2.15,0,0,1,.8-1.77,2,2,0,0,1,.94-.21c1-.06,1.69-.2,2.29.69a8,8,0,0,1,1.13,4.08c.13,1.87.35,3.74.57,5.61a78,78,0,0,1,.82,11.22c-.05,1.78-.21,3.67.61,5.25a2.28,2.28,0,0,0,1.53,1.3c2.34.34,2-8.06,2.05-9.52.16-4.05.24-8.11.31-12.16,0-2.72,0-5.45.21-8.16a2.92,2.92,0,0,0-.07-1.18c-.14-.42-1.13-.29-1.46-.59a41.15,41.15,0,0,0-4.54-3.08C133.62,197.15,128.88,194.22,127.53,195.19Z" transform="translate(-10.23 -10.52)" fill="#2e2e3f"/><path d="M136.91,178.71c2,.1,4.11.9,5,2.68a7.12,7.12,0,0,1,.54,2.18,93.62,93.62,0,0,1,.49,11,19.85,19.85,0,0,1-.13,2.89,9.9,9.9,0,0,1-.59,2.23,4.49,4.49,0,0,1-1.66,2.25,5.85,5.85,0,0,1-3.45.52,12,12,0,0,1-3.43-.54,3.93,3.93,0,0,1-2.45-2.31,5.53,5.53,0,0,1-.16-2.11l.47-10c.08-1.7.15-3.4.23-5.1,0-1.05.73-5.24,1.79-5.83S135.75,178.65,136.91,178.71Z" transform="translate(-10.23 -10.52)" fill="#9a073c"/><path d="M129.42,163.69a1.14,1.14,0,0,1,.24-1,1.09,1.09,0,0,1,.89-.12l1.34.2a.92.92,0,0,1,.32.1c.23.14.26.46.29.73s.16.6.44.62a1.11,1.11,0,0,1,.26,0,.31.31,0,0,1,.19.31.79.79,0,0,1-.36.58c-.18.14-.4.23-.59.37a1.81,1.81,0,0,0-.68.95,3.24,3.24,0,0,1-.21.69,1,1,0,0,1-1,.43c-.72-.13-.88-.59-.9-1.21C129.6,165.49,129.49,164.59,129.42,163.69Z" transform="translate(-10.23 -10.52)" fill="#f3bd8f"/><path d="M134.12,175.91a2.77,2.77,0,0,1-.6-1,4.78,4.78,0,0,1-.17-1.08l-.36-4.63c-.05-.66-.09-3.07-.5-3.5a1.85,1.85,0,0,0-1.47-.38l-1.34,0a1,1,0,0,0-.6.17,10,10,0,0,0-.33,2.75c0,2.14,0,4.29,0,6.43a15.78,15.78,0,0,0,.42,3.83,14.27,14.27,0,0,0,1.52,3.29c.58,1,1.18,2,1.78,3,.23.39.55.81.94.74a1,1,0,0,0,.5-.36,10,10,0,0,0,1.95-5.33,2,2,0,0,0-.12-1.47A16.46,16.46,0,0,0,134.12,175.91Z" transform="translate(-10.23 -10.52)" fill="#9a073c"/><path d="M150.46,181.38c-.18,0-.32-.22-.5-.23s-.44.3-.46.58,0,.57,0,.86a6.41,6.41,0,0,1-.3,1.35,2.18,2.18,0,0,0,0,1.36.79.79,0,0,0,.92.52c.3-.11.43-.44.6-.7.41-.61,1.18-1,1.3-1.72.08-.5-.2-1-.2-1.5a1.74,1.74,0,0,0,0-.51C151.64,180.67,150.83,181.46,150.46,181.38Z" transform="translate(-10.23 -10.52)" fill="#f3bd8f"/><path d="M142,181.22A27.36,27.36,0,0,1,146.6,188c1.07-.87,1.25-2.4,1.93-3.6.15-.27.38-.55.68-.56a.9.9,0,0,1,.68.39,5.22,5.22,0,0,1,1.16,3.68,10.61,10.61,0,0,1-1,3.8,7.64,7.64,0,0,1-1.52,2.36,1.75,1.75,0,0,1-.78.5,1.66,1.66,0,0,1-1.05-.14,5.49,5.49,0,0,1-1.45-1,31.66,31.66,0,0,1-3.39-3.46c-1.57-1.84-3-3.95-3.21-6.37a3.77,3.77,0,0,1,1-3.11C140.53,179.71,141.37,180.58,142,181.22Z" transform="translate(-10.23 -10.52)" fill="#9a073c"/><path d="M151,187.83a10.36,10.36,0,0,1-1,3.79,7.73,7.73,0,0,1-1.51,2.37,1.84,1.84,0,0,1-.78.49,1.69,1.69,0,0,1-1.06-.13,5.86,5.86,0,0,1-1.44-1,26.59,26.59,0,0,1-2.28-2.22c0,1.13,0,2.27,0,3.41a21.43,21.43,0,0,1-.13,2.89,9.66,9.66,0,0,1-.59,2.23,4.59,4.59,0,0,1-1.65,2.25,3.91,3.91,0,0,1-1.52.51,10.48,10.48,0,0,1-1.94,0,11.65,11.65,0,0,1-3.43-.53,4,4,0,0,1-2.45-2.31,5.52,5.52,0,0,1-.16-2.11c.16-3.34.31-6.68.47-10l.18-3.94-1-1.67a14.94,14.94,0,0,1-1.52-3.29,15.73,15.73,0,0,1-.42-3.83c-.05-2.14-.07-4.29,0-6.43a9.69,9.69,0,0,1,.33-2.75.86.86,0,0,1,.6-.16l1.33-.06h.47a1.38,1.38,0,0,1,1,.37h0c.41.43.45,2.85.5,3.5l.36,4.63a4.28,4.28,0,0,0,.17,1.08,3.07,3.07,0,0,0,.6,1,12,12,0,0,1,1,1.34c.6.64,1.21,1.42,1.83,1.45a6.24,6.24,0,0,1,4.45,1.88c.22.18.43.39.62.58a27.53,27.53,0,0,1,4.57,6.74c1.07-.86,1.24-2.4,1.92-3.6.16-.27.38-.55.69-.56a.93.93,0,0,1,.68.4A5.16,5.16,0,0,1,151,187.83Z" transform="translate(-10.23 -10.52)" fill="url(#linear-gradient)"/><path d="M149.84,184.15c-2.07,7.18-2.66,5.79-2.66,5.79s-1.58-.61-4.1-4.83-4.78-4.21-7-5-3.54-3.52-4-4.82-1.06-10-1.06-10h.47a2.48,2.48,0,0,1,1,.37h0c.41.43.45,2.85.5,3.5l.36,4.63a4.28,4.28,0,0,0,.17,1.08,3.07,3.07,0,0,0,.6,1,12,12,0,0,1,1,1.34c.6.64,1.21,1.42,1.83,1.45a6.24,6.24,0,0,1,4.45,1.88c.22.18.43.39.62.58a27.53,27.53,0,0,1,4.57,6.74c1.07-.86,1.24-2.4,1.92-3.6.16-.27.38-.55.69-.56A.93.93,0,0,1,149.84,184.15Z" transform="translate(-10.23 -10.52)" fill="url(#linear-gradient-2)"/><path d="M142.78,197.44a9.66,9.66,0,0,1-.59,2.23,4.59,4.59,0,0,1-1.65,2.25,3.91,3.91,0,0,1-1.52.51c-3.17.33-4.57.12.52-2.21,2-.89,2-10.24,2-10.24l1.34,1.16c0,1.13,0,2.27,0,3.41A21.43,21.43,0,0,1,142.78,197.44Z" transform="translate(-10.23 -10.52)" fill="url(#linear-gradient-3)"/><path d="M136.15,176.38c.44-1.44.55-3.07,1.55-4.18a.93.93,0,0,1,.47-.31,1,1,0,0,1,.45,0l2.28.48a1.41,1.41,0,0,1,.49.16,1.58,1.58,0,0,1,.65.93,7.76,7.76,0,0,1,.44,2.57,2.42,2.42,0,0,1-.5,1.68c-.71.77-2.13.62-2.72,1.49-.26.37-.33.9-.73,1.12a1.36,1.36,0,0,1-.49.12,3.4,3.4,0,0,1-1.92-.33c-.53-.29-.51-1-.35-1.69S135.92,177.13,136.15,176.38Z" transform="translate(-10.23 -10.52)" fill="#f3bd8f"/><path d="M138,170.22a3.21,3.21,0,0,0-2,1.12,4.22,4.22,0,0,0-.54,2.93,7.66,7.66,0,0,1-.06,3c-.07.19-.14.42,0,.58s.42.14.64.07a.58.58,0,0,0,.39.51.6.6,0,0,0,.62-.17c0,.29.39.44.64.32a1.29,1.29,0,0,0,.53-.66l.58-1.19a.43.43,0,0,0,.06-.22.52.52,0,0,0-.13-.28,1.57,1.57,0,0,1-.29-1,.58.58,0,0,1,.28-.51.46.46,0,0,1,.55.21,1.47,1.47,0,0,1,.17.62l.1,1c0,.11.07.26.18.22s.08-.08.09-.13a17,17,0,0,0,.13-2.37.17.17,0,0,1,0-.12.26.26,0,0,1,.17-.07,4.5,4.5,0,0,0,1.76-.49,1.91,1.91,0,0,0,1-1.45.88.88,0,0,0-.31-.76,1.53,1.53,0,0,1-.21-.14.55.55,0,0,1-.11-.2,4.4,4.4,0,0,0-.34-.77c-.41-.64-1-.55-1.61-.28A9.88,9.88,0,0,1,138,170.22Z" transform="translate(-10.23 -10.52)" fill="#2e2e3f"/><path d="M127.71,213.85a4,4,0,0,0-.29,1.62,12.4,12.4,0,0,0,.37,3.79,1.42,1.42,0,0,0,.74,1,1.13,1.13,0,0,0,1.09-.32,3.58,3.58,0,0,0,.72-2.91,20.74,20.74,0,0,0-.4-3,2.07,2.07,0,0,0-.28-.8C129.11,212.41,128,213.2,127.71,213.85Z" transform="translate(-10.23 -10.52)" fill="#fff"/><path d="M129.15,216.66a2.82,2.82,0,0,0-1.81,1.65c-.1.39-.06.8-.17,1.18a4.87,4.87,0,0,1-.59,1.1,4.71,4.71,0,0,0-.54,1.29,2.42,2.42,0,0,0,0,1.28,1.22,1.22,0,0,0,.86.87,1.54,1.54,0,0,0,.64,0,3.71,3.71,0,0,0,2.29-1.89,9.59,9.59,0,0,0,.93-2.89,4.16,4.16,0,0,0,.06-2.37C130.53,216.24,129.64,216.46,129.15,216.66Z" transform="translate(-10.23 -10.52)" fill="#2e2e3f"/><path d="M137.8,229.34a1.54,1.54,0,0,0-.71.54,2,2,0,0,0-.18,1.29l.17,2.13a1.54,1.54,0,0,0,.37,1.07,1.69,1.69,0,0,0,2.16-.5,1.4,1.4,0,0,0,.1-.57,17.8,17.8,0,0,0-.15-3.1c-.05-.39,0-.88-.38-1A2,2,0,0,0,137.8,229.34Z" transform="translate(-10.23 -10.52)" fill="#fff"/><path d="M136.78,234.61a1.12,1.12,0,0,1,.6-1,1.45,1.45,0,0,1,.54-.11l1.27-.12a.76.76,0,0,1,.3,0,.53.53,0,0,1,.26.23,4.81,4.81,0,0,1,.4,2.12,10.54,10.54,0,0,0,.52,1.65,3,3,0,0,1,.17,1.71,1.21,1.21,0,0,1-.18.38,1.08,1.08,0,0,1-.73.37,2.64,2.64,0,0,1-.84-.08,2.12,2.12,0,0,1-.66-.21,2.47,2.47,0,0,1-.51-.46,4.06,4.06,0,0,1-.74-1,3.76,3.76,0,0,1-.26-1.05,16.13,16.13,0,0,1-.12-2.78" transform="translate(-10.23 -10.52)" fill="#2e2e3f"/><path d="M316.29,306.73c3.93,2.81,1.21,17.81.45,20.2a2.35,2.35,0,0,1-.87.81c-1.33.4-2.28-.06-2.19-1.58.16-2.73.67-5.46.44-8.18a2.11,2.11,0,0,0-.79-1.75,2,2,0,0,0-.93-.21c-1-.06-1.67-.2-2.26.68a8,8,0,0,0-1.12,4c-.13,1.85-.34,3.7-.56,5.55a75,75,0,0,0-.81,11.1c0,1.76.2,3.62-.61,5.19a2.2,2.2,0,0,1-1.51,1.28c-2.31.34-2-8-2-9.41-.16-4-.23-8-.31-12,0-2.69,0-5.39-.21-8.07a3.22,3.22,0,0,1,.07-1.16c.14-.42,1.12-.3,1.45-.59a40.28,40.28,0,0,1,4.49-3.05C310.27,308.68,315,305.77,316.29,306.73Z" transform="translate(-10.23 -10.52)" fill="#2e2e3f"/><path d="M307,290.43c-1.95.1-4.06.9-4.91,2.65a6.93,6.93,0,0,0-.54,2.16,93.66,93.66,0,0,0-.48,10.86,18.15,18.15,0,0,0,.13,2.86,9.35,9.35,0,0,0,.58,2.21,4.42,4.42,0,0,0,1.64,2.22,5.72,5.72,0,0,0,3.41.51,11.33,11.33,0,0,0,3.39-.53,3.9,3.9,0,0,0,2.43-2.28,5.87,5.87,0,0,0,.16-2.09l-.46-9.91-.24-5c-.05-1-.72-5.18-1.76-5.76S308.16,290.37,307,290.43Z" transform="translate(-10.23 -10.52)" fill="#9a073c"/><path d="M314.41,275.58a1.11,1.11,0,0,0-.22-.95,1.09,1.09,0,0,0-.89-.12l-1.32.2a.73.73,0,0,0-.32.09c-.23.14-.25.46-.29.73s-.16.59-.43.61a1.11,1.11,0,0,0-.26,0,.29.29,0,0,0-.18.31.77.77,0,0,0,.34.57c.19.14.4.23.59.36a1.79,1.79,0,0,1,.67.95,3.34,3.34,0,0,0,.21.68,1,1,0,0,0,1,.43c.71-.14.87-.6.89-1.21C314.25,277.36,314.35,276.46,314.41,275.58Z" transform="translate(-10.23 -10.52)" fill="#f3bd8f"/><path d="M309.77,287.66a2.78,2.78,0,0,0,.6-1,4.12,4.12,0,0,0,.16-1.06l.36-4.59c.05-.64.09-3,.5-3.46a1.82,1.82,0,0,1,1.45-.37l1.32.05a.87.87,0,0,1,.59.17,9,9,0,0,1,.33,2.72q.06,3.17,0,6.35a15.9,15.9,0,0,1-.41,3.79,14.15,14.15,0,0,1-1.5,3.25q-.87,1.52-1.77,3c-.23.38-.54.8-.92.73a.93.93,0,0,1-.5-.36,9.83,9.83,0,0,1-1.93-5.27,2,2,0,0,1,.12-1.45A16.92,16.92,0,0,1,309.77,287.66Z" transform="translate(-10.23 -10.52)" fill="#9a073c"/><path d="M293.61,293.07c.18,0,.31-.21.49-.23s.44.3.46.58,0,.56,0,.85a6.87,6.87,0,0,0,.29,1.33,2.22,2.22,0,0,1,0,1.35.79.79,0,0,1-.92.52c-.29-.11-.42-.44-.59-.7-.4-.6-1.17-1-1.28-1.7-.08-.5.2-1,.19-1.48a1.74,1.74,0,0,1,0-.51C292.45,292.38,293.24,293.15,293.61,293.07Z" transform="translate(-10.23 -10.52)" fill="#f3bd8f"/><path d="M301.94,292.92a27,27,0,0,0-4.52,6.67c-1.05-.85-1.23-2.38-1.9-3.56-.15-.26-.37-.54-.68-.55a.87.87,0,0,0-.67.38A5.17,5.17,0,0,0,293,299.5a10.75,10.75,0,0,0,1,3.76,7.74,7.74,0,0,0,1.5,2.34,1.7,1.7,0,0,0,.78.49,1.64,1.64,0,0,0,1-.14,5.73,5.73,0,0,0,1.43-1,32,32,0,0,0,3.36-3.43c1.55-1.82,3-3.91,3.17-6.3a3.75,3.75,0,0,0-1-3.08C303.44,291.42,302.6,292.28,301.94,292.92Z" transform="translate(-10.23 -10.52)" fill="#9a073c"/><path d="M293.08,299.45a10.28,10.28,0,0,0,1,3.75,7.74,7.74,0,0,0,1.5,2.34,1.67,1.67,0,0,0,.77.49,1.63,1.63,0,0,0,1-.13,5.59,5.59,0,0,0,1.43-1,25.88,25.88,0,0,0,2.25-2.19c0,1.12,0,2.25,0,3.37a18.21,18.21,0,0,0,.13,2.86,9.48,9.48,0,0,0,.58,2.21,4.43,4.43,0,0,0,1.64,2.22,3.56,3.56,0,0,0,1.5.5,10.16,10.16,0,0,0,1.91,0,11.66,11.66,0,0,0,3.39-.53,3.9,3.9,0,0,0,2.43-2.28,5.85,5.85,0,0,0,.16-2.09q-.24-5-.46-9.91c-.07-1.31-.12-2.6-.19-3.9.33-.55.65-1.1,1-1.66a14.37,14.37,0,0,0,1.5-3.25,16.43,16.43,0,0,0,.42-3.79c0-2.11.06-4.24,0-6.35a9.81,9.81,0,0,0-.32-2.72.92.92,0,0,0-.6-.17l-1.31-.05h-.47a1.35,1.35,0,0,0-1,.36l0,0c-.41.42-.45,2.81-.49,3.46l-.36,4.58a4.12,4.12,0,0,1-.16,1.06,3,3,0,0,1-.6,1,11.84,11.84,0,0,0-.95,1.33c-.59.63-1.19,1.4-1.81,1.43a6.17,6.17,0,0,0-4.4,1.87,6.53,6.53,0,0,0-.61.56,27,27,0,0,0-4.52,6.68c-1.06-.86-1.23-2.38-1.9-3.57-.16-.26-.38-.54-.68-.55a.88.88,0,0,0-.67.39A5.17,5.17,0,0,0,293.08,299.45Z" transform="translate(-10.23 -10.52)" fill="url(#linear-gradient-4)"/><path d="M294.23,295.81c2,7.11,2.63,5.73,2.63,5.73s1.55-.61,4.05-4.78,4.73-4.16,6.89-4.91,3.51-3.48,4-4.76,1.05-9.89,1.05-9.89h-.47a2.62,2.62,0,0,0-1,.36l0,0c-.41.42-.45,2.81-.49,3.46l-.36,4.58a4.12,4.12,0,0,1-.16,1.06,3,3,0,0,1-.6,1,11.84,11.84,0,0,0-.95,1.33c-.59.63-1.19,1.4-1.81,1.43a6.17,6.17,0,0,0-4.4,1.87,6.53,6.53,0,0,0-.61.56,27,27,0,0,0-4.52,6.68c-1.06-.86-1.23-2.38-1.9-3.57-.16-.26-.38-.54-.68-.55A.88.88,0,0,0,294.23,295.81Z" transform="translate(-10.23 -10.52)" fill="url(#linear-gradient-5)"/><path d="M301.21,309a9.48,9.48,0,0,0,.58,2.21,4.43,4.43,0,0,0,1.64,2.22,3.56,3.56,0,0,0,1.5.5c3.13.33,4.52.12-.52-2.18-1.93-.88-2-10.13-2-10.13l-1.33,1.15c0,1.12,0,2.25,0,3.37A18.21,18.21,0,0,0,301.21,309Z" transform="translate(-10.23 -10.52)" fill="url(#linear-gradient-6)"/><path d="M307.76,288.12c-.43-1.42-.54-3-1.53-4.12a1,1,0,0,0-.46-.32,1.13,1.13,0,0,0-.45,0l-2.25.48a1.26,1.26,0,0,0-1.13,1.08,7.84,7.84,0,0,0-.44,2.54,2.45,2.45,0,0,0,.49,1.67c.71.76,2.11.6,2.7,1.46.25.37.32.9.72,1.11a1,1,0,0,0,.49.12,3.43,3.43,0,0,0,1.9-.32c.52-.29.5-1,.34-1.67S308,288.87,307.76,288.12Z" transform="translate(-10.23 -10.52)" fill="#f3bd8f"/><path d="M305.94,282a3.12,3.12,0,0,1,2,1.11,4.26,4.26,0,0,1,.54,2.9,7.51,7.51,0,0,0,.06,3c.06.19.14.41,0,.57s-.42.14-.64.07a.56.56,0,0,1-.39.5.56.56,0,0,1-.61-.16c0,.28-.38.43-.64.31a1.31,1.31,0,0,1-.52-.65l-.57-1.18a.39.39,0,0,1-.06-.21.49.49,0,0,1,.13-.28,1.53,1.53,0,0,0,.28-1,.56.56,0,0,0-.27-.51.48.48,0,0,0-.55.22,1.35,1.35,0,0,0-.16.61l-.1,1c0,.11-.07.25-.17.22s-.08-.08-.1-.14A18.06,18.06,0,0,1,304,286a.56.56,0,0,0,0-.12.25.25,0,0,0-.17-.06,4.76,4.76,0,0,1-1.74-.49,1.9,1.9,0,0,1-1-1.44.82.82,0,0,1,.31-.75,2.26,2.26,0,0,0,.2-.13.78.78,0,0,0,.11-.2,4.4,4.4,0,0,1,.34-.77c.4-.63,1-.54,1.59-.27A9.62,9.62,0,0,0,305.94,282Z" transform="translate(-10.23 -10.52)" fill="#2e2e3f"/><path d="M316.11,325.19a3.92,3.92,0,0,1,.28,1.6,12.11,12.11,0,0,1-.35,3.75,1.43,1.43,0,0,1-.74,1,1.11,1.11,0,0,1-1.08-.31,3.57,3.57,0,0,1-.71-2.88,21.74,21.74,0,0,1,.39-3,2.32,2.32,0,0,1,.28-.79C314.73,323.76,315.8,324.55,316.11,325.19Z" transform="translate(-10.23 -10.52)" fill="#fff"/><path d="M314.68,328a2.76,2.76,0,0,1,1.8,1.64c.1.38.06.78.17,1.16a4.5,4.5,0,0,0,.58,1.08,4.62,4.62,0,0,1,.53,1.28,2.45,2.45,0,0,1,0,1.26,1.26,1.26,0,0,1-.86.87,1.48,1.48,0,0,1-.63,0,3.65,3.65,0,0,1-2.27-1.86,9.83,9.83,0,0,1-.92-2.87,4,4,0,0,1-.05-2.34C313.32,327.56,314.2,327.77,314.68,328Z" transform="translate(-10.23 -10.52)" fill="#2e2e3f"/><path d="M306.13,340.51a1.5,1.5,0,0,1,.7.54,2,2,0,0,1,.18,1.28l-.17,2.1a1.57,1.57,0,0,1-.36,1.06,1.34,1.34,0,0,1-1.29.11,1.28,1.28,0,0,1-.85-.61,1.52,1.52,0,0,1-.1-.57,17.39,17.39,0,0,1,.15-3.06c.05-.38,0-.87.37-1A2,2,0,0,1,306.13,340.51Z" transform="translate(-10.23 -10.52)" fill="#fff"/><path d="M307.14,345.73a1.14,1.14,0,0,0-.59-1,2,2,0,0,0-.54-.11l-1.26-.11a.7.7,0,0,0-.29,0,.56.56,0,0,0-.26.22,4.71,4.71,0,0,0-.39,2.1,10.42,10.42,0,0,1-.52,1.64,2.78,2.78,0,0,0-.16,1.68,1,1,0,0,0,.17.38,1.06,1.06,0,0,0,.73.37,2.93,2.93,0,0,0,.83-.08,2.15,2.15,0,0,0,.65-.21,2.13,2.13,0,0,0,.5-.45,4.09,4.09,0,0,0,.73-1,3.78,3.78,0,0,0,.26-1,15.79,15.79,0,0,0,.12-2.75" transform="translate(-10.23 -10.52)" fill="#2e2e3f"/><path d="M233.84,133c3.93,2.81,1.21,17.8.45,20.2a2.43,2.43,0,0,1-.87.81c-1.33.4-2.28-.06-2.19-1.58.16-2.73.67-5.46.44-8.19a2.14,2.14,0,0,0-.79-1.75,2.11,2.11,0,0,0-.93-.21c-1-.05-1.67-.19-2.26.69a8,8,0,0,0-1.12,4c-.13,1.85-.34,3.7-.56,5.55a75,75,0,0,0-.81,11.1c.05,1.76.2,3.62-.61,5.18a2.21,2.21,0,0,1-1.51,1.29c-2.31.34-2-8-2-9.42-.16-4-.23-8-.31-12,0-2.68,0-5.38-.21-8.07a3.22,3.22,0,0,1,.07-1.16c.14-.41,1.12-.29,1.45-.58a40.28,40.28,0,0,1,4.49-3.05C227.82,134.9,232.5,132,233.84,133Z" transform="translate(-10.23 -10.52)" fill="#2e2e3f"/><path d="M224.56,116.66c-1.95.09-4.06.89-4.91,2.65a6.93,6.93,0,0,0-.54,2.16,93.66,93.66,0,0,0-.48,10.86,19.56,19.56,0,0,0,.13,2.86,9.27,9.27,0,0,0,.58,2.2,4.4,4.4,0,0,0,1.64,2.23,5.81,5.81,0,0,0,3.41.51,11.67,11.67,0,0,0,3.39-.54,3.89,3.89,0,0,0,2.43-2.27,5.87,5.87,0,0,0,.16-2.09l-.46-9.91-.24-5c0-1-.72-5.18-1.76-5.77S225.71,116.6,224.56,116.66Z" transform="translate(-10.23 -10.52)" fill="#9a073c"/><path d="M232,101.8a1.16,1.16,0,0,0-.23-1,1.13,1.13,0,0,0-.89-.11l-1.32.19a.92.92,0,0,0-.32.1c-.23.14-.25.46-.29.73s-.16.59-.43.61a1.11,1.11,0,0,0-.26,0,.28.28,0,0,0-.18.31.72.72,0,0,0,.35.56c.18.14.39.24.58.37a1.84,1.84,0,0,1,.68.94,2.55,2.55,0,0,0,.2.68,1,1,0,0,0,1,.43c.71-.13.87-.59.89-1.2C231.8,103.58,231.9,102.69,232,101.8Z" transform="translate(-10.23 -10.52)" fill="#f3bd8f"/><path d="M227.32,113.89a2.88,2.88,0,0,0,.6-1,4.18,4.18,0,0,0,.16-1.06l.36-4.59c.05-.65.09-3,.5-3.46a1.79,1.79,0,0,1,1.45-.37l1.32,0a.87.87,0,0,1,.59.17,9,9,0,0,1,.33,2.71q.06,3.18,0,6.36a16.43,16.43,0,0,1-.42,3.79,14.15,14.15,0,0,1-1.5,3.25q-.87,1.51-1.77,3c-.23.37-.54.8-.92.72a.91.91,0,0,1-.5-.35,9.83,9.83,0,0,1-1.93-5.27,2,2,0,0,1,.12-1.46A16.83,16.83,0,0,1,227.32,113.89Z" transform="translate(-10.23 -10.52)" fill="#9a073c"/><path d="M211.16,119.3c.18,0,.31-.21.49-.23s.44.3.46.57,0,.57,0,.85a6.81,6.81,0,0,0,.29,1.34,2.15,2.15,0,0,1,0,1.35.79.79,0,0,1-.92.51c-.29-.11-.42-.43-.59-.69-.4-.6-1.17-1-1.28-1.7-.08-.5.2-1,.19-1.49a1.67,1.67,0,0,1,0-.5C210,118.6,210.79,119.38,211.16,119.3Z" transform="translate(-10.23 -10.52)" fill="#f3bd8f"/><path d="M219.49,119.15a26.77,26.77,0,0,0-4.52,6.67c-1.05-.86-1.23-2.38-1.9-3.56a.73.73,0,0,0-1.35-.17,5.12,5.12,0,0,0-1.14,3.64,10.47,10.47,0,0,0,1,3.75,7.92,7.92,0,0,0,1.5,2.35,1.88,1.88,0,0,0,.78.49,1.64,1.64,0,0,0,1-.14,5.77,5.77,0,0,0,1.43-1,31,31,0,0,0,3.36-3.42c1.55-1.82,3-3.91,3.17-6.3a3.74,3.74,0,0,0-1-3.08C221,117.65,220.15,118.51,219.49,119.15Z" transform="translate(-10.23 -10.52)" fill="#9a073c"/><path d="M210.63,125.68a10.54,10.54,0,0,0,1,3.75,7.74,7.74,0,0,0,1.5,2.34,1.67,1.67,0,0,0,.77.49,1.63,1.63,0,0,0,1-.13,5.59,5.59,0,0,0,1.43-1,24.61,24.61,0,0,0,2.25-2.2c0,1.12,0,2.25,0,3.38a18.26,18.26,0,0,0,.13,2.86,9.4,9.4,0,0,0,.58,2.2,4.5,4.5,0,0,0,1.64,2.23,3.56,3.56,0,0,0,1.5.5,10.16,10.16,0,0,0,1.91,0,12,12,0,0,0,3.39-.53,4,4,0,0,0,2.43-2.28,5.65,5.65,0,0,0,.16-2.09c-.16-3.31-.31-6.61-.46-9.92-.07-1.3-.12-2.59-.19-3.9.33-.54.65-1.09,1-1.65a14.58,14.58,0,0,0,1.5-3.25,16.43,16.43,0,0,0,.42-3.79c0-2.12.06-4.24,0-6.36a9.74,9.74,0,0,0-.32-2.71.92.92,0,0,0-.6-.17l-1.31,0h-.47a1.31,1.31,0,0,0-1,.36h0c-.41.42-.45,2.82-.49,3.46l-.36,4.58a4.13,4.13,0,0,1-.16,1.07,3,3,0,0,1-.6,1,11.84,11.84,0,0,0-.95,1.33c-.59.63-1.19,1.4-1.81,1.43a6.21,6.21,0,0,0-4.4,1.86c-.22.18-.42.38-.61.57a27,27,0,0,0-4.52,6.67c-1.06-.85-1.23-2.37-1.9-3.56-.16-.27-.38-.54-.68-.55a.85.85,0,0,0-.67.39A5.16,5.16,0,0,0,210.63,125.68Z" transform="translate(-10.23 -10.52)" fill="url(#linear-gradient-7)"/><path d="M211.78,122c2,7.1,2.63,5.73,2.63,5.73s1.55-.61,4.05-4.78,4.73-4.17,6.89-4.91,3.51-3.48,4-4.76,1.05-9.89,1.05-9.89h-.47a2.62,2.62,0,0,0-1,.36h0c-.41.42-.45,2.82-.49,3.46l-.36,4.58a4.13,4.13,0,0,1-.16,1.07,3,3,0,0,1-.6,1,11.84,11.84,0,0,0-.95,1.33c-.59.63-1.19,1.4-1.81,1.43a6.21,6.21,0,0,0-4.4,1.86c-.22.18-.42.38-.61.57a27,27,0,0,0-4.52,6.67c-1.06-.85-1.23-2.37-1.9-3.56-.16-.27-.38-.54-.68-.55A.85.85,0,0,0,211.78,122Z" transform="translate(-10.23 -10.52)" fill="url(#linear-gradient-8)"/><path d="M218.76,135.19a9.4,9.4,0,0,0,.58,2.2,4.5,4.5,0,0,0,1.64,2.23,3.56,3.56,0,0,0,1.5.5c3.13.33,4.52.12-.52-2.18-1.93-.88-2-10.13-2-10.13L218.65,129c0,1.12,0,2.25,0,3.38A18.26,18.26,0,0,0,218.76,135.19Z" transform="translate(-10.23 -10.52)" fill="url(#linear-gradient-9)"/><path d="M233.66,151.42a3.92,3.92,0,0,1,.28,1.6,12.13,12.13,0,0,1-.35,3.75,1.45,1.45,0,0,1-.74,1,1.09,1.09,0,0,1-1.07-.32,3.5,3.5,0,0,1-.72-2.87,21.74,21.74,0,0,1,.39-3,2.32,2.32,0,0,1,.28-.79C232.28,150,233.35,150.78,233.66,151.42Z" transform="translate(-10.23 -10.52)" fill="#fff"/><path d="M232.23,154.2a2.77,2.77,0,0,1,1.8,1.63c.1.38.06.79.17,1.17a4.5,4.5,0,0,0,.58,1.08,4.62,4.62,0,0,1,.53,1.28,2.45,2.45,0,0,1,0,1.26,1.27,1.27,0,0,1-.86.87,1.48,1.48,0,0,1-.63,0,3.7,3.7,0,0,1-2.27-1.87,9.87,9.87,0,0,1-.92-2.86,4,4,0,0,1-.05-2.35C230.87,153.78,231.75,154,232.23,154.2Z" transform="translate(-10.23 -10.52)" fill="#2e2e3f"/><path d="M223.68,166.74a1.54,1.54,0,0,1,.7.53,2,2,0,0,1,.18,1.28l-.17,2.11a1.57,1.57,0,0,1-.36,1.06,1.33,1.33,0,0,1-1.29.11,1.31,1.31,0,0,1-.85-.61,1.52,1.52,0,0,1-.1-.57,17.39,17.39,0,0,1,.15-3.06c.05-.39,0-.87.37-1A2,2,0,0,1,223.68,166.74Z" transform="translate(-10.23 -10.52)" fill="#fff"/><path d="M224.7,172a1.14,1.14,0,0,0-.6-1,2,2,0,0,0-.54-.11l-1.26-.12a1,1,0,0,0-.29,0,.62.62,0,0,0-.26.22,4.71,4.71,0,0,0-.39,2.1,10.76,10.76,0,0,1-.52,1.64,2.78,2.78,0,0,0-.16,1.68.91.91,0,0,0,.9.74,2.92,2.92,0,0,0,.83-.07,2.47,2.47,0,0,0,.65-.21,2.68,2.68,0,0,0,.5-.45,4,4,0,0,0,.73-1,3.63,3.63,0,0,0,.26-1,15.79,15.79,0,0,0,.12-2.75" transform="translate(-10.23 -10.52)" fill="#2e2e3f"/><path d="M221.29,116.25a5,5,0,0,0,.1,1.29,1.59,1.59,0,0,0,.75,1,1.65,1.65,0,0,0,.79.16,2,2,0,0,0,1.41-.55,2.57,2.57,0,0,0,.5-1.2,15.43,15.43,0,0,0,.32-3.52,1.87,1.87,0,0,0-.1-.62,1.44,1.44,0,0,0-1.64-.64,3,3,0,0,0-1.95,1.27A6.91,6.91,0,0,0,221.29,116.25Z" transform="translate(-10.23 -10.52)" fill="#f3bd8f"/><path d="M219.3,112.5a7.07,7.07,0,0,0,.36,1.64,3.75,3.75,0,0,0,4.89,2.1,2.5,2.5,0,0,0,1.21-.94,3.48,3.48,0,0,0,.39-1.27,21.69,21.69,0,0,0,.25-2.9,5.25,5.25,0,0,0-.17-1.68,2.14,2.14,0,0,0-1-1.29,3.3,3.3,0,0,0-1.4-.22c-1.36,0-3.11-.11-4.29.71-.48.34-.41.82-.39,1.37C219.15,110.85,219.21,111.67,219.3,112.5Z" transform="translate(-10.23 -10.52)" fill="#f3bd8f"/><path d="M225.49,111.79a1.15,1.15,0,0,1-.29,1.38l-.29,1.77c0,.28-.14.61-.42.68-.11,0-.23,0-.34,0-.42,0-.79.47-1.17.31a1.91,1.91,0,0,0-.28-.15c-.19,0-.36.09-.54.17a1.28,1.28,0,0,1-1.43-.52,13.94,13.94,0,0,1-.81-1.41,6.51,6.51,0,0,1-.81-1.27c-.18-.52-.09-1.14-.39-1.61a1.48,1.48,0,0,1-.21-.34.94.94,0,0,1,0-.44,10.64,10.64,0,0,1,.18-2,3.37,3.37,0,0,1,.92-1.71,2.49,2.49,0,0,1,2.18-.62,5.15,5.15,0,0,1,3.36-.5.47.47,0,0,1,.29.14c.13.17,0,.42-.12.6a2.13,2.13,0,0,1,1.27,1.56c-.19,0-.35.19-.37.39a1.67,1.67,0,0,0,.12.58,3.54,3.54,0,0,1,.18,1,1,1,0,0,1-.07.49,1.87,1.87,0,0,1-.3.41A2.15,2.15,0,0,0,225.49,111.79Z" transform="translate(-10.23 -10.52)" fill="#2e2e3f"/><path d="M255.76,182.24c-2.38,1.21-4.74,2.74-6.08,5-2.58,4.47-.25,10.6,4,13.48s9.88,3.1,15,2.18,9.93-2.87,15-4a5.15,5.15,0,0,1,2.17-.15c1.54.33,2.44,1.87,3.52,3,3.25,3.48,8.6,3.72,13.37,3.71l45.19-.1c13.25,0,27.12-.2,38.75-6.53,1.66-.9,3.35-2,4-3.79a6,6,0,0,0-1.42-5.84,15.63,15.63,0,0,0-5.23-3.47c-5.08-2.4-10.5-4.4-16.12-4.49A13.44,13.44,0,0,0,365.36,170a20.93,20.93,0,0,0-9.7-6.79c-8.35-3.06-18.64-1.77-24.74,4.69a34.88,34.88,0,0,0-18.45-13c-7.39-2-15.71-.93-22,3.47a22.39,22.39,0,0,0-7.32,8.71c-1.19,2.52-1,8-2.9,9.84s-8.45.71-11.21,1.11A42.91,42.91,0,0,0,255.76,182.24Z" transform="translate(-10.23 -10.52)" fill="#fff"/><path d="M351.8,249.79a10.38,10.38,0,0,0-3.55.55c-1.86.73-3.16,2.4-4.36,4-2,2.66-4,6.43-1.95,9,1.37,1.74,3.9,1.95,6.12,1.9a70.81,70.81,0,0,0,18.07-2.71c1.75-.49,3.67-1.05,5.32-.27,1.17.55,1.95,1.68,3,2.4,1.6,1.06,3.65,1.1,5.57,1.11l10.66,0c8.54,0,18.5-.67,23.33-7.72a8,8,0,0,0,1.41-6.79c-1.19-3.62-5.5-5-9.22-5.85-8.29-1.9-24.19-9.31-30.79-2.43-2.3,2.39-3.3,5.5-6.66,6.63C364,251.27,356.82,249.63,351.8,249.79Z" transform="translate(-10.23 -10.52)" fill="#fff"/></svg>