<?xml version="1.0"?>
<svg xmlns="http://www.w3.org/2000/svg" xmlns:xlink="http://www.w3.org/1999/xlink" xmlns:svgjs="http://svgjs.com/svgjs" version="1.1" width="512" height="512" x="0" y="0" viewBox="0 0 512 512" style="enable-background:new 0 0 512 512" xml:space="preserve" class=""><g><g xmlns="http://www.w3.org/2000/svg"><path d="m26 246h40c5.522 0 10-4.477 10-10v-10h24.084c14.835 24.827 41.358 40 70.636 40h5.28v20h-90c-5.522 0-10 4.477-10 10v120c0 5.523 4.478 10 10 10h10v76c0 5.523 4.478 10 10 10h135c5.522 0 10-4.477 10-10s-4.478-10-10-10h-125v-66h340v66h-125c-5.522 0-10 4.477-10 10s4.478 10 10 10h135c5.522 0 10-4.477 10-10v-76h10c5.522 0 10-4.477 10-10v-120c0-5.523-4.478-10-10-10h-90v-276c0-5.523-4.478-10-10-10h-200c-5.522 0-10 4.477-10 10v36.919c-34.053 4.695-63.571 27.287-76.916 59.081h-23.084v-10c0-5.523-4.478-10-10-10h-40c-5.522 0-10 4.477-10 10v140c0 5.523 4.478 10 10 10zm70 160v-20h380v20zm380-100v60h-380v-60h80v20h-10c-5.522 0-10 4.477-10 10s4.478 10 10 10h240c5.522 0 10-4.477 10-10s-4.478-10-10-10h-10v-20zm-100-286v306h-180v-199.225c6.539-5.904 12.07-12.981 16.164-20.775h13.836c27.57 0 50-22.43 50-50 0-5.523-4.478-10-10-10h-70v-26zm-270 106c4.305 0 8.126-2.754 9.487-6.838 10.193-30.582 38.678-51.984 70.883-53.169.957-.036 67.916-.053 67.916-.053-4.127 11.641-15.249 20.06-28.286 20.06h-20c-3.787 0-7.25 2.14-8.944 5.527-1.464 2.397-5.126 13.253-17.233 22.77-9.606 7.547-21.618 11.703-33.823 11.703-5.522 0-10 4.477-10 10s4.478 10 10 10c10.343 0 20.583-2.189 30-6.311v106.311h-5.28c-23.768 0-45.14-13.209-55.776-34.474-1.695-3.387-5.157-5.526-8.944-5.526h-30v-80zm-70-20h20v120h-20z" fill="#0b245b" data-original="#000000" style="" class=""/><path d="m233.071 148.929c-3.906-3.905-10.236-3.905-14.143 0-3.905 3.905-3.905 10.237 0 14.143l20 20c1.954 1.952 4.512 2.928 7.072 2.928s5.118-.976 7.071-2.929l40-40c3.905-3.905 3.905-10.237 0-14.143-3.906-3.905-10.236-3.905-14.143 0l-32.928 32.93z" fill="#0b245b" data-original="#000000" style="" class=""/><path d="m266 226h-40c-5.522 0-10 4.477-10 10v40c0 5.523 4.478 10 10 10h40c5.522 0 10-4.477 10-10v-40c0-5.523-4.478-10-10-10zm-10 40h-20v-20h20z" fill="#0b245b" data-original="#000000" style="" class=""/><path d="m346 226h-40c-5.522 0-10 4.477-10 10s4.478 10 10 10h40c5.522 0 10-4.477 10-10s-4.478-10-10-10z" fill="#0b245b" data-original="#000000" style="" class=""/><path d="m326 266h-20c-5.522 0-10 4.477-10 10s4.478 10 10 10h20c5.522 0 10-4.477 10-10s-4.478-10-10-10z" fill="#0b245b" data-original="#000000" style="" class=""/><path d="m306 186h40c5.522 0 10-4.477 10-10s-4.478-10-10-10h-40c-5.522 0-10 4.477-10 10s4.478 10 10 10z" fill="#0b245b" data-original="#000000" style="" class=""/><circle cx="286" cy="502" r="10" fill="#0b245b" data-original="#000000" style="" class=""/></g></g></svg>
