<?xml version="1.0"?>
<svg xmlns="http://www.w3.org/2000/svg" xmlns:xlink="http://www.w3.org/1999/xlink" xmlns:svgjs="http://svgjs.com/svgjs" version="1.1" width="512" height="512" x="0" y="0" viewBox="0 0 512 512.003" style="enable-background:new 0 0 512 512" xml:space="preserve" class=""><g><path xmlns="http://www.w3.org/2000/svg" d="m266.023438 77.605469c2.925781 2.925781 7.675781 2.929687 10.605468 0l27.699219-27.695313c2.929687-2.929687 2.929687-7.679687 0-10.609375-2.929687-2.925781-7.679687-2.925781-10.609375 0l-22.394531 22.394531-9.503907-9.507812c-2.929687-2.929688-7.679687-2.929688-10.609374 0-2.929688 2.929688-2.929688 7.679688 0 10.605469zm0 0" fill="#0b245b" data-original="#000000" style="" class=""/><path xmlns="http://www.w3.org/2000/svg" d="m356.15625 428.582031c-4.144531 0-7.5 3.359375-7.5 7.5v60.917969h-135.015625c-4.144531 0-7.5 3.355469-7.5 7.5 0 4.140625 3.355469 7.5 7.5 7.5h135.933594c7.765625 0 14.082031-6.316406 14.082031-14.082031v-61.835938c0-4.140625-3.355469-7.5-7.5-7.5zm0 0" fill="#0b245b" data-original="#000000" style="" class=""/><path xmlns="http://www.w3.org/2000/svg" d="m363.65625 340.429688h8.371094c11.164062 0 20.25-9.082032 20.25-20.246094v-11.488282c0-11.167968-9.085938-20.25-20.25-20.25h-9.449219v-74.394531c0-7.835937-3.375-15.296875-9.261719-20.472656l-10.039062-8.824219c3.257812-8.460937 1.03125-18.621094-6.203125-24.980468l-22.78125-20.027344c-9.152344-8.050782-23.074219-7.15625-31.125 2-8.027344 9.132812-7.128907 23.09375 2.003906 31.125l23.105469 20.3125c7.304687 6.421875 17.363281 7.007812 25.078125 2.820312l10.054687 8.839844c2.648438 2.324219 4.164063 5.683594 4.164063 9.207031v74.390625h-22.511719v-36.765625c0-33.929687-29.105469-46.28125-30.34375-46.792969-.046875-.019531-.09375-.039062-.144531-.054687l-64.675781-25.050781v-.550782h22.292968c8.859375 0 16.0625-7.207031 16.0625-16.0625v-39.589843c2.085938-2.9375 3.515625-6.289063 4.199219-9.839844 1.21875.078125 2.445313.132813 3.683594.132813 31.394531 0 56.933593-25.542969 56.933593-56.9375 0-31.394532-25.539062-56.929688-56.933593-56.929688-14.265625 0-27.3125 5.285156-37.3125 13.984375-12.320313-9.054687-27.21875-13.984375-42.648438-13.984375-39.746093 0-72.078125 32.335938-72.078125 72.082031v91.085938c0 8.855469 7.203125 16.0625 16.0625 16.0625h22.21875v.554687l-64.605468 25.046875c-.046876.015625-.09375.035157-.140626.054688-1.242187.507812-30.34375 12.863281-30.34375 46.792969v36.765624h-22.476562v-74.390624c0-3.527344 1.515625-6.882813 4.164062-9.207032l10.054688-8.839844c7.714844 4.1875 17.773438 3.597657 25.078125-2.820312l23.105469-20.3125c9.152344-8.046875 10.050781-21.96875 2.003906-31.125-8.027344-9.132812-21.992188-10.03125-31.125-2.003906l-22.785156 20.03125c-7.230469 6.355468-9.457032 16.519531-6.199219 24.980468l-10.035156 8.820313c-5.886719 5.175781-9.261719 12.636719-9.261719 20.476563v74.390624h-9.5625c-11.164062 0-20.25 9.085938-20.25 20.25v11.488282c0 11.167968 9.085938 20.25 20.25 20.25h9.5625v157.488281c0 7.765625 6.316406 14.082031 14.078125 14.082031h134.746094c4.144531 0 7.503906-3.359375 7.503906-7.5 0-4.144531-3.359375-7.5-7.503906-7.5h-133.824219v-156.574218h303.84375v60.652343c0 4.140625 3.355469 7.5 7.5 7.5s7.5-3.359375 7.5-7.5zm-45.472656-158.511719-23.105469-20.3125c-2.921875-2.566407-3.207031-7.03125-.640625-9.953125 2.574219-2.929688 7.03125-3.207032 9.953125-.640625l22.78125 20.027343c3.003906 2.640626 3.507813 7.148438 1.121094 10.046876-2.550781 3.109374-7.128907 3.453124-10.109375.832031zm-252.96875-10.878907 22.78125-20.027343c2.921875-2.570313 7.390625-2.277344 9.953125.640625 2.574219 2.925781 2.289062 7.378906-.640625 9.953125l-23.105469 20.3125c-2.972656 2.609375-7.546875 2.292969-10.113281-.832031-2.382813-2.898438-1.878906-7.40625 1.125-10.046876zm244.84375 80.636719v36.769531h-28.726563v-28.417968c0-4.144532-3.359375-7.503906-7.5-7.503906-4.144531 0-7.5 3.359374-7.5 7.503906v28.417968h-45.222656l-7.320313-43.238281 2.769532-4.167969c7.511718 5.332032 15.121094 2.058594 17.996094-3.699218h.003906l16.585937-33.246094 37.914063 14.683594c1.074218.464844 21 9.441406 21 32.898437zm-153.214844-125.960937c0-.050782-.003906-.105469-.003906-.15625v-14.867188c23.992187-9.507812 43.273437-28.164062 52.339844-38.066406 5.09375 4.828125 11.128906 9.203125 17.488281 12.488281 2.449219 4.296875 5.867187 8.675781 8.84375 11.710938v28.734375c0 21.242187-17.339844 38.671875-38.667969 38.671875h-.003906c-22.707032-.003907-39.914063-16.835938-39.996094-38.515625zm66.042969 101.414062c-.625-.441406-4.28125-3.050781-15.882813-11.292968l17.78125-21.949219 12.308594 4.769531zm-21.007813 8.898438h-11.40625l-2.449218-3.691406 8.140624-5.785157 8.160157 5.796875zm-5.035156-56.796875h.003906c5.976563 0 12.246094-1.046875 18.050782-3.128907v6.164063l-18.742188 23.132813-18.777344-23.179688v-6.238281c6.160156 2.179687 12.949219 3.25 19.464844 3.25zm-29.34375 14.667969 17.792969 21.964843-15.863281 11.265625-14.210938-28.472656zm25.289062 57.128906h6.773438l6.332031 37.417968h-19.4375zm60.464844-87.859375c0 .582031-.476562 1.0625-1.058594 1.0625h-18.179687c8.128906-7.8125 13.859375-18.277344 15.777344-29.949219 1.171875-.121094 2.328125-.320312 3.460937-.59375zm4.492188-52.351563c-.703125 3.792969-3.492188 6.890625-7.234375 8.074219v-11.117187c2.328125 1.171874 5.027343 2.289062 7.234375 3.042968zm60.324218-53.882812c0 23.125-18.8125 41.9375-41.933593 41.9375-22.917969 0-41.9375-18.617188-41.9375-41.9375 0-23.109375 18.804687-41.933594 41.9375-41.933594 23.121093 0 41.933593 18.8125 41.933593 41.933594zm-177.910156 107.296875c-.585937 0-1.0625-.476563-1.0625-1.0625v-91.085938c0-31.476562 25.605469-57.082031 57.078125-57.082031 11.753907 0 23.117188 3.605469 32.652344 10.265625-6.0625 9.039063-9.628906 20.074219-9.628906 31.667969 0 1.605468.109375 3.691406.191406 4.691406-.640625-.605469-1.273437-1.226562-1.894531-1.867188-4.859375-5.011718-12.839844-4.664062-17.316406.433594-13.21875 15.082032-31.632813 30.214844-50.640626 37.230469-4.605468 1.699219-7.703124 6.144531-7.703124 11.050781v17.085938c0 14.664062 5.945312 28.617187 16.476562 38.671875zm-57.871094 87.445312c0-23.414062 19.730469-32.34375 21.007813-32.898437l37.875-14.683594 16.585937 33.246094c2.742188 5.492187 10.214844 9.226562 18.023438 3.679687l2.78125 4.1875-7.320312 43.238281h-45.222657v-28.417968c0-4.144532-3.359375-7.503906-7.5-7.503906-4.144531 0-7.5 3.359374-7.5 7.503906v28.417968h-28.730469zm-62.039062 73.753907c-2.84375 0-5.25-2.402344-5.25-5.246094v-11.488282c0-2.847656 2.40625-5.25 5.25-5.25h351.777344c2.84375 0 5.246094 2.402344 5.246094 5.25v11.488282c0 2.84375-2.402344 5.246094-5.246094 5.246094-3.644532 0-331.105469 0-351.777344 0zm0 0" fill="#0b245b" data-original="#000000" style="" class=""/></g></svg>
