<?xml version="1.0"?>
<svg xmlns="http://www.w3.org/2000/svg" xmlns:xlink="http://www.w3.org/1999/xlink" xmlns:svgjs="http://svgjs.com/svgjs" version="1.1" width="512" height="512" x="0" y="0" viewBox="0 0 512 512" style="enable-background:new 0 0 512 512" xml:space="preserve" class=""><g>
<g xmlns="http://www.w3.org/2000/svg">
	<g>
		<path d="M122.136,141.641c-1.452-4.43-5.176-7.84-9.711-8.896l-11.494-2.683l-6.113-10.076c-2.422-3.979-6.822-6.45-11.482-6.45    c-4.665,0-9.067,2.473-11.492,6.461l-6.103,10.063l-11.49,2.683c-4.544,1.058-8.269,4.469-9.726,8.921    c-1.439,4.434-0.438,9.381,2.619,12.916l7.708,8.896L53.859,175.2c-0.387,4.648,1.722,9.237,5.487,11.963    c2.307,1.679,5.039,2.567,7.901,2.567c1.791,0,3.538-0.352,5.197-1.047l10.888-4.567l10.885,4.565    c1.656,0.696,3.405,1.049,5.2,1.049c2.853,0,5.581-0.884,7.897-2.561c3.791-2.752,5.893-7.351,5.489-11.978l-0.987-11.716    l7.705-8.894C122.586,151.044,123.589,146.09,122.136,141.641z M98.358,155.076c-1.739,2.027-2.598,4.71-2.36,7.305l0.878,10.42    l-9.645-4.046c-2.487-1.064-5.397-1.031-7.736-0.022l-9.701,4.07l0.879-10.387c0.236-2.67-0.637-5.361-2.387-7.369l-6.836-7.889    l10.16-2.373c2.61-0.591,4.9-2.247,6.278-4.526l5.448-8.984l5.423,8.94c1.378,2.306,3.672,3.972,6.254,4.56l10.208,2.383    L98.358,155.076z" fill="#0b245b" data-original="#000000" style=""/>
	</g>
</g>
<g xmlns="http://www.w3.org/2000/svg">
	<g>
		<path d="M365.385,156.453c-4.328,0-7.837,3.508-7.837,7.837v18.727c0,4.328,3.509,7.836,7.837,7.836    c4.328,0,7.837-3.508,7.837-7.837V164.29C373.222,159.961,369.713,156.453,365.385,156.453z" fill="#0b245b" data-original="#000000" style=""/>
	</g>
</g>
<g xmlns="http://www.w3.org/2000/svg">
	<g>
		<path d="M462.874,443.959c-1.574-4.032-6.119-6.024-10.149-4.449c-7.304,2.852-15.004,4.298-22.887,4.298    c-35.486,0-64.379-29.541-64.407-65.854v-25.312c0-4.329-3.509-7.837-7.837-7.837c-4.328,0-7.837,3.508-7.837,7.837v18.35H265.51    c-4.328,0-7.837,3.508-7.837,7.837c0,4.329,3.509,7.837,7.837,7.837h24.793v44.279c-2.771-1.097-5.784-1.702-8.939-1.702    c-7.475,0-14.178,3.448-18.695,8.874c-4.518-5.426-11.221-8.874-18.696-8.874c-7.476,0-14.179,3.449-18.696,8.876    c-4.516-5.427-11.218-8.876-18.694-8.876c-3.157,0-6.169,0.603-8.94,1.703v-9.851c0-4.329-3.509-7.837-7.837-7.837    c-4.328,0-7.837,3.508-7.837,7.837v30.794c0,9.257,7.532,16.787,16.788,16.787h129.972c9.257,0,16.788-7.531,16.788-16.787    v-65.222h4.699c4.307,40.873,38.384,72.815,79.621,72.815c9.842,0,19.46-1.807,28.588-5.372    C462.456,452.534,464.449,447.991,462.874,443.959z M198.757,453.003v-0.001c-0.135,0-0.264-0.033-0.387-0.083    c-0.023-0.009-0.046-0.018-0.068-0.027c-0.11-0.053-0.211-0.122-0.3-0.206c-0.024-0.024-0.044-0.051-0.067-0.076    c-0.031-0.036-0.052-0.076-0.079-0.115c0.882-4.333,4.522-7.579,8.725-7.579c4.441,0,8.136,3.507,8.824,8.086H198.757z     M235.148,453.002c0.689-4.58,4.383-8.086,8.824-8.086c4.442,0,8.137,3.507,8.825,8.086H235.148z M290.012,452.605    c-0.023,0.027-0.045,0.056-0.071,0.082c-0.088,0.083-0.188,0.151-0.297,0.203c-0.023,0.011-0.047,0.021-0.071,0.03    c-0.122,0.048-0.25,0.082-0.385,0.082h-16.648c0.689-4.58,4.383-8.086,8.824-8.086c4.202,0,7.842,3.244,8.725,7.578    C290.064,452.531,290.043,452.572,290.012,452.605z M305.977,386.665h12.392h11.474v44.281c-2.77-1.099-5.783-1.703-8.94-1.703    c-5.609,0-10.782,1.942-14.926,5.203V386.665z M329.552,452.605c-0.024,0.027-0.045,0.056-0.071,0.082    c-0.088,0.083-0.188,0.151-0.297,0.203c-0.023,0.011-0.047,0.021-0.071,0.03c-0.122,0.048-0.25,0.082-0.385,0.082H312.08    c0.689-4.58,4.383-8.086,8.824-8.086c4.203,0,7.842,3.244,8.725,7.578C329.603,452.531,329.582,452.572,329.552,452.605z" fill="#0b245b" data-original="#000000" style=""/>
	</g>
</g>
<g xmlns="http://www.w3.org/2000/svg">
	<g>
		<path d="M498.961,330.226h-39.54c-7.19,0-13.039,5.849-13.039,13.038v16.674c0,2.983,1.019,5.727,2.712,7.928V377.9    c0,10.927-8.638,19.816-19.255,19.816c-11.249,0-20.402-8.376-20.402-18.645l0.162-52.846c1.567,0.086,3.139,0.141,4.72,0.141    c5.396,0,10.848-0.527,16.203-1.565c6.067-1.174,10.469-6.511,10.469-12.69c0-6.176-4.401-11.514-10.465-12.69    c-7.427-1.441-14.502-4.35-20.82-8.468l0.441-143.614c0-57.356-45.785-104.016-102.064-104.016h-206.02    C45.785,43.325,0,89.986,0,147.342v33.022v39.066v33.021v199.44c0,9.257,7.532,16.787,16.788,16.787h131.542    c9.257,0,16.788-7.531,16.788-16.787v-72.145c0.034-0.3,0.057-0.604,0.057-0.914v-1.451c0-4.633,3.77-8.401,8.403-8.401    c4.518,0,8.267,3.661,8.387,8.174v13.64c0,4.329,3.509,7.837,7.837,7.837c4.328,0,7.837-3.508,7.837-7.837v-13.728    c0-0.05,0-0.1-0.001-0.149c-0.249-13.019-11.041-23.612-24.06-23.612c-11.065,0-20.412,7.504-23.218,17.689H80.888    c-4.328,0-7.837,3.508-7.837,7.837c0,4.329,3.509,7.837,7.837,7.837h27.448v44.279c-2.771-1.097-5.785-1.702-8.94-1.702    c-7.475,0-14.177,3.448-18.695,8.874c-4.518-5.426-11.22-8.874-18.696-8.874s-14.178,3.448-18.695,8.874    c-4.518-5.426-11.22-8.874-18.695-8.874c-3.157,0-6.169,0.604-8.94,1.703v-170.66h78.367c4.328,0,7.837-3.508,7.837-7.837    c0-4.329-3.509-7.837-7.837-7.837H15.673v-17.347h191.389v3.047c0,4.952,0.68,9.744,1.928,14.3h-84.647    c-4.328,0-7.837,3.508-7.837,7.837c0,4.329,3.509,7.837,7.837,7.837h91.792c9.511,14.22,25.582,23.584,43.773,23.584h64.35    c5.346,0,10.146-2.325,13.484-6c4.307,9.113,10.248,17.471,17.685,24.668c10.882,10.533,24.13,17.819,38.504,21.362l-0.169,55.148    c0,18.937,16.183,34.343,36.075,34.343c19.26,0,34.929-15.92,34.929-35.49v-4.925h29.479v4.925    c0.001,18.224-7.137,35.194-20.098,47.783c-3.104,3.016-3.177,7.977-0.161,11.081c3.017,3.104,7.978,3.175,11.081,0.161    c16.026-15.566,24.851-36.529,24.851-59.025v-10.921c1.31-2.033,2.081-4.446,2.081-7.039v-16.674    C512,336.075,506.151,330.226,498.961,330.226z M149.155,452.604c-0.024,0.027-0.046,0.057-0.072,0.083    c-0.088,0.083-0.188,0.151-0.298,0.204c-0.022,0.011-0.046,0.019-0.069,0.029c-0.122,0.048-0.251,0.081-0.386,0.081h-16.648    c0.689-4.58,4.383-8.086,8.824-8.086c4.203,0,7.843,3.245,8.725,7.579C149.205,452.531,149.184,452.571,149.155,452.604z     M124.01,386.666h25.437v44.28c-2.77-1.1-5.784-1.703-8.94-1.703c-6.347,0-12.128,2.495-16.497,6.565V386.666z M99.396,444.916    c4.202,0,7.842,3.244,8.725,7.578c-0.026,0.038-0.047,0.078-0.078,0.113c-0.023,0.026-0.044,0.055-0.069,0.08    c-0.088,0.083-0.188,0.151-0.298,0.203c-0.023,0.013-0.047,0.021-0.071,0.03c-0.121,0.048-0.25,0.082-0.384,0.082H90.572    C91.26,448.423,94.955,444.916,99.396,444.916z M62.004,444.916c4.441,0,8.137,3.507,8.825,8.086h-17.65    C53.868,448.423,57.563,444.916,62.004,444.916z M24.614,444.916c4.441,0,8.136,3.507,8.824,8.086H16.788    c-0.135,0-0.263-0.033-0.386-0.083c-0.023-0.009-0.047-0.018-0.069-0.028c-0.109-0.052-0.21-0.121-0.299-0.205    c-0.025-0.024-0.046-0.053-0.069-0.079c-0.03-0.034-0.052-0.075-0.078-0.113C16.771,448.161,20.411,444.916,24.614,444.916z     M334.663,169.796c-4.328,0-7.837,3.508-7.837,7.837v87.997c0,1.415-1.153,2.566-2.568,2.566h-64.35    c-20.497,0-37.171-16.995-37.171-37.885v-75.884c0-20.891,16.674-37.887,37.171-37.887h64.35c1.416,0,2.568,1.151,2.568,2.567    v27.545c0,4.329,3.509,7.837,7.837,7.837c4.328,0,7.837-3.508,7.837-7.837v-27.545c0-10.058-8.183-18.241-18.242-18.241h-64.35    c-22.909,0-42.453,14.856-49.765,35.559c-1.762-1.787-3.996-3.101-6.493-3.682l-11.494-2.683l-6.113-10.078    c-2.423-3.978-6.823-6.448-11.482-6.448c-4.667,0-9.068,2.473-11.492,6.461l-6.103,10.063l-11.49,2.683    c-4.544,1.058-8.268,4.469-9.726,8.921c-1.439,4.433-0.438,9.381,2.619,12.916l7.708,8.896l-0.993,11.724    c-0.387,4.648,1.722,9.237,5.487,11.963c2.307,1.679,5.04,2.567,7.903,2.567c1.791,0,3.538-0.352,5.197-1.047l10.888-4.567    l10.888,4.566c1.655,0.696,3.404,1.048,5.198,1.048c2.853,0,5.581-0.884,7.897-2.561c3.791-2.752,5.893-7.351,5.489-11.978    l-0.987-11.716l4.021-4.64v52.756H15.673v-64.249c0-48.712,38.754-88.343,86.389-88.343h206.021    c47.636,0,86.39,39.631,86.39,88.318l-0.197,64.275H342.5v-33.958C342.5,173.304,338.991,169.796,334.663,169.796z     M187.222,162.381l0.878,10.42l-9.64-4.044c-2.487-1.066-5.4-1.033-7.742-0.024l-9.701,4.07l0.879-10.38    c0.239-2.673-0.635-5.366-2.385-7.376l-6.836-7.889l10.16-2.373c2.61-0.591,4.899-2.247,6.278-4.526l5.448-8.984l5.423,8.94    c1.378,2.305,3.671,3.971,6.254,4.56l10.208,2.383l-6.861,7.918C187.846,157.102,186.987,159.781,187.222,162.381z M342.5,227.265    h51.729l-0.053,17.347H342.5V227.265z M394.127,260.286l-0.048,15.779c-3.475-4.827-6.171-10.164-8.047-15.779H394.127z     M366.328,291.277c-8.92-8.636-15.221-19.309-18.473-30.992h21.815c2.845,11.006,8.188,21.32,15.669,29.999    c7.74,8.98,17.536,15.973,28.402,20.408C395.944,310.547,379.127,303.666,366.328,291.277z M496.327,357.303h-34.272v-11.404    h34.272V357.303z" fill="#0b245b" data-original="#000000" style=""/>
	</g>
</g>
<g xmlns="http://www.w3.org/2000/svg">
</g>
<g xmlns="http://www.w3.org/2000/svg">
</g>
<g xmlns="http://www.w3.org/2000/svg">
</g>
<g xmlns="http://www.w3.org/2000/svg">
</g>
<g xmlns="http://www.w3.org/2000/svg">
</g>
<g xmlns="http://www.w3.org/2000/svg">
</g>
<g xmlns="http://www.w3.org/2000/svg">
</g>
<g xmlns="http://www.w3.org/2000/svg">
</g>
<g xmlns="http://www.w3.org/2000/svg">
</g>
<g xmlns="http://www.w3.org/2000/svg">
</g>
<g xmlns="http://www.w3.org/2000/svg">
</g>
<g xmlns="http://www.w3.org/2000/svg">
</g>
<g xmlns="http://www.w3.org/2000/svg">
</g>
<g xmlns="http://www.w3.org/2000/svg">
</g>
<g xmlns="http://www.w3.org/2000/svg">
</g>
</g></svg>
