<?xml version="1.0"?>
<svg xmlns="http://www.w3.org/2000/svg" xmlns:xlink="http://www.w3.org/1999/xlink" xmlns:svgjs="http://svgjs.com/svgjs" version="1.1" width="512" height="512" x="0" y="0" viewBox="0 0 512 512" style="enable-background:new 0 0 512 512" xml:space="preserve" class=""><g><g xmlns="http://www.w3.org/2000/svg"><path d="m163.551 150.55c-1.17-3.602-4.274-6.233-8.02-6.798l-21.059-3.176-9.529-19.049c-1.694-3.388-5.156-5.527-8.943-5.527s-7.249 2.139-8.943 5.526l-9.529 19.049-21.059 3.176c-3.745.565-6.85 3.197-8.02 6.798-1.17 3.602-.205 7.556 2.493 10.214l15.173 14.947-3.489 21.01c-.621 3.736.923 7.502 3.987 9.729 3.063 2.226 7.123 2.531 10.484.786l18.904-9.81 18.904 9.81c3.361 1.745 7.42 1.44 10.484-.786s4.607-5.992 3.987-9.729l-3.489-21.01 15.173-14.947c2.696-2.657 3.661-6.611 2.491-10.213zm-35.399 14.556c-2.318 2.283-3.38 5.552-2.847 8.762l1.064 6.406-5.763-2.99c-1.444-.75-3.025-1.124-4.606-1.124s-3.162.375-4.606 1.124l-5.763 2.99 1.064-6.406c.533-3.21-.529-6.479-2.847-8.762l-4.628-4.56 6.421-.969c3.217-.485 5.997-2.505 7.452-5.415l2.907-5.811 2.907 5.811c1.455 2.91 4.235 4.929 7.452 5.415l6.421.969z" fill="#0b245b" data-original="#000000" style=""/><path d="m263.551 150.55c-1.17-3.602-4.274-6.233-8.02-6.798l-21.059-3.176-9.529-19.049c-1.694-3.388-5.156-5.527-8.943-5.527s-7.249 2.139-8.943 5.526l-9.529 19.049-21.059 3.176c-3.745.565-6.85 3.197-8.02 6.798-1.17 3.602-.205 7.556 2.493 10.214l15.173 14.947-3.489 21.01c-.621 3.736.923 7.502 3.987 9.729 3.063 2.226 7.122 2.531 10.484.786l18.904-9.81 18.904 9.81c3.361 1.745 7.42 1.44 10.484-.786s4.607-5.992 3.987-9.729l-3.489-21.01 15.173-14.947c2.696-2.657 3.661-6.611 2.491-10.213zm-35.399 14.556c-2.318 2.283-3.38 5.552-2.847 8.762l1.064 6.406-5.763-2.99c-1.444-.75-3.025-1.124-4.606-1.124s-3.162.375-4.606 1.124l-5.763 2.99 1.064-6.406c.533-3.21-.529-6.479-2.847-8.762l-4.628-4.56 6.421-.969c3.217-.485 5.997-2.505 7.452-5.415l2.907-5.811 2.907 5.811c1.455 2.91 4.235 4.929 7.452 5.415l6.421.969z" fill="#0b245b" data-original="#000000" style=""/><path d="m363.551 150.55c-1.17-3.602-4.274-6.233-8.02-6.798l-21.059-3.176-9.529-19.049c-1.694-3.388-5.156-5.527-8.943-5.527s-7.249 2.139-8.943 5.526l-9.529 19.049-21.059 3.176c-3.745.565-6.85 3.197-8.02 6.798-1.17 3.602-.205 7.556 2.493 10.214l15.173 14.947-3.489 21.01c-.621 3.736.923 7.502 3.987 9.729 3.063 2.226 7.123 2.531 10.484.786l18.904-9.81 18.904 9.81c3.362 1.745 7.42 1.44 10.484-.786s4.607-5.992 3.987-9.729l-3.489-21.01 15.173-14.947c2.696-2.657 3.661-6.611 2.491-10.213zm-35.399 14.556c-2.318 2.283-3.38 5.552-2.847 8.762l1.064 6.406-5.763-2.99c-1.444-.75-3.025-1.124-4.606-1.124s-3.162.375-4.606 1.124l-5.763 2.99 1.064-6.406c.533-3.21-.529-6.479-2.847-8.762l-4.628-4.56 6.421-.969c3.217-.485 5.997-2.505 7.452-5.415l2.907-5.811 2.907 5.811c1.455 2.91 4.235 4.929 7.452 5.415l6.421.969z" fill="#0b245b" data-original="#000000" style=""/><circle cx="216" cy="86" r="10" fill="#0b245b" data-original="#000000" style=""/><path d="m502 296h-40c-5.523 0-10 4.477-10 10v40c0 5.514-4.486 10-10 10s-10-4.486-10-10v-180c0-49.626-40.374-90-90-90h-81c-5.523 0-10 4.477-10 10s4.477 10 10 10h81c38.598 0 70 31.402 70 70v60h-392v-60c0-38.598 31.402-70 70-70h81c5.523 0 10-4.477 10-10s-4.477-10-10-10h-81c-49.626 0-90 40.374-90 90v260c0 5.523 4.477 10 10 10h62c5.523 0 10-4.477 10-10v-66.136c28.873 8.933 63.662 16.136 94 16.136 25.555 0 49.673-5.013 70-13.692v63.692c0 5.523 4.477 10 10 10h60c5.523 0 10-4.477 10-10v-130h16c16.542 0 30 13.458 30 30v12.16c0 39.224 22.557 69.965 56.134 76.496 44.263 8.599 83.866-25.149 83.866-68.656v-40c0-5.523-4.477-10-10-10zm-378 54.048c-18.285-3.779-33.717-8.471-42-11.19v-92.858h42zm-62 65.952h-42v-170h42zm82-62.456v-107.544h42v109.708c-3.318.19-6.659.292-10 .292-9.848 0-20.587-.834-32-2.456zm62-.179v-107.365h40v94.222c-6.596 3.463-20.349 9.628-40 13.143zm100 62.635h-40c0-9.052 0-164.641 0-170h40zm36-140h-16v-30h46v40.027c-8.363-6.292-18.753-10.027-30-10.027zm150 70c0 31.3-28.492 55.153-60.051 49.024-23.894-4.649-39.949-27.5-39.949-56.864 0-11.157 0-78.25 0-92.16h20v100c0 16.542 13.458 30 30 30s30-13.458 30-30v-30h20z" fill="#0b245b" data-original="#000000" style=""/></g></g></svg>
