<?xml version="1.0" encoding="UTF-8"?>
<svg data-bbox="0 -0.042 799 667.117" viewBox="0 0 799 667.076" height="667.076" width="799" xmlns="http://www.w3.org/2000/svg" data-type="ugc">
    <g>
        <path fill="#9a073c" d="M649 630.158H164l.219-51.422c.553-130.115 104.408-237.33 234.506-239.542q2.108-.036 4.223-.036a245.336 245.336 0 0 1 85.753 15.406c92.054 34.282 153.841 121.383 157.951 219.528z"/>
        <path fill="#2f2e41" d="M799 630.158v2H0v-2h799z"/>
        <path fill="#2f2e41" d="M398.287 400.165l21.37 15.543 21.371 182.622h50.512l-17.485-207.879-69.94-27.199-5.828 36.913z"/>
        <path fill="#2f2e41" d="M308.918 341.882s-5.828 66.055 17.485 67.997 112.682-19.427 112.682-19.427l42.741 151.537 64.112-33.028s-38.855-170.965-62.169-180.679-101.025-29.141-101.025-29.141l-56.34 9.713z"/>
        <path fill="#2f2e41" d="M448.8 594.444s-11.658 44.684-3.887 48.57a140.535 140.535 0 0 1 13.6 7.77v-7.77s9.714 9.714 9.714 17.485 52.455 9.714 52.455 0-1.943-21.37-11.657-27.2-21.37-38.855-21.37-38.855z"/>
        <path fill="#2f2e41" d="M505.14 514.79l3.885 36.913 13.6 23.313 33.027-36.913-25.256-40.798-25.256 17.485z"/>
        <path fill="#2f2e41" d="M536.224 551.703s7.154-24.46 14.263-21.944 34.307 27.772 34.307 27.772l19.428 11.657s38.856 3.885 27.199 15.542-54.398 27.2-73.826 19.428-23.313-9.714-23.313-9.714l-5.829 3.886-23.313-5.829 3.885-40.798s5.829 17.485 27.2 0z"/>
        <path fill="#9f616a" d="M419.657 54.349c0 24.678-20.006 44.684-44.684 44.684-24.678 0-44.684-20.006-44.684-44.684 0-24.678 20.006-44.684 44.684-44.684 24.678 0 44.684 20.006 44.684 44.684z"/>
        <path fill="#9f616a" d="M346.803 80.577s3.885 40.799-7.771 40.799 1.942 50.512 33.027 50.512 42.741-60.226 42.741-60.226-21.37-7.772-17.485-33.028-50.512 1.943-50.512 1.943z"/>
        <path fill="#3f3d56" d="M343.707 118.263l-16.332 6.998-44.325 18.753a9 9 0 0 0-5.436 9.294l16.734 148.747s-17.486 36.913 9.713 38.855l3.886 13.6 31.085-36.913 116.567-3.886 1.943-188.45-53.336-21.076s-7.254 40.108-60.5 14.078z"/>
        <path fill="#3f3d56" d="M289.49 149.546l-7.179-2.051a5.919 5.919 0 0 0-7.471 4.76l-19.052 119.506a41.502 41.502 0 0 0 4.055 25.917c5.886 11.146 18.112 21.255 43.247 9.234l17.485-126.281z"/>
        <path fill="#3f3d56" d="M435.2 122.347l23.313 3.886 64.112 89.368 5.828 15.542 36.913-11.657s-1.942 17.485 17.485 15.543c0 0-23.313 64.112-71.883 44.684s-64.112-77.712-64.112-77.712z"/>
        <path fill="#cccccc" d="M462.399 161.203l-87.426-34.971-3.885 11.657 40.798 34.97 50.513-11.656z"/>
        <path fill="#2f2e41" d="M348.07 57.198c1.65-.44 1.892-2.632 1.948-4.339.296-9.142 5.801-18.524 14.553-21.185a24.467 24.467 0 0 1 10.313-.568 39.063 39.063 0 0 1 13.966 4.66c2.28 1.281 4.515 2.825 7.1 3.216 1.708.259 9.101 2.408 10.802 2.71 3.738.666 7.212 4.01 10.799 2.766 3.432-1.191 4.191-5.634 4.274-9.266.19-8.273-6.091-19.724-11.623-25.878-4.198-4.67-10.52-6.827-16.698-7.948A111.168 111.168 0 0 0 371.666.038c-9.889.176-20.052.94-28.968 5.218s-16.407 12.794-16.834 22.675c-.09 2.058.123 4.125-.05 6.178-.422 5.008-3.082 9.532-4.329 14.4a26.35 26.35 0 0 0 3.68 21.058c3.309 4.87 16.542 9.291 16.351 15.176 2.392-2.478-3.248-4.973-.857-7.45a5.892 5.892 0 0 0 1.753-7.2l-2.54-9.906c-.465-1.814-.922-3.778-.22-5.514 2.723-6.728 5.666 3.26 8.418 2.525z"/>
        <path fill="#f2f2f2" d="M371.088 137.889l-36.913 143.766 143.766 50.513 83.54-69.941 52.455-157.365-85.483 62.169-157.365-29.142z"/>
        <path fill="#e6e6e6" d="M378.136 153.464l139.88 36.914-.495 1.878-139.88-36.914.495-1.878z"/>
        <path fill="#e6e6e6" d="M374.25 163.178l139.881 36.913-.496 1.878-139.88-36.914.496-1.877z"/>
        <path fill="#e6e6e6" d="M372.308 172.892l139.88 36.913-.496 1.878-139.88-36.914.496-1.877z"/>
        <path fill="#e6e6e6" d="M370.365 182.606l139.88 36.914-.495 1.878-139.88-36.914.495-1.878z"/>
        <path fill="#e6e6e6" d="M368.422 192.32l139.88 36.914-.495 1.878-139.88-36.914.495-1.878z"/>
        <path fill="#e6e6e6" d="M366.48 202.034l139.88 36.913-.496 1.878-139.88-36.914.496-1.877z"/>
        <path fill="#e6e6e6" d="M364.537 211.747l139.88 36.913-.496 1.878-139.88-36.914.496-1.877z"/>
        <path fill="#e6e6e6" d="M362.593 221.461l139.88 36.914-.496 1.878-139.88-36.914.496-1.878z"/>
        <path fill="#e6e6e6" d="M360.65 231.176l139.88 36.914-.495 1.878-139.88-36.914.495-1.878z"/>
        <path fill="#9f616a" d="M311.85 243.642s43.695-26.098 63.123-8.613-56.34 42.74-56.34 42.74z"/>
        <path fill="#3f3d56" d="M264.234 256.399l56.341-21.37s-9.714 36.913 9.714 38.855l-27.199 33.028s-54.398 0-38.856-50.513z"/>
        <path fill="#e6e6e6" d="M412.494 255.602l74.761 25.197-17.693 38.566-74.761-25.196 17.693-38.567z"/>
        <path fill="#cccccc" d="M544.967 173.831l56.341-42.742-15.542 52.456-58.284 42.741 17.485-52.455z"/>
        <path fill="#e6e6e6" d="M573.524 202.2l1.174 1.547-56.343 42.74-1.174-1.548 56.343-42.74z"/>
        <path fill="#e6e6e6" d="M569.639 223.57l1.174 1.547-56.343 42.74-1.174-1.548 56.343-42.74z"/>
        <path fill="#9f616a" d="M577.023 236.971s48.57-29.141 17.485-40.798-31.085 33.027-31.085 33.027-1.942 9.714 13.6 7.771z"/>
        <path opacity=".1" d="M292.405 171.888l-1.943 75.769 30.113-8.594-24.285.822-3.885-67.997z"/>
        <path fill="#8985a8" d="M80.409 595.892c6.073 22.45 26.875 36.354 26.875 36.354s10.955-22.495 4.882-44.945-26.875-36.354-26.875-36.354-10.956 22.495-4.882 44.945z"/>
        <path fill="#3f3d56" d="M89.333 591.068c16.665 16.222 18.7 41.16 18.7 41.16s-24.984-1.364-41.648-17.587-18.7-41.16-18.7-41.16 24.983 1.364 41.648 17.587z"/>
        <path fill="#f2f2f2" d="M656 379.158v30h-30v-30h30z"/>
        <path fill="#f2f2f2" d="M536 39.158v30h-30v-30h30z"/>
        <path fill="#f2f2f2" d="M174 328.158c0 8.284-6.716 15-15 15-8.284 0-15-6.716-15-15 0-8.284 6.716-15 15-15 8.284 0 15 6.716 15 15z"/>
    </g>
</svg>
