<?xml version="1.0" encoding="UTF-8"?>
<svg data-bbox="0 0 825.766 640.564" viewBox="0 0 825.767 640.565" height="640.565" width="825.767" xmlns="http://www.w3.org/2000/svg" data-type="color">
    <g>
        <path fill="#e6e6e6" d="M479.735 627.22H288.489l6.483-84.277h178.28l6.483 84.277z" data-color="1"/>
        <path fill="#e6e6e6" d="M492.701 617.496v19.449H278.765v-19.449h213.936z" data-color="1"/>
        <path fill="#3f3d56" d="M750.395 0H19.448A19.449 19.449 0 0 0 0 19.448v445.7h769.843v-445.7A19.449 19.449 0 0 0 750.394 0z" data-color="2"/>
        <path fill="#e6e6e6" d="M0 465.147v72.933a19.449 19.449 0 0 0 19.448 19.449h730.947a19.449 19.449 0 0 0 19.449-19.449v-72.933z" data-color="1"/>
        <path fill="#e6e6e6" d="M732.567 40.518v388.974H38.897V40.518h693.67z" data-color="1"/>
        <path fill="#3f3d56" d="M405.181 510.528c0 10.741-8.708 19.449-19.449 19.449-10.741 0-19.449-8.708-19.449-19.449 0-10.741 8.708-19.449 19.449-19.449 10.741 0 19.449 8.708 19.449 19.449z" data-color="2"/>
        <path fill="#ffffff" d="M64.217 53.257a3.691 3.691 0 1 1-7.382 0 3.691 3.691 0 0 1 7.382 0z" data-color="3"/>
        <path fill="#ffffff" d="M78.227 53.257a3.691 3.691 0 1 1-7.382 0 3.691 3.691 0 0 1 7.382 0z" data-color="3"/>
        <path fill="#ffffff" d="M92.236 53.257a3.691 3.691 0 1 1-7.382 0 3.691 3.691 0 0 1 7.382 0z" data-color="3"/>
        <path fill="#ffb8b8" d="M796.343 263.057s5.946 77.282-2.377 79.66-38.047 20.212-85.605 15.457c0 0-46.369 24.968-39.235 1.189s39.235-17.835 39.235-17.835 57.07-11.89 59.448-20.212-7.134-42.802-3.567-43.991 32.102-14.268 32.102-14.268z" data-color="4"/>
        <path opacity=".2" fill="#231f20" d="M792.343 264.057s5.946 77.282-2.377 79.66-38.047 20.212-85.605 15.457c0 0-46.369 24.968-39.235 1.189s39.235-17.835 39.235-17.835 57.07-11.89 59.448-20.212-7.134-42.802-3.567-43.991 32.102-14.268 32.102-14.268z" data-color="5"/>
        <path fill="#2f2e41" d="M725.585 388.379s4.177 130.07 11.311 146.715c5.942 13.865 9.41 59.077 10.402 73.794.2 2.952.299 4.677.299 4.677s19.023 0 20.212-4.756 4.756-57.07 0-73.715 6.776-139.715 6.776-139.715z" data-color="6"/>
        <path fill="#2f2e41" d="M752.353 607.62s-11.89 3.567-14.268 8.322-41.613 13.079-29.724 19.024 47.558-4.756 47.558-4.756 19.024-1.19 17.835-8.323-5.52-15.923-5.52-15.923z" data-color="6"/>
        <path fill="#2f2e41" d="M785.643 611.421s-11.89 3.566-14.267 8.322-41.614 13.079-29.724 19.023 47.558-4.755 47.558-4.755 19.023-1.19 17.834-8.323-5.518-15.924-5.518-15.924z" data-color="6"/>
        <path fill="#2f2e41" d="M735.707 395.032l16.646 28.534 27.78 99.21s-2.812 91.023.754 91.023 22.59 5.944 23.78 0c1.004-5.022 14.32-53.126 7.683-85.144a409.42 409.42 0 0 1-8.308-61.425l-2.942-55.553s11.89-21.402-1.19-24.968-64.203 8.322-64.203 8.322z" data-color="6"/>
        <path fill="#ffb8b8" d="M779.699 183.398c0 15.76-12.776 28.535-28.535 28.535-15.76 0-28.535-12.776-28.535-28.535 0-15.76 12.776-28.535 28.535-28.535 15.76 0 28.535 12.776 28.535 28.535z" data-color="4"/>
        <path fill="#ffb8b8" d="M747.597 202.421s4.756 38.046 3.567 40.424 28.534-26.157 28.534-26.157-10.7-16.645-8.322-24.968z" data-color="4"/>
        <path fill="#575a89" d="M814.178 240.467s-33.29-23.779-34.48-28.534l-24.968 21.4-4.242-5.05s-19.537 19.318-19.537 27.64-1.189 33.291 2.378 40.425-10.7 97.494-10.7 97.494 11.89 10.7 13.078 11.89 48.747-7.134 48.747-7.134 23.78-2.378 23.78-5.945-7.134-57.07-4.757-71.337 10.701-80.849 10.701-80.849z" data-color="7"/>
        <path fill="#2f2e41" d="M738.975 169.143c3.9-1.388 8.203-2.101 12.18-.95 5.63 1.629 9.527 6.563 13.732 10.644s10.101 7.697 15.638 5.778a9.168 9.168 0 0 1 1.75-6.77 6.227 6.227 0 0 0 1.556-2.589c.236-1.528-1.049-2.846-1.434-4.344-.675-2.625 1.176-6.218-1.1-7.689-.601-.388-1.362-.477-1.948-.886-2.301-1.609.254-5.61-1.267-7.969a4.866 4.866 0 0 0-1.73-1.442c-11.032-6.437-24.524-6.455-37.297-6.293-1.778.023-4.253.906-3.752 2.612-2.413-1.733-5.574.7-7.52 2.946l-3.982 4.596a35.41 35.41 0 0 0-4.867 6.583c-1.216 2.327-1.485 5.903.936 6.917-1.8-.754-3.984 9.908 4.314 8.154 4.822-1.02 9.547-7.432 14.79-9.298z" data-color="6"/>
        <path fill="#ffffff" d="M712.575 65.798v326.674H56.835V65.798h655.74z" data-color="3"/>
        <path fill="#e6e6e6" d="M239.745 113.806v125.177H96.424V113.806h143.321z" data-color="1"/>
        <path fill="#e6e6e6" d="M456.588 114.182v124.8h-142.89v-124.8h142.89z" data-color="1"/>
        <path fill="#e6e6e6" d="M672.986 112.958v126.024H528.695V112.958h144.291z" data-color="1"/>
        <path fill="#e6e6e6" d="M236.601 293.621v12.949H96.424v-12.949h140.177z" data-color="1"/>
        <path fill="#9a073c" d="M166.656 316.418v12.949H96.424v-12.949h70.232z" data-color="8"/>
        <path fill="#e6e6e6" d="M456.211 293.621v12.949H316.034v-12.949h140.177z" data-color="1"/>
        <path fill="#9a073c" d="M386.266 316.418v12.949h-70.232v-12.949h70.232z" data-color="8"/>
        <path fill="#e6e6e6" d="M670.331 293.621v12.949H530.154v-12.949h140.177z" data-color="1"/>
        <path fill="#9a073c" d="M600.386 316.418v12.949h-70.232v-12.949h70.232z" data-color="8"/>
        <path fill="#9a073c" d="M366.204 266.258a6.617 6.617 0 1 1-13.234 0 6.617 6.617 0 0 1 13.234 0z" data-color="8"/>
        <path fill="#e6e6e6" d="M391.322 266.258a6.617 6.617 0 1 1-13.234 0 6.617 6.617 0 0 1 13.234 0z" data-color="1"/>
        <path fill="#e6e6e6" d="M416.441 266.258a6.617 6.617 0 1 1-13.234 0 6.617 6.617 0 0 1 13.234 0z" data-color="1"/>
        <path fill="#9a073c" d="M149.583 266.258a6.617 6.617 0 1 1-13.234 0 6.617 6.617 0 0 1 13.234 0z" data-color="8"/>
        <path fill="#9a073c" d="M174.702 266.258a6.617 6.617 0 1 1-13.234 0 6.617 6.617 0 0 1 13.234 0z" data-color="8"/>
        <path fill="#e6e6e6" d="M199.82 266.258a6.617 6.617 0 1 1-13.234 0 6.617 6.617 0 0 1 13.234 0z" data-color="1"/>
        <path fill="#9a073c" d="M588.167 266.258a6.617 6.617 0 1 1-13.234 0 6.617 6.617 0 0 1 13.234 0z" data-color="8"/>
        <path fill="#9a073c" d="M613.285 266.258a6.617 6.617 0 1 1-13.234 0 6.617 6.617 0 0 1 13.234 0z" data-color="8"/>
        <path fill="#9a073c" d="M638.403 266.258a6.617 6.617 0 1 1-13.234 0 6.617 6.617 0 0 1 13.234 0z" data-color="8"/>
        <path fill="#9a073c" d="M600.84 139.283a36.686 36.686 0 1 0 36.687 36.686 36.794 36.794 0 0 0-36.687-36.686zm0 11.006a11.006 11.006 0 1 1-11.005 11.006 11.043 11.043 0 0 1 11.005-11.006zm0 52.983a26.726 26.726 0 0 1-22.011-11.746c.176-7.338 14.674-11.377 22.011-11.377s21.836 4.04 22.012 11.377a26.77 26.77 0 0 1-22.012 11.746z" data-color="8"/>
        <path fill="#9a073c" d="M385.143 139.895a36.686 36.686 0 1 0 36.686 36.687 36.794 36.794 0 0 0-36.686-36.687zm0 11.006a11.006 11.006 0 1 1-11.006 11.006 11.043 11.043 0 0 1 11.006-11.006zm0 52.983a26.726 26.726 0 0 1-22.012-11.746c.177-7.337 14.675-11.376 22.012-11.376s21.835 4.039 22.012 11.376a26.77 26.77 0 0 1-22.012 11.746z" data-color="8"/>
        <path fill="#9a073c" d="M168.084 139.707a36.686 36.686 0 1 0 36.686 36.686 36.794 36.794 0 0 0-36.686-36.686zm0 11.006a11.006 11.006 0 1 1-11.005 11.006 11.043 11.043 0 0 1 11.004-11.007zm0 52.983a26.726 26.726 0 0 1-22.011-11.746c.176-7.338 14.674-11.377 22.011-11.377s21.836 4.04 22.012 11.377a26.77 26.77 0 0 1-22.012 11.746z" data-color="8"/>
        <path fill="#ffb8b8" d="M821.312 273.758s5.945 77.282-2.378 79.66-38.047 20.212-85.605 15.456c0 0-46.369 24.968-39.235 1.19s39.235-17.835 39.235-17.835 57.07-11.89 59.448-20.212-7.134-42.803-3.567-43.991 32.102-14.268 32.102-14.268z" data-color="4"/>
        <path fill="#575a89" d="M795.155 242.845l19.023-2.378s19.023 36.858 8.323 42.803-38.047 10.7-38.047 8.322 10.7-48.747 10.7-48.747z" data-color="7"/>
    </g>
</svg>
