<?xml version="1.0" encoding="UTF-8"?>
<svg data-bbox="0 1 1120 828.801" viewBox="0 0 1120 829.801" height="829.801" width="1120" xmlns="http://www.w3.org/2000/svg" data-type="ugc">
    <g>
        <path fill="#3f3d56" d="M1120 811.059c0 10.35-64.66 18.742-144.421 18.742-79.762 0-144.421-8.391-144.421-18.742 0-10.35 64.66-18.742 144.421-18.742 79.762 0 144.421 8.391 144.421 18.742z"/>
        <path fill="#f2f2f2" d="M436 27.5v272H0v-272h436z"/>
        <path stroke-width="2" stroke-miterlimit="10" stroke="#3f3d56" fill="none" d="M463.5 1v272h-436V1h436z"/>
        <path fill="#3f3d56" d="M312.468 202.968A94 94 0 0 0 246 42.5v94z"/>
        <path fill="#9a073c" d="M246 42.5a94.011 94.011 0 0 0-44.968 176.564L246 136.5z"/>
        <path fill="#575a89" d="M312.468 202.968L246 136.5l-44.968 82.564a94.05 94.05 0 0 0 111.436-16.096z"/>
        <path fill="#9a073c" d="M62 216.5v18H44v-18h18z"/>
        <path fill="#3f3d56" d="M88 216.5v18H70v-18h18z"/>
        <path fill="#575a89" d="M114 216.5v18H96v-18h18z"/>
        <path fill="#3f3d56" d="M429 220.5v3h-74v-3h74z"/>
        <path fill="#3f3d56" d="M429 229.5v3h-74v-3h74z"/>
        <path fill="#3f3d56" d="M429 238.5v3h-74v-3h74z"/>
        <path fill="#f2f2f2" d="M385 406.5v272H137v-272h248z"/>
        <path stroke-width="2" stroke-miterlimit="10" stroke="#3f3d56" fill="none" d="M410 380.5v272H162v-272h248z"/>
        <path fill="#9a073c" d="M188.371 621.814v13.371H175v-13.371h13.371z"/>
        <path fill="#3f3d56" d="M207.685 621.814v13.371h-13.371v-13.371h13.371z"/>
        <path fill="#575a89" d="M227 621.814v13.371h-13.371v-13.371H227z"/>
        <path fill="#3f3d56" d="M377 627.622v2.108h-52v-2.108h52z"/>
        <path fill="#3f3d56" d="M377 633.946v2.108h-52v-2.108h52z"/>
        <path fill="#3f3d56" d="M377 640.27v2.108h-52v-2.108h52z"/>
        <path fill="#3f3d56" d="M286 428.5v22a66 66 0 0 1 46.67 112.669l15.555 15.556A88 88 0 0 0 286 428.5z"/>
        <path fill="#575a89" d="M348.225 578.725L332.67 563.17a65.983 65.983 0 0 1-86.6 5.871l-13.316 17.521a87.998 87.998 0 0 0 115.472-7.836z"/>
        <path fill="#9a073c" d="M220 516.5a66 66 0 0 1 66-66v-22a88 88 0 0 0-53.247 158.061l13.316-17.52A65.885 65.885 0 0 1 220 516.5z"/>
        <path fill="#ffb9b9" d="M931.624 140.993s-4.08 30.31 6.412 33.808 7.578 30.31 7.578 30.31l-31.476 23.9-27.98 2.331-6.994-36.14 4.08-9.326s15.738-18.653 4.663-37.888 43.717-6.995 43.717-6.995z"/>
        <path opacity=".1" d="M931.624 140.993s-4.08 30.31 6.412 33.808 7.578 30.31 7.578 30.31l-31.476 23.9-27.98 2.331-6.994-36.14 4.08-9.326s15.738-18.653 4.663-37.888 43.717-6.995 43.717-6.995z"/>
        <path fill="#575a89" d="M902.48 377.066l-36.723 86.269s-28.562-16.321-45.466-14.573-37.888-18.652-37.888-18.652l20.984-101.424 39.054-107.836 54.21 34.39z"/>
        <path opacity=".1" d="M902.48 377.066l-36.723 86.269s-28.562-16.321-45.466-14.573-37.888-18.652-37.888-18.652l20.984-101.424 39.054-107.836 54.21 34.39z"/>
        <path fill="#575a89" d="M960.186 743.708v27.979h-26.23l4.08-32.642 22.15 4.663z"/>
        <path fill="#575a89" d="M1028.385 695.328l19.236 11.658-13.99 32.059-14.572-1.749-13.99-19.818 23.316-22.15z"/>
        <path fill="#2f2e41" d="M965.432 368.905l34.391 81.023s-12.24 89.766-11.658 97.344 1.166 10.492-1.748 16.904-4.08 10.492-2.332 18.07 2.332 10.492 1.166 13.406-9.326 122.991-13.407 131.152 2.332 21.567-1.748 22.733-34.391-1.749-36.14-8.744 5.829-23.898 1.749-29.144.583-194.105-5.246-206.929-69.948-24.481-69.948-24.481-5.829-37.306-2.332-43.135 8.161-42.551 8.161-42.551z"/>
        <path fill="#2f2e41" d="M931.624 767.024s16.322-19.236 30.311 0c0 0 1.166 22.733 11.075 27.396s5.246 23.316-8.743 23.899-32.06 2.914-32.643-4.664 2.332-12.24-2.914-14.572 0-15.738 0-15.738z"/>
        <path fill="#2f2e41" d="M933.373 488.4s-.583 41.968-4.663 47.797-6.412 9.326-4.08 15.738 5.829 18.07 4.08 20.401 1.749 14.573 1.749 14.573 44.883 21.567 65.867 66.45c0 0 21.567 35.557 27.979 36.14s13.99-4.08 10.492 9.326-16.904 30.893-26.813 29.145-17.487-18.653-17.487-18.653-77.525-78.691-85.686-81.023-31.476-20.984-35.556-32.642-12.824-109.001-8.744-115.413 19.236-15.156 19.236-15.156z"/>
        <path fill="#2f2e41" d="M1034.214 692.996s36.14 1.166 36.723 9.91-15.156 60.62-12.824 72.861-18.07 40.22-31.476 34.391-2.915-36.14-2.915-36.14-13.407-41.385-11.075-41.968 25.647-7.578 24.482-14.572-2.915-24.482-2.915-24.482z"/>
        <path fill="#ffb9b9" d="M940.66 136.039c0 19.96-16.18 36.14-36.14 36.14s-36.14-16.18-36.14-36.14 16.18-36.14 36.14-36.14 36.14 16.18 36.14 36.14z"/>
        <path fill="#9a073c" d="M940.95 191.705s-19.818 20.984-34.39 17.487-22.15-28.562-22.15-28.562l-26.23-4.663s-18.653 82.771-18.653 90.932 18.652 96.178 18.652 111.916-15.155 25.064 8.161 24.481 12.24-8.16 46.049-8.743 39.054 6.995 46.049-5.246a97.523 97.523 0 0 1 17.487-21.567l-12.241-43.135-1.749-121.825s-14.944-29.145-21.753-26.813c0 0 3.683 12.823.769 15.738z"/>
        <path fill="#575a89" d="M933.771 170.811s31.079 3.407 39.822 9.819 33.225 11.075 32.642 15.738-28.562 71.114-28.562 71.114-12.823 52.46-1.748 64.701 52.46 145.724 45.465 156.8-29.144-33.809-29.144-33.809-29.728-96.178-46.05-112.499-17.486-104.338-17.486-108.419 5.061-63.445 5.061-63.445z"/>
        <path fill="#575a89" d="M888.313 177.572s-38.294-14.429-51.7-8.6-21.568 6.995-21.568 6.995l-4.663 57.124s-1.749 82.188-16.904 102.006-25.065 102.59-22.733 110.75-4.08 22.15 5.829 18.654 37.305-83.938 37.305-83.938 0-46.048 16.321-58.872 43.135-65.867 44.3-78.691 12.241-48.38 12.241-48.38z"/>
        <path fill="#ffb9b9" d="M1019.642 361.328s-17.487 32.642-19.819 38.471-18.652 45.466-41.968 36.722 22.733-51.294 22.733-51.294l10.492-35.557s27.396-5.83 28.562 11.658z"/>
        <path fill="#575a89" d="M820.874 175.967h-5.829s-5.829-4.663-12.824-1.749-23.315-1.166-23.315.583-18.07-5.246-25.648-1.749-34.974 4.663-34.974 4.663-11.075 27.98-3.497 33.226 18.653 1.165 23.899 5.246 15.155-.583 18.652 4.663 16.321 14.572 19.236 8.743-2.915-11.075 9.326-4.663 31.477 6.412 31.477 6.412z"/>
        <path fill="#2f2e41" d="M907.778 109.337c-4.89-1.13-9.967.122-14.92.934s-10.413 1.08-14.602-1.685c-3.095-2.04-4.997-5.417-6.784-8.665a9.973 9.973 0 0 1-1.459-3.823c-.21-2.403 1.318-4.594 2.94-6.378 7.538-8.285 18.552-12.819 29.659-14.26 9.13-1.183 18.65-.39 27.081 3.308s15.68 10.47 18.995 19.06a54.127 54.127 0 0 1 2.836 13.61 40.657 40.657 0 0 1 .192 10.308 44.188 44.188 0 0 1-1.998 7.468l-5.491 16.581a10.924 10.924 0 0 1-2.16 4.274 3.736 3.736 0 0 1-4.374.958 13.613 13.613 0 0 0 .197-5.5 4.641 4.641 0 0 0-3.662-3.693c-2.024-.215-3.753 1.354-5.673 2.03a6.979 6.979 0 0 1-8.811-5.245c-.303-1.896.206-3.925-.513-5.705-.841-2.086-3.074-3.179-4.75-4.677a10.936 10.936 0 0 1-3.002-11.366c.45-1.38 1.717-2.007 1.464-3.592-.333-2.08-3.4-3.534-5.165-3.942z"/>
        <path fill="#f2f2f2" d="M755 236.5v272H507v-272h248z"/>
        <path stroke-width="2" stroke-miterlimit="10" stroke="#3f3d56" fill="none" d="M780 210.5v272H532v-272h248z"/>
        <path stroke-width="2" stroke-miterlimit="10" stroke="#3f3d56" fill="none" d="M556 227.5v208h201"/>
        <path fill="#575a89" d="M612 362.5v72h-45v-72h45z"/>
        <path fill="#3f3d56" d="M677 313.5v121h-45v-121h45z"/>
        <path fill="#9a073c" d="M742 256.5v178h-45v-178h45z"/>
        <path fill="#9a073c" d="M566.371 451.814v13.371H553v-13.371h13.371z"/>
        <path fill="#3f3d56" d="M585.685 451.814v13.371h-13.371v-13.371h13.371z"/>
        <path fill="#575a89" d="M605 451.814v13.371h-13.371v-13.371H605z"/>
        <path fill="#3f3d56" d="M755 457.622v2.108h-52v-2.108h52z"/>
        <path fill="#3f3d56" d="M755 463.946v2.108h-52v-2.108h52z"/>
        <path fill="#3f3d56" d="M755 470.27v2.108h-52v-2.108h52z"/>
        <path fill="#ffb9b9" d="M724.308 177.682c10.628.462 18.525 10.1 17.376 20.677-1.042 9.582-4.884 21.504-16.988 26.084-21.567 8.16-20.401-37.888-16.321-39.637 2.72-1.166 6.995-7.513 15.933-7.124z"/>
        <path fill="#575a89" d="M999.823 193.254l6.412 3.114s13.99 28.562 14.573 32.642 9.909 19.236 6.411 23.316-8.743 14.573-5.246 18.653 11.658 20.401 11.658 26.23-8.743 21.567-2.914 23.316 4.08 24.482 2.914 26.23-16.32 30.311-16.32 30.311-2.915-32.642-31.477-19.236c0 0-2.332-16.32 0-17.486s8.16-8.161 3.497-9.327-11.075-15.155-9.91-16.904 4.081-4.08 1.167-5.829-5.246-11.658-4.663-13.406-6.412-9.91-6.412-9.91z"/>
    </g>
</svg>
