<?xml version="1.0" encoding="UTF-8"?>
<svg data-bbox="-0.001 0 608.157 787.14" viewBox="0 0 608.157 787.141" height="787.141" width="608.157" xmlns="http://www.w3.org/2000/svg" data-type="color">
    <g>
        <path fill="#ffb8b8" d="M608.156 508.037l-108.892-79.29s-62.375-105.722-72.948-173.383S368.17 67.181 368.17 67.181V3.748s-54.975-21.144-59.204 37.003 11.63 133.208 11.63 133.208 15.858 95.149-20.087 119.465L169.415 508.037s125.808 115.236 224.128 130.037L608.156 787.14z" data-color="1"/>
        <path fill="#ffb8b8" d="M42.021 204.09h-3.59c-32.34 0-50.52 38.181-29.27 62.56 6.84 7.847 17.237 13.28 32.86 13.559z" data-color="1"/>
        <path fill="#ffb8b8" d="M42.021 280.208h-3.59c-32.34 0-50.52 38.182-29.27 62.561 6.84 7.847 17.237 13.28 32.86 13.559z" data-color="1"/>
        <path fill="#ffb8b8" d="M42.021 356.328h-3.59c-32.34 0-50.52 38.181-29.27 62.56 6.84 7.847 17.237 13.28 32.86 13.559z" data-color="1"/>
        <path fill="#ffb8b8" d="M42.021 432.447h-3.59c-32.34 0-50.52 38.181-29.27 62.56 6.84 7.847 17.237 13.28 32.86 13.559z" data-color="1"/>
        <path fill="#3f3d56" d="M322.71 185.915h-3.146V99.722a49.886 49.886 0 0 0-49.886-49.886H87.067a49.886 49.886 0 0 0-49.886 49.886v472.86a49.886 49.886 0 0 0 49.886 49.886h182.61a49.886 49.886 0 0 0 49.887-49.886V247.268h3.146z" data-color="2"/>
        <path fill="#9a073c" d="M308.945 100.07v472.16a37.403 37.403 0 0 1-13.68 28.863 34.617 34.617 0 0 1-2.95 2.167 37.086 37.086 0 0 1-20.626 6.227H88.199a36.828 36.828 0 0 1-8.827-1.057 37.255 37.255 0 0 1-28.428-36.2V100.07A37.26 37.26 0 0 1 88.2 62.815h22.265a17.695 17.695 0 0 0 16.386 24.379h104.611a17.717 17.717 0 0 0 16.398-24.38h23.829a37.26 37.26 0 0 1 37.256 37.257z" data-color="3"/>
        <path fill="#ffb8b8" d="M141.438 418.623s18.012 50.032 4.003 78.05 22.014 60.039 22.014 60.039 94.06-48.031 82.053-72.047-32.02-56.036-28.018-76.049z" data-color="1"/>
        <path fill="#ffb8b8" d="M240.502 373.594c0 35.369-28.672 64.041-64.041 64.041s-64.041-28.672-64.041-64.041 28.672-64.041 64.041-64.041 64.041 28.672 64.041 64.041z" data-color="1"/>
        <path fill="#ffffff" d="M300.974 598.314a37.253 37.253 0 0 1-5.71 5.836 34.617 34.617 0 0 1-2.949 2.167c-5.91 3.933-12.993 5.17-20.626 5.17h-162.07l2.802-77.79 18.014-40.026a83.594 83.594 0 0 0 12.93 8.342 78.707 78.707 0 0 0 3.415 1.734c16.873 8.15 44.455 15.319 71.192-4.642 8.416-6.28 16.746-15.255 24.644-27.73l49.921 28.301 2.622 30.66z" data-color="4"/>
        <path fill="#2f2e41" d="M150.607 463.72l-2.506 26.188-1.321 13.839-1.977 20.605-8.447 88.192H88.2a36.828 36.828 0 0 1-8.828-1.057l-18.987-87.801.55-.36z" data-color="5"/>
        <path fill="#2f2e41" d="M308.945 481.714v93.574a37.403 37.403 0 0 1-13.68 28.862 34.617 34.617 0 0 1-2.95 2.167 37.086 37.086 0 0 1-20.626 6.227h-64.437c1.406-29.57 3.89-58.432 6.798-83.572 1.248-10.71 2.57-20.743 3.922-29.866 4.356-29.412 9.029-49.383 12.38-52.079l22.16 14.622z" data-color="5"/>
        <path fill="#2f2e41" d="M106.416 595.734l-2.305 16.81H88.2a36.828 36.828 0 0 1-8.828-1.057 37.255 37.255 0 0 1-28.428-36.199v-3.383l7.443-48.22 2.547-.359 11.46-1.639z" data-color="5"/>
        <path fill="#2f2e41" d="M308.945 493.915v81.373a37.403 37.403 0 0 1-13.68 28.862 34.617 34.617 0 0 1-2.95 2.167l-9.79-42.605 12.634-33.376z" data-color="5"/>
        <path fill="#2f2e41" d="M237.531 315.672a74.816 74.816 0 0 0-42.558-32.535l-13.012 10.41 5.059-12.142a68.871 68.871 0 0 0-12.86-.743l-11.708 15.052 4.846-14.537c-20.23 2.58-39.461 13.598-51.118 30.407-14.9 21.485-17.415 51.364-2.76 73.017 4.023-12.364 8.906-23.964 12.929-36.328.928.397 4.446.372 9.532.047l4.895-11.42 1.367 10.937c15.17-1.322 37.672-4.224 52.055-6.883l-1.399-8.39 8.367 6.972c4.407-1.014 7.023-1.934 6.807-2.637 10.696 17.244 21.295 28.258 31.99 45.502 4.061-24.323 11.23-44.541-2.432-66.73z" data-color="5"/>
        <path fill="#ffb8b8" d="M238.32 371.582c0 4.789-1.94 8.671-4.335 8.671-2.394 0-4.335-3.882-4.335-8.671s1.94-8.671 4.335-8.671c2.394 0 4.335 3.882 4.335 8.671z" data-color="1"/>
        <path fill="#ffb8b8" d="M454.861 419.232c0 98.676-35.736 178.668-79.819 178.668-44.083 0-79.819-79.992-79.819-178.668s35.736-178.668 79.819-178.668c44.083 0 79.819 79.992 79.819 178.668z" data-color="1"/>
        <path opacity=".2" d="M87.968 196.16a21.144 21.144 0 1 1 21.144-21.144 21.168 21.168 0 0 1-21.144 21.144zm0-40.174a19.03 19.03 0 1 0 19.03 19.03 19.051 19.051 0 0 0-19.03-19.03z" fill="#000000" data-color="6"/>
        <path opacity=".2" d="M82.683 169.73a3.172 3.172 0 1 1-6.344 0 3.172 3.172 0 0 1 6.344 0z" fill="#000000" data-color="6"/>
        <path opacity=".2" d="M98.541 169.73a3.172 3.172 0 1 1-6.344 0 3.172 3.172 0 0 1 6.344 0z" fill="#000000" data-color="6"/>
        <path opacity=".2" d="M95.368 182.417H79.51a1.058 1.058 0 0 1 0-2.115h15.859a1.058 1.058 0 0 1 0 2.115z" fill="#000000" data-color="6"/>
        <path opacity=".2" d="M271.923 196.16a21.144 21.144 0 1 1 21.144-21.144 21.168 21.168 0 0 1-21.144 21.144zm0-40.174a19.03 19.03 0 1 0 19.03 19.03 19.052 19.052 0 0 0-19.03-19.03z" fill="#000000" data-color="6"/>
        <path opacity=".2" d="M266.637 169.73a3.172 3.172 0 1 1-6.344 0 3.172 3.172 0 0 1 6.344 0z" fill="#000000" data-color="6"/>
        <path opacity=".2" d="M282.495 169.73a3.172 3.172 0 1 1-6.344 0 3.172 3.172 0 0 1 6.344 0z" fill="#000000" data-color="6"/>
        <path opacity=".2" d="M279.322 184.531a1.055 1.055 0 0 1-.527-.14 13.822 13.822 0 0 0-14.803 0 1.057 1.057 0 1 1-1.055-1.833 15.978 15.978 0 0 1 16.914 0 1.057 1.057 0 0 1-.529 1.973z" fill="#000000" data-color="6"/>
        <path fill="#ffffff" d="M181.003 217.945a42.93 42.93 0 1 1 42.929-42.929 42.978 42.978 0 0 1-42.93 42.93zm0-81.565a38.636 38.636 0 1 0 38.636 38.636 38.68 38.68 0 0 0-38.636-38.636z" data-color="4"/>
        <path fill="#ffffff" d="M170.27 164.284a6.439 6.439 0 1 1-12.878 0 6.439 6.439 0 0 1 12.878 0z" data-color="4"/>
        <path fill="#ffffff" d="M202.467 164.284a6.439 6.439 0 1 1-12.878 0 6.439 6.439 0 0 1 12.878 0z" data-color="4"/>
        <path fill="#ffffff" d="M181.026 195.975q-8.661 0-18.363-6.28a2.146 2.146 0 0 1 2.335-3.6c11.377 7.375 21.07 7.428 29.642.163a2.146 2.146 0 0 1 2.775 3.274c-5.064 4.295-10.542 6.443-16.39 6.443z" data-color="4"/>
        <path fill="#ffffff" d="M251.836 245.849h-27.904v-4.292h23.611v-23.611h4.293v27.903z" data-color="4"/>
        <path fill="#ffffff" d="M114.463 132.087h-4.293v-27.904h27.904v4.293h-23.611v23.611z" data-color="4"/>
    </g>
</svg>
