<?xml version="1.0" encoding="UTF-8"?>
<svg data-bbox="0.002 0.001 736.824 633.877" viewBox="0 0 736.827 633.877" height="633.877" width="736.827" xmlns="http://www.w3.org/2000/svg" data-type="color">
    <g>
        <path fill="#ffb9b9" d="M94.336 78.094s9.67 22.968-12.089 33.847 58.025 31.43 66.487 4.836c0 0-21.76-8.462-12.088-33.848z" data-color="1"/>
        <path fill="#ffb9b9" d="M120.327 552.567l-1.209 25.386 20.55 3.627v-25.386l-19.341-3.627z" data-color="1"/>
        <path fill="#ffb9b9" d="M42.96 552.567l1.209 25.386-20.55 3.627v-25.386l19.341-3.627z" data-color="1"/>
        <path fill="#ffb9b9" d="M151.757 58.147c0 18.694-15.154 33.848-33.848 33.848S84.061 76.841 84.061 58.147s15.154-33.848 33.848-33.848 33.848 15.154 33.848 33.848z" data-color="1"/>
        <path fill="#ffb9b9" d="M165.055 303.544l-1.21 9.67 6.045 22.969 8.461-20.55-13.296-12.089z" data-color="1"/>
        <path fill="#2f2e41" d="M30.871 307.171l-7.253 85.828s-8.462 15.715-3.626 29.013c0 0-7.253 18.133-4.836 24.177s3.627 12.088 1.21 14.506-3.627 70.113 0 76.158 6.043 20.55 6.043 20.55 20.55 4.835 25.386-8.462 2.418-14.506 7.253-18.133 4.836-54.398 4.836-54.398-6.045-6.044-2.418-8.462 6.044 0 2.418-6.044-9.671-6.045-3.627-8.462a57.64 57.64 0 0 0 9.671-4.836l35.057-91.872s13.297 102.752 15.715 107.587 6.044-1.208 2.417 4.836-4.835 2.417-3.626 6.044-7.253 55.607-2.418 66.487a163.823 163.823 0 0 1 7.253 19.342s19.342 8.462 21.76 2.417 1.208-16.924 4.835-18.133 7.253-3.626 7.253-13.297 7.253-56.816 7.253-56.816-8.462-3.626-6.044-9.67 2.418-4.836 1.209-9.672-3.627-6.044-1.21-9.67 2.419-14.507 2.419-14.507l14.506-95.499-11.202-32.639z" data-color="2"/>
        <path fill="#2f2e41" d="M121.535 571.909s-3.626-3.626-4.835 0-1.21 37.475-1.21 37.475 9.672 7.253 9.672 10.88 7.253 15.714 24.177 13.297q.254-.037.502-.076a16.005 16.005 0 0 0 11.9-22.655l-17.238-36.503s-12.088-12.088-22.968-2.418z" data-color="2"/>
        <path fill="#2f2e41" d="M41.751 571.909s3.626-3.626 4.835 0 1.21 37.475 1.21 37.475-9.672 7.253-9.672 10.88-7.253 15.714-24.177 13.297q-.254-.037-.502-.076a16.005 16.005 0 0 1-11.9-22.655l17.238-36.503s12.088-12.088 22.968-2.418z" data-color="2"/>
        <path fill="#2f2e41" d="M92.111 21.485l-6.047-2.421s12.644-13.921 30.237-12.71L111.353.906s12.095-4.842 23.09 7.868c5.78 6.682 12.468 14.536 16.637 23.383h6.477l-2.703 5.952 9.46 5.952-9.71-1.07a32.934 32.934 0 0 1-.919 15.415l.26 4.704S142.69 45.695 142.69 43.274v6.053s-6.047-5.447-6.047-9.079l-3.3 4.237-1.648-6.658-20.342 6.658 3.299-5.447-12.645 1.815 4.948-6.658s-14.294 7.869-14.844 14.527c-.55 6.658-7.697 15.131-7.697 15.131l-3.298-6.052s-4.948-27.237 10.995-36.316z" data-color="2"/>
        <path fill="#3f3d56" d="M169.889 133.096h13.468a4.358 4.358 0 0 1 4.254 3.4c2.078 9.203 7.434 35.29 6.455 55.834-1.209 25.386 1.21 43.519 0 47.145s0 4.836 0 8.462 3.627 1.21 0 6.044-3.626 3.627-3.626 7.254-12.089 59.233-12.089 59.233-8.31-13.659-17.453-11.06l1.738-49.382 2.418-20.55-3.627-36.266z" data-color="3"/>
        <path fill="#3f3d56" d="M111.26 120.403s-20.55-.747-27.2-9.44c0 0-42.913 14.276-47.749 26.364s16.924 66.487 16.924 66.487-37.474 111.215-19.342 111.215 59.234 14.507 83.411 6.045a310.721 310.721 0 0 1 45.937-12.089s2.417-32.639 0-38.683-8.462-2.418-4.836-10.88 2.418-9.67 1.209-13.297 2.418-8.462 2.418-13.297-1.21-15.716-1.21-15.716 32.64-76.157 25.387-83.41-44.174-21.229-44.174-21.229-10.225 12.767-30.775 7.931z" data-color="3"/>
        <path fill="#ffb9b9" d="M16.365 315.633s-10.88 56.816 7.253 51.98 9.671-51.98 9.671-51.98z" data-color="1"/>
        <path fill="#3f3d56" d="M44.169 133.096l-4.294 2.147a12.108 12.108 0 0 0-6.485 8.598L16.365 234.64s-4.835 10.88-4.835 12.088 2.417 1.21 0 4.836-6.045 2.417-3.627 4.835a7.488 7.488 0 0 1 2.418 4.836l2.418 59.233s20.55-6.044 26.594 0c0 0-6.044-18.132-2.417-24.177s3.626-14.506 3.626-14.506-2.418 0 3.627-6.044 7.253-8.462 6.044-9.671-2.418-12.089-2.418-13.297 12.089-82.202 12.089-82.202z" data-color="3"/>
        <path fill="#e6e6e6" d="M295.826 15.041a7.008 7.008 0 0 0-7 7v296a7.008 7.008 0 0 0 7 7h434a7.008 7.008 0 0 0 7-7v-296a7.008 7.008 0 0 0-7-7z" data-color="4"/>
        <path fill="#ffffff" d="M305.826 25.041a7.008 7.008 0 0 0-7 7v276a7.008 7.008 0 0 0 7 7h414a7.008 7.008 0 0 0 7-7v-276a7.008 7.008 0 0 0-7-7z" data-color="5"/>
        <path opacity=".2" fill="#9a073c" d="M329.713 255l21.895-16.011 86.537-13.725 53.174-13.724 29.193 11.549 39.619-56.152 27.108 5.718 40.662-44.603 20.852 6.862L696.713 56v198.89l-367 .11z" data-color="6"/>
        <path fill="#9a073c" d="M332.213 254.5a2 2 0 0 1 0-4c92.415 0 180.55-18.504 248.17-52.103 63.407-31.507 103.813-74.232 110.856-117.22a2 2 0 1 1 3.948.647c-3.658 22.33-15.534 44.235-35.296 65.106-19.49 20.584-45.642 39.106-77.728 55.049-68.162 33.869-156.93 52.521-249.95 52.521z" data-color="6"/>
        <path fill="#e6e6e6" d="M711.827 254.904h-382V66.176h2v186.728h380v2z" data-color="4"/>
    </g>
</svg>
