<?xml version="1.0"?>
<svg xmlns="http://www.w3.org/2000/svg" xmlns:xlink="http://www.w3.org/1999/xlink" xmlns:svgjs="http://svgjs.com/svgjs" version="1.1" width="512" height="512" x="0" y="0" viewBox="0 0 60 60" style="enable-background:new 0 0 512 512" xml:space="preserve" class=""><g><g xmlns="http://www.w3.org/2000/svg" id="Page-1" fill="none" fill-rule="evenodd"><g id="084---Traffic-Reports" fill="rgb(0,0,0)" fill-rule="nonzero"><path id="Shape" d="m7 10c1.65685425 0 3-1.34314575 3-3s-1.34314575-3-3-3-3 1.34314575-3 3 1.34314575 3 3 3zm0-4c.55228475 0 1 .44771525 1 1s-.44771525 1-1 1-1-.44771525-1-1 .44771525-1 1-1z" fill="#9a073c" data-original="#000000" style="" class=""/><path id="Shape" d="m15 10c1.6568542 0 3-1.34314575 3-3s-1.3431458-3-3-3-3 1.34314575-3 3 1.3431458 3 3 3zm0-4c.5522847 0 1 .44771525 1 1s-.4477153 1-1 1-1-.44771525-1-1 .4477153-1 1-1z" fill="#9a073c" data-original="#000000" style="" class=""/><path id="Shape" d="m33 10h10c1.6568542-.00000002 3-1.34314577 3-3s-1.3431458-2.99999998-3-3h-10c-1.6568542.00000002-3 1.34314577-3 3s1.3431458 2.99999998 3 3zm0-4h10c.5522847 0 1 .44771525 1 1s-.4477153 1-1 1h-10c-.5522847 0-1-.44771525-1-1s.4477153-1 1-1z" fill="#9a073c" data-original="#000000" style="" class=""/><path id="Shape" d="m47 25c-1.2133867 0-2.3072956.7309265-2.7716386 1.8519497s-.2076757 2.4113767.6503183 3.2693706c.8579939.857994 2.1483474 1.1146613 3.2693706.6503183s1.8519497-1.5582519 1.8519497-2.7716386c0-1.6568542-1.3431458-3-3-3zm0 4c-.5522847 0-1-.4477153-1-1s.4477153-1 1-1 1 .4477153 1 1-.4477153 1-1 1z" fill="#9a073c" data-original="#000000" style="" class=""/><path id="Shape" d="m47 33c-1.2133867 0-2.3072956.7309265-2.7716386 1.8519497s-.2076757 2.4113767.6503183 3.2693706c.8579939.857994 2.1483474 1.1146613 3.2693706.6503183s1.8519497-1.5582519 1.8519497-2.7716386c0-1.6568542-1.3431458-3-3-3zm0 4c-.5522847 0-1-.4477153-1-1s.4477153-1 1-1 1 .4477153 1 1-.4477153 1-1 1z" fill="#9a073c" data-original="#000000" style="" class=""/><path id="Shape" d="m47 41c-1.2133867 0-2.3072956.7309265-2.7716386 1.8519497s-.2076757 2.4113767.6503183 3.2693706c.8579939.857994 2.1483474 1.1146613 3.2693706.6503183s1.8519497-1.5582519 1.8519497-2.7716386c0-1.6568542-1.3431458-3-3-3zm0 4c-.5522847 0-1-.4477153-1-1s.4477153-1 1-1 1 .4477153 1 1-.4477153 1-1 1z" fill="#9a073c" data-original="#000000" style="" class=""/><path id="Shape" d="m56 31c2.209139 0 4-1.790861 4-4 0-1.1045695-.8954305-2-2-2h-3v-1c0-1.6568542-1.3431458-3-3-3h-2v-17c0-2.209139-1.790861-4-4-4h-42c-2.209139 0-4 1.790861-4 4v48c0 2.209139 1.790861 4 4 4h39v2c0 1.1045695.8954305 2 2 2h4c1.1045695 0 2-.8954305 2-2v-7h1c1.6568542 0 3-1.3431458 3-3v-1h1c2.209139 0 4-1.790861 4-4 0-1.1045695-.8954305-2-2-2h-3v-2h1c2.209139 0 4-1.790861 4-4 0-1.1045695-.8954305-2-2-2h-3v-2zm2-4c0 1.1045695-.8954305 2-2 2h-1v-2zm-54-25h42c1.1045695 0 2 .8954305 2 2v8h-46v-8c0-1.1045695.8954305-2 2-2zm0 52c-1.1045695 0-2-.8954305-2-2v-38h46v7h-6c-1.6568542 0-3 1.3431458-3 3v1h-3c-1.1045695 0-2 .8954305-2 2 0 2.209139 1.790861 4 4 4h1v2h-3c-1.1045695 0-2 .8954305-2 2 0 2.209139 1.790861 4 4 4h1v2h-3c-1.1045695 0-2 .8954305-2 2 0 2.209139 1.790861 4 4 4h1v1c0 1.6568542 1.3431458 3 3 3h1v3zm35-9h-1c-1.1045695 0-2-.8954305-2-2h3zm0-8h-1c-1.1045695 0-2-.8954305-2-2h3zm0-8h-1c-1.1045695 0-2-.8954305-2-2h3zm10 29h-4v-7h4zm4-10c0 .5522847-.4477153 1-1 1h-10c-.5522847 0-1-.4477153-1-1v-24c0-.5522847.4477153-1 1-1h10c.5522847 0 1 .4477153 1 1zm5-5c0 1.1045695-.8954305 2-2 2h-1v-2zm0-8c0 1.1045695-.8954305 2-2 2h-1v-2z" fill="#9a073c" data-original="#000000" style="" class=""/><path id="Shape" d="m5 32h24c.5522847 0 1-.4477153 1-1s-.4477153-1-1-1h-1v-10c0-1.6568542-1.3431458-2.9999999-3-2.9999999s-3 1.3431457-3 2.9999999v2.184c-.6842895-.2572777-1.4408582-.244406-2.116.036-.2069162-.8102435-.7479895-1.494598-1.4886438-1.8828504-.7406544-.3882523-1.611288-.4439172-2.3953562-.1531496v-1.184c0-1.6568542-1.3431458-3-3-3s-3 1.3431458-3 3v.184c-.32025698-.1184378-.65856033-.1806856-1-.184-1.65685425 0-3 1.3431458-3 3v8h-1c-.55228475 0-1 .4477153-1 1s.44771525 1 1 1zm19-12c0-.5522847.4477153-1 1-1s1 .4477153 1 1v10h-2zm-3 4c.5522847 0 1 .4477153 1 1v5h-2v-5c0-.5522847.4477153-1 1-1zm-4-2c.5522847 0 1 .4477153 1 1v7h-2v-7c0-.5522847.4477153-1 1-1zm-5-3c0-.5522847.4477153-1 1-1s1 .4477153 1 1v11h-2zm-4 3c0-.5522847.44771525-1 1-1s1 .4477153 1 1v8h-2z" fill="#9a073c" data-original="#000000" style="" class=""/><path id="Shape" d="m23 36c.5522847 0 1-.4477153 1-1s-.4477153-1-1-1h-18c-.55228475 0-1 .4477153-1 1s.44771525 1 1 1z" fill="#9a073c" data-original="#000000" style="" class=""/><path id="Shape" d="m29 34h-2c-.5522847 0-1 .4477153-1 1s.4477153 1 1 1h2c.5522847 0 1-.4477153 1-1s-.4477153-1-1-1z" fill="#9a073c" data-original="#000000" style="" class=""/><path id="Shape" d="m31 40h-11c-.5522847 0-1 .4477153-1 1s.4477153 1 1 1h11c.5522847 0 1-.4477153 1-1s-.4477153-1-1-1z" fill="#9a073c" data-original="#000000" style="" class=""/><path id="Shape" d="m20 46h2c.5522847 0 1-.4477153 1-1s-.4477153-1-1-1h-2c-.5522847 0-1 .4477153-1 1s.4477153 1 1 1z" fill="#9a073c" data-original="#000000" style="" class=""/><path id="Shape" d="m31 44h-5c-.5522847 0-1 .4477153-1 1s.4477153 1 1 1h5c.5522847 0 1-.4477153 1-1s-.4477153-1-1-1z" fill="#9a073c" data-original="#000000" style="" class=""/><path id="Shape" d="m25 48h-5c-.5522847 0-1 .4477153-1 1s.4477153 1 1 1h5c.5522847 0 1-.4477153 1-1s-.4477153-1-1-1z" fill="#9a073c" data-original="#000000" style="" class=""/><path id="Shape" d="m11 39c-3.3137085 0-6 2.6862915-6 6s2.6862915 6 6 6 6-2.6862915 6-6c-.0033074-3.3123376-2.6876624-5.9966926-6-6zm3.858 5h-2.858v-2.858c1.3993145.3658904 2.4921096 1.4586855 2.858 2.858zm-4.858-2.858v3.137l-2.973.988c-.006-.09-.027-.175-.027-.267.00681482-1.8184116 1.23931486-3.4034067 3-3.858zm1 7.858c-1.35538516-.0030073-2.61704393-.6921771-3.352-1.831l3.515-1.169h3.7c-.4550645 1.7624805-2.0427252 2.9954554-3.863 3z" fill="#9a073c" data-original="#000000" style="" class=""/></g></g></g></svg>
