<?xml version="1.0"?>
<svg xmlns="http://www.w3.org/2000/svg" xmlns:xlink="http://www.w3.org/1999/xlink" xmlns:svgjs="http://svgjs.com/svgjs" version="1.1" width="512" height="512" x="0" y="0" viewBox="0 0 128 128" style="enable-background:new 0 0 512 512" xml:space="preserve" class=""><g><path xmlns="http://www.w3.org/2000/svg" d="m19.433 93.888a14.68 14.68 0 1 0 14.68 14.68 14.7 14.7 0 0 0 -14.68-14.68zm0 25.859a11.18 11.18 0 1 1 11.18-11.18 11.192 11.192 0 0 1 -11.18 11.18z" fill="#9a073c" data-original="#000000" style="" class=""/><path xmlns="http://www.w3.org/2000/svg" d="m6.8 4.75h-.3a1.75 1.75 0 0 0 -1.75 1.75v21.666a1.75 1.75 0 0 0 1.75 1.75h.3a91.385 91.385 0 0 1 91.284 91.284 1.75 1.75 0 0 0 1.75 1.75h21.666a1.75 1.75 0 0 0 1.75-1.75 116.579 116.579 0 0 0 -116.45-116.45zm94.765 114.7a94.889 94.889 0 0 0 -93.315-93.023v-18.167a113.084 113.084 0 0 1 111.487 111.187z" fill="#9a073c" data-original="#000000" style="" class=""/><path xmlns="http://www.w3.org/2000/svg" d="m111.2 97.9a1.75 1.75 0 1 0 3.416-.762 109.592 109.592 0 0 0 -14.019-34.22 1.75 1.75 0 1 0 -2.97 1.852 106.122 106.122 0 0 1 13.573 33.13z" fill="#9a073c" data-original="#000000" style="" class=""/><path xmlns="http://www.w3.org/2000/svg" d="m6.8 48.082h-.3a1.75 1.75 0 0 0 -1.75 1.75v21.668a1.75 1.75 0 0 0 1.75 1.75h.3a48.005 48.005 0 0 1 47.954 47.95 1.75 1.75 0 0 0 1.75 1.75h21.665a1.75 1.75 0 0 0 1.75-1.75 73.2 73.2 0 0 0 -73.119-73.118zm51.421 71.366a51.514 51.514 0 0 0 -49.971-49.681v-18.167a69.7 69.7 0 0 1 68.15 67.847z" fill="#9a073c" data-original="#000000" style="" class=""/><path xmlns="http://www.w3.org/2000/svg" d="m70.153 115.356a1.75 1.75 0 0 0 1.741 1.591q.08 0 .161-.007a1.75 1.75 0 0 0 1.583-1.9 67.054 67.054 0 0 0 -10.623-30.483 1.75 1.75 0 1 0 -2.93 1.916 63.534 63.534 0 0 1 10.068 28.883z" fill="#9a073c" data-original="#000000" style="" class=""/></g></svg>
