<?xml version="1.0"?>
<svg xmlns="http://www.w3.org/2000/svg" xmlns:xlink="http://www.w3.org/1999/xlink" xmlns:svgjs="http://svgjs.com/svgjs" version="1.1" width="512" height="512" x="0" y="0" viewBox="0 0 64 64" style="enable-background:new 0 0 512 512" xml:space="preserve" class=""><g><g xmlns="http://www.w3.org/2000/svg" id="bank-money-protection-security-protect"><path d="M61.57,22.18l-29-20a.993.993,0,0,0-1.14,0l-29,20A1,1,0,0,0,3,24H6v1a3.009,3.009,0,0,0,3,3v1a3.01,3.01,0,0,0,2,2.82V46.18A3.01,3.01,0,0,0,9,49v1a3.009,3.009,0,0,0-3,3v1.18A3.01,3.01,0,0,0,4,57v4a1,1,0,0,0,1,1H59a1,1,0,0,0,1-1V57a3.01,3.01,0,0,0-2-2.82V53a3.009,3.009,0,0,0-3-3V49a3.01,3.01,0,0,0-2-2.82V31.82A3.01,3.01,0,0,0,55,29V28a3.009,3.009,0,0,0,3-3V24h3a1,1,0,0,0,.57-1.82ZM11,49a1,1,0,0,1,1-1h6a1,1,0,0,1,1,1v1H11ZM45,31.82V46.18A3.01,3.01,0,0,0,43,49v1H21V49a3.01,3.01,0,0,0-2-2.82V31.82A3.01,3.01,0,0,0,21,29V28H43v1A3.01,3.01,0,0,0,45,31.82ZM52,48a1,1,0,0,1,1,1v1H45V49a1,1,0,0,1,1-1Zm-5-2V32h4V46ZM19,29a1,1,0,0,1-1,1H12a1,1,0,0,1-1-1V28h8Zm-2,3V46H13V32ZM58,57v3H6V57a1,1,0,0,1,1-1H57A1,1,0,0,1,58,57Zm-3-5a1,1,0,0,1,1,1v1H8V53a1,1,0,0,1,1-1ZM53,29a1,1,0,0,1-1,1H46a1,1,0,0,1-1-1V28h8Zm3-4a1,1,0,0,1-1,1H9a1,1,0,0,1-1-1V24H56ZM6.21,22,32,4.21,57.79,22Z" fill="#0b245b" data-original="#000000" style="" class=""/><path d="M32,13a1,1,0,1,1,1-1h2a3,3,0,0,0-2-2.816V8H31V9.184A2.993,2.993,0,0,0,32,15a1,1,0,1,1-1,1H29a3,3,0,0,0,2,2.816V20h2V18.816A2.993,2.993,0,0,0,32,13Z" fill="#0b245b" data-original="#000000" style="" class=""/><path d="M39.394,33.081l-7-3a1.007,1.007,0,0,0-.788,0l-7,3A1,1,0,0,0,24,34v3.515a6.955,6.955,0,0,0,2.051,4.95l5.242,5.242a1,1,0,0,0,1.414,0l5.242-5.242A6.955,6.955,0,0,0,40,37.515V34A1,1,0,0,0,39.394,33.081ZM38,37.515a4.971,4.971,0,0,1-1.465,3.536L32,45.586l-4.535-4.535A4.971,4.971,0,0,1,26,37.515V34.659l6-2.571,6,2.571Z" fill="#0b245b" data-original="#000000" style="" class=""/><path d="M30.707,37.293l-1.414,1.414,2,2a1,1,0,0,0,1.414,0l4-4-1.414-1.414L32,38.586Z" fill="#0b245b" data-original="#000000" style="" class=""/></g></g></svg>
