<?xml version="1.0" encoding="UTF-8"?>
<svg data-bbox="5 2 54 60" viewBox="0 0 64 64" height="512" width="512" xmlns="http://www.w3.org/2000/svg" data-type="color">
    <g>
        <path fill="#9a073c" d="M43 41a5 5 0 1 0 5-5 5.006 5.006 0 0 0-5 5zm8 0a3 3 0 1 1-3-3 3 3 0 0 1 3 3z" xmlns="http://www.w3.org/2000/svg" data-color="1"/>
        <path fill="#9a073c" d="M51.48 55.31C54.52 51.39 59 44.94 59 41a11.021 11.021 0 0 0-9-10.81V8h2a1 1 0 0 0 1-1V3a1 1 0 0 0-1-1H6a1 1 0 0 0-1 1v4a1 1 0 0 0 1 1h2v40H6a1 1 0 0 0-1 1v3a1 1 0 0 0 1 1h36.79c.6.83 1.19 1.61 1.73 2.31-2.41.46-4.52 1.46-4.52 3.19 0 2.4 4.15 3.5 8 3.5s8-1.1 8-3.5c0-1.73-2.11-2.73-4.52-3.19zM7 6V4h44v2zm38 16h-6a1 1 0 0 0-1 1v7h-1v2h4.7a10.976 10.976 0 0 0-4.7 9c0 1.93 1.08 4.46 2.53 7H35v-5a6 6 0 0 0-12 0v5H10V8h38v22a11.023 11.023 0 0 0-2 .19V23a1 1 0 0 0-1-1zm-1 2v6h-4v-6zM33 43v5h-8v-5a4 4 0 0 1 8 0zM7 51v-1h33.74c.22.34.44.67.66 1zm32-10a9 9 0 0 1 18 0c0 3.87-5.93 11.77-9 15.46-3.07-3.69-9-11.59-9-15.46zm9 19c-3.84 0-5.88-1.1-6-1.48.09-.31 1.37-1.1 3.96-1.39.71.87 1.2 1.43 1.29 1.53a1 1 0 0 0 1.5 0c.09-.1.58-.66 1.29-1.53 2.59.29 3.87 1.08 3.96 1.35-.12.42-2.16 1.52-6 1.52z" xmlns="http://www.w3.org/2000/svg" data-color="1"/>
        <path fill="#9a073c" d="M46 18v-7a1 1 0 0 0-1-1h-6a1 1 0 0 0-1 1v7h-1v2h10v-2zm-2 0h-4v-6h4z" xmlns="http://www.w3.org/2000/svg" data-color="1"/>
        <path fill="#9a073c" d="M33 18v-7a1 1 0 0 0-1-1h-6a1 1 0 0 0-1 1v7h-1v2h10v-2zm-2 0h-4v-6h4z" xmlns="http://www.w3.org/2000/svg" data-color="1"/>
        <path fill="#9a073c" d="M20 18v-7a1 1 0 0 0-1-1h-6a1 1 0 0 0-1 1v7h-1v2h10v-2zm-2 0h-4v-6h4z" xmlns="http://www.w3.org/2000/svg" data-color="1"/>
        <path fill="#9a073c" d="M20 30v-7a1 1 0 0 0-1-1h-6a1 1 0 0 0-1 1v7h-1v2h10v-2zm-2 0h-4v-6h4z" xmlns="http://www.w3.org/2000/svg" data-color="1"/>
        <path fill="#9a073c" d="M33 30v-7a1 1 0 0 0-1-1h-6a1 1 0 0 0-1 1v7h-1v2h10v-2zm-2 0h-4v-6h4z" xmlns="http://www.w3.org/2000/svg" data-color="1"/>
    </g>
</svg>
