<?xml version="1.0" encoding="UTF-8"?>
<svg data-bbox="-0.001 -0.004 373.889 267.08" viewBox="0 0 373.89 267.08" xmlns:xlink="http://www.w3.org/1999/xlink" xmlns="http://www.w3.org/2000/svg" data-type="ugc">
    <g>
        <defs>
            <linearGradient gradientUnits="userSpaceOnUse" gradientTransform="matrix(1 0 0 -1 0 352)" y2="253.46" x2="242.26" y1="245.57" x1="190.17" id="a51e58c6-9131-4f43-a4a0-332fe5071624">
                <stop offset=".01"/>
                <stop stop-opacity=".69" offset=".13"/>
                <stop stop-opacity=".32" offset=".25"/>
                <stop stop-opacity="0" offset="1"/>
            </linearGradient>
            <linearGradient xlink:href="#a51e58c6-9131-4f43-a4a0-332fe5071624" gradientTransform="rotate(180 -267.935 176)" y2="87.32" x2="-731.57" y1="142.56" x1="-791.33" id="2fa9d35d-b171-4422-86b7-dcf0a1370b12"/>
            <linearGradient xlink:href="#a51e58c6-9131-4f43-a4a0-332fe5071624" y2="122.07" x2="220.71" y1="137.09" x1="230.18" id="1b1c9909-1701-43d2-ae34-978a540a8963"/>
            <linearGradient xlink:href="#a51e58c6-9131-4f43-a4a0-332fe5071624" gradientTransform="rotate(180 -267.935 176)" y2="135.52" x2="-773.7" y1="107.99" x1="-785.94" id="789b87ab-9411-4bb4-a5a2-768a811e5637"/>
            <linearGradient gradientUnits="userSpaceOnUse" gradientTransform="matrix(1 0 0 -1 0 352)" y2="160.78" x2="236.25" y1="163.78" x1="162.05" id="a5c5c0c1-1249-44f6-929e-91ff14501bad">
                <stop offset="0"/>
                <stop stop-opacity="0" offset="1"/>
            </linearGradient>
            <linearGradient xlink:href="#a5c5c0c1-1249-44f6-929e-91ff14501bad" y2="201.15" x2="176.87" y1="190.17" x1="254.02" id="3af0471c-b208-49a9-8fa1-ac55b8bae5c6"/>
            <linearGradient xlink:href="#a51e58c6-9131-4f43-a4a0-332fe5071624" gradientTransform="rotate(180 -267.935 176)" y2="208.41" x2="-726.66" y1="237.31" x1="-739.9" id="97e4ee80-5127-4334-9ee6-53de3a3ef325"/>
            <linearGradient xlink:href="#a5c5c0c1-1249-44f6-929e-91ff14501bad" gradientTransform="rotate(180 -280.63 155.9)" y2="189.55" x2="-746.14" y1="170.42" x1="-754.69" id="6825a858-2f71-43cc-889b-62c5335cb654"/>
        </defs>
        <path style="isolation:isolate" opacity=".18" fill="#9a073c" d="M149.72 8.32l-11.8-3c-17.23-4.24-35.77-8.42-52.34-2.07C72.12 8.44 62.14 19.8 52.72 30.66 40.33 45 27.85 59.47 18.61 76.03c-21.79 39.06-25.06 94.62-6.55 135.25 7.37 16.19 17.24 31.91 32 41.91 15.37 10.43 34.81 13.63 53.3 11.9s36.25-8.05 53.25-15.35c19-8.14 39.13-17.79 59.41-13.83 10.59 2.06 20.08 7.7 29.6 12.77 16.74 8.92 34.64 16.45 53.54 18.09s39-3.24 52.69-16.4c13.31-12.82 19-31.59 22.16-49.79a209.7 209.7 0 0 0 2.23-57.26c-1.8-18.54 6-36.05 2.92-55.08-2.43-14.91-10.22-29.36-22.9-37.58-15.73-10.19-35.85-9.44-54.59-9q-23.88.56-47.76-.32c-9.76-.35-19.65-.92-28.93-4-10.6-3.49-19.88-10-29.81-15.11-12.43-6.34-25.87-10.43-39.45-13.91z"/>
        <path fill="#c1a7a7" d="M174.08 90.71l9-29.38c1.16-5.63 1.67-12.27 2.31-18a16 16 0 0 0-.05-5.65c-.58-2.43-2.21-5.06-.91-7.2s4.91-1.79 7.12-.31c3.05 2 5.09 6.58 2.67 9.34a20.82 20.82 0 0 0-2.11 2.09c-.83 1.28-.6 3-.44 4.47.74 7-.72 14-2.16 21l-4 19.14c-1 4.66-2.54 10-7 11.73a2.6 2.6 0 0 1-2.1.08 3 3 0 0 1-1-.93c-1.03-1.63-1.22-4.43-1.33-6.38z"/>
        <path fill="url(#a51e58c6-9131-4f43-a4a0-332fe5071624)" transform="translate(-25.39 -40.2)" d="M199.47 130.91l9-29.38c1.16-5.63 1.67-12.27 2.31-18a16 16 0 0 0-.05-5.65c-.58-2.43-2.21-5.06-.91-7.2s4.91-1.79 7.12-.31c3.05 2 5.09 6.58 2.67 9.34a20.82 20.82 0 0 0-2.11 2.09c-.83 1.28-.6 3-.44 4.47.74 7-.72 14-2.16 21l-4 19.14c-1 4.66-2.54 10-7 11.73a2.6 2.6 0 0 1-2.1.08 3 3 0 0 1-1-.93c-1.03-1.63-1.22-4.43-1.33-6.38z"/>
        <path fill="#9a073c" d="M225.88 165.6a42.87 42.87 0 1 1-85.73 1.31v-1.31a27.59 27.59 0 0 1 .13-3.28 42.86 42.86 0 0 1 85.6 3.28z"/>
        <path style="isolation:isolate" opacity=".14" fill="#020202" d="M165 185.07c-1.42 6.2.31 12.8-1 19a42.92 42.92 0 0 1-21.32-23.79 26.36 26.36 0 0 1 .15-6.4c.29-2.28.71-4.64.07-6.85a16.2 16.2 0 0 0-2.66-4.68 42.75 42.75 0 0 1 17.9-31.65 2.54 2.54 0 0 1 0 .87l-1.84 8.16a24.14 24.14 0 0 1 0 7.3 8.34 8.34 0 0 1-4 5.85 19.67 19.67 0 0 0-2.3 1.14 6.94 6.94 0 0 0-1.75 2.1 17.09 17.09 0 0 0-2.61 5.46 6.07 6.07 0 0 0 1.35 5.65l12-2.32c1.25-.24 2.76-.41 3.62.53 1 1.12.38 2.92.61 4.43.28 1.93 2 3.32 2.8 5.12 1.45 3.13-.24 6.7-1.02 10.08z"/>
        <path style="isolation:isolate" opacity=".14" fill="#020202" d="M154.12 135.55c-1.71 2-3.48 4.13-4 6.7a3 3 0 0 0 0 1.69 3.5 3.5 0 0 0 2.25 1.76 33 33 0 0 0 12.75 2.18c-.25 2.45-.36 5.29 1.43 7a7 7 0 0 0 2.31 1.34 26.27 26.27 0 0 0 8.44 1.8c2.42.11 4.87-.13 7.29.14a17.93 17.93 0 0 1 8.31 3.12 4.21 4.21 0 0 1 1.51 1.57 5.12 5.12 0 0 1 .31 2.19 32.58 32.58 0 0 0 1 7.8c.65 2.48 1.7 5 3.78 6.51a13.29 13.29 0 0 0 3.56 1.61l8.55 2.92a1 1 0 0 0 .66.06 1 1 0 0 0 .46-.52c.95-1.86 1.89-3.92 1.5-6s-2-3.59-2.75-5.5c-1.23-3-.27-6.56-1.28-9.66a13.21 13.21 0 0 0-3.33-4.94 79.71 79.71 0 0 0-7.87-6.81c-4.4-3.48-8.86-7-14-9.32-2.06-.94-4.36-1.79-5.55-3.71-1.43-2.31-.81-5.48-2.35-7.72-1.26-1.82-3.63-2.52-5.84-2.64a21 21 0 0 0-10.51 2.46c-2.91 1.47-4.51 3.48-6.63 5.97z"/>
        <path style="isolation:isolate" opacity=".14" fill="#020202" d="M225.88 165.6a42.77 42.77 0 0 1-16.33 33.67 5.25 5.25 0 0 1-1.49-1.48c-1.28-1.94-.86-5 1.21-6.1-.72.38-3.55-.55-4.4-.68l-4.41-.68c-2.11-.33-5.8-.19-7-2.32a5 5 0 0 0-.49-.84 2.9 2.9 0 0 0-.92-.63c-1.33-.65-2.88-1.38-3.2-2.83-.22-1.06.31-2.26-.24-3.2-.17-.29-.43-.52-.6-.81a2.76 2.76 0 0 1 .3-2.69c1.86-3.25 5.71-4.83 9.41-5.45s7.52-.53 11.12-1.57c2.27-.66 4.43-1.76 6.77-2.08 1.29-.18 2.91-.32 3.38-1.53.26-.69 0-1.49.27-2.18.11-.3.31-.56.42-.86a1.77 1.77 0 0 0-1.14-2.23 2.05 2.05 0 0 0-.34-.07c.3-.8.54-1.83-.09-2.4a1.71 1.71 0 0 0-1.56-.24c-1.54.38-2.65 1.68-3.94 2.6-4.28 3-10.15 2-13.72-1.62a3.9 3.9 0 0 1-1.19-1.93 3.08 3.08 0 0 1 1.81-3.08 9.1 9.1 0 0 1 3.71-.73c-.47-3.11-1-6.23-1.43-9.33-7.12 1.91-10-4.88-11-10.52s3-7.66 8.16-8a42.88 42.88 0 0 1 26.93 39.81z"/>
        <path fill="url(#2fa9d35d-b171-4422-86b7-dcf0a1370b12)" transform="translate(-25.39 -40.2)" d="M219.72 224.82c0 2.36 3.81 4.59 5.67 5.14a11 11 0 0 1 2.26.73 2.12 2.12 0 0 1 1.18 1.92c-.08.69-.64 1.25-.79 1.92a3.44 3.44 0 0 0 .21 1.74c.71 2.29 3.53 3.71 4.22 6 3.9-.39 5.66-.06 9.52-.71l3.22-2.06c-1.62-3-3.23-6.06-4.86-9.1a18.36 18.36 0 0 0-2.29-3.61 17.6 17.6 0 0 0-3.58-2.85 95 95 0 0 0-10.55-5.94c.49.28-4.21 6.21-4.21 6.82z"/>
        <path fill="#c1a7a7" d="M196.61 173.91c-.4 1.3-.76 2.83 0 3.92a3.18 3.18 0 0 0 1.42 1 3.84 3.84 0 0 0 4.06-.43 5.31 5.31 0 0 0 1.23-2.33 56.8 56.8 0 0 0 2.18-9.73 1.79 1.79 0 0 0 0-.92 1.63 1.63 0 0 0-.77-.72c-1.73-.93-4.44-1.68-5.41.39-1.27 2.71-1.85 5.99-2.71 8.82z"/>
        <path fill="#9a073c" d="M201.82 175.42a2.41 2.41 0 0 1 1.1.11 1.93 1.93 0 0 1 .61.53l3.74 4.28c.73.83 1.5 2 1 2.94a2.17 2.17 0 0 1-1.61 1 9.4 9.4 0 0 1-5.26-1 48.73 48.73 0 0 1-3.41-1.66 5.58 5.58 0 0 1-2.12-1.7c-.85-1.32-1.11-4.5.42-5.49.76-.49 1.43-.14 2.17.21a7.24 7.24 0 0 0 3.36.78z"/>
        <path fill="#c1a7a7" d="M217.38 188.47a1.6 1.6 0 0 1-.08.72 1.5 1.5 0 0 1-.54.55 4.65 4.65 0 0 1-2.42.82 2.79 2.79 0 0 1-2.27-1 4.76 4.76 0 0 1-.7-2.13 25.6 25.6 0 0 1-.47-4.94.67.67 0 0 1 .64-.82c1.35-.29 4-1 4.72.67a20 20 0 0 1 1.12 6.13z"/>
        <path fill="#9a073c" d="M223.09 188.3a12.2 12.2 0 0 1 3.39.66 4.27 4.27 0 0 1 2.49 2.3 2.46 2.46 0 0 1 .07 1.67 3.51 3.51 0 0 1-1.84 1.76 23.19 23.19 0 0 1-12.59 2.76 4.29 4.29 0 0 1-3.05-1.13 4.88 4.88 0 0 1-.81-3.11l-.15-5.18c1-.15 1.87.49 2.8.81 1.61.55 2.24-.77 3.57-1.09 1.73-.4 4.35.37 6.12.55z"/>
        <path fill="url(#1b1c9909-1701-43d2-ae34-978a540a8963)" transform="translate(-25.39 -40.2)" d="M227.21 215.62a2.41 2.41 0 0 1 1.1.11 1.93 1.93 0 0 1 .61.53l3.74 4.28c.73.83 1.5 2 1 2.94a2.17 2.17 0 0 1-1.61 1 9.4 9.4 0 0 1-5.26-1 48.73 48.73 0 0 1-3.41-1.66 5.58 5.58 0 0 1-2.12-1.7c-.85-1.32-1.11-4.5.42-5.49.76-.49 1.43-.14 2.17.21a7.24 7.24 0 0 0 3.36.78z"/>
        <path fill="#473f47" d="M195.34 176.2a5.07 5.07 0 0 0 .31 1.14 7 7 0 0 0 .64 1.39 5.26 5.26 0 0 0 1.32 1.3 15.93 15.93 0 0 0 4.18 2 13.47 13.47 0 0 0 7.08.74 2.25 2.25 0 0 1-1.14 1.19 4.17 4.17 0 0 1-1.63.37 13.94 13.94 0 0 1-6.28-1.7l-2.21-1a5.92 5.92 0 0 1-.89-.49 4.2 4.2 0 0 1-1-1.06 5.24 5.24 0 0 1-.89-2.47 3.94 3.94 0 0 1 .09-1.28c0-.18.26-1 .5-1a2.14 2.14 0 0 0-.08.87z"/>
        <path fill="url(#789b87ab-9411-4bb4-a5a2-768a811e5637)" transform="translate(-25.39 -40.2)" d="M248.48 228.5a12.2 12.2 0 0 1 3.39.66 4.27 4.27 0 0 1 2.49 2.3 2.46 2.46 0 0 1 .07 1.67 3.51 3.51 0 0 1-1.84 1.76 23.19 23.19 0 0 1-12.59 2.76 4.29 4.29 0 0 1-3.05-1.13 4.88 4.88 0 0 1-.81-3.11l-.15-5.18c1-.15 1.87.49 2.8.81 1.61.55 2.24-.77 3.57-1.09 1.73-.4 4.35.37 6.12.55z"/>
        <path fill="#ffffff" d="M209.24 131.09a6 6 0 0 1 3 1.52c1 1.08 1 2.68 1 4.14a85.37 85.37 0 0 1-5.74 30.6 2.74 2.74 0 0 1-1.28 1.73 2.69 2.69 0 0 1-1.75-.08 67.82 67.82 0 0 1-6.67-2.24l2.95-19.89a2.83 2.83 0 0 0-.09-1.68 2.7 2.7 0 0 0-.89-.92 78.62 78.62 0 0 0-10.65-6.64c-3-1.53-6.36-3.27-7.17-6.55a3.64 3.64 0 0 1 .58-3.25 5.15 5.15 0 0 1 1.63-1.1c2-1 4.45-2.25 6.72-2 1.8.18 2.5 1.25 4 2 4.24 2.21 9.81 3.01 14.36 4.36z"/>
        <path fill="url(#a5c5c0c1-1249-44f6-929e-91ff14501bad)" transform="translate(-25.39 -40.2)" d="M225.54 207.75c-.25-.08.63-4.77.71-5.24.16-.92.85-5 1.58-2.17a13.21 13.21 0 0 1 .22 1.88 21.41 21.41 0 0 0 .39 2.24 6.53 6.53 0 0 0 .51 1.68 6.68 6.68 0 0 0 1.82 2 .88.88 0 0 0 .52.27c.29 0 .51-.27.63-.54a6.67 6.67 0 0 0 .38-2.62c.15-5 2.74-9.36 2.57-14.49 0-1.25-1.19-2.76-1.69-3.91a13.53 13.53 0 0 1-1-2.91c-.63-3.41 1.38-6.74 1.66-10.2l-6.78 3.33-3.87 29.93z"/>
        <path fill="#9a073c" d="M182.53 128.17a43.94 43.94 0 0 1-4.19 2.06c-.38.17-.76.33-1.15.48a28.69 28.69 0 0 1-13.92 2q-.72-.09-1.44-.24a12.13 12.13 0 0 1-7.08-3.84c-2.21-2.65-2.73-6.34-2.87-9.81v-1a61.41 61.41 0 0 1 1-12.91 33.71 33.71 0 0 1 5.73-14.06 21.6 21.6 0 0 1 7.57-6.41c3.09-1.57 6.75-2.37 10.05-1.28a15 15 0 0 1 4.67 2.77 7.24 7.24 0 0 1 1.37 1.34 7.16 7.16 0 0 1 1.12 2.69c1.37 6-.53 12.13-2 18.09-.81 3.4-1.43 7.14.12 10.26 2.21 4.41 7.56 6.21 1.02 9.86z"/>
        <path fill="url(#3af0471c-b208-49a9-8fa1-ac55b8bae5c6)" transform="translate(-25.39 -40.2)" d="M207.92 168.39c-.12 1.38-1.86 1.89-3.25 2l-.94.05a50.27 50.27 0 0 1-14.87-1.36A3.19 3.19 0 0 0 187 169a.94.94 0 0 0-.26.14v.33a3.76 3.76 0 0 0 .55 3.23 12.13 12.13 0 0 1-7.08-3.84c-2.21-2.65-2.73-6.34-2.87-9.81v-1a67.88 67.88 0 0 1 .24-7.68 29.77 29.77 0 0 1 1-6.76 24.18 24.18 0 0 1 7.42-10.73 3.47 3.47 0 0 1 1.09-.69 3.4 3.4 0 0 1 2.69.46 5.41 5.41 0 0 1 1.78 1.37 5.29 5.29 0 0 1 1 3 19.84 19.84 0 0 1-.39 4.35 42.77 42.77 0 0 1-1.38 6.33 12.75 12.75 0 0 0-.67 2.34 5.36 5.36 0 0 0 .52 3c.37.84.43 1.72.73 2.6a13.66 13.66 0 0 0 2.91 4.87 17.93 17.93 0 0 0 10.17 5.36 7.66 7.66 0 0 1 2.35.59 2.17 2.17 0 0 1 1.12 1.93z"/>
        <path fill="#c1a7a7" d="M169.85 91.7a6.08 6.08 0 0 0 4.38 2.29 1.22 1.22 0 0 0 .77-.17 1.32 1.32 0 0 0 .38-.92c.08-.69.18-1.57.25-2.45s.21-2 .31-2.7a10.72 10.72 0 0 1 2.18-5.47 5.49 5.49 0 0 1 .86-.94c2.11-1.9-6.47-1.15-7.6-3.74-1.3 1.69-1.18 4.06-1.76 6.13a30.71 30.71 0 0 0-1 3.08 6.22 6.22 0 0 0 1.23 4.89z"/>
        <path fill="url(#97e4ee80-5127-4334-9ee6-53de3a3ef325)" transform="translate(-25.39 -40.2)" d="M200.91 131.05l.11-.4c.12-1 .21-2 .31-2.7a10.72 10.72 0 0 1 2.18-5.47l.06-.21s-6.8-4.47-7.53.76 4.87 8.02 4.87 8.02z"/>
        <path fill="#c1a7a7" d="M182.61 79.18a5.39 5.39 0 0 1-.58 3.15 4 4 0 0 1-1 1c-2.7 2-6.76 1.63-9.44-.48a12.09 12.09 0 0 1-4.22-9 7 7 0 0 1 1.41-5 5.56 5.56 0 0 1 5.11-1.43 13.19 13.19 0 0 1 6.47 3.68c1.73 1.94 2.16 5.63 2.25 8.08z"/>
        <path fill="#ffffff" d="M207.13 144.97a21.47 21.47 0 0 1 3.27 6 120.28 120.28 0 0 1 8.21 32.75 42 42 0 0 1-10.51 0 101.48 101.48 0 0 0-3.61-23.56 15.1 15.1 0 0 0-1.9-4.65c-1.55-2.29-4.1-3.61-6.55-4.85a95.73 95.73 0 0 0-17.63-6.68c-2.56-.72-5.14-1.37-7.66-2.24a18.38 18.38 0 0 1-6-3.08 8.53 8.53 0 0 1-3.22-5.79c0 .58 12.74 0 13.93-.18 4-.43 8.68-2.75 12.62-1.11 3.08 1.28 5.89 3.95 8.66 5.79 3.51 2.29 7.67 4.43 10.39 7.6z"/>
        <path fill="#9a073c" d="M188.98 144.12l-22.18-11 25.67-9.25 20.22 8.97-23.71 11.28z"/>
        <path fill="url(#6825a858-2f71-43cc-889b-62c5335cb654)" d="M189.1 142.45l-18.51-9.19 21.43-7.72 16.89 7.49-19.81 9.42z"/>
        <path fill="#c1a7a7" d="M158.19 97c-.05.38-.1.76-.14 1.14-.6 5.64-.06 11.19.15 16.81.13 3.47.58 10.1 4.21 11.88 6.82 3.33 19.94 2.05 19.94 2.05a11.73 11.73 0 0 1 4.57.18c.82.26 1.57.7 2.36 1 2.87 1.12 6.08.55 9.1 0a3.72 3.72 0 0 0 1.48-.5c1.17-.8 1.12-2.7.25-3.82a6.92 6.92 0 0 0-3.65-2 21.19 21.19 0 0 0-11.81-.46 13.71 13.71 0 0 1-1.52.42 10.07 10.07 0 0 1-1.82.13h-4.64c-5.32.05-10.34.07-11.14-6.26a34.72 34.72 0 0 1-.18-7.06c.32-4.25 1.41-8.46 1.18-12.72a8.56 8.56 0 0 0-1-3.87 3.87 3.87 0 0 0-3.2-2.05 4 4 0 0 0-3.29 2.24 8.91 8.91 0 0 0-.85 2.89z"/>
        <path fill="#9a073c" d="M221.02 112.6l-28.26 14.61-3.78 16.91 23.71-11.28 8.33-20.24z"/>
        <path fill="#473f47" d="M182.91 67.18a1.92 1.92 0 0 0-.45-.45 1 1 0 0 0 .59-1c-.06-.42-.36-.45-.66-.62s-.14-.35-.35-.68a.92.92 0 0 0-.61-.34l-2.12-.54c0-.27.07-.59-.13-.77s-.77 0-1.18-.1c-.58-.09-.84-.77-1.26-1.19-.94-.93-1.56 0-2.41.15s-1.19-.76-2.17-.89a5.42 5.42 0 0 0-2.26.31 4.94 4.94 0 0 0-2.16 1.1 5.41 5.41 0 0 0-1 1.66 1.15 1.15 0 0 0-1.6.22l-.09.15c-.19.41-.12.92-.39 1.27a3.11 3.11 0 0 0-.61 0 1.44 1.44 0 0 0-.55.28 1.52 1.52 0 0 0-.53 1.13 1.52 1.52 0 0 0-.94.07 3 3 0 0 0 .33-.93.76.76 0 0 0-.16-.71c-.2-.16-.59 0-.51.26a.83.83 0 0 0-.44-1.09 1.21 1.21 0 0 0-1.22.28c-.15-.14.11-.4.05-.6a.46.46 0 0 0-.13-.18 3.3 3.3 0 0 0-.91-.61 1 1 0 0 0-1 .12c-.12-.74-.76-1.87-1.68-1.65-.27.06-.5.38-.36.63a3.4 3.4 0 0 0-2.58-1.1c-.33 0-.78.27-.61.56a3.92 3.92 0 0 0-3-.72.46.46 0 0 0-.44.28c-.05.17.24.36.31.19a1.45 1.45 0 0 0-1.39.58 1.55 1.55 0 0 0 .06 2.11c.61.5 1.77 0 1.61-.81a1.43 1.43 0 0 0 1.85.32 1.53 1.53 0 0 0 1.79 1.21 1.63 1.63 0 0 0 .53-.21 2.09 2.09 0 0 0 1.6 1.56 6.19 6.19 0 0 0 2.35 0 1.69 1.69 0 0 1-1.47.37 1.59 1.59 0 0 0-.75 0 2.33 2.33 0 0 0-.69.56.69.69 0 0 1-.13.11 1 1 0 0 1-.78 0 1.66 1.66 0 0 0-1.08 0 .84.84 0 0 0-.53.87 1.69 1.69 0 0 0-2 1.32 1.67 1.67 0 0 0 0 .5 1.09 1.09 0 0 0-1.23.4 1.74 1.74 0 0 0-.24.58 4.93 4.93 0 0 0-.11 1.15.87.87 0 0 0 .1.45.36.36 0 0 0 .39.19 1.15 1.15 0 0 0-.28.89.83.83 0 0 0 .2.34 1.18 1.18 0 0 0 .63.42.74.74 0 0 0 .71-.18c.26-.25.26-.66.48-1a.6.6 0 0 0 .18.58.84.84 0 0 0 .61.18.35.35 0 0 0 .17-.06.38.38 0 0 0 .09-.15 2.22 2.22 0 0 0 .07-1.35.75.75 0 0 0 .73.16.72.72 0 0 0 .47-.58 2.94 2.94 0 0 1 0-.42c0-.2.3-.26.46-.37a5 5 0 0 0 .63-.51c.09-.09 1-1.14.91-1.21a1.12 1.12 0 0 0 1.48-.24 1.35 1.35 0 0 0 1.63.61 16.74 16.74 0 0 0-2.8 2.45 5.47 5.47 0 0 0-1.42 3.31 2.65 2.65 0 0 0 .54 1.74 1.61 1.61 0 0 0 1.67.53.62.62 0 0 0-.82-.51 1.3 1.3 0 0 0-.73.81 1.66 1.66 0 0 0 0 1.41.88.88 0 0 0 1.18.39 2 2 0 0 0 .45-.59 15.46 15.46 0 0 1 1.14-1.15 1.17 1.17 0 0 0 .16-1.46c.56-.27.54-1.11.23-1.65a9.32 9.32 0 0 1-1-1.55h2.08l1-.92a3.61 3.61 0 0 0 2.9.43 2.39 2.39 0 0 0 1.2 2.49c-.17.13-.41.29-.38.54a.43.43 0 0 0 .33.33 1.29 1.29 0 0 0 .48 0c.07.15-.1.31-.08.48a.4.4 0 0 0 .16.24 1.71 1.71 0 0 0 .63.32.33.33 0 0 0 0 .4.7.7 0 0 0 .33.26 3.51 3.51 0 0 0 1.05.35 1 1 0 0 0 .06.6.43.43 0 0 0 .49.27c.09 0 .17-.1.26-.08a.28.28 0 0 1 .14.1 1.83 1.83 0 0 1 .37.65 1 1 0 0 0 .13.32.78.78 0 0 0 .36.26c.19.07.42.13.57 0a.39.39 0 0 0 .08-.4 1.31 1.31 0 0 0-.21-.36.23.23 0 0 0 .29-.08.47.47 0 0 0 0-.33 2.87 2.87 0 0 0-.48-.76.17.17 0 0 1 0-.14.17.17 0 0 1 .09-.11c.17-.19 0-.5-.1-.72s-.33-.47-.22-.71a1.46 1.46 0 0 1 .21-.28c.11-.15.11-.42.25-.53a.31.31 0 0 1 .41.1c.1.12.14.28.23.4a3.23 3.23 0 0 0 .59.46c.15.14.26.34.42.48a.4.4 0 0 0 .72-.21.82.82 0 0 0-.28-.72 1 1 0 0 1-.21-.19.19.19 0 0 1 0-.26.19.19 0 0 0 .2-.1.17.17 0 0 0 0-.1.5.5 0 0 0-.13-.25s-.08-.08-.07-.13a.11.11 0 0 1 0-.08c.1-.17.24-.32.33-.49a.6.6 0 0 0-.22-.79 1 1 0 0 0 1.28-.18 3.15 3.15 0 0 0 .66-1.22.671.671 0 1 0 .81-1.07h-.08a2.68 2.68 0 0 0 .83.26.86.86 0 0 0 .78-.31c.25-.35.12-.9.45-1.18a10.05 10.05 0 0 0 1.65 1.17 1.87 1.87 0 0 0 2.36-1.19v-.06a1.86 1.86 0 0 0 1.68.19 1.27 1.27 0 0 0 .39-1.49 1.26 1.26 0 0 0 1.11-1.21 1.67 1.67 0 0 0-.32-1.04z"/>
        <path fill="#473f47" d="M210.89 194.8s1 2 7.76.86 9.94-3.25 10.32-4.44a2 2 0 0 1-.71 2.74c-1.69 1-8.24 5.5-16.22 2.74 0 .04-1-.24-1.15-1.9z"/>
        <path fill="#c1a7a7" d="M168.22 75.67a.71.71 0 0 0-.37.12 1.54 1.54 0 0 0-.68 1.49 2.85 2.85 0 0 0 .74 1.55 1.81 1.81 0 0 0 .6.5 2.66 2.66 0 0 0 1 .2.9.9 0 0 0 .4 0 .85.85 0 0 0 .44-.74 3.78 3.78 0 0 0-.45-2.08 1.11 1.11 0 0 0-.49-.47 3 3 0 0 0-1.19-.57z"/>
        <path fill="#9a073c" d="M161.18 68.02a10.2 10.2 0 0 0-.57 3.55 4.54 4.54 0 0 0 .25 1.93 5.09 5.09 0 0 0 .76 1.13 2 2 0 0 0 1.63-.61.87.87 0 0 0 .22-.37c.11-.38-.15-.74-.36-1.08a4.87 4.87 0 0 1-.41-3.7c.17-.68 1.36-2.5-.17-2.21a1.93 1.93 0 0 0-1.35 1.36z"/>
        <path fill="#9a073c" d="M182.02 215h-1a.5.5 0 0 1 0-1h1a.5.5 0 1 1 0 1zm5 0a.5.5 0 0 1 0-1h1a.5.5 0 1 1 0 1zm-11-.12h-1a.5.5 0 0 1-.48-.52.47.47 0 0 1 .48-.48h1a.5.5 0 0 1 0 1zm17 0a.5.5 0 0 1 0-1h1a.52.52 0 0 1 .52.48.5.5 0 0 1-.48.52h-1zm-23-.26l-1-.06a.5.5 0 0 1-.47-.53.47.47 0 0 1 .49-.47l1 .06a.5.5 0 0 1 0 1zm29 0a.51.51 0 0 1-.5-.47.52.52 0 0 1 .47-.53l1-.06a.52.52 0 0 1 .53.47.5.5 0 0 1-.47.53l-1 .06zm-35-.4l-1-.09a.5.5 0 0 1-.46-.54.52.52 0 0 1 .55-.45l1 .08a.5.5 0 0 1 0 1zm41 0a.5.5 0 0 1 0-1l1-.08a.51.51 0 0 1 .54.45.49.49 0 0 1-.44.54l-1 .09zm-46.93-.55h-.06l-1-.11a.504.504 0 0 1 .12-1l1 .11a.5.5 0 0 1 0 1zm52.9 0a.5.5 0 1 1 0-1l1-.11a.5.5 0 0 1 .55.42.5.5 0 0 1-.44.55l-1 .11zm-58.86-.7h-.07l-1-.14a.504.504 0 1 1 .13-1l1 .14a.49.49 0 0 1 .43.54.52.52 0 0 1-.51.36zm64.82 0a.501.501 0 0 1-.07-1l1-.13a.49.49 0 0 1 .56.41.51.51 0 0 1-.42.57l-1 .13zm-70.76-.85h-.08l-1-.16a.51.51 0 1 1 .17-1l1 .17a.49.49 0 0 1 .41.56.5.5 0 0 1-.52.32zm76.69 0a.502.502 0 1 1-.08-1l1-.17a.5.5 0 0 1 .57.41.5.5 0 0 1-.41.58l-1 .16zm-82.6-1h-.09l-1-.19a.5.5 0 0 1-.39-.59.48.48 0 0 1 .57-.39l1 .19a.5.5 0 0 1 .39.59.49.49 0 0 1-.52.24zm88.51 0a.49.49 0 0 1-.49-.4.51.51 0 0 1 .4-.59l1-.19a.5.5 0 0 1 .58.4.47.47 0 0 1-.36.57l-1 .2zm-94.4-1.32h-.11l-1-.23a.512.512 0 0 1 .22-1l1 .22a.5.5 0 0 1 .38.6.49.49 0 0 1-.49.41zm100.22-.11a.5.5 0 0 1-.55-.45.49.49 0 0 1 .44-.55l1-.23a.512.512 0 1 1 .22 1l-1 .22zm-106.1-1.35a.24.24 0 0 1-.12 0l-1-.25a.53.53 0 0 1-.38-.63.52.52 0 0 1 .63-.37l1 .26a.5.5 0 0 1 .36.61.5.5 0 0 1-.45.38zm111.93-.06a.504.504 0 1 1-.13-1l1-.25a.515.515 0 1 1 .25 1l-1 .25zm-117.71-1.55h-.12l-1-.29a.49.49 0 0 1-.34-.62.51.51 0 0 1 .63-.33l1 .28a.505.505 0 0 1-.14 1zm123.49-.07a.5.5 0 0 1-.48-.35.51.51 0 0 1 .33-.63l1-.28a.5.5 0 0 1 .62.32.5.5 0 0 1-.33.62l-1 .29h-.1zm-129.21-1.75h-.16l-1-.33a.515.515 0 0 1 .25-1h.08l.94.32a.5.5 0 0 1 .31.63.49.49 0 0 1-.43.31zm135-.11a.51.51 0 0 1-.16-1l.94-.32a.48.48 0 0 1 .63.28.51.51 0 0 1-.31.64l-1 .33zm-140.6-2h-.18l-.93-.37a.5.5 0 0 1-.29-.63.5.5 0 0 1 .64-.28l.93.37a.5.5 0 0 1 .29.64.51.51 0 0 1-.47.34zm146.2 0a.51.51 0 0 1-.47-.31.51.51 0 0 1 .28-.65l.92-.37a.51.51 0 0 1 .65.28.5.5 0 0 1-.28.65l-.93.37a.57.57 0 0 1-.17.03zm-151.74-2.21a.67.67 0 0 1-.2 0l-.92-.41a.49.49 0 0 1-.25-.65.5.5 0 0 1 .66-.25l.91.41a.5.5 0 0 1 .25.66.52.52 0 0 1-.46.22zm157.27-.1a.49.49 0 0 1-.45-.3.49.49 0 0 1 .23-.65l.9-.41a.51.51 0 0 1 .67.23.52.52 0 0 1-.25.67l-.91.41a.5.5 0 0 1-.21 0zm-162.68-2.5h-.23l-.89-.47a.51.51 0 0 1-.2-.68.48.48 0 0 1 .66-.2l.88.46a.45.45 0 0 1-.23.86zm168.09-.11a.51.51 0 0 1-.61-.39.5.5 0 0 1 .38-.61l.88-.46a.48.48 0 0 1 .66.2.5.5 0 0 1-.19.67l-.89.47a.63.63 0 0 1-.23.08zm-173.33-2.81a.48.48 0 0 1-.26-.07l-.85-.53a.51.51 0 0 1-.11-.7.5.5 0 0 1 .63-.15l.85.52a.5.5 0 0 1 .17.69.49.49 0 0 1-.43.21zm178.56-.13a.5.5 0 0 1-.43-.24.51.51 0 0 1 .17-.69l.85-.52a.5.5 0 0 1 .67.22.5.5 0 0 1-.15.63l-.85.53a.46.46 0 0 1-.26 0zm-183.57-3.2a.52.52 0 0 1-.29-.09l-.81-.6a.5.5 0 0 1 .5-.86l.09.06.8.59a.49.49 0 0 1 .13.68.51.51 0 0 1-.42.22zm188.57-.14a.5.5 0 0 1-.3-.91l.8-.59a.51.51 0 0 1 .7.1.5.5 0 0 1-.1.7c-.26.2-.54.41-.81.6a.43.43 0 0 1-.29.1zm-193.26-3.59a.57.57 0 0 1-.33-.13l-.75-.68a.5.5 0 0 1 0-.7.5.5 0 0 1 .71 0l.74.66a.5.5 0 0 1 .06.7.52.52 0 0 1-.4.18zm197.93-.21a.48.48 0 0 1-.37-.17.49.49 0 0 1 0-.69l.73-.67a.5.5 0 0 1 .71 0 .49.49 0 0 1 0 .7l-.05.05c-.24.23-.49.46-.75.68a.46.46 0 0 1-.27.1zm-202.15-4a.52.52 0 0 1-.38-.17l-.65-.78a.48.48 0 0 1 0-.69.52.52 0 0 1 .71.07l.64.75a.51.51 0 0 1 0 .71.53.53 0 0 1-.32.11zm206.31-.23a.5.5 0 0 1-.5-.5.6.6 0 0 1 .12-.32l.64-.76a.49.49 0 0 1 .69-.08.49.49 0 0 1 .08.69l-.65.78a.5.5 0 0 1-.38.19zm-209.89-4.64a.5.5 0 0 1-.43-.24l-.51-.88a.5.5 0 0 1 .23-.67.49.49 0 0 1 .64.18c.16.29.33.57.5.86a.5.5 0 0 1-.17.68.57.57 0 0 1-.22.07zm213.4-.21a.48.48 0 0 1-.26-.07.5.5 0 0 1-.17-.68c.16-.29.33-.57.48-.86a.501.501 0 1 1 .88.48c-.16.3-.33.59-.5.88a.52.52 0 0 1-.39.25zm-215.92-5.2a.5.5 0 0 1-.48-.34c-.11-.33-.21-.65-.3-1a.53.53 0 0 1 .37-.64.52.52 0 0 1 .63.37c.09.31.19.62.29.93a.49.49 0 0 1-.3.62.44.44 0 0 1-.15.05zm218.41-.24h-.15a.5.5 0 0 1-.33-.61c.09-.31.19-.62.27-.94a.52.52 0 0 1 .63-.37.53.53 0 0 1 .37.64l-.29 1a.5.5 0 0 1-.5.28zM74.1 167.67a.5.5 0 0 1-.5-.48v-1a.51.51 0 0 1 .49-.5.51.51 0 0 1 .5.49v1a.49.49 0 0 1-.46.52zm220.6-.25a.51.51 0 0 1-.48-.53v-1a.5.5 0 0 1 1 0v1a.5.5 0 0 1-.47.53zm0-2.49a.51.51 0 0 1-.5-.47 9 9 0 0 0-.09-1 .51.51 0 0 1 .45-.56.5.5 0 0 1 .55.45c0 .33.07.67.09 1a.5.5 0 0 1-.46.54zm-220.09-3.21h-.11a.48.48 0 0 1-.38-.58c.07-.34.15-.67.24-1a.49.49 0 0 1 .6-.35.5.5 0 0 1 .35.61c-.08.31-.16.63-.23.95a.49.49 0 0 1-.47.37zm218.89-2.63a.52.52 0 0 1-.47-.34c-.1-.31-.22-.62-.33-.92a.5.5 0 0 1 .28-.65.5.5 0 0 1 .65.29c.12.31.24.63.35 1a.5.5 0 0 1-.3.64.44.44 0 0 1-.2 0zm-216.91-3a.41.41 0 0 1-.22 0 .49.49 0 0 1-.23-.65c.14-.3.3-.6.46-.9a.49.49 0 0 1 .67-.21.51.51 0 0 1 .2.68l-.45.87a.48.48 0 0 1-.43.23zm214.34-2.4a.48.48 0 0 1-.42-.23c-.17-.28-.35-.56-.53-.83a.51.51 0 0 1 .14-.7.5.5 0 0 1 .69.15c.19.28.37.57.55.85a.5.5 0 0 1-.17.69.5.5 0 0 1-.29.07zm-211.18-2.67a.48.48 0 0 1-.3-.11.49.49 0 0 1-.1-.69l.62-.79a.5.5 0 0 1 .71 0 .51.51 0 0 1 .07.64l-.61.78a.51.51 0 0 1-.43.2zm207.61-2.13a.52.52 0 0 1-.38-.17c-.21-.24-.43-.49-.66-.73a.502.502 0 0 1 .74-.68l.67.75a.5.5 0 0 1 0 .71.53.53 0 0 1-.4.12zm-203.63-2.36a.5.5 0 0 1-.37-.84c.23-.24.48-.47.72-.7a.5.5 0 0 1 .71 0 .49.49 0 0 1 0 .69l-.71.69a.48.48 0 0 1-.39.16zm199.38-1.86a.51.51 0 0 1-.33-.13l-.75-.64a.51.51 0 0 1-.06-.71.52.52 0 0 1 .71-.06l.76.66a.51.51 0 0 1 .05.71.49.49 0 0 1-.41.17zm-194.9-2.08a.51.51 0 0 1-.49-.51.54.54 0 0 1 .19-.38l.79-.62a.52.52 0 0 1 .71.1.51.51 0 0 1-.1.7l-.79.61a.5.5 0 0 1-.31.1zm190.17-1.64a.5.5 0 0 1-.29-.09l-.82-.57a.503.503 0 0 1 .57-.83l.83.58a.51.51 0 0 1 .11.7.49.49 0 0 1-.4.21zM93.1 139.12a.5.5 0 0 1-.28-.91l.85-.54a.5.5 0 1 1 .53.85l-.83.53a.54.54 0 0 1-.28.08zm180.25-1.45a.45.45 0 0 1-.25-.07l-.86-.51a.49.49 0 0 1-.19-.67.51.51 0 0 1 .69-.18l.86.51a.48.48 0 0 1 .18.67.5.5 0 0 1-.43.25zm-175.09-1.62a.5.5 0 0 1-.24-.94l.88-.48a.503.503 0 1 1 .47.89l-.87.47a.5.5 0 0 1-.24.06zm169.85-1.25a.46.46 0 0 1-.23-.05l-.89-.45a.49.49 0 0 1-.23-.65.5.5 0 0 1 .67-.23l.9.46a.5.5 0 0 1 .2.68.48.48 0 0 1-.43.26zm-164.5-1.48a.5.5 0 0 1-.45-.28.51.51 0 0 1 .23-.67l.91-.42a.5.5 0 0 1 .42.9l-.9.43a.54.54 0 0 1-.21.04zm159.09-1.14a.34.34 0 0 1-.2 0l-.89-.38a.5.5 0 0 1 .39-.92l.92.4a.51.51 0 0 1-.2 1zm-153.6-1.28a.51.51 0 0 1-.46-.31.51.51 0 0 1 .27-.65l.93-.38a.5.5 0 0 1 .65.28.49.49 0 0 1-.27.65l-.93.37a.45.45 0 0 1-.2 0zm148.06-1h-.18l-.93-.36a.514.514 0 0 1 .24-1h.11l.94.36a.5.5 0 0 1 .28.64.47.47 0 0 1-.47.27zm-142.47-1.1a.54.54 0 0 1-.47-.33.5.5 0 0 1 .3-.64l1-.34a.5.5 0 0 1 .64.3.5.5 0 0 1-.31.63l-.94.34a.42.42 0 0 1-.22.04zm136.81-1h-.16l-.94-.32a.523.523 0 0 1 .31-1l.95.32a.5.5 0 0 1 .33.61.5.5 0 0 1-.49.39zm-131.12-1a.5.5 0 0 1-.57-.43.49.49 0 0 1 .42-.57l1-.3a.5.5 0 0 1 .62.33.48.48 0 0 1-.3.61l-1 .3a.34.34 0 0 1-.14.05zm125.4-.8a.33.33 0 0 1-.14 0l-1-.28a.52.52 0 0 1 .28-1l1 .28a.49.49 0 0 1 .34.62.48.48 0 0 1-.48.41zm-119.64-.89a.49.49 0 0 1-.56-.43.5.5 0 0 1 .43-.57l1-.26a.52.52 0 0 1 .26 1l-1 .26a.28.28 0 0 1-.13 0zm113.86-.7h-.13l-1-.25a.5.5 0 0 1-.37-.6.51.51 0 0 1 .61-.37l1 .25a.504.504 0 1 1-.12 1zm-108-.79a.503.503 0 0 1-.11-1l1-.23a.515.515 0 0 1 .25 1l-1 .23zm102.21-.62h-.11l-1-.21a.5.5 0 0 1-.38-.6.48.48 0 0 1 .58-.38l1 .22a.5.5 0 0 1 .45.55.51.51 0 0 1-.56.45zm-96.35-.68a.5.5 0 0 1-.49-.39.52.52 0 0 1 .39-.6l1-.2a.51.51 0 0 1 .59.4.5.5 0 0 1-.39.59l-1 .19zm90.48-.53h-.1l-1-.18a.51.51 0 0 1-.4-.59.5.5 0 0 1 .58-.4l1 .19a.5.5 0 0 1 .4.58.52.52 0 0 1-.53.41zm-84.58-.59a.502.502 0 0 1-.09-1l1-.17a.507.507 0 1 1 .17 1l-1 .17zm78.67-.45h-.08l-1-.16a.51.51 0 0 1-.42-.57.51.51 0 0 1 .58-.41l1 .15a.51.51 0 0 1 .41.58.5.5 0 0 1-.54.46zm-72.75-.5a.49.49 0 0 1-.53-.46.5.5 0 0 1 .46-.54l1-.14a.51.51 0 0 1 .57.42.51.51 0 0 1-.43.57l-1 .14zm66.81-.38h-.07l-1-.13a.5.5 0 0 1-.43-.56.49.49 0 0 1 .54-.43l1 .13a.49.49 0 0 1 .43.54.5.5 0 0 1-.54.46zm-6-.71l-1-.11a.5.5 0 0 1-.44-.55.52.52 0 0 1 .55-.44l1 .1a.5.5 0 0 1 0 1zm-6-.56l-1-.08a.5.5 0 0 1-.46-.54.52.52 0 0 1 .54-.46l1 .08a.49.49 0 0 1 .46.52.5.5 0 0 1-.51.49zm-6-.41h-1a.5.5 0 0 1 .06-1l1 .06a.5.5 0 1 1 0 1zm-6-.27h-1a.5.5 0 0 1-.49-.51.5.5 0 0 1 .52-.49h1a.5.5 0 0 1 0 1zm-6-.12h-1a.5.5 0 0 1-.5-.5.52.52 0 0 1 .5-.5h1a.5.5 0 0 1 .49.51.49.49 0 0 1-.46.49z"/>
        <path fill="#ffffff" d="M90.71 159.61c0 10.786-8.744 19.53-19.53 19.53-10.786 0-19.53-8.744-19.53-19.53 0-10.786 8.744-19.53 19.53-19.53 10.786 0 19.53 8.744 19.53 19.53z"/>
        <path fill="#9a073c" d="M68.96 157.14h11.82v4.58h-11.8v3.47h5.63v2.61h-5.65v4h-5.18v-4h-2.43v-2.65h2.39v-17.76h17.27v4.56H69.47c-.44 0-.58.09-.57.57v4z"/>
        <path fill="#ffffff" d="M143.15 115.23c0 10.786-8.744 19.53-19.53 19.53-10.786 0-19.53-8.744-19.53-19.53 0-10.786 8.744-19.53 19.53-19.53 10.786 0 19.53 8.744 19.53 19.53z"/>
        <path fill="#9a073c" d="M136.4 108.26l-4.61 2.27c-1.71-2.71-4.08-4.07-7.33-3.59a7.62 7.62 0 0 0-5.78 4.09h9.34v2.87h-10.25v2.49h10.26v2.93h-9.42a7.45 7.45 0 0 0 5.69 4.17 6.83 6.83 0 0 0 7.44-3.58l4.71 2.28c-.57.77-1.05 1.52-1.63 2.2a11.43 11.43 0 0 1-8.82 4.06 14.36 14.36 0 0 1-7.66-1.91 12 12 0 0 1-5.44-6.55c-.18-.5-.4-.76-1-.68a8.15 8.15 0 0 1-1.21 0v-2.9h1.33v-2.49h-1.33v-2.88h1.52a.5.5 0 0 0 .59-.37 11.69 11.69 0 0 1 3.47-5.27 13 13 0 0 1 5.4-2.87 15 15 0 0 1 6.15-.35 11 11 0 0 1 7.44 4.43c.35.46.66 1 1 1.44a1.09 1.09 0 0 1 .14.21z"/>
        <path fill="#ffffff" d="M267.24 117.95c0 10.786-8.744 19.53-19.53 19.53-10.786 0-19.53-8.744-19.53-19.53 0-10.786 8.744-19.53 19.53-19.53 10.786 0 19.53 8.744 19.53 19.53z"/>
        <path fill="#9a073c" d="M240.52 130.91l-1.82-3.66c.46-.27.93-.51 1.37-.8a6 6 0 0 0 2.68-3.14 3.86 3.86 0 0 0-.3-2.75c0-.1-.27-.17-.42-.17h-4.16v-3.12h2.45c-.4-.73-.82-1.41-1.14-2.14a6.35 6.35 0 0 1 .6-6.26 8.85 8.85 0 0 1 5.93-3.87 11.86 11.86 0 0 1 7.71.89 7.84 7.84 0 0 1 3.45 3.48l-4.26 2.43a14.38 14.38 0 0 0-1.11-1.46 4.06 4.06 0 0 0-4.1-1 3.59 3.59 0 0 0-2.79 4.24 3.45 3.45 0 0 0 .3.87 18.29 18.29 0 0 0 1.44 2.6.66.66 0 0 0 .51.21h5.1v3.11h-4.3a5.16 5.16 0 0 1-2.16 4.84l.74-.09a7.13 7.13 0 0 1 4 .8 4.42 4.42 0 0 0 4.61-.47 4.18 4.18 0 0 0 .53-.5c.72 1.43 1.42 2.84 2.14 4.29a5.36 5.36 0 0 1-2.41 1.46 9.94 9.94 0 0 1-6.15 0 17.89 17.89 0 0 1-1.71-.68 5.87 5.87 0 0 0-4.95.09z"/>
        <path fill="#ffffff" d="M302.73 186.22c0 10.786-8.744 19.53-19.53 19.53-10.786 0-19.53-8.744-19.53-19.53 0-10.786 8.744-19.53 19.53-19.53 10.786 0 19.53 8.744 19.53 19.53z"/>
        <path fill="#9a073c" d="M283.23 183.94l1.29-2.1c1.38-2.26 2.77-4.52 4.14-6.79a.74.74 0 0 1 .74-.42h5.21c-2.38 3.67-4.7 7.27-7.08 10.93h6.08v2.78h-7.91v2.75h7.91v2.71h-7.9v4h-4.92v-4h-7.89v-2.72h7.84v-2.75h-7.85v-2.77h6.07l-7.12-11h5.23a.58.58 0 0 1 .58.3q1.71 2.81 3.44 5.6z"/>
        <path fill="#ffffff" d="M142.68 206.37c0 10.786-8.744 19.53-19.53 19.53-10.786 0-19.53-8.744-19.53-19.53 0-10.786 8.744-19.53 19.53-19.53 10.786 0 19.53 8.744 19.53 19.53z"/>
        <path fill="#9a073c" d="M121.52 193.8v-3.3h3.85v3.39a13.36 13.36 0 0 1 7.42 3.41l-3.12 4.12a9.85 9.85 0 0 0-4.26-2.36v4.54c1 .34 2 .62 2.93 1a6.69 6.69 0 0 1 4.79 7.92 7 7 0 0 1-3.31 5 10 10 0 0 1-4 1.37c-.38 0-.45.19-.44.53v2.79h-3.86v-3.13c-1-.21-1.95-.38-2.88-.63a11.65 11.65 0 0 1-5.12-2.82c-.61-.56-.6-.58-.12-1.26.83-1.19 1.67-2.37 2.55-3.61a10.46 10.46 0 0 0 5.55 3.2v-5.16c-1.1-.37-2.17-.67-3.2-1.09a6.7 6.7 0 0 1-4.12-3.79 6.87 6.87 0 0 1 .2-5.48 8.08 8.08 0 0 1 5.68-4.3c.46-.14.92-.21 1.46-.34zm3.88 20.09a2.45 2.45 0 0 0 2.19-2.28c0-.86-1-1.57-2.19-1.81zm-3.93-11.32v-3.77a2.1 2.1 0 0 0-2.05 2c0 .81.88 1.56 2.05 1.76z"/>
    </g>
</svg>
