<?xml version="1.0"?>
<svg xmlns="http://www.w3.org/2000/svg" xmlns:xlink="http://www.w3.org/1999/xlink" xmlns:svgjs="http://svgjs.com/svgjs" version="1.1" width="512" height="512" x="0" y="0" viewBox="0 0 512.002 512.002" style="enable-background:new 0 0 512 512" xml:space="preserve" class=""><g><g xmlns="http://www.w3.org/2000/svg"><path d="m215.305 400.873c-14.853 0-26.936 12.083-26.936 26.936 0 14.852 12.083 26.935 26.936 26.935s26.936-12.083 26.936-26.935c-.001-14.853-12.084-26.936-26.936-26.936zm0 38.871c-6.581 0-11.936-5.354-11.936-11.935s5.354-11.936 11.936-11.936 11.936 5.354 11.936 11.936-5.355 11.935-11.936 11.935z" fill="#ffffff" data-original="#000000" style="" class=""/><path d="m376.589 427.809c0 14.852 12.083 26.935 26.936 26.935 14.852 0 26.935-12.083 26.935-26.935 0-14.853-12.083-26.936-26.935-26.936-14.853 0-26.936 12.083-26.936 26.936zm38.87 0c0 6.581-5.354 11.935-11.935 11.935s-11.936-5.354-11.936-11.935 5.354-11.936 11.936-11.936 11.935 5.355 11.935 11.936z" fill="#ffffff" data-original="#000000" style="" class=""/><path d="m489.336 114.247h-155.891c-4.143 0-7.5 3.358-7.5 7.5s3.357 7.5 7.5 7.5h155.891c4.228 0 7.666 3.439 7.666 7.666s-3.438 7.666-7.666 7.666c-12.08 0-319.823 0-336.816 0l-2.752-15.332h148.678c4.143 0 7.5-3.358 7.5-7.5s-3.357-7.5-7.5-7.5h-151.372l-9.73-54.198c-.01-.055-.021-.111-.031-.166-3.844-18.949-20.667-32.703-40.003-32.703-19.413 0-61.797 0-74.644 0-12.498 0-22.666 10.168-22.666 22.666s10.168 22.666 22.666 22.666h70.867l50.341 280.415c.01.056.021.111.031.167 3.407 16.787 17.002 29.487 33.502 32.168-11.719 10.45-19.116 25.648-19.116 42.547 0 31.438 25.576 57.014 57.014 57.014s57.014-25.576 57.014-57.014c0-16.612-7.145-31.584-18.52-42.014h111.231c-11.375 10.43-18.52 25.402-18.52 42.014 0 31.438 25.576 57.014 57.015 57.014 23.568 0 45.003-14.813 53.337-36.862 1.465-3.875-.489-8.203-4.363-9.667-3.877-1.463-8.202.488-9.668 4.364-6.142 16.249-21.938 27.166-39.306 27.166-23.167 0-42.015-18.847-42.015-42.014s18.848-42.014 42.015-42.014c17.368 0 33.164 10.917 39.306 27.166 1.465 3.875 5.792 5.828 9.668 4.364 3.874-1.465 5.828-5.793 4.363-9.667-3.218-8.514-8.396-15.942-14.889-21.862h8.765c12.499 0 22.667-10.168 22.667-22.666s-10.168-22.666-22.667-22.666h-263.053l-2.705-15.067h258.408c15.063 0 27.632-11.566 29.884-27.502l19.584-138.588c10.832-1.696 19.146-11.09 19.146-22.391 0-12.502-10.168-22.67-22.666-22.67zm-408.896-56.735h-57.774c-4.227 0-7.666-3.439-7.666-7.666s3.439-7.666 7.666-7.666h57.774zm117.685 102.067 7.039 67.908h-37.761l-12.191-67.908zm59.193 268.23c0 23.167-18.848 42.014-42.014 42.014s-42.014-18.847-42.014-42.014 18.848-42.014 42.014-42.014 42.014 18.847 42.014 42.014zm193.419-72.347c4.228 0 7.667 3.439 7.667 7.666s-3.439 7.666-7.667 7.666h-266.829c-12.203 0-22.824-8.662-25.286-20.608l-51.004-284.107c-.01-.055-.021-.11-.031-.166-.987-4.868-5.31-8.401-10.277-8.401h-1.87v-15.332h1.869c12.204 0 22.826 8.662 25.287 20.608l51.004 284.108c.01.056.021.111.031.167.988 4.868 5.311 8.4 10.277 8.4h266.829zm-268.45-45.067-12.191-67.908h36.623l7.039 67.908zm30.918-150.816h42.002l2.484 67.908h-37.448zm15.634 150.816-7.039-67.908h36.441l2.484 67.908zm79.606 0h-32.71l-2.484-67.908h35.194zm0-82.908h-35.743l-2.484-67.908h38.227zm47.71 82.908h-32.71v-67.908h35.194zm3.033-82.908h-35.743v-67.908h38.227zm44.834 82.908h-32.857l2.484-67.908h36.998zm8.089-82.908h-37.912l2.484-67.908h42.053zm46.309 68.307c-1.196 8.46-7.518 14.601-15.032 14.601h-24.294l6.625-67.908h40.234zm9.653-68.307h-40.89l6.625-67.908h43.861z" fill="#ffffff" data-original="#000000" style="" class=""/></g></g></svg>
