<?xml version="1.0"?>
<svg xmlns="http://www.w3.org/2000/svg" xmlns:xlink="http://www.w3.org/1999/xlink" xmlns:svgjs="http://svgjs.com/svgjs" version="1.1" width="512" height="512" x="0" y="0" viewBox="0 0 512 512" style="enable-background:new 0 0 512 512" xml:space="preserve"><g><path xmlns="http://www.w3.org/2000/svg" d="m275.855469 181.019531h-14.988281v-14.988281h14.988281zm-24.980469 0h-14.988281v-14.988281h14.988281zm0 0" fill="#ffffff" data-original="#000000" style=""/><path xmlns="http://www.w3.org/2000/svg" d="m255.871094 93.890625-155.382813 130.007813h310.761719zm0 19.542969 114.105468 95.472656h-228.21875zm0 0" fill="#ffffff" data-original="#000000" style=""/><path xmlns="http://www.w3.org/2000/svg" d="m486.285156 464.171875v-33.582031l-10.550781-.015625-4.273437-34.074219h-10.722657v-107.941406h10.722657l4.234374-33.757813h20.644532l-232.976563-194.933593v-8.410157h52.804688v-51.457031h-67.789063c0 61.203125-.003906 59.46875-.003906 59.867188l-232.980469 194.933593h20.65625l4.230469 33.757813h10.722656v107.941406h-10.722656l-4.191406 34.074219-10.609375-.644531v33.582031l-25.4101565-.039063-.0703125 48.527344h511.625l.070312-47.792969zm-445.789062-18.921875h430.800781v18.921875h-430.828125zm79.769531-48.75h-10.722656v-107.941406h10.722656l4.234375-33.757813h26.992188l4.234374 33.757813h10.722657v107.941406h-10.722657l-4.214843 34.074219h-27.035157zm222.527344-122.929688h-53.53125l-2.355469-18.769531h58.238281zm2.351562 157.003907h-58.238281l2.351562-19.085938h53.53125zm-14.839843-34.074219h-28.558594v-107.941406h28.558594zm-54.273438-107.941406h10.726562v107.941406h-10.726562l-4.234375 34.074219h-31.855469l-4.230468-34.074219h-10.722657v-107.941406h10.722657l4.234374-33.757813h31.855469zm-109.414062 142.015625 2.335937-19.085938h53.53125l2.347656 19.085938zm14.824218-142.015625h28.554688v107.941406h-28.554688zm41.042969-14.988282h-53.53125l-2.351563-18.769531h58.234376zm137.785156 157.003907-4.25-34.074219h-10.726562v-107.941406h10.726562l4.230469-33.757813h26.996094l4.234375 33.757813h10.722656v107.941406h-10.722656l-4.257813 34.074219zm100.320313 0h-58.238282l2.351563-19.085938h53.53125zm-14.839844-34.074219h-28.558594v-107.941406h28.558594zm12.484375-122.929688h-53.53125l-2.351563-18.769531h58.238282zm-194.867187-258.582031h37.808593v21.480469h-37.808593zm-7.496094 58.152344 199.199218 166.671875h-398.402343zm-146.476563 181.660156-2.355469 18.769531h-53.527343l-2.355469-18.769531zm-43.398437 33.757813h28.558594v107.941406h-28.558594zm-12.484375 122.929687h53.527343l2.328126 19.085938h-58.175782zm443.144531 85.550781h-481.644531l.023437-18.554687h481.648438zm0 0" fill="#ffffff" data-original="#000000" style=""/><path xmlns="http://www.w3.org/2000/svg" d="m442.207031 195.582031h14.988281v-113.917969h-134.6875v14.992188h119.699219zm0 0" fill="#ffffff" data-original="#000000" style=""/><path xmlns="http://www.w3.org/2000/svg" d="m69.539062 96.65625h119.691407v-14.992188h-134.679688v113.910157h14.988281zm0 0" fill="#ffffff" data-original="#000000" style=""/></g></svg>
