<?xml version="1.0" encoding="UTF-8"?>
<svg data-bbox="0 0 802.884 710.172" viewBox="0 0 802.884 710.172" height="710.172" width="802.884" xmlns="http://www.w3.org/2000/svg" data-type="color">
    <g>
        <path fill="#9a073c" d="M633.038 710.172L93.241 520.955l153.49-437.877 556.153 171.547-169.846 455.547z" data-color="1"/>
        <path fill="#2f2e41" d="M731.884 707.625v2h-648v-2h648z" data-color="2"/>
        <path fill="#2f2e41" d="M631.468 709.144l-2.198-1.136c28.546-55.186 13.282-126.853-4.549-177.256a543.265 543.265 0 0 0-46.101-97.297l2.09-1.32a546.042 546.042 0 0 1 46.342 97.79c17.995 50.865 33.366 123.248 4.416 179.219z" data-color="2"/>
        <path fill="#2f2e41" d="M652.637 432.576l2.432.444-16.044 87.81-2.433-.444 16.045-87.81z" data-color="2"/>
        <path fill="#2f2e41" d="M545.943 507.39l82.858 89.042-1.811 1.685-82.859-89.041 1.812-1.685z" data-color="2"/>
        <path fill="#2f2e41" d="M694.902 605.2l2.005 1.45-42.028 58.137-2.005-1.45 42.028-58.137z" data-color="2"/>
        <path fill="#3f3d56" d="M537.618 492.156c0 6.83-5.537 12.367-12.367 12.367-6.83 0-12.367-5.537-12.367-12.367 0-6.83 5.537-12.367 12.367-12.367 6.83 0 12.367 5.537 12.367 12.367z" data-color="3"/>
        <path fill="#3f3d56" d="M592.032 504.523c0 6.83-5.537 12.367-12.367 12.367-6.83 0-12.367-5.537-12.367-12.367 0-6.83 5.537-12.367 12.367-12.367 6.83 0 12.367 5.537 12.367 12.367z" data-color="3"/>
        <path fill="#f2f2f2" d="M567.299 552.754c0 6.83-5.537 12.367-12.367 12.367-6.83 0-12.367-5.537-12.367-12.367 0-6.83 5.537-12.367 12.367-12.367 6.83 0 12.367 5.537 12.367 12.367z" data-color="4"/>
        <path fill="#3f3d56" d="M721.885 583.671c0 6.83-5.537 12.367-12.367 12.367-6.83 0-12.367-5.537-12.367-12.367 0-6.83 5.537-12.367 12.367-12.367 6.83 0 12.367 5.537 12.367 12.367z" data-color="3"/>
        <path fill="#f2f2f2" d="M681.074 597.274c0 6.83-5.537 12.367-12.367 12.367-6.83 0-12.367-5.537-12.367-12.367 0-6.83 5.537-12.367 12.367-12.367 6.83 0 12.367 5.537 12.367 12.367z" data-color="4"/>
        <path fill="#3f3d56" d="M709.518 636.848c0 6.83-5.537 12.367-12.367 12.367-6.83 0-12.367-5.537-12.367-12.367 0-6.83 5.537-12.367 12.367-12.367 6.83 0 12.367 5.537 12.367 12.367z" data-color="3"/>
        <path fill="#3f3d56" d="M579.666 411.772c0 6.83-5.537 12.367-12.367 12.367-6.83 0-12.367-5.537-12.367-12.367 0-6.83 5.537-12.367 12.367-12.367 6.83 0 12.367 5.537 12.367 12.367z" data-color="3"/>
        <path fill="#2f2e41" d="M645.962 554.63l-1.743-1.756c44.11-43.756 51.586-116.649 50.091-170.092a543.266 543.266 0 0 0-14.003-106.751l2.396-.616a546.042 546.042 0 0 1 14.079 107.297c1.509 53.933-6.085 127.539-50.82 171.919z" data-color="2"/>
        <path fill="#2f2e41" d="M751.017 297.913l2.178 1.17-42.228 78.643-2.179-1.17 42.229-78.643z" data-color="2"/>
        <path fill="#2f2e41" d="M626.511 336.362l51.519 110.18-2.242 1.048-51.518-110.18 2.241-1.048z" data-color="2"/>
        <path fill="#2f2e41" d="M738.242 475.181l1.463 1.995-57.847 42.427-1.463-1.995 57.847-42.427z" data-color="2"/>
        <path fill="#f2f2f2" d="M781.385 266.271c0 6.83-5.537 12.367-12.367 12.367-6.83 0-12.367-5.537-12.367-12.367 0-6.83 5.537-12.367 12.367-12.367 6.83 0 12.367 5.537 12.367 12.367z" data-color="4"/>
        <path fill="#3f3d56" d="M623.861 315.511c0 6.83-5.537 12.367-12.367 12.367-6.83 0-12.367-5.537-12.367-12.367 0-6.83 5.537-12.367 12.367-12.367 6.83 0 12.367 5.537 12.367 12.367z" data-color="3"/>
        <path fill="#3f3d56" d="M671.851 343.987c0 6.83-5.537 12.367-12.367 12.367-6.83 0-12.367-5.537-12.367-12.367 0-6.83 5.537-12.367 12.367-12.367 6.83 0 12.367 5.537 12.367 12.367z" data-color="3"/>
        <path fill="#f2f2f2" d="M633.504 382.295c0 6.83-5.537 12.367-12.367 12.367-6.83 0-12.367-5.537-12.367-12.367 0-6.83 5.537-12.367 12.367-12.367 6.83 0 12.367 5.537 12.367 12.367z" data-color="4"/>
        <path fill="#3f3d56" d="M771.131 459.179c0 6.83-5.537 12.367-12.367 12.367-6.83 0-12.367-5.537-12.367-12.367 0-6.83 5.537-12.367 12.367-12.367 6.83 0 12.367 5.537 12.367 12.367z" data-color="3"/>
        <path fill="#3f3d56" d="M728.115 459.596c0 6.83-5.537 12.367-12.367 12.367-6.83 0-12.367-5.537-12.367-12.367 0-6.83 5.537-12.367 12.367-12.367 6.83 0 12.367 5.537 12.367 12.367z" data-color="3"/>
        <path fill="#3f3d56" d="M743.035 505.992c0 6.83-5.537 12.367-12.367 12.367-6.83 0-12.367-5.537-12.367-12.367 0-6.83 5.537-12.367 12.367-12.367 6.83 0 12.367 5.537 12.367 12.367z" data-color="3"/>
        <path fill="#3f3d56" d="M688.557 251.918c0 6.83-5.537 12.367-12.367 12.367-6.83 0-12.367-5.537-12.367-12.367 0-6.83 5.537-12.367 12.367-12.367 6.83 0 12.367 5.537 12.367 12.367z" data-color="3"/>
        <path fill="#2f2e41" d="M284.482 109.044a24.897 24.897 0 0 1-3.093-33.568c-.501.47-.991.958-1.46 1.477a24.9 24.9 0 0 0 36.938 33.399c.47-.519.906-1.056 1.323-1.602a24.897 24.897 0 0 1-33.708.294z" data-color="2"/>
        <path fill="#2f2e41" d="M333.429 63.731c0 28.322-22.96 51.281-51.281 51.281-28.322 0-51.281-22.96-51.281-51.281 0-28.322 22.96-51.281 51.281-51.281 28.322 0 51.281 22.96 51.281 51.281z" data-color="2"/>
        <path fill="#2f2e41" d="M144.014 695.114s-13.635 13.635 0 13.635 26.678-8.893 26.678-8.893z" data-color="2"/>
        <path fill="#2f2e41" d="M342.346 686.568s-3.774 18.91 7.569 11.342 17.255-22.204 17.255-22.204z" data-color="2"/>
        <path fill="#ffb8b8" d="M194.999 243.956l-8.893 20.75-54.542 72.328s-37.349 40.313-16.6 42.685 34.386-37.35 34.386-37.35l64.027-63.435 7.115-29.05z" data-color="5"/>
        <path fill="#2f2e41" d="M222.27 159.772l-8.593 2.406s-33.499 59.25-29.942 71.7 19.564 27.864 26.678 26.678 11.857-100.784 11.857-100.784z" data-color="2"/>
        <path fill="#ffb8b8" d="M249.542 95.745s8.892 36.756 2.37 43.87-20.75 12.45-20.75 12.45l2.372 66.399s27.271-9.486 28.457-10.671 25.492-39.721 25.492-39.721l23.714-22.528s-36.163-17.193-25.492-46.835-36.164-2.964-36.164-2.964z" data-color="5"/>
        <path fill="#ffb8b8" d="M302.305 78.552c0 17.026-13.802 30.828-30.828 30.828s-30.828-13.802-30.828-30.828 13.802-30.828 30.828-30.828 30.828 13.802 30.828 30.828z" data-color="5"/>
        <path fill="#2f2e41" d="M236.498 149.101s-21.935 5.928-23.12 14.228 0 25.493-1.78 29.05-7.113 8.892-4.742 31.42 1.186 36.164 1.186 36.164-120.348 424.48-77.663 436.929 105.527-1.186 104.934-9.486-11.264-172.518-11.264-172.518 62.249 218.168 139.319 167.183 59.877-60.47 52.763-64.028-114.42-172.518-113.826-203.94-1.186-129.833-14.229-144.654c0 0 13.636-45.057 20.157-50.985s22.528-61.656 22.528-61.656-10.078-13.636-18.378-13.636-16.007 2.965-25.492 11.857-44.464 52.17-44.464 52.17-11.264-49.798-5.929-58.098z" data-color="2"/>
        <path fill="#2f2e41" d="M297.265 50.985c0 9.822-11.679 17.785-26.085 17.785s-26.085-7.963-26.085-17.785S256.774 33.2 271.18 33.2s26.085 7.963 26.085 17.785z" data-color="2"/>
        <path fill="#2f2e41" d="M340.544 24.9c0 13.752-11.148 24.9-24.9 24.9-13.752 0-24.9-11.148-24.9-24.9 0-13.752 11.148-24.9 24.9-24.9 13.752 0 24.9 11.148 24.9 24.9z" data-color="2"/>
        <path fill="#2f2e41" d="M333.429 42.685a24.897 24.897 0 0 1-24.807-22.825 25.158 25.158 0 0 0-.093 2.075 24.9 24.9 0 1 0 49.8 0c0-.7-.037-1.39-.093-2.075a24.897 24.897 0 0 1-24.807 22.825z" data-color="2"/>
        <path fill="#3f3d56" d="M122.623 251.002v122.623H0V251.002h122.623z" data-color="3"/>
        <path fill="#f2f2f2" d="M41.942 310.6s15.512-2.216 20.683-16.25 9.603-25.855 18.467-23.64 3.693 30.287 3.693 30.287 18.468-2.216 19.206 4.432c.612 5.505.21 26.707.055 33.84a14.616 14.616 0 0 1-2.548 8.081 10.656 10.656 0 0 1-10.803 4.617 86.239 86.239 0 0 0-12.356-.646 37.668 37.668 0 0 1-20.885-6.002l-15.513-.739z" data-color="4"/>
        <path fill="#9a073c" d="M50.067 300.259v53.925H18.303v-53.925h31.764z" data-color="1"/>
        <path fill="#3f3d56" d="M71.705 280.448a11.045 11.045 0 0 1-3.151-.453l.21-.707a10.461 10.461 0 0 0 13.262-8.072l.726.138a11.167 11.167 0 0 1-11.047 9.094z" data-color="3"/>
        <path fill="#3f3d56" d="M440.769 404.625v122.623H318.146V404.625h122.623z" data-color="3"/>
        <path fill="#f2f2f2" d="M360.087 467.648s15.512 2.216 20.683 16.252 9.603 25.854 18.468 23.638 3.693-30.287 3.693-30.287 18.467 2.216 19.206-4.432c.612-5.504.21-26.707.054-33.84a14.616 14.616 0 0 0-2.547-8.08 10.656 10.656 0 0 0-10.803-4.617 86.239 86.239 0 0 1-12.356.646 37.668 37.668 0 0 0-20.886 6.002l-15.512.738z" data-color="4"/>
        <path fill="#9a073c" d="M368.213 424.066v53.925h-31.764v-53.925h31.764z" data-color="1"/>
        <path fill="#3f3d56" d="M389.851 497.8a11.045 11.045 0 0 0-3.152.453l.21.708a10.461 10.461 0 0 1 13.263 8.071l.725-.137a11.167 11.167 0 0 0-11.046-9.095z" data-color="3"/>
        <path fill="#ffb8b8" d="M332.54 238.621l-2.964 33.2 5.928 99.598s13.636 50.392-7.114 49.206-13.043-52.763-13.043-52.763l-9.485-115.606z" data-color="5"/>
        <path fill="#2f2e41" d="M315.347 148.508l15.414 8.3s20.75 72.327 8.893 85.963-36.164 18.97-37.35 13.635-5.335-45.056-5.335-45.056z" data-color="2"/>
    </g>
</svg>
