<?xml version="1.0" encoding="UTF-8"?>
<svg data-bbox="0 0 864 711.452" viewBox="0 0 864 711.452" height="711.452" width="864" xmlns:xlink="http://www.w3.org/1999/xlink" xmlns="http://www.w3.org/2000/svg" data-type="ugc">
    <g>
        <defs>
            <linearGradient gradientUnits="userSpaceOnUse" y2="535.49" x2="132.793" y1="581.522" x1="132.793" id="efd4c7dd-f5d2-4525-9483-066fb9577f11">
                <stop stop-opacity=".25" stop-color="#808080" offset="0"/>
                <stop stop-opacity=".12" stop-color="#808080" offset=".535"/>
                <stop stop-opacity=".1" stop-color="#808080" offset="1"/>
            </linearGradient>
            <linearGradient xlink:href="#efd4c7dd-f5d2-4525-9483-066fb9577f11" y2="448.271" x2="226.069" y1="494.303" x1="226.069" id="9d82e467-7869-4d6b-8652-d6783719bd0c"/>
            <linearGradient xlink:href="#efd4c7dd-f5d2-4525-9483-066fb9577f11" y2="392.548" x2="314.17" y1="438.58" x1="314.17" id="c266028f-a906-446b-abe6-d8bcbf448d09"/>
            <linearGradient xlink:href="#efd4c7dd-f5d2-4525-9483-066fb9577f11" y2="308.964" x2="405.906" y1="354.996" x1="405.906" id="2776efc1-33cb-41fe-8386-0ddfca9cdb04"/>
            <linearGradient xlink:href="#efd4c7dd-f5d2-4525-9483-066fb9577f11" y2="271.412" x2="499.838" y1="317.444" x1="499.838" id="f4c70a4e-e2ad-4b46-beb1-49ce5d534e42"/>
            <linearGradient xlink:href="#efd4c7dd-f5d2-4525-9483-066fb9577f11" y2="271.412" x2="588.964" y1="317.444" x1="588.964" id="c91ed293-ea0b-4e4d-b5c9-c479f1cb1ba6"/>
            <linearGradient xlink:href="#efd4c7dd-f5d2-4525-9483-066fb9577f11" y2="150.275" x2="682.177" y1="196.307" x1="682.177" id="27566856-2725-4aea-bc2c-e510757f23db"/>
            <linearGradient xlink:href="#efd4c7dd-f5d2-4525-9483-066fb9577f11" y2="43.674" x2="772.147" y1="89.706" x1="772.147" id="d0d03413-56bb-4d8d-9aa9-b430bd785034"/>
            <linearGradient xlink:href="#efd4c7dd-f5d2-4525-9483-066fb9577f11" gradientTransform="rotate(-2.324 4753.151 8983.934)" y2="88.248" x2="1136.239" y1="225.444" x1="1136.239" id="9f7bf637-b76a-4502-bfc1-f408094724e0"/>
            <linearGradient xlink:href="#efd4c7dd-f5d2-4525-9483-066fb9577f11" y2="634.59" x2="274.119" y1="785.987" x1="274.119" id="d90f3f86-be62-4af3-b982-8219220ba0bb"/>
            <linearGradient xlink:href="#efd4c7dd-f5d2-4525-9483-066fb9577f11" y2="416.574" x2="417.515" y1="546.785" x1="417.515" id="dac56239-5163-4b32-8485-469cb47e7ab5"/>
        </defs>
        <path opacity=".2" fill="#f2f2f2" d="M130.535 660.405v-87.218l85.203-87.219 76.352-55.723 79.671-83.584 94.055-37.553h120.613l99.589-121.136 86.31-106.601v579.034H130.535z"/>
        <g opacity=".2">
            <path fill="#9a073c" d="M132.793 558.506v87.218"/>
            <path stroke-miterlimit="10" stroke="#0000ff" fill="none" d="M132.793 558.506v6"/>
            <path stroke-dasharray="10.7455 10.7455" stroke-miterlimit="10" stroke="#0000ff" fill="none" d="M132.793 575.251v59.101"/>
            <path stroke-miterlimit="10" stroke="#0000ff" fill="none" d="M132.793 639.724v6"/>
            <path fill="#9a073c" d="M226.069 471.287v174.437"/>
            <path stroke-miterlimit="10" stroke="#0000ff" fill="none" d="M226.069 471.287v6"/>
            <path stroke-dasharray="12.49516 12.49516" stroke-miterlimit="10" stroke="#0000ff" fill="none" d="M226.069 489.783v143.694"/>
            <path stroke-miterlimit="10" stroke="#0000ff" fill="none" d="M226.069 639.724v6"/>
            <path fill="#9a073c" d="M314.17 415.564v230.16"/>
            <path stroke-miterlimit="10" stroke="#0000ff" fill="none" d="M314.17 415.564v6"/>
            <path stroke-dasharray="11.4821 11.4821" stroke-miterlimit="10" stroke="#0000ff" fill="none" d="M314.17 433.047v200.936"/>
            <path stroke-miterlimit="10" stroke="#0000ff" fill="none" d="M314.17 639.724v6"/>
            <path fill="#9a073c" d="M405.906 331.98v313.744"/>
            <path stroke-miterlimit="10" stroke="#0000ff" fill="none" d="M405.906 331.98v6"/>
            <path stroke-dasharray="12.06978 12.06978" stroke-miterlimit="10" stroke="#0000ff" fill="none" d="M405.906 350.05v283.64"/>
            <path stroke-miterlimit="10" stroke="#0000ff" fill="none" d="M405.906 639.724v6"/>
            <path fill="#9a073c" d="M499.838 294.428v351.296"/>
            <path stroke-miterlimit="10" stroke="#0000ff" fill="none" d="M499.838 294.428v6"/>
            <path stroke-dasharray="11.69989 11.69989" stroke-miterlimit="10" stroke="#0000ff" fill="none" d="M499.838 312.127v321.748"/>
            <path stroke-miterlimit="10" stroke="#0000ff" fill="none" d="M499.838 639.724v6"/>
            <path fill="#9a073c" d="M588.964 294.428v351.296"/>
            <path stroke-miterlimit="10" stroke="#0000ff" fill="none" d="M588.964 294.428v6"/>
            <path stroke-dasharray="11.69989 11.69989" stroke-miterlimit="10" stroke="#0000ff" fill="none" d="M588.964 312.127v321.748"/>
            <path stroke-miterlimit="10" stroke="#0000ff" fill="none" d="M588.964 639.724v6"/>
            <path fill="#9a073c" d="M682.177 173.291v472.433"/>
            <path stroke-miterlimit="10" stroke="#0000ff" fill="none" d="M682.177 173.291v6"/>
            <path stroke-dasharray="11.80599 11.80599" stroke-miterlimit="10" stroke="#0000ff" fill="none" d="M682.177 191.097v442.724"/>
            <path stroke-miterlimit="10" stroke="#0000ff" fill="none" d="M682.177 639.724v6"/>
            <path fill="#9a073c" d="M772.147 66.69v579.034"/>
            <path stroke-miterlimit="10" stroke="#0000ff" fill="none" d="M772.147 66.69v6"/>
            <path stroke-dasharray="12.06456 12.06456" stroke-miterlimit="10" stroke="#0000ff" fill="none" d="M772.147 84.755v548.937"/>
            <path stroke-miterlimit="10" stroke="#0000ff" fill="none" d="M772.147 639.724v6"/>
        </g>
        <path fill="url(#efd4c7dd-f5d2-4525-9483-066fb9577f11)" d="M155.809 558.506c0 12.711-10.305 23.016-23.016 23.016-12.711 0-23.016-10.305-23.016-23.016 0-12.711 10.305-23.016 23.016-23.016 12.711 0 23.016 10.305 23.016 23.016z"/>
        <path fill="url(#9d82e467-7869-4d6b-8652-d6783719bd0c)" d="M249.085 471.287c0 12.711-10.305 23.016-23.016 23.016-12.711 0-23.016-10.305-23.016-23.016 0-12.711 10.305-23.016 23.016-23.016 12.711 0 23.016 10.305 23.016 23.016z"/>
        <path fill="url(#c266028f-a906-446b-abe6-d8bcbf448d09)" d="M337.186 415.564c0 12.711-10.305 23.016-23.016 23.016-12.711 0-23.016-10.305-23.016-23.016 0-12.711 10.305-23.016 23.016-23.016 12.711 0 23.016 10.305 23.016 23.016z"/>
        <path fill="url(#2776efc1-33cb-41fe-8386-0ddfca9cdb04)" d="M428.922 331.98c0 12.711-10.305 23.016-23.016 23.016-12.711 0-23.016-10.305-23.016-23.016 0-12.711 10.305-23.016 23.016-23.016 12.711 0 23.016 10.305 23.016 23.016z"/>
        <path fill="url(#f4c70a4e-e2ad-4b46-beb1-49ce5d534e42)" d="M522.854 294.428c0 12.711-10.305 23.016-23.016 23.016-12.711 0-23.016-10.305-23.016-23.016 0-12.711 10.305-23.016 23.016-23.016 12.711 0 23.016 10.305 23.016 23.016z"/>
        <path fill="url(#c91ed293-ea0b-4e4d-b5c9-c479f1cb1ba6)" d="M611.98 294.428c0 12.711-10.305 23.016-23.016 23.016-12.711 0-23.016-10.305-23.016-23.016 0-12.711 10.305-23.016 23.016-23.016 12.711 0 23.016 10.305 23.016 23.016z"/>
        <path fill="url(#27566856-2725-4aea-bc2c-e510757f23db)" d="M705.193 173.291c0 12.711-10.305 23.016-23.016 23.016-12.711 0-23.016-10.305-23.016-23.016 0-12.711 10.305-23.016 23.016-23.016 12.711 0 23.016 10.305 23.016 23.016z"/>
        <path fill="url(#d0d03413-56bb-4d8d-9aa9-b430bd785034)" d="M795.163 66.69c0 12.711-10.305 23.016-23.016 23.016-12.711 0-23.016-10.305-23.016-23.016 0-12.711 10.305-23.016 23.016-23.016 12.711 0 23.016 10.305 23.016 23.016z"/>
        <path fill="#9a073c" d="M150.964 558.506c0 10.036-8.135 18.171-18.171 18.171s-18.171-8.135-18.171-18.171 8.135-18.171 18.171-18.171 18.171 8.135 18.171 18.171z"/>
        <path fill="#9a073c" d="M244.24 471.287c0 10.036-8.135 18.171-18.171 18.171s-18.171-8.135-18.171-18.171 8.135-18.171 18.171-18.171 18.171 8.135 18.171 18.171z"/>
        <path fill="#9a073c" d="M332.341 415.564c0 10.036-8.135 18.171-18.171 18.171s-18.171-8.135-18.171-18.171 8.135-18.171 18.171-18.171 18.171 8.135 18.171 18.171z"/>
        <path fill="#9a073c" d="M424.077 331.98c0 10.036-8.135 18.171-18.171 18.171s-18.171-8.135-18.171-18.171 8.135-18.171 18.171-18.171 18.171 8.135 18.171 18.171z"/>
        <path fill="#9a073c" d="M518.009 294.428c0 10.036-8.135 18.171-18.171 18.171s-18.171-8.135-18.171-18.171 8.135-18.171 18.171-18.171 18.171 8.135 18.171 18.171z"/>
        <path fill="#9a073c" d="M607.135 294.428c0 10.036-8.135 18.171-18.171 18.171s-18.171-8.135-18.171-18.171 8.135-18.171 18.171-18.171 18.171 8.135 18.171 18.171z"/>
        <path fill="#9a073c" d="M700.348 173.291c0 10.036-8.135 18.171-18.171 18.171s-18.171-8.135-18.171-18.171 8.135-18.171 18.171-18.171 18.171 8.135 18.171 18.171z"/>
        <path fill="#9a073c" d="M790.318 66.69c0 10.036-8.135 18.171-18.171 18.171s-18.171-8.135-18.171-18.171 8.135-18.171 18.171-18.171 18.171 8.135 18.171 18.171z"/>
        <path fill="url(#9f7bf637-b76a-4502-bfc1-f408094724e0)" transform="translate(-168 -94.274)" d="M827.916 268.542c-3.725-2.27-21.514 6.927-27.508 8.381-4.395 1.066-14.175-2.846-19.095-5.015l.088-.873s-2.767-2.544-6.108-2.304c2.768-3.031 4.74-8.786 4.79-14.438l6.047-1.006s-10.27-18.604-20.92-6.838a5.035 5.035 0 0 0-2.322-2.418c-1.939-.784-4.05.584-5.566 2.025s-3.135 3.145-5.227 3.173a.722.722 0 0 1-.439-.099.834.834 0 0 1-.236-.64 12.091 12.091 0 0 0-1.584-5.094c-2.95 2.026-3.634 6.031-3.909 9.6a1.292 1.292 0 0 0 .06.641 1.268 1.268 0 0 0 .62.527c1.868.967 4.102 1.67 6.045.864 2.329-.966 3.453-3.767 5.738-4.832a4.609 4.609 0 0 1 3.999.132c-5.113 8.726.519 13.533 4.374 15.633a11.446 11.446 0 0 0 .69 1.834c-4.22-1.492-10.968-1.41-17.284 9.35l1.919.399-18.245 29.929s-3.479 3.773-2.172 6.142 7.253-.295 7.056-5.13c-.087-2.15 3.965-8.538 8.49-14.97l-2.258 4.426a45.175 45.175 0 0 0 4.613 2.953c-2.992 4.551-5.661 12.335 4.152 19.09l2.613 4.738s1.247-.613 3.066-1.377l.622.877c1.75 2.736.66.932.66.932l12.103 17.062s-15.678 13.409-14.815 23l-2.865.117a3.895 3.895 0 0 0-3.58 4.988s13.837 12.758 17.316 8.984-2.663-5.946-2.663-5.946l-.147-3.626-.256-.157c1.83-4.425 12.672-23.625 14.312-26.446 2.254-3.88-1.078-10.107-4.829-18.5l13.57-.489s2.698 21.37 11.62 25.312l.16-.076-1.583 2.764a3.895 3.895 0 0 0 2.32 5.684s18.163-4.93 16.818-9.883-6.451-.908-6.451-.908l-3.15-1.805-.422.21c-1.835-2.682-14.506-24.258-14.54-26.9-.033-2.539-13.73-5.874-23.525-6.835l-1.176-5.636a19.415 19.415 0 0 0 4.203-.794s-6.535-11.843-5.424-14.31 9.72.817 6.86-9.964l5.995-1.454.024-.24 16.297 6.028a13.029 13.029 0 0 0 12.004-1.555l10.887-7.64c9.818 3.233 11.892-5.327 8.168-7.597z"/>
        <path stroke-width="2" stroke-miterlimit="10" stroke="#47e6b1" fill="none" d="M37.16 0v711.452"/>
        <path stroke-width="2" stroke-miterlimit="10" stroke="#47e6b1" fill="none" d="M0 673.345h864"/>
        <path fill="url(#d90f3f86-be62-4af3-b982-8219220ba0bb)" transform="translate(-168 -94.274)" d="M290.265 772.026l-3.297-5.073 3.605-27.252a60.364 60.364 0 0 0-6.472-8.253 60.662 60.662 0 0 1-.96-10.211 138.446 138.446 0 0 0-4.488-19.205l5.666 1.546 8.24-20.014v-4.71l3.532-2.354s-4.709-7.063-9.418 0c0 0 1.177 4.71 0 7.064s-4.709 10.595-4.709 10.595h-2.997l.642-3.532h-6.158a16.497 16.497 0 0 0-.905-1.177l4.709-10.595-2.207-1.656 8.093-10.117 1.178-21.19c4.68-1.56 5.742-6.22 5.926-9.189a2.007 2.007 0 0 0-2.512-2.049c-10.164 2.605-8.124 7.705-8.124 7.705l-3.531 20.014-4.869 7.65a10.593 10.593 0 0 0-6.03-7.86l2.658-3.322a21.38 21.38 0 0 0-11.718.568c-10.548 4.01-10.527 19.35.007 23.396a10.556 10.556 0 0 0 4.647.759v-1.177c.15 0 .295-.017.443-.023a42.023 42.023 0 0 0-.438 3.554h-.005c-2.354 0-2.354 12.95 1.177 15.305l-1.177 12.95v7.064c2.355 5.886 7.064 5.886 7.064 5.886l3.532 16.482a6.115 6.115 0 0 0 4.136.125l.573 4.584s-10.596 8.24-10.596 20.014l-.386.771-.791-.771-7.064 5.886 9.418 11.773h9.419c2.354-5.887-7.064-7.064-7.064-7.064l-.048-6.05 10.466-12.429a20.358 20.358 0 0 0 2.154 4.554l.09.858-1.083-.225-2.784 8.763 5.357 1.821a19.596 19.596 0 0 0 16.855-2.038c-1.184-6.229-9.756-2.151-9.756-2.151z"/>
        <path fill="url(#dac56239-5163-4b32-8485-469cb47e7ab5)" transform="translate(-168 -94.274)" d="M453.573 494.678s-1.42.655-2.403-1.476l-2.84 1.31-1.473-3.196 1.775-.819-6.596-23.652s.166-5.243-3.657-6.064c0 0-2.075-.766-10.214 2.125a219.358 219.358 0 0 0-8.155 3.068c-1.766-1.596-5.659-5.777-5.74-11.732a8.986 8.986 0 0 0-1.158-4.155l5.01-1.496-.108-.236 14.64-5.6c.654 1.42 7.373-.816 8.85-3.218.676-1.101-.427-1.744-1.819-2.118a10.003 10.003 0 0 0-5.958.305l-17.689 6.345-.206-.449a5.218 5.218 0 0 1-2.276.876l-1-.69 6.694-10.68c1.378.74 5.399-5.088 5.132-7.895-.122-1.286-1.39-1.137-2.727-.597a10.004 10.004 0 0 0-4.575 3.828l-8.341 12.71-1.673-1.154-1.188 3.199a23.724 23.724 0 0 0-5.505-2.312l-2.377-5.157a8.59 8.59 0 0 0 .754-13.45 26.983 26.983 0 0 1 4.86-1.459s-13.977-11.64-20.757 3.54c0 0-.008.158-.013.428-.276.128-.538.256-.76.34l-5.745 2.188a8.28 8.28 0 0 0-1.222.542 7.786 7.786 0 0 0-1.618 1.369 4.306 4.306 0 0 0-.902 1.183 3.027 3.027 0 0 0 .508 2.964 8.919 8.919 0 0 0 2.417 2.001l2.431 1.571a3.08 3.08 0 0 1 1.602 1.81c.218-1.793-.54-3.541-1.233-5.21a3.814 3.814 0 0 1-.404-2.5 3.587 3.587 0 0 1 1.985-1.903 21.456 21.456 0 0 1 3.092-1.3c.432 3.9 2.034 9.787 7.693 10.704l1.796 3.896c-1.08 1.661-1.294 4.595 1.91 9.75l7.857 17.043s.245.043.672.102c-.51 2.567-1.138 9.648 6.618 12.171l-3.574 29.786s-14.166 18.469-11.608 22.305h.84l-.91 2.913-3.257-.692-1.462 6.884 19.123 4.061s1.902-5.192-6.675-6.214c0 0-1.53-.325-1.042-2.62l-2.077-.44 1.215-3.892h.022s12.225-13.353 14.783-24.862c1.956-8.803 6.153-25.076 8.02-32.247l10.906-5.027s7.09 19.12 8.4 21.96l.355-.163 1.473 3.195-2.13.982 2.945 6.392 17.754-8.183s-1.58-5.3-9.065-.988z"/>
    </g>
</svg>
